<?xml version="1.0" encoding="utf-8"?>
<!-- Generator: Adobe Illustrator 16.2.0, SVG Export Plug-In . SVG Version: 6.00 Build 0)  -->
<!DOCTYPE svg PUBLIC "-//W3C//DTD SVG 1.1//EN" "http://www.w3.org/Graphics/SVG/1.1/DTD/svg11.dtd">
<svg version="1.1" id="Layer_1" xmlns="http://www.w3.org/2000/svg" xmlns:xlink="http://www.w3.org/1999/xlink" x="0px" y="0px"
	 width="290px" height="842px" viewBox="0 0 290 842" enable-background="new 0 0 290 842" xml:space="preserve">
<g>
	<g>
		<g id="XMLID_174_">
			<g>
				<g>
					<path fill="#010101" d="M242.4,56.2c-6.1,0-13.6-2.2-14.8-4.3c-0.1-0.2-0.3-0.7-0.5-1.1c-0.8-0.1-2.7,0-3.8,0.1c0,0,0,0-0.1,0
						c-1,0-1.6-0.6-1.6-1.3s0.7-1.3,1.6-1.3h1.8c0.4,0,0.8,0.3,0.8,0.8c0.7,0,1.4,0,1.7,0.1c0,0,0.8,0.2,1,0.8
						c0.1,0.3,0.3,0.9,0.4,1c0.9,1.5,10.1,4.2,16.1,3.2c0,0,0-0.1,0.1-0.1c0.2-0.3,0.6-0.9,1.5-1c0.5,0,0.9,0.3,0.9,0.8
						s-0.3,0.9-0.8,0.9c0,0-0.1,0.1-0.1,0.2c-0.1,0.2-0.3,0.6-0.8,0.8c-0.1,0-0.1,0.1-0.2,0.1C244.7,56.1,243.6,56.2,242.4,56.2z"/>
				</g>
			</g>
		</g>
		<g id="XMLID_173_">
			<g>
				<g>
					<path fill="#010101" d="M250.9,56.2c-1.2,0-2.2-0.1-3.2-0.3c-0.1,0-0.1,0-0.2-0.1c-0.4-0.2-0.6-0.5-0.8-0.8
						c0-0.1-0.1-0.2-0.1-0.2c-0.5,0-0.8-0.4-0.8-0.9s0.4-0.8,0.9-0.8c0.9,0,1.3,0.7,1.5,1v0.1c6,1,15.2-1.6,16.1-3.2
						c0.1-0.1,0.3-0.7,0.4-1c0.2-0.6,0.9-0.8,1-0.8c0.4-0.1,1.1-0.2,1.7-0.1c0-0.4,0.4-0.8,0.8-0.8h1.8c1,0,1.6,0.6,1.6,1.3
						s-0.7,1.3-1.6,1.3c0,0,0,0-0.1,0c-1.1-0.1-3-0.2-3.8-0.1c-0.1,0.4-0.3,0.9-0.5,1.1C264.5,54.1,256.8,56.2,250.9,56.2z"/>
				</g>
			</g>
		</g>
	</g>
	<g>
		<g id="XMLID_172_">
			<g>
				<g>
					<path fill="#010101" d="M174.6,56.2c-6.1,0-13.6-2.2-14.8-4.3c-0.1-0.2-0.3-0.7-0.5-1.1c-0.8-0.1-2.7,0-3.8,0.1c0,0,0,0-0.1,0
						c-1,0-1.6-0.6-1.6-1.3s0.7-1.3,1.6-1.3h1.8c0.4,0,0.8,0.3,0.8,0.8c0.7,0,1.4,0,1.7,0.1c0.2,0,0.8,0.3,1,0.8
						c0.1,0.3,0.3,0.9,0.4,1c0.9,1.5,10.1,4.2,16.1,3.2c0,0,0-0.1,0.1-0.1c0.2-0.3,0.6-0.9,1.5-1c0.5,0,0.9,0.3,0.9,0.8
						s-0.3,0.9-0.8,0.9c0,0-0.1,0.1-0.1,0.2c-0.1,0.2-0.3,0.6-0.8,0.8c-0.1,0-0.1,0.1-0.2,0.1C176.8,56.1,175.7,56.2,174.6,56.2z"/>
				</g>
			</g>
		</g>
		<g id="XMLID_171_">
			<g>
				<g>
					<path fill="#010101" d="M183,56.2c-1.2,0-2.2-0.1-3.2-0.3c-0.1,0-0.1,0-0.2-0.1c-0.4-0.2-0.6-0.5-0.8-0.8
						c0-0.1-0.1-0.2-0.1-0.2c-0.5,0-0.8-0.4-0.8-0.9s0.4-0.8,0.9-0.8c0.9,0,1.3,0.7,1.5,1v0.1c6,1,15.2-1.6,16.1-3.2
						c0.1-0.1,0.3-0.7,0.4-1c0.1-0.6,0.9-0.8,1-0.8c0.4-0.1,1.1-0.1,1.7-0.1c0-0.4,0.4-0.8,0.8-0.8h1.8c1,0,1.6,0.6,1.6,1.3
						S203,51,202,51c0,0,0,0-0.1,0c-1.1-0.1-3-0.2-3.8-0.1c-0.1,0.4-0.3,0.9-0.5,1.1C196.6,54.1,189,56.2,183,56.2z"/>
				</g>
			</g>
		</g>
	</g>
	<g>
		<g id="XMLID_170_">
			<g>
				<g>
					<path fill="#010101" d="M106.7,56.2c-6.1,0-13.6-2.2-14.8-4.3c-0.1-0.2-0.3-0.7-0.5-1.1c-0.8-0.1-2.7,0-3.8,0.1c0,0,0,0-0.1,0
						c-1,0-1.6-0.6-1.6-1.3s0.7-1.3,1.6-1.3h1.8c0.4,0,0.8,0.3,0.8,0.8c0.7,0,1.4,0,1.7,0.1c0,0,0.8,0.2,1,0.8
						c0.1,0.3,0.3,0.9,0.4,1c0.9,1.5,10.1,4.2,16.1,3.2c0,0,0-0.1,0.1-0.1c0.2-0.3,0.6-0.9,1.5-1c0.5,0,0.9,0.3,0.9,0.8
						s-0.3,0.9-0.8,0.9c0,0-0.1,0.1-0.1,0.2c-0.1,0.2-0.3,0.6-0.8,0.8c-0.1,0-0.1,0.1-0.2,0.1C108.9,56.1,107.8,56.2,106.7,56.2z"/>
				</g>
			</g>
		</g>
		<g id="XMLID_169_">
			<g>
				<g>
					<path fill="#010101" d="M115.1,56.2c-1.2,0-2.2-0.1-3.2-0.3c-0.1,0-0.1,0-0.2-0.1c-0.4-0.2-0.6-0.5-0.8-0.8
						c0-0.1-0.1-0.2-0.1-0.2c-0.5,0-0.8-0.4-0.8-0.9s0.4-0.8,0.9-0.8c0.9,0,1.3,0.7,1.5,1v0.1c6,1,15.2-1.6,16.1-3.2
						c0.1-0.1,0.3-0.7,0.4-1c0.1-0.5,0.8-0.8,1-0.8c0.4-0.1,1.1-0.1,1.7-0.1c0-0.4,0.4-0.8,0.8-0.8h1.8c1,0,1.6,0.6,1.6,1.3
						s-0.7,1.3-1.6,1.3c0,0,0,0-0.1,0c-1.1-0.1-3-0.2-3.8-0.1c-0.1,0.4-0.3,0.9-0.5,1.1C128.7,54.1,121.1,56.2,115.1,56.2z"/>
				</g>
			</g>
		</g>
	</g>
	<g>
		<g id="XMLID_168_">
			<g>
				<g>
					<path fill="#010101" d="M38.8,56.2C32.7,56.2,25.2,54,24,52c-0.1-0.2-0.3-0.7-0.5-1.1c-0.8-0.1-2.7,0-3.8,0.1c0,0,0,0-0.1,0
						c-1,0-1.6-0.6-1.6-1.3s0.7-1.3,1.6-1.3h1.8c0.4,0,0.8,0.3,0.8,0.8c0.7,0,1.4,0,1.7,0.1c0,0,0.8,0.2,1,0.8
						c0.1,0.3,0.3,0.9,0.4,1c0.9,1.5,10.1,4.2,16.1,3.2c0,0,0-0.1,0.1-0.1c0.2-0.3,0.6-0.9,1.5-1c0.5,0,0.9,0.3,0.9,0.8
						s-0.3,0.9-0.8,0.9c0,0-0.1,0.1-0.1,0.2c-0.1,0.2-0.3,0.6-0.8,0.8c-0.1,0-0.1,0.1-0.2,0.1C41,56.1,39.9,56.2,38.8,56.2z"/>
				</g>
			</g>
		</g>
		<g id="XMLID_167_">
			<g>
				<g>
					<path fill="#010101" d="M47.2,56.2c-1.2,0-2.2-0.1-3.2-0.3c-0.1,0-0.1,0-0.2-0.1c-0.4-0.2-0.6-0.5-0.8-0.8
						c0-0.1-0.1-0.2-0.1-0.2c-0.5,0-0.8-0.4-0.8-0.9s0.4-0.8,0.9-0.8c0.9,0,1.3,0.7,1.5,1v0.1c6,1,15.2-1.6,16.1-3.2
						c0.1-0.1,0.3-0.7,0.4-1c0.1-0.5,0.8-0.8,1-0.8c0.4-0.1,1.1-0.1,1.7-0.1c0-0.4,0.4-0.8,0.8-0.8h1.8c1,0,1.6,0.5,1.6,1.3
						c0,0.8-0.7,1.3-1.6,1.3c0,0,0,0-0.1,0c-1.1-0.1-3-0.2-3.8-0.1c-0.1,0.4-0.3,0.9-0.5,1.1C60.8,54.1,53.2,56.2,47.2,56.2z"/>
				</g>
			</g>
		</g>
	</g>
	<rect x="9.9" y="35.3" fill="#9C9EA1" width="270.7" height="9.9"/>
	<polygon fill="#010101" points="230.7,17.9 230.7,16 222.9,18.1 222.9,11.6 222.1,11.6 222.1,17.9 203.4,17.9 203.4,11.6 
		202.6,11.6 202.6,18 194.9,16 194.9,17.9 191.1,17.9 191.1,18.8 194.9,18.8 194.9,20.7 202.6,18.6 202.6,104.5 203.4,104.5 
		203.4,18.8 222.1,18.8 222.1,104.5 222.9,104.5 222.9,18.6 230.7,20.7 230.7,18.8 280.9,18.8 280.9,17.9 	"/>
	<g>
		<path fill="#231F20" d="M238.2,13.2v-3h-5.3V8.7l4.8-7.3h2.6v7.2h1.5v1.6h-1.5v3H238.2z M238.2,8.5V5.3c0-0.7,0-1.4,0.1-2h-0.1
			c-0.4,0.8-0.7,1.4-1.1,2L235,8.5l0,0H238.2z"/>
		<path fill="#231F20" d="M251.1,1.4v1.5l-5,10.3h-2.3l5-10l0,0h-5.6V1.4H251.1z"/>
		<path fill="#231F20" d="M254.4,4.3h2.8l1.3,3.9c0.2,0.6,0.5,1.5,0.7,2.3l0,0c0.2-0.7,0.6-1.7,0.9-2.7l1.2-3.5h2.8l0.6,8.9h-2.1
			l-0.2-3.9c0-0.9-0.1-2-0.1-3.1h-0.1c-0.3,1.1-0.5,1.5-0.9,2.9l-1.5,4h-1.6l-1.3-3.9c-0.3-0.9-0.6-2.1-0.8-2.9H256
			c0,1.1-0.1,2.3-0.1,3.2l-0.2,3.8h-2L254.4,4.3z"/>
		<path fill="#231F20" d="M266.9,4.3h2.8l1.3,3.9c0.2,0.6,0.5,1.5,0.7,2.3l0,0c0.2-0.7,0.6-1.7,0.9-2.7l1.2-3.5h2.8l0.6,8.9h-2.1
			l-0.2-3.9c0-0.9-0.1-2-0.1-3.1l0,0c-0.3,1.1-0.5,1.5-0.9,2.9l-1.5,4h-1.5l-1.3-3.9c-0.3-0.9-0.6-2.1-0.8-2.9h-0.1
			c0,1.1-0.1,2.3-0.1,3.2l-0.2,3.8h-2L266.9,4.3z"/>
	</g>
	<g>
		<g>
			<path fill="#187D41" d="M63.6,84.9c0-0.1,0-0.1,0-0.2c-0.1-0.1-0.1-0.1-0.2-0.2c-4.5-4.3-13.2-7.8-19-5.6
				c-0.6,0.6-0.6,1.3-1.5,1.4l0,0c-1-0.1-0.9-0.8-1.5-1.4c-5.9-2.3-14.8,1.6-19.2,6.1l0,0H19v274.6h48.2V85L63.6,84.9L63.6,84.9z"/>
			<path fill="#211F1F" d="M67.2,360.2H19c-0.3,0-0.6-0.3-0.6-0.6V84.9c0-0.3,0.3-0.6,0.6-0.6h3.2c3.5-3.4,9.8-6.8,15.6-6.8
				c1.5,0,2.9,0.3,4.2,0.7c0.1,0,0.2,0.1,0.2,0.1c0.2,0.3,0.4,0.5,0.5,0.7c0.2,0.3,0.3,0.4,0.5,0.5c0.3-0.1,0.4-0.2,0.6-0.5
				c0.1-0.2,0.3-0.4,0.5-0.7c0.1-0.1,0.1-0.1,0.2-0.1c1.3-0.5,2.6-0.7,4.2-0.7c5.8,0,12.1,3.4,15.4,6.6l0.2,0.2h3.2
				c0.3,0,0.6,0.3,0.6,0.6v274.6C67.8,360,67.5,360.2,67.2,360.2z M19.6,359h47V85.6h-2.9c-0.2,0-0.4-0.1-0.5-0.3
				c0-0.1-0.1-0.1-0.1-0.2L63.1,85c-3.1-3-9-6.2-14.5-6.2c-1.4,0-2.5,0.2-3.6,0.6c-0.1,0.1-0.2,0.2-0.3,0.4c-0.3,0.4-0.6,1-1.5,1.1
				c-0.1,0-0.1,0-0.2,0c-1-0.1-1.3-0.7-1.5-1.1c-0.1-0.1-0.2-0.3-0.3-0.4c-1.1-0.4-2.2-0.6-3.6-0.6c-5.5,0-11.6,3.3-14.8,6.5l0,0
				c-0.1,0.1-0.3,0.2-0.4,0.2h-2.8L19.6,359L19.6,359z"/>
		</g>
		<g>
			<g>
				<rect x="40.8" y="79" fill="#211F1F" width="1.3" height="280.6"/>
			</g>
			<g>
				<rect x="44.2" y="79" fill="#211F1F" width="1.3" height="280.6"/>
			</g>
		</g>
		<g>
			<g>
				<rect x="21.8" y="84.9" fill="#211F1F" width="1.3" height="274.6"/>
			</g>
			<g>
				<rect x="63.2" y="84.9" fill="#211F1F" width="1.3" height="274.6"/>
			</g>
		</g>
	</g>
	<g>
		<g>
			<path fill="#187D41" d="M131.5,84.9c0-0.1,0-0.1,0-0.2c-0.1-0.1-0.1-0.1-0.2-0.2c-4.5-4.4-13.2-7.9-18.9-5.7
				c-0.6,0.6-0.6,0.1-1.5,0.2l0,0c-1-0.1-0.9,0.4-1.5-0.2c-5.9-2.3-14.8,1.6-19.2,6.1l0,0h-3.4v274.6h48.2V84.9H131.5L131.5,84.9z"
				/>
			<path fill="#211F1F" d="M135.1,360.2H86.8c-0.3,0-0.6-0.3-0.6-0.6V84.9c0-0.3,0.3-0.6,0.6-0.6H90c3.5-3.4,9.8-6.8,15.6-6.8
				c1.5,0,2.9,0.3,4.2,0.7c0.1,0,0.2,0.1,0.2,0.1l0.1,0.1l0,0c0.2,0,0.5-0.1,0.9-0.1c0.5,0,0.8,0,0.9,0.1l0,0c0,0,0.1,0,0.1-0.1
				c0.1-0.1,0.1-0.1,0.2-0.1c1.3-0.5,2.6-0.7,4.2-0.7c5.8,0,12.1,3.4,15.4,6.6l0.2,0.2l0,0h3.2c0.3,0,0.6,0.3,0.6,0.6v274.6
				C135.7,360,135.4,360.2,135.1,360.2z M87.5,359h46.9V85.6h-2.9c-0.2,0-0.4-0.1-0.5-0.3c0-0.1-0.1-0.1-0.1-0.2l-0.1-0.1
				c-3.1-3-9-6.2-14.5-6.2c-1.4,0-2.5,0.2-3.6,0.6c-0.2,0.2-0.5,0.4-0.8,0.4c-0.1,0-0.3,0-0.4-0.1c-0.2,0-0.3-0.1-0.6,0
				c-0.1,0-0.1,0-0.2,0c-0.3,0-0.4,0-0.6,0c-0.1,0-0.2,0.1-0.4,0.1c-0.3,0-0.6-0.2-0.8-0.4c-1.1-0.4-2.3-0.6-3.6-0.6
				c-5.5,0-11.6,3.3-14.8,6.5c-0.1,0.1-0.3,0.2-0.5,0.2h-2.8L87.5,359L87.5,359z"/>
		</g>
		<g>
			<g>
				<rect x="108.7" y="79" fill="#211F1F" width="1.3" height="280.6"/>
			</g>
			<g>
				<rect x="112.1" y="79" fill="#211F1F" width="1.3" height="280.6"/>
			</g>
		</g>
		<g>
			<g>
				<rect x="89.7" y="84.9" fill="#211F1F" width="1.3" height="274.6"/>
			</g>
			<g>
				<rect x="131" y="84.9" fill="#211F1F" width="1.3" height="274.6"/>
			</g>
		</g>
	</g>
	<g>
		<g>
			<path fill="#187D41" d="M199.4,84.9c0-0.1,0-0.1,0-0.2c-0.1-0.1-0.1-0.1-0.2-0.2c-4.5-4.4-13.2-7.9-18.9-5.7
				c-0.6,0.6-0.6,0.1-1.5,0.2l0,0c-1-0.1-0.9,0.4-1.5-0.2c-5.9-2.3-14.8,1.6-19.2,6.1l0,0h-3.5v274.6h48.2V84.9H199.4L199.4,84.9z"
				/>
			<path fill="#211F1F" d="M203,360.2h-48.3c-0.3,0-0.6-0.3-0.6-0.6V84.9c0-0.3,0.3-0.6,0.6-0.6h3.2c3.4-3.4,9.8-6.8,15.6-6.8
				c1.5,0,2.9,0.3,4.2,0.7c0.1,0,0.2,0.1,0.2,0.1l0.1,0.1l0,0c0.2,0,0.5-0.1,0.9-0.1c0.5-0.1,0.8,0,0.9,0.1l0,0c0,0,0.1,0,0.1-0.1
				c0.1-0.1,0.1-0.1,0.2-0.1c1.3-0.5,2.6-0.7,4.2-0.7c5.8,0,12.1,3.4,15.4,6.6l0.2,0.2l0,0h3.2c0.3,0,0.6,0.3,0.6,0.6v274.6
				C203.6,360,203.3,360.2,203,360.2z M155.4,359h47V85.6h-2.9c-0.2,0-0.4-0.1-0.5-0.2c0-0.1-0.1-0.1-0.1-0.2l-0.1-0.1
				c-3.1-3-9-6.2-14.5-6.2c-1.4,0-2.5,0.2-3.6,0.6c-0.2,0.2-0.5,0.4-0.8,0.4c-0.1,0-0.3,0-0.4-0.1c-0.2,0-0.3-0.1-0.6,0
				c-0.1,0-0.1,0-0.2,0c-0.3,0-0.4,0-0.6,0c-0.1,0-0.2,0.1-0.4,0.1c-0.3,0-0.6-0.2-0.8-0.4c-1.1-0.4-2.3-0.6-3.6-0.6
				c-5.5,0-11.6,3.3-14.8,6.5c-0.1,0.1-0.3,0.2-0.5,0.2h-2.8V359L155.4,359z"/>
		</g>
		<g>
			<g>
				<rect x="176.6" y="79" fill="#211F1F" width="1.3" height="280.6"/>
			</g>
			<g>
				<rect x="180" y="79" fill="#211F1F" width="1.3" height="280.6"/>
			</g>
		</g>
		<g>
			<g>
				<rect x="157.5" y="84.9" fill="#211F1F" width="1.3" height="274.6"/>
			</g>
			<g>
				<rect x="198.9" y="84.9" fill="#211F1F" width="1.3" height="274.6"/>
			</g>
		</g>
	</g>
	<g>
		<g>
			<path fill="#187D41" d="M267.3,84.9c0-0.1,0-0.1,0-0.2c-0.1-0.1-0.1-0.1-0.2-0.2c-4.5-4.4-13.2-7.9-18.9-5.7
				c-0.6,0.6-0.6,0.1-1.5,0.2l0,0c-1-0.1-0.9,0.4-1.5-0.2c-5.9-2.3-14.8,1.6-19.2,6.1l0,0h-3.4v274.6h48.2V84.9H267.3L267.3,84.9z"
				/>
			<path fill="#211F1F" d="M270.9,360.2h-48.2c-0.3,0-0.6-0.3-0.6-0.6V84.9c0-0.3,0.3-0.6,0.6-0.6h3.2c3.5-3.4,9.8-6.8,15.6-6.8
				c1.5,0,2.9,0.3,4.2,0.7c0.1,0,0.2,0.1,0.2,0.1l0.1,0.1l0,0c0.2,0,0.5-0.1,0.9-0.1c0.5,0,0.8,0,0.9,0.1l0,0c0,0,0,0,0.1-0.1
				c0.1-0.1,0.1-0.1,0.2-0.1c1.3-0.5,2.6-0.7,4.2-0.7c5.8,0,12.1,3.4,15.4,6.6l0.2,0.2h3.2c0.3,0,0.6,0.3,0.6,0.6v274.6
				C271.4,360,271.2,360.2,270.9,360.2z M223.2,359h47V85.6h-2.9c-0.2,0-0.4-0.1-0.5-0.3c0-0.1-0.1-0.1-0.1-0.2l-0.1-0.1
				c-3.1-3-9-6.2-14.5-6.2c-1.4,0-2.5,0.2-3.6,0.6c-0.2,0.2-0.5,0.4-0.8,0.4c-0.1,0-0.3,0-0.4-0.1c-0.2,0-0.3-0.1-0.6,0
				c-0.1,0-0.1,0-0.2,0c-0.3,0-0.4,0-0.6,0c-0.1,0-0.2,0.1-0.4,0.1c-0.3,0-0.6-0.2-0.8-0.4c-1.1-0.4-2.3-0.6-3.6-0.6
				c-5.5,0-11.6,3.3-14.8,6.5l0,0c-0.1,0.1-0.3,0.2-0.4,0.2h-2.8L223.2,359L223.2,359z"/>
		</g>
		<g>
			<g>
				<rect x="244.5" y="79" fill="#211F1F" width="1.3" height="280.6"/>
			</g>
			<g>
				<rect x="247.9" y="79" fill="#211F1F" width="1.3" height="280.6"/>
			</g>
		</g>
		<g>
			<g>
				<rect x="225.4" y="84.9" fill="#211F1F" width="1.3" height="274.6"/>
			</g>
			<g>
				<rect x="266.8" y="84.9" fill="#211F1F" width="1.3" height="274.6"/>
			</g>
		</g>
	</g>
	<g>
		<path fill="#010101" d="M88.2,380.3c0,3.3-2.3,4.7-4.5,4.7c-2.5,0-4.4-1.7-4.4-4.5c0-2.9,1.9-4.7,4.5-4.7
			C86.5,375.7,88.2,377.6,88.2,380.3z M81.5,380.4c0,1.7,0.9,3,2.2,3c1.3,0,2.1-1.3,2.1-3c0-1.4-0.6-3-2.1-3
			C82.1,377.4,81.5,378.9,81.5,380.4z"/>
		<path fill="#010101" d="M97.4,375.9v7.3h1l-0.1,4.4h-1.7l-0.1-2.8h-5.8l-0.1,2.8h-1.7l-0.1-4.4l0.8-0.1c0.4-0.6,0.7-1.2,0.9-1.8
			c0.3-1.1,0.5-2.1,0.5-3.2v-2.2L97.4,375.9L97.4,375.9z M92.8,378.8c0,1-0.1,1.9-0.4,2.7c-0.2,0.6-0.4,1.1-0.7,1.5h3.5v-5.5h-2.4
			V378.8z"/>
		<path fill="#010101" d="M102.3,375.9v3.4h3.4v-3.4h2.2v8.9h-2.2V381h-3.4v3.8h-2.2v-8.9H102.3L102.3,375.9z"/>
		<path fill="#010101" d="M118.8,380.3c0,3.3-2.3,4.7-4.5,4.7c-2.5,0-4.4-1.7-4.4-4.5c0-2.9,1.9-4.7,4.5-4.7
			C117,375.7,118.8,377.6,118.8,380.3z M112.1,380.4c0,1.7,0.9,3,2.2,3c1.3,0,2.1-1.3,2.1-3c0-1.4-0.6-3-2.1-3
			C112.7,377.4,112.1,378.9,112.1,380.4z"/>
		<path fill="#010101" d="M127.1,384.5c-0.5,0.2-1.4,0.5-2.5,0.5c-2.8,0-4.5-1.7-4.5-4.5c0-2.6,1.8-4.7,4.9-4.7
			c0.8,0,1.6,0.2,2.1,0.4l-0.4,1.6c-0.4-0.2-0.9-0.4-1.7-0.4c-1.7,0-2.7,1.3-2.7,2.9c0,1.8,1.2,2.9,2.7,2.9c0.8,0,1.4-0.2,1.7-0.4
			L127.1,384.5z"/>
		<path fill="#010101" d="M135.6,375.9v1.7H133v7.2h-2.2v-7.2h-2.6v-1.7H135.6z"/>
		<path fill="#010101" d="M145.1,380.3c0,3.3-2.3,4.7-4.5,4.7c-2.5,0-4.4-1.7-4.4-4.5c0-2.9,1.9-4.7,4.5-4.7
			C143.3,375.7,145.1,377.6,145.1,380.3z M138.4,380.4c0,1.7,0.9,3,2.2,3c1.3,0,2.1-1.3,2.1-3c0-1.4-0.6-3-2.1-3
			S138.4,378.9,138.4,380.4z"/>
		<path fill="#010101" d="M146.9,378.9c0-1.2,0-2.1-0.1-2.9h1.9l0.1,1.4l0,0c0.7-1,1.6-1.5,3-1.5c2,0,3.8,1.7,3.8,4.5
			c0,3.2-2,4.7-4.1,4.7c-1.1,0-2-0.5-2.5-1.2l0,0v4.5h-2.2L146.9,378.9L146.9,378.9z M149.2,381c0,0.2,0,0.4,0.1,0.6
			c0.2,0.9,1.1,1.5,1.9,1.5c1.5,0,2.2-1.2,2.2-2.9c0-1.5-0.8-2.8-2.2-2.8c-1,0-1.7,0.7-2,1.6c-0.1,0.2-0.1,0.4-0.1,0.6L149.2,381
			L149.2,381z"/>
		<path fill="#010101" d="M166,380.3c0,3.3-2.3,4.7-4.5,4.7c-2.5,0-4.4-1.7-4.4-4.5c0-2.9,1.9-4.7,4.5-4.7
			C164.2,375.7,166,377.6,166,380.3z M159.4,380.4c0,1.7,0.9,3,2.2,3c1.3,0,2.1-1.3,2.1-3c0-1.4-0.6-3-2.1-3
			C160,377.4,159.4,378.9,159.4,380.4z"/>
		<path fill="#010101" d="M170.1,375.9v3.4h3.4v-3.4h2.2v8.9h-2.2V381h-3.4v3.8h-2.2v-8.9H170.1L170.1,375.9z"/>
		<path fill="#010101" d="M180.4,375.9v3.4h3.4v-3.4h2.2v8.9h-2.2V381h-3.4v3.8h-2.2v-8.9H180.4L180.4,375.9z"/>
		<path fill="#010101" d="M195.6,384.8h-2.2v-3.5h-0.9c-0.6,0-1.1,0.2-1.4,0.6c-0.6,0.5-0.8,1.5-1.1,2.2c-0.1,0.3-0.2,0.5-0.4,0.8
			h-2.4c0.2-0.3,0.4-0.6,0.6-1c0.4-0.8,0.7-1.9,1.4-2.5c0.3-0.3,0.6-0.5,1.1-0.6v-0.1c-1.1-0.1-2.3-0.8-2.3-2.2c0-1.1,0.6-1.6,1.4-2
			c0.8-0.4,1.9-0.6,3.1-0.6c1.3,0,2.3,0.1,3.2,0.2V384.8L195.6,384.8z M193.4,377.3c-0.3-0.1-0.6-0.1-1.1-0.1c-1,0-2,0.4-2,1.4
			c0,1,1.1,1.4,2,1.4c0.5,0,0.8,0,1.1,0V377.3z"/>
		<path fill="#010101" d="M205.3,384.8h-2.2v-3.5h-0.9c-0.6,0-1.1,0.2-1.4,0.6c-0.6,0.5-0.8,1.5-1.1,2.2c-0.1,0.3-0.2,0.5-0.4,0.8
			H197c0.2-0.3,0.4-0.6,0.6-1c0.4-0.8,0.7-1.9,1.4-2.5c0.3-0.3,0.6-0.5,1.1-0.6v-0.1c-1.1-0.1-2.3-0.8-2.3-2.2c0-1.1,0.6-1.6,1.4-2
			c0.8-0.4,1.9-0.6,3.1-0.6c1.3,0,2.3,0.1,3.2,0.2V384.8L205.3,384.8z M203.1,377.3c-0.3-0.1-0.6-0.1-1.1-0.1c-1,0-2,0.4-2,1.4
			c0,1,1.1,1.4,2,1.4c0.5,0,0.8,0,1.1,0V377.3z"/>
	</g>
	<g>
		<rect x="9.9" y="149.5" fill="#9C9EA1" width="270.7" height="16.1"/>
		<path fill="#211F1F" d="M280.5,148.9H9.9c-0.3,0-0.6,0.3-0.6,0.6v16.1c0,0.3,0.3,0.6,0.6,0.6h270.7c0.3,0,0.6-0.3,0.6-0.6v-16.1
			C281.1,149.2,280.8,148.9,280.5,148.9z M280,150.1v2.8H10.5v-2.8H280z M280,155.2v4.6H10.5v-4.6H280z M10.5,165v-2.8H280v2.8H10.5
			z"/>
	</g>
	<g>
		<rect x="9.9" y="300.7" fill="#9C9EA1" width="270.7" height="16.1"/>
		<path fill="#211F1F" d="M280.5,300.1H9.9c-0.3,0-0.6,0.3-0.6,0.6v16.1c0,0.3,0.3,0.6,0.6,0.6h270.7c0.3,0,0.6-0.3,0.6-0.6v-16.1
			C281.1,300.4,280.8,300.1,280.5,300.1z M280,301.3v2.8H10.5v-2.8H280z M280,306.4v4.6H10.5v-4.6H280z M10.5,316.2v-2.8H280v2.8
			H10.5z"/>
	</g>
	<g>
		<g>
			<g>
				<path fill="#187D41" d="M63.6,84.9c0-0.1,0-0.1,0-0.2c-0.1-0.1-0.1-0.1-0.2-0.2c-4.5-4.3-13.2-7.8-19-5.6
					c-0.6,0.6-0.6,0.1-1.5,0.2l0,0c-1-0.1-0.9,0.4-1.5-0.2c-5.9-2.3-14.8,1.6-19.2,6.1l0,0H19v274.6h48.2V85L63.6,84.9L63.6,84.9z"
					/>
				<path fill="#211F1F" d="M67.2,360.2H19c-0.3,0-0.6-0.3-0.6-0.6V84.9c0-0.3,0.3-0.6,0.6-0.6h3.2c3.5-3.4,9.8-6.8,15.6-6.8
					c1.5,0,2.9,0.3,4.2,0.7c0.1,0,0.2,0.1,0.2,0.1l0.1,0.1l0,0c0.2,0,0.5-0.1,0.9-0.1c0.5,0,0.8,0,0.9,0.1l0,0c0,0,0.1,0,0.1-0.1
					c0.1-0.1,0.1-0.1,0.2-0.1c1.3-0.5,2.6-0.7,4.2-0.7c5.8,0,12.1,3.4,15.4,6.6l0.2,0.2h3.2c0.3,0,0.6,0.3,0.6,0.6v274.6
					C67.8,360,67.5,360.2,67.2,360.2z M19.6,359h47V85.6h-2.9c-0.2,0-0.4-0.1-0.5-0.3c0-0.1-0.1-0.1-0.1-0.2L63.1,85
					c-3.1-3-9-6.2-14.5-6.2c-1.4,0-2.5,0.2-3.6,0.6c-0.2,0.2-0.5,0.4-0.8,0.4c-0.1,0-0.3,0-0.4-0.1c-0.2,0-0.3-0.1-0.6,0
					c-0.1,0-0.1,0-0.2,0c-0.3,0-0.4,0-0.6,0c-0.1,0-0.2,0.1-0.4,0.1c-0.3,0-0.6-0.2-0.8-0.4c-1.1-0.4-2.3-0.6-3.6-0.6
					c-5.5,0-11.6,3.3-14.8,6.5l0,0c-0.1,0.1-0.3,0.2-0.4,0.2h-2.8L19.6,359L19.6,359z"/>
			</g>
			<g>
				<g>
					<rect x="40.8" y="79" fill="#211F1F" width="1.3" height="280.6"/>
				</g>
				<g>
					<rect x="44.2" y="79" fill="#211F1F" width="1.3" height="280.6"/>
				</g>
			</g>
			<g>
				<g>
					<rect x="21.8" y="84.9" fill="#211F1F" width="1.3" height="274.6"/>
				</g>
				<g>
					<rect x="63.2" y="84.9" fill="#211F1F" width="1.3" height="274.6"/>
				</g>
			</g>
		</g>
		<g>
			<g>
				<path fill="#187D41" d="M131.5,84.9c0-0.1,0-0.1,0-0.2c-0.1-0.1-0.1-0.1-0.2-0.2c-4.5-4.4-13.2-7.9-18.9-5.7
					c-0.6,0.6-0.6,0.1-1.5,0.2l0,0c-1-0.1-0.9,0.4-1.5-0.2c-5.9-2.3-14.8,1.6-19.2,6.1l0,0h-3.4v274.6h48.2V84.9H131.5L131.5,84.9z"
					/>
				<path fill="#211F1F" d="M135.1,360.2H86.8c-0.3,0-0.6-0.3-0.6-0.6V84.9c0-0.3,0.3-0.6,0.6-0.6H90c3.5-3.4,9.8-6.8,15.6-6.8
					c1.5,0,2.9,0.3,4.2,0.7c0.1,0,0.2,0.1,0.2,0.1l0.1,0.1l0,0c0.2,0,0.5-0.1,0.9-0.1c0.5,0,0.8,0,0.9,0.1l0,0c0,0,0.1,0,0.1-0.1
					c0.1-0.1,0.1-0.1,0.2-0.1c1.3-0.5,2.6-0.7,4.2-0.7c5.8,0,12.1,3.4,15.4,6.6l0.2,0.2l0,0h3.2c0.3,0,0.6,0.3,0.6,0.6v274.6
					C135.7,360,135.4,360.2,135.1,360.2z M87.5,359h46.9V85.6h-2.9c-0.2,0-0.4-0.1-0.5-0.3c0-0.1-0.1-0.1-0.1-0.2l-0.1-0.1
					c-3.1-3-9-6.2-14.5-6.2c-1.4,0-2.5,0.2-3.6,0.6c-0.2,0.2-0.5,0.4-0.8,0.4c-0.1,0-0.3,0-0.4-0.1c-0.2,0-0.3-0.1-0.6,0
					c-0.1,0-0.1,0-0.2,0c-0.3,0-0.4,0-0.6,0c-0.1,0-0.2,0.1-0.4,0.1c-0.3,0-0.6-0.2-0.8-0.4c-1.1-0.4-2.3-0.6-3.6-0.6
					c-5.5,0-11.6,3.3-14.8,6.5c-0.1,0.1-0.3,0.2-0.5,0.2h-2.8L87.5,359L87.5,359z"/>
			</g>
			<g>
				<g>
					<rect x="108.7" y="79" fill="#211F1F" width="1.3" height="280.6"/>
				</g>
				<g>
					<rect x="112.1" y="79" fill="#211F1F" width="1.3" height="280.6"/>
				</g>
			</g>
			<g>
				<g>
					<rect x="89.7" y="84.9" fill="#211F1F" width="1.3" height="274.6"/>
				</g>
				<g>
					<rect x="131" y="84.9" fill="#211F1F" width="1.3" height="274.6"/>
				</g>
			</g>
		</g>
		<g>
			<g>
				<path fill="#187D41" d="M199.4,84.9c0-0.1,0-0.1,0-0.2c-0.1-0.1-0.1-0.1-0.2-0.2c-4.5-4.4-13.2-7.9-18.9-5.7
					c-0.6,0.6-0.6,0.1-1.5,0.2l0,0c-1-0.1-0.9,0.4-1.5-0.2c-5.9-2.3-14.8,1.6-19.2,6.1l0,0h-3.5v274.6h48.2V84.9H199.4L199.4,84.9z"
					/>
				<path fill="#211F1F" d="M203,360.2h-48.3c-0.3,0-0.6-0.3-0.6-0.6V84.9c0-0.3,0.3-0.6,0.6-0.6h3.2c3.4-3.4,9.8-6.8,15.6-6.8
					c1.5,0,2.9,0.3,4.2,0.7c0.1,0,0.2,0.1,0.2,0.1l0.1,0.1l0,0c0.2,0,0.5-0.1,0.9-0.1c0.5-0.1,0.8,0,0.9,0.1l0,0c0,0,0.1,0,0.1-0.1
					c0.1-0.1,0.1-0.1,0.2-0.1c1.3-0.5,2.6-0.7,4.2-0.7c5.8,0,12.1,3.4,15.4,6.6l0.2,0.2l0,0h3.2c0.3,0,0.6,0.3,0.6,0.6v274.6
					C203.6,360,203.3,360.2,203,360.2z M155.4,359h47V85.6h-2.9c-0.2,0-0.4-0.1-0.5-0.2c0-0.1-0.1-0.1-0.1-0.2l-0.1-0.1
					c-3.1-3-9-6.2-14.5-6.2c-1.4,0-2.5,0.2-3.6,0.6c-0.2,0.2-0.5,0.4-0.8,0.4c-0.1,0-0.3,0-0.4-0.1c-0.2,0-0.3-0.1-0.6,0
					c-0.1,0-0.1,0-0.2,0c-0.3,0-0.4,0-0.6,0c-0.1,0-0.2,0.1-0.4,0.1c-0.3,0-0.6-0.2-0.8-0.4c-1.1-0.4-2.3-0.6-3.6-0.6
					c-5.5,0-11.6,3.3-14.8,6.5c-0.1,0.1-0.3,0.2-0.5,0.2h-2.8V359L155.4,359z"/>
			</g>
			<g>
				<g>
					<rect x="176.6" y="79" fill="#211F1F" width="1.3" height="280.6"/>
				</g>
				<g>
					<rect x="180" y="79" fill="#211F1F" width="1.3" height="280.6"/>
				</g>
			</g>
			<g>
				<g>
					<rect x="157.5" y="84.9" fill="#211F1F" width="1.3" height="274.6"/>
				</g>
				<g>
					<rect x="198.9" y="84.9" fill="#211F1F" width="1.3" height="274.6"/>
				</g>
			</g>
		</g>
		<g>
			<g>
				<path fill="#187D41" d="M267.3,84.9c0-0.1,0-0.1,0-0.2c-0.1-0.1-0.1-0.1-0.2-0.2c-4.5-4.4-13.2-7.9-18.9-5.7
					c-0.6,0.6-0.6,0.1-1.5,0.2l0,0c-1-0.1-0.9,0.4-1.5-0.2c-5.9-2.3-14.8,1.6-19.2,6.1l0,0h-3.4v274.6h48.2V84.9H267.3L267.3,84.9z"
					/>
				<path fill="#211F1F" d="M270.9,360.2h-48.2c-0.3,0-0.6-0.3-0.6-0.6V84.9c0-0.3,0.3-0.6,0.6-0.6h3.2c3.5-3.4,9.8-6.8,15.6-6.8
					c1.5,0,2.9,0.3,4.2,0.7c0.1,0,0.2,0.1,0.2,0.1l0.1,0.1l0,0c0.2,0,0.5-0.1,0.9-0.1c0.5,0,0.8,0,0.9,0.1l0,0c0,0,0,0,0.1-0.1
					c0.1-0.1,0.1-0.1,0.2-0.1c1.3-0.5,2.6-0.7,4.2-0.7c5.8,0,12.1,3.4,15.4,6.6l0.2,0.2h3.2c0.3,0,0.6,0.3,0.6,0.6v274.6
					C271.4,360,271.2,360.2,270.9,360.2z M223.2,359h47V85.6h-2.9c-0.2,0-0.4-0.1-0.5-0.3c0-0.1-0.1-0.1-0.1-0.2l-0.1-0.1
					c-3.1-3-9-6.2-14.5-6.2c-1.4,0-2.5,0.2-3.6,0.6c-0.2,0.2-0.5,0.4-0.8,0.4c-0.1,0-0.3,0-0.4-0.1c-0.2,0-0.3-0.1-0.6,0
					c-0.1,0-0.1,0-0.2,0c-0.3,0-0.4,0-0.6,0c-0.1,0-0.2,0.1-0.4,0.1c-0.3,0-0.6-0.2-0.8-0.4c-1.1-0.4-2.3-0.6-3.6-0.6
					c-5.5,0-11.6,3.3-14.8,6.5l0,0c-0.1,0.1-0.3,0.2-0.4,0.2h-2.8L223.2,359L223.2,359z"/>
			</g>
			<g>
				<g>
					<rect x="244.5" y="79" fill="#211F1F" width="1.3" height="280.6"/>
				</g>
				<g>
					<rect x="247.9" y="79" fill="#211F1F" width="1.3" height="280.6"/>
				</g>
			</g>
			<g>
				<g>
					<rect x="225.4" y="84.9" fill="#211F1F" width="1.3" height="274.6"/>
				</g>
				<g>
					<rect x="266.8" y="84.9" fill="#211F1F" width="1.3" height="274.6"/>
				</g>
			</g>
		</g>
	</g>
	<g>
		<path fill="#010101" d="M96.3,829.2v7.3h1l-0.1,4.4h-1.7l-0.1-2.8h-5.8l-0.1,2.8h-1.7l-0.1-4.4l0.8-0.1c0.4-0.6,0.7-1.2,0.9-1.8
			c0.3-1.1,0.5-2.1,0.5-3.2v-2.2L96.3,829.2L96.3,829.2z M91.7,832c0,1-0.1,1.9-0.4,2.7c-0.2,0.6-0.4,1.1-0.7,1.5h3.5v-5.5h-2.4V832
			z"/>
		<path fill="#010101" d="M98.8,829.3c0.7-0.1,2-0.2,3.2-0.2c1.5,0,4.2,0.2,4.2,2.2c0,1.2-0.9,1.7-1.8,1.9l0,0
			c1.4,0.2,2.2,1,2.2,2.1c0,2.4-3.2,2.7-5,2.7c-1.1,0-2.3-0.1-2.8-0.1L98.8,829.3L98.8,829.3z M101.1,836.7c0.4,0,0.7,0.1,1.1,0.1
			c1.1,0,2.2-0.3,2.2-1.4c0-1-1-1.4-2.4-1.4h-1L101.1,836.7L101.1,836.7z M101.1,832.8h1c1.2,0,2.1-0.3,2.1-1.2
			c0-0.7-0.6-1.1-1.9-1.1c-0.5,0-0.8,0-1.1,0.1L101.1,832.8L101.1,832.8z"/>
		<path fill="#010101" d="M109.7,829.2l1.6,4.7c0.2,0.6,0.4,1.3,0.5,1.7h0.1c0.2-0.5,0.3-1.2,0.5-1.7l1.4-4.7h2.4l-2.2,6
			c-1.3,3.3-2,4.7-3.1,5.7c-0.9,0.8-1.7,1.1-2.3,1.2l-0.5-1.9c0.4-0.1,0.9-0.3,1.4-0.6c0.4-0.3,0.9-0.8,1.3-1.4
			c0.1-0.2,0.2-0.3,0.2-0.4s0-0.2-0.1-0.5l-3.2-8.1H109.7z"/>
		<path fill="#010101" d="M119,829.2l1.1,1.6c0.3,0.5,0.6,0.9,0.8,1.4h0.1c0.3-0.5,0.5-1,0.8-1.4l1-1.6h2.4l-3,4.3l3,4.6h-2.5
			l-1.1-1.7c-0.3-0.5-0.6-1-0.8-1.5l0,0c-0.3,0.5-0.5,1-0.8,1.5l-1.1,1.7h-2.5l3.1-4.5l-3-4.4H119z"/>
		<path fill="#010101" d="M132.7,837.7c-0.5,0.2-1.4,0.5-2.5,0.5c-2.8,0-4.5-1.7-4.5-4.5c0-2.6,1.8-4.7,4.9-4.7
			c0.8,0,1.6,0.2,2.1,0.4l-0.4,1.6c-0.4-0.2-0.9-0.4-1.6-0.4c-1.7,0-2.7,1.3-2.7,2.9c0,1.8,1.2,2.9,2.7,2.9c0.8,0,1.4-0.2,1.7-0.4
			L132.7,837.7z"/>
		<path fill="#010101" d="M141.2,829.2v1.7h-2.6v7.2h-2.2V831h-2.6v-1.7H141.2z"/>
		<path fill="#010101" d="M150.7,833.6c0,3.3-2.3,4.7-4.5,4.7c-2.5,0-4.4-1.7-4.4-4.5c0-2.9,1.9-4.7,4.5-4.7
			C148.9,829,150.7,830.9,150.7,833.6z M144,833.7c0,1.7,0.9,3,2.2,3c1.3,0,2.1-1.3,2.1-3c0-1.4-0.6-3-2.1-3
			C144.7,830.6,144,832.1,144,833.7z"/>
		<path fill="#010101" d="M152.5,832.1c0-1.2,0-2.1-0.1-2.9h1.9l0.1,1.4l0,0c0.7-1,1.7-1.5,3-1.5c2,0,3.8,1.7,3.8,4.5
			c0,3.2-2,4.7-4.1,4.7c-1.1,0-2-0.5-2.5-1.2l0,0v4.5h-2.2L152.5,832.1L152.5,832.1z M154.7,834.4c0,0.2,0,0.4,0.1,0.6
			c0.2,0.9,1.1,1.5,1.9,1.5c1.5,0,2.2-1.2,2.2-2.9c0-1.5-0.8-2.8-2.2-2.8c-1,0-1.7,0.7-2,1.6c-0.1,0.2-0.1,0.4-0.1,0.6L154.7,834.4
			L154.7,834.4z"/>
		<path fill="#010101" d="M171.6,833.6c0,3.3-2.3,4.7-4.5,4.7c-2.5,0-4.4-1.7-4.4-4.5c0-2.9,1.9-4.7,4.5-4.7
			C169.8,829,171.6,830.9,171.6,833.6z M164.9,833.7c0,1.7,0.9,3,2.2,3c1.3,0,2.1-1.3,2.1-3c0-1.4-0.6-3-2.1-3
			C165.6,830.6,164.9,832.1,164.9,833.7z"/>
		<path fill="#010101" d="M175.6,829.2v3.4h3.4v-3.4h2.2v8.9H179v-3.8h-3.4v3.8h-2.2v-8.9H175.6z"/>
		<path fill="#010101" d="M186,829.2v3.4h3.4v-3.4h2.2v8.9h-2.2v-3.8H186v3.8h-2.2v-8.9H186z"/>
		<path fill="#010101" d="M201.2,838H199v-3.5h-0.9c-0.6,0-1.1,0.2-1.4,0.6c-0.6,0.5-0.8,1.5-1.1,2.2c-0.1,0.3-0.2,0.5-0.4,0.8h-2.4
			c0.2-0.3,0.4-0.6,0.6-1c0.4-0.8,0.7-1.9,1.4-2.5c0.3-0.3,0.6-0.5,1.1-0.6V834c-1.1-0.1-2.3-0.8-2.3-2.2c0-1.1,0.6-1.6,1.4-2
			c0.8-0.4,1.9-0.6,3.1-0.6c1.3,0,2.3,0.1,3.2,0.2V838L201.2,838z M199,830.6c-0.3-0.1-0.6-0.1-1.1-0.1c-1,0-2,0.4-2,1.4
			s1.1,1.4,2,1.4c0.5,0,0.8,0,1.1,0V830.6z"/>
		<path fill="#010101" d="M210.9,838h-2.2v-3.5h-0.9c-0.6,0-1.1,0.2-1.4,0.6c-0.6,0.5-0.8,1.5-1.1,2.2c-0.1,0.3-0.2,0.5-0.4,0.8
			h-2.4c0.2-0.3,0.4-0.6,0.6-1c0.4-0.8,0.7-1.9,1.4-2.5c0.3-0.3,0.6-0.5,1.1-0.6V834c-1.1-0.1-2.3-0.8-2.3-2.2c0-1.1,0.6-1.6,1.4-2
			c0.8-0.4,1.9-0.6,3.1-0.6c1.3,0,2.3,0.1,3.2,0.2V838L210.9,838z M208.7,830.6c-0.3-0.1-0.6-0.1-1.1-0.1c-1,0-2,0.4-2,1.4
			s1.1,1.4,2,1.4c0.5,0,0.8,0,1.1,0V830.6z"/>
	</g>
	<g>
		<g>
			<g>
				<path fill="#314B34" d="M93.3,538.3c0-0.1,0-0.1,0-0.2c-0.1-0.1-0.1-0.1-0.2-0.2c-4.5-4.4-13.2-7.9-18.9-5.7
					c-0.6,0.6-0.6,0.1-1.5,0.2l0,0c-1-0.1-0.9,0.4-1.5-0.2c-5.9-2.3-14.8,1.6-19.2,6.1l0,0l0,0v274.6h41.4V538.3H93.3L93.3,538.3z"
					/>
				<path fill="#211F1F" d="M93.4,813.5H52c-0.3,0-0.6-0.3-0.6-0.6V538.4c0-0.1,0-0.3,0-0.4l0,0c0-0.1,0.1-0.1,0.1-0.2l0,0
					c3.4-3.5,9.9-6.9,15.8-6.9c1.5,0,2.9,0.3,4.2,0.7c0.1,0,0.2,0.1,0.2,0.1l0.1,0.1l0,0c0.2,0,0.5-0.1,0.9-0.1
					c0.5-0.1,0.8,0,0.9,0.1l0,0c0,0,0.1,0,0.1-0.1c0.1-0.1,0.1-0.1,0.2-0.1c1.3-0.5,2.6-0.7,4.2-0.7c5.8,0,12.1,3.4,15.4,6.6
					c0.1,0.1,0.1,0.1,0.2,0.2l0.1,0.1c0.1,0.1,0.2,0.3,0.2,0.5v274.6C94,813.2,93.7,813.5,93.4,813.5z M52.7,812.2h40.1V538.6
					c0-0.1-0.1-0.1-0.1-0.2c0,0,0,0-0.1-0.1c-3.2-3-9-6.3-14.5-6.3c-1.4,0-2.5,0.2-3.6,0.6c-0.2,0.2-0.5,0.4-0.8,0.4
					c-0.1,0-0.3,0-0.4-0.1c-0.2,0-0.3-0.1-0.6,0c-0.1,0-0.1,0-0.2,0c-0.2,0-0.4,0-0.5,0c-0.1,0-0.2,0.1-0.4,0.1
					c-0.3,0-0.6-0.2-0.8-0.4c-1.1-0.4-2.3-0.6-3.6-0.6c-5.4,0-11.4,3.2-14.7,6.4V812.2z"/>
			</g>
			<g>
				<g>
					<rect x="70.4" y="532.2" fill="#211F1F" width="1.3" height="280.6"/>
				</g>
				<g>
					<rect x="73.8" y="532.2" fill="#211F1F" width="1.3" height="280.6"/>
				</g>
			</g>
		</g>
		<g>
			<g>
				<path fill="#314B34" d="M167.9,538.3c0-0.1,0-0.1,0-0.2c-0.1-0.1-0.1-0.1-0.2-0.2c-4.5-4.4-13.2-7.9-18.9-5.7
					c-0.6,0.6-0.6,0.1-1.5,0.2l0,0c-1-0.1-0.9,0.4-1.5-0.2c-5.9-2.3-14.8,1.6-19.2,6.1l0,0l0,0v274.6h41.4V538.3H167.9L167.9,538.3z
					"/>
				<path fill="#211F1F" d="M168,813.5h-41.4c-0.3,0-0.6-0.3-0.6-0.6V538.4c0-0.1,0-0.3,0-0.4l0,0c0-0.1,0.1-0.1,0.1-0.2l0,0
					c3.4-3.5,9.9-6.9,15.8-6.9c1.5,0,2.9,0.3,4.2,0.7c0.1,0,0.2,0.1,0.2,0.1l0.1,0.1l0,0c0.2,0,0.5-0.1,0.9-0.1
					c0.5-0.1,0.8,0,0.9,0.1l0,0c0,0,0,0,0.1-0.1c0.1-0.1,0.1-0.1,0.2-0.1c1.3-0.5,2.6-0.7,4.2-0.7c5.8,0,12.1,3.4,15.4,6.6
					c0.1,0.1,0.1,0.1,0.2,0.2l0.1,0.1c0.1,0.1,0.2,0.3,0.2,0.5v274.6C168.6,813.2,168.3,813.5,168,813.5z M127.3,812.2h40.1V538.6
					c0-0.1-0.1-0.1-0.1-0.2c0,0,0,0-0.1-0.1c-3.2-3-9-6.3-14.5-6.3c-1.4,0-2.5,0.2-3.6,0.6c-0.2,0.2-0.5,0.4-0.8,0.4
					c-0.1,0-0.3,0-0.4-0.1c-0.2,0-0.3-0.1-0.6,0c-0.1,0-0.1,0-0.2,0c-0.2,0-0.4,0-0.5,0s-0.2,0.1-0.4,0.1c-0.3,0-0.6-0.2-0.8-0.4
					c-1.1-0.4-2.3-0.6-3.6-0.6c-5.4,0-11.4,3.2-14.7,6.4V812.2z"/>
			</g>
			<g>
				<g>
					<rect x="145" y="532.2" fill="#211F1F" width="1.3" height="280.6"/>
				</g>
				<g>
					<rect x="148.3" y="532.2" fill="#211F1F" width="1.3" height="280.6"/>
				</g>
			</g>
		</g>
		<g>
			<g>
				<path fill="#314B34" d="M242.4,538.3c0-0.1,0-0.1,0-0.2c-0.1-0.1-0.1-0.1-0.2-0.2c-4.5-4.4-13.2-7.9-18.9-5.7
					c-0.6,0.6-0.6,0.1-1.5,0.2l0,0c-1-0.1-0.9,0.4-1.5-0.2c-5.9-2.3-14.8,1.6-19.2,6.1l0,0l0,0v274.6h41.4V538.3H242.4L242.4,538.3z
					"/>
				<path fill="#211F1F" d="M242.5,813.5h-41.4c-0.3,0-0.6-0.3-0.6-0.6V538.4c0-0.1,0-0.3,0-0.4l0,0l0.1-0.1l0,0
					c3.4-3.5,9.9-6.9,15.8-6.9c1.5,0,2.9,0.3,4.2,0.7c0.1,0,0.2,0.1,0.2,0.1l0.1,0.1l0,0c0.2,0,0.5-0.1,0.9-0.1
					c0.5-0.1,0.8,0,0.9,0.1l0,0c0,0,0.1,0,0.1-0.1c0.1-0.1,0.1-0.1,0.2-0.1c1.3-0.5,2.6-0.7,4.2-0.7c5.8,0,12.1,3.4,15.4,6.6
					l0.2,0.2c0,0,0.1,0.1,0.1,0.2c0.1,0.1,0.2,0.3,0.2,0.5v274.6C243.1,813.2,242.8,813.5,242.5,813.5z M201.8,812.2H242V538.6
					c0-0.1-0.1-0.1-0.1-0.2l-0.1-0.1c-3.1-3-9-6.2-14.5-6.2c-1.4,0-2.5,0.2-3.6,0.6c-0.2,0.2-0.5,0.4-0.8,0.4c-0.1,0-0.3,0-0.4-0.1
					c-0.2,0-0.3-0.1-0.6,0c-0.1,0-0.1,0-0.2,0c-0.2,0-0.4,0-0.5,0c-0.1,0-0.2,0.1-0.4,0.1c-0.3,0-0.6-0.2-0.8-0.4
					c-1.1-0.4-2.3-0.6-3.6-0.6c-5.4,0-11.4,3.2-14.7,6.4V812.2z"/>
			</g>
			<g>
				<g>
					<rect x="219.5" y="532.2" fill="#211F1F" width="1.3" height="280.6"/>
				</g>
				<g>
					<rect x="222.9" y="532.2" fill="#211F1F" width="1.3" height="280.6"/>
				</g>
			</g>
		</g>
		<rect x="1" y="488.6" fill="#9C9EA1" width="288.8" height="9.9"/>
		<g>
			<path fill="#010101" d="M239.4,484.3c0.1,0.1,0.3,0.7,0.4,1c0.1,0.5,0.8,0.8,1,0.9c0.4,0.1,1.1,0.1,1.7,0.1
				c0,0.4,0.4,0.8,0.8,0.8h1.8c1,0,1.6-0.5,1.6-1.3c0-0.7-0.7-1.3-1.6-1.3c0,0,0,0-0.1,0c-1.1,0.1-3,0.2-3.8,0.1
				c-0.1-0.4-0.3-0.9-0.5-1.1c-1.4-2.4-11.8-5-18-4c-0.1,0-0.1,0-0.2,0.1c-0.4,0.2-0.6,0.5-0.8,0.8l-0.1,0.1c0,0,0-0.1-0.1-0.1
				c-0.1-0.2-0.3-0.6-0.8-0.8c-0.1,0-0.1-0.1-0.2-0.1c-6.2-1.1-16.6,1.5-18,4c-0.1,0.2-0.3,0.7-0.5,1.1c-0.8,0.1-2.7,0-3.8-0.1
				c0,0,0,0-0.1,0c-1,0-1.6,0.6-1.6,1.3s0.7,1.3,1.6,1.3h1.8c0.4,0,0.8-0.3,0.8-0.8c0.7,0,1.4,0,1.7-0.1c0.2,0,0.8-0.3,1-0.8
				c0.1-0.3,0.3-0.9,0.4-1c0.9-1.5,10.1-4.2,16.1-3.2v0.1c0.2,0.3,0.5,0.9,1.4,1c0,0,0,0,0.1,0l0,0c0,0,0,0,0.1,0l0,0l0,0h0.1
				c0.8-0.1,1.1-0.7,1.3-1c0,0,0-0.1,0.1-0.1C229.4,480.2,238.6,482.9,239.4,484.3z"/>
			<path fill="#010101" d="M164.9,484.3c0.1,0.1,0.3,0.7,0.4,1c0.1,0.5,0.8,0.8,1,0.8c0.4,0.1,1.1,0.1,1.7,0.1
				c0,0.4,0.4,0.8,0.8,0.8h1.8c1,0,1.6-0.5,1.6-1.3c0-0.7-0.7-1.3-1.6-1.3c0,0,0,0-0.1,0c-1.1,0.1-3,0.2-3.8,0.1
				c-0.1-0.4-0.3-0.9-0.5-1.1c-1.4-2.4-11.8-5-18-4c-0.1,0-0.1,0-0.2,0.1c-0.4,0.2-0.6,0.5-0.8,0.8l-0.1,0.1c0,0,0-0.1-0.1-0.1
				c-0.1-0.2-0.3-0.6-0.8-0.8c-0.1,0-0.1-0.1-0.2-0.1c-6.2-1.1-16.6,1.5-18,4c-0.1,0.2-0.3,0.7-0.5,1.1c-0.8,0.1-2.7,0-3.8-0.1
				c0,0,0,0-0.1,0c-1,0-1.6,0.6-1.6,1.3c0,0.7,0.7,1.3,1.6,1.3h1.8c0.4,0,0.8-0.3,0.8-0.8c0.7,0,1.4,0,1.7-0.1c0.2,0,0.8-0.3,1-0.8
				c0.1-0.3,0.3-0.9,0.4-1c0.9-1.5,10.1-4.2,16.1-3.2v0.1c0.2,0.3,0.5,0.9,1.4,1c0,0,0,0,0.1,0l0,0c0,0,0,0,0.1,0l0,0l0,0h0.1
				c0.8-0.1,1.1-0.7,1.3-1c0,0,0-0.1,0.1-0.1C154.8,480.2,164,482.9,164.9,484.3z"/>
			<path fill="#010101" d="M90.3,484.3c0.1,0.1,0.3,0.7,0.4,1c0.2,0.5,0.8,0.8,1,0.8c0.4,0.1,1.1,0.1,1.7,0.1c0,0.4,0.4,0.8,0.8,0.8
				H96c1,0,1.6-0.5,1.6-1.3c0-0.8-0.7-1.3-1.6-1.3c0,0,0,0-0.1,0c-1.1,0.1-3,0.2-3.8,0.1c-0.1-0.4-0.3-0.9-0.5-1.1
				c-1.4-2.4-11.8-5-18-4c-0.1,0-0.1,0-0.2,0.1c-0.4,0.2-0.6,0.5-0.8,0.8l-0.1,0.1c0,0,0-0.1-0.1-0.1c-0.1-0.2-0.3-0.6-0.8-0.8
				c-0.1,0-0.1-0.1-0.2-0.1c-6.2-1.1-16.6,1.5-18,4c-0.1,0.2-0.3,0.7-0.5,1.1c-0.8,0.1-2.7,0-3.8-0.1c0,0,0,0-0.1,0
				c-1,0-1.6,0.5-1.6,1.3c0,0.8,0.7,1.3,1.6,1.3h2c0.4,0,0.8-0.3,0.8-0.8c0.7,0,1.4,0,1.7-0.1c0.2,0,0.8-0.3,1-0.9
				c0.1-0.3,0.3-0.9,0.4-1c0.9-1.5,10.1-4.2,16.1-3.2v0.1c0.2,0.3,0.5,0.9,1.4,1c0,0,0,0,0.1,0l0,0c0,0,0,0,0.1,0l0,0l0,0h0.1
				c0.8-0.1,1.1-0.7,1.3-1c0,0,0-0.1,0.1-0.1C80.3,480.2,89.5,482.9,90.3,484.3z"/>
			<path fill="#010101" d="M282.4,501.8h-1.8c-0.4,0-0.8,0.3-0.8,0.8c-0.7,0-1.4,0-1.7,0.1c-0.2,0-0.8,0.3-1,0.9
				c-0.1,0.3-0.3,0.9-0.4,1c-0.9,1.5-10.1,4.2-16.1,3.2v-0.1c-0.2-0.3-0.6-0.9-1.5-1c0,0,0,0-0.1,0l0,0l0,0H259
				c-0.8,0.1-1.1,0.7-1.3,1c0,0,0,0.1-0.1,0.1c-6,1-15.2-1.6-16.1-3.2c-0.1-0.2-0.3-0.7-0.4-1c-0.1-0.5-0.8-0.8-1-0.8
				c-0.4-0.1-1.1-0.1-1.7-0.1c0-0.4-0.4-0.8-0.8-0.8h-1.8c-1,0-1.6,0.6-1.6,1.3c0,0.7,0.7,1.3,1.6,1.3c0,0,0,0,0.1,0
				c1.1-0.1,3-0.2,3.8-0.1c0.1,0.4,0.3,0.9,0.5,1.1c1.2,2,8.7,4.3,14.8,4.3c1.2,0,2.2-0.1,3.2-0.3c0.1,0,0.1,0,0.2-0.1
				c0.4-0.2,0.6-0.5,0.8-0.8l0.1-0.1c0,0,0,0.1,0.1,0.1c0.1,0.2,0.3,0.6,0.8,0.8c0.1,0,0.1,0.1,0.2,0.1c1,0.2,2,0.3,3.2,0.3
				c6.1,0,13.6-2.2,14.8-4.3c0.1-0.2,0.3-0.7,0.5-1.1c0.8-0.1,2.7,0,3.8,0.1c0,0,0,0,0.1,0c1,0,1.6-0.5,1.6-1.3
				C284,502.4,283.3,501.8,282.4,501.8z"/>
			<path fill="#010101" d="M207.8,501.8H206c-0.4,0-0.8,0.3-0.8,0.8c-0.7,0-1.4,0-1.7,0.1c-0.2,0-0.8,0.3-1,0.8
				c-0.1,0.3-0.3,0.9-0.4,1c-0.9,1.5-10.1,4.2-16.1,3.2v-0.1c-0.2-0.3-0.6-0.9-1.5-1c0,0,0,0-0.1,0l0,0l0,0h-0.1
				c-0.8,0.1-1.1,0.7-1.3,1c0,0,0,0.1-0.1,0.1c-6,1-15.2-1.6-16.1-3.2c-0.1-0.1-0.3-0.7-0.4-1c-0.1-0.5-0.8-0.8-1-0.8
				c-0.4-0.1-1.1-0.1-1.7-0.1c0-0.4-0.4-0.8-0.8-0.8h-1.8c-1,0-1.6,0.5-1.6,1.3c0,0.7,0.7,1.3,1.6,1.3c0,0,0,0,0.1,0
				c1.1-0.1,3-0.2,3.8-0.1c0.1,0.4,0.3,0.9,0.5,1.1c1.2,2,8.7,4.3,14.8,4.3c1.2,0,2.2-0.1,3.2-0.3c0.1,0,0.1,0,0.2-0.1
				c0.4-0.2,0.6-0.5,0.8-0.8l0.1-0.1c0,0,0,0.1,0.1,0.1c0.1,0.2,0.3,0.6,0.8,0.8c0.1,0,0.1,0.1,0.2,0.1c1,0.2,2,0.3,3.2,0.3
				c6.1,0,13.6-2.2,14.8-4.3c0.1-0.2,0.3-0.7,0.5-1.1c0.8-0.1,2.7,0,3.8,0.1c0,0,0,0,0.1,0c1,0,1.6-0.5,1.6-1.3
				C209.5,502.4,208.8,501.8,207.8,501.8z"/>
			<path fill="#010101" d="M133.3,501.8h-1.8c-0.4,0-0.8,0.3-0.8,0.8c-0.7,0-1.4,0-1.7,0.1c-0.2,0-0.8,0.3-1,0.9
				c-0.1,0.3-0.3,0.9-0.4,1c-0.9,1.5-10.1,4.2-16.1,3.2v-0.1c-0.2-0.3-0.6-0.9-1.5-1c0,0,0,0-0.1,0l0,0l0,0h-0.1
				c-0.8,0.1-1.2,0.7-1.3,1c0,0,0,0.1-0.1,0.1c-6,1-15.2-1.6-16.1-3.2c-0.1-0.1-0.3-0.7-0.4-1c-0.1-0.5-0.8-0.8-1-0.8
				c-0.4-0.1-1.1-0.1-1.7-0.1c0-0.4-0.4-0.8-0.8-0.8h-1.8c-1,0-1.6,0.5-1.6,1.3c0,0.7,0.7,1.3,1.6,1.3c0,0,0,0,0.1,0
				c1.1-0.1,3-0.2,3.8-0.1c0.1,0.4,0.3,0.9,0.5,1.1c1.2,2,8.7,4.3,14.8,4.3c1.2,0,2.2-0.1,3.2-0.3c0.1,0,0.1,0,0.2-0.1
				c0.4-0.2,0.6-0.5,0.8-0.8l0.1-0.1c0,0,0,0.1,0.1,0.1c0.1,0.2,0.3,0.6,0.8,0.8c0.1,0,0.1,0.1,0.2,0.1c1,0.2,2,0.3,3.2,0.3
				c6.1,0,13.6-2.2,14.8-4.3c0.1-0.2,0.3-0.7,0.5-1.1c0.8-0.1,2.7,0,3.8,0.1c0,0,0,0,0.1,0c1,0,1.6-0.5,1.6-1.3
				C134.9,502.4,134.2,501.8,133.3,501.8z"/>
			<path fill="#010101" d="M58.7,501.8h-1.8c-0.4,0-0.8,0.3-0.8,0.8c-0.7,0-1.4,0-1.7,0.1c-0.2,0-0.8,0.3-1,0.9
				c-0.1,0.3-0.3,0.9-0.4,1c-0.9,1.5-10.1,4.2-16.1,3.2v-0.1c-0.2-0.3-0.6-0.9-1.5-1c0,0,0,0-0.1,0l0,0l0,0h-0.1
				c-0.8,0.1-1.2,0.7-1.3,1c0,0,0,0.1-0.1,0.1c-6,1-15.2-1.6-16.1-3.2c-0.1-0.1-0.3-0.7-0.4-1c-0.1-0.5-0.8-0.8-1-0.8
				c-0.4-0.1-1.1-0.1-1.7-0.1c0-0.4-0.4-0.8-0.8-0.8h-1.8c-1,0-1.6,0.5-1.6,1.3c0,0.7,0.7,1.3,1.6,1.3c0,0,0,0,0.1,0
				c1.1-0.1,3-0.2,3.8-0.1c0.1,0.4,0.3,0.9,0.5,1.1c1.2,2,8.7,4.3,14.8,4.3c1.2,0,2.2-0.1,3.2-0.3c0.1,0,0.1,0,0.2-0.1
				c0.4-0.2,0.6-0.5,0.8-0.8l0.1-0.1c0,0,0,0.1,0.1,0.1c0.1,0.2,0.3,0.6,0.8,0.8c0.1,0,0.1,0.1,0.2,0.1c1,0.2,2,0.3,3.2,0.3
				c6.1,0,13.6-2.2,14.8-4.3c0.1-0.2,0.3-0.7,0.5-1.1c0.8-0.1,2.7,0,3.8,0.1c0,0,0,0,0.1,0c1,0,1.6-0.5,1.6-1.3
				C60.4,502.4,59.7,501.8,58.7,501.8z"/>
		</g>
		<g>
			<rect x="59.2" y="464.9" fill="#010101" width="0.8" height="92.8"/>
			<rect x="85.5" y="464.9" fill="#010101" width="0.8" height="92.8"/>
		</g>
		<polygon fill="#010101" points="277.4,471.3 93.1,471.3 93.1,469.3 85.6,471.4 85.6,471.3 59.8,471.3 59.8,471.5 51.7,469.2 
			51.7,471.3 47.9,471.3 47.9,472 51.7,472 51.7,474 59.8,471.8 59.8,472 85.6,472 85.6,471.9 93.1,474 93.1,472 277.4,472 		"/>
		<g>
			<path fill="#231F20" d="M12.4,429.7v4.9h5.2v-4.9h2.2V442h-2.2v-5.4h-5.2v5.4h-2.2v-12.3H12.4z"/>
			<path fill="#231F20" d="M22.5,435.9v-1.5h9.4v1.5H22.5z M22.5,439.5v-1.5h9.4v1.5H22.5z"/>
			<path fill="#231F20" d="M35.2,442v-1.4l1.4-1.3c2.8-2.6,4.1-4,4.2-5.6c0-1.1-0.6-2-2.1-2c-1.1,0-1.9,0.5-2.5,1l-0.7-1.5
				c0.9-0.7,2.1-1.3,3.7-1.3c2.6,0,3.9,1.6,3.9,3.6c0,2-1.5,3.8-3.6,5.7l-1.1,0.9l0,0h4.8v1.8L35.2,442L35.2,442z"/>
			<path fill="#231F20" d="M53.3,436c0,3.8-1.5,6.2-4.4,6.2c-2.7,0-4.2-2.5-4.2-6.1c0-3.7,1.5-6.2,4.4-6.2
				C52,429.9,53.3,432.5,53.3,436z M47.1,436.1c0,2.9,0.8,4.4,2,4.4c1.4,0,2-1.6,2-4.4c0-2.7-0.7-4.4-2-4.4
				C47.9,431.6,47,433.1,47.1,436.1z"/>
			<path fill="#231F20" d="M56.1,433.1h2.8l1.3,3.9c0.2,0.6,0.5,1.5,0.7,2.3l0,0c0.2-0.7,0.6-1.7,0.9-2.7l1.2-3.5h2.9l0.6,8.9h-2.1
				l-0.2-3.9c0-0.9-0.1-2-0.1-3.1h-0.1c-0.3,1.1-0.5,1.5-0.9,2.9l-1.5,4H60l-1.3-3.9c-0.3-0.9-0.6-2.1-0.8-2.9h-0.1
				c0,1.1-0.1,2.3-0.1,3.2l-0.2,3.8h-2L56.1,433.1z"/>
			<path fill="#231F20" d="M68.5,433.1h2.8l1.3,3.9c0.2,0.6,0.5,1.5,0.7,2.3l0,0c0.2-0.7,0.6-1.7,0.9-2.7l1.2-3.5H78l0.6,8.9h-2.1
				l-0.2-3.9c0-0.9-0.1-2-0.1-3.1h-0.1c-0.3,1.1-0.5,1.5-0.9,2.9l-1.5,4h-1.6l-1.3-3.9c-0.3-0.9-0.6-2.1-0.8-2.9H70
				c0,1.1-0.1,2.3-0.1,3.2l-0.2,3.8h-2L68.5,433.1z"/>
			<path fill="#231F20" d="M81.1,442.6l4.4-13.2h1.5l-4.4,13.2H81.1z"/>
			<path fill="#231F20" d="M88.3,439.6c0.5,0.3,1.5,0.8,2.7,0.8c1.7,0,2.4-1,2.4-1.9c0-1.4-1.4-2-2.7-2h-1.1v-1.6h1
				c1.1,0,2.3-0.5,2.3-1.6c0-0.8-0.6-1.5-1.9-1.5c-1,0-1.9,0.4-2.4,0.8l-0.5-1.6c0.7-0.5,2-0.9,3.4-0.9c2.4,0,3.7,1.4,3.7,2.9
				c0,1.3-0.8,2.2-2.2,2.8l0,0c1.5,0.3,2.6,1.4,2.6,2.9c0,2-1.6,3.6-4.6,3.6c-1.5,0-2.7-0.4-3.3-0.8L88.3,439.6z"/>
			<path fill="#231F20" d="M106,436c0,3.8-1.5,6.2-4.4,6.2c-2.7,0-4.2-2.5-4.2-6.1c0-3.7,1.5-6.2,4.4-6.2
				C104.6,429.9,106,432.5,106,436z M99.7,436.1c0,2.9,0.8,4.4,2,4.4c1.4,0,2-1.6,2-4.4c0-2.7-0.7-4.4-2-4.4
				C100.6,431.6,99.7,433.1,99.7,436.1z"/>
			<path fill="#231F20" d="M108.8,433.1h2.8l1.3,3.9c0.2,0.6,0.5,1.5,0.7,2.3l0,0c0.2-0.7,0.6-1.7,0.9-2.7l1.2-3.5h2.8l0.6,8.9h-2.1
				l-0.2-3.9c0-0.9-0.1-2-0.1-3.1h-0.1c-0.3,1.1-0.5,1.5-0.9,2.9l-1.5,4h-1.6l-1.3-3.9c-0.3-0.9-0.6-2.1-0.8-2.9h-0.1
				c0,1.1-0.1,2.3-0.1,3.2l-0.2,3.8h-2L108.8,433.1z"/>
			<path fill="#231F20" d="M121.2,433.1h2.8l1.3,3.9c0.2,0.6,0.5,1.5,0.7,2.3l0,0c0.2-0.7,0.6-1.7,0.9-2.7l1.2-3.5h2.8l0.6,8.9h-2.1
				l-0.2-3.9c0-0.9-0.1-2-0.1-3.1h-0.1c-0.3,1.1-0.5,1.5-0.9,2.9l-1.5,4h-1.6l-1.3-3.9c-0.3-0.9-0.6-2.1-0.8-2.9l0,0
				c0,1.1-0.1,2.3-0.1,3.2l-0.2,3.8h-2L121.2,433.1z"/>
			<path fill="#231F20" d="M133.7,442.6l4.4-13.2h1.5l-4.4,13.2H133.7z"/>
			<path fill="#231F20" d="M145.4,442v-3h-5.3v-1.5l4.8-7.3h2.6v7.2h1.5v1.7h-1.5v3L145.4,442L145.4,442z M145.4,437.2V434
				c0-0.7,0-1.4,0.1-2h-0.1c-0.4,0.8-0.7,1.4-1.1,2l-2.1,3.3l0,0L145.4,437.2L145.4,437.2z"/>
			<path fill="#231F20" d="M158.7,436c0,3.8-1.5,6.2-4.4,6.2c-2.7,0-4.2-2.5-4.2-6.1c0-3.7,1.5-6.2,4.4-6.2
				C157.3,429.9,158.7,432.5,158.7,436z M152.4,436.1c0,2.9,0.8,4.4,2,4.4c1.4,0,2-1.6,2-4.4c0-2.7-0.7-4.4-2-4.4
				C153.2,431.6,152.4,433.1,152.4,436.1z"/>
			<path fill="#231F20" d="M161.4,433.1h2.8l1.3,3.9c0.2,0.6,0.5,1.5,0.7,2.3l0,0c0.2-0.7,0.6-1.7,0.9-2.7l1.2-3.5h2.8l0.6,8.9h-2.1
				l-0.2-3.9c0-0.9-0.1-2-0.1-3.1h0.1c-0.3,1.1-0.5,1.5-0.9,2.9l-1.5,4h-1.6L164,438c-0.3-0.9-0.6-2.1-0.8-2.9h-0.1
				c0,1.1-0.1,2.3-0.1,3.2l-0.2,3.8h-2L161.4,433.1z"/>
			<path fill="#231F20" d="M173.9,433.1h2.8l1.3,3.9c0.2,0.6,0.5,1.5,0.7,2.3l0,0c0.2-0.7,0.6-1.7,0.9-2.7l1.2-3.5h2.8l0.6,8.9h-2.1
				l-0.2-3.9c0-0.9-0.1-2-0.1-3.1h-0.1c-0.3,1.1-0.5,1.5-0.9,2.9l-1.5,4h-1.6l-1.3-3.9c-0.3-0.9-0.6-2.1-0.8-2.9h-0.1
				c0,1.1-0.1,2.3-0.1,3.2l-0.2,3.8h-2L173.9,433.1z"/>
		</g>
		<g>
			<path fill="#231F20" d="M97.7,454.2h2.2v10.3h5v1.8h-7.3V454.2z"/>
			<path fill="#231F20" d="M106.9,460.4V459h9.4v1.5H106.9z M106.9,464.1v-1.5h9.4v1.5H106.9z"/>
			<path fill="#231F20" d="M120.4,464.9c0.4,0,0.7,0,1.3,0c0.9-0.1,1.7-0.4,2.4-0.9c0.8-0.6,1.3-1.5,1.5-2.6l0,0
				c-0.6,0.7-1.5,1.1-2.6,1.1c-2,0-3.6-1.5-3.6-3.7c0-2.2,1.7-4.3,4.3-4.3c2.7,0,4.3,2.1,4.3,5c0,2.5-0.9,4.4-2,5.5
				c-1.1,1-2.4,1.5-4.1,1.6c-0.5,0.1-1.1,0.1-1.4,0L120.4,464.9L120.4,464.9z M121.7,458.5c0,1.3,0.7,2.1,1.9,2.1
				c0.9,0,1.5-0.4,1.9-1c0.1-0.1,0.1-0.3,0.1-0.7c0-1.6-0.6-3-2-3C122.4,456.1,121.7,457.1,121.7,458.5z"/>
			<path fill="#231F20" d="M137.6,460.5c0,3.8-1.5,6.2-4.4,6.2c-2.7,0-4.2-2.5-4.2-6.1c0-3.7,1.5-6.2,4.4-6.2
				C136.4,454.4,137.6,456.9,137.6,460.5z M131.4,460.6c0,2.9,0.8,4.4,2,4.4c1.4,0,2-1.6,2-4.4c0-2.7-0.7-4.4-2-4.4
				C132.2,456.2,131.3,457.6,131.4,460.6z"/>
			<path fill="#231F20" d="M140.4,457.6h2.8l1.3,3.9c0.2,0.6,0.5,1.5,0.7,2.3l0,0c0.2-0.7,0.6-1.7,0.9-2.7l1.2-3.5h2.8l0.6,8.9h-2.1
				l-0.2-3.9c0-0.9-0.1-2-0.1-3.1h-0.1c-0.3,1.1-0.5,1.5-0.9,2.9l-1.5,4h-1.6l-1.3-3.9c-0.3-0.9-0.6-2.1-0.8-2.9H142
				c0,1.1-0.1,2.3-0.1,3.2l-0.2,3.8h-2L140.4,457.6z"/>
			<path fill="#231F20" d="M152.8,457.6h2.8l1.3,3.9c0.2,0.6,0.5,1.5,0.7,2.3l0,0c0.2-0.7,0.6-1.7,0.9-2.7l1.2-3.5h2.8l0.6,8.9h-2.1
				l-0.2-3.9c0-0.9-0.1-2-0.1-3.1h-0.1c-0.3,1.1-0.5,1.5-0.9,2.9l-1.5,4h-1.5l-1.3-3.9c-0.3-0.9-0.6-2.1-0.8-2.9h-0.1
				c0,1.1-0.1,2.3-0.1,3.2l-0.2,3.8h-2L152.8,457.6z"/>
			<path fill="#231F20" d="M165.5,467.2l4.4-13.2h1.5l-4.4,13.2H165.5z"/>
			<path fill="#231F20" d="M179.4,456.3c-0.3,0-0.7,0-1.2,0.1c-2.5,0.3-3.7,1.8-4,3.5h0.1c0.6-0.7,1.5-1.2,2.6-1.2
				c2,0,3.6,1.5,3.6,3.9c0,2.2-1.6,4.3-4.2,4.3c-2.9,0-4.4-2.2-4.4-5.1c0-2.3,0.8-4.2,2-5.3c1.1-1.1,2.5-1.6,4.2-1.7
				c0.5-0.1,0.9-0.1,1.2,0L179.4,456.3z M178.3,462.6c0-1.4-0.8-2.3-2-2.3c-0.9,0-1.5,0.5-1.9,1.3c-0.1,0.2-0.2,0.4-0.2,0.7
				c0,1.5,0.8,2.8,2.2,2.8C177.6,465,178.3,464,178.3,462.6z"/>
			<path fill="#231F20" d="M189.4,456.5h-4.5l-0.4,2.3c0.3,0,0.5-0.1,0.9-0.1c1.1,0,2,0.2,2.9,0.8s1.5,1.5,1.5,3
				c0,2.2-1.8,4.1-4.7,4.1c-1.4,0-2.5-0.4-3.1-0.7l0.5-1.6c0.5,0.3,1.5,0.6,2.6,0.6c1.4,0,2.6-0.8,2.6-2.1c0-1.4-1-2.2-3.4-2.2
				c-0.7,0-1.2,0-1.6,0.1l0.8-6h6.1L189.4,456.5L189.4,456.5z"/>
			<path fill="#231F20" d="M192.3,457.6h2.8l1.3,3.9c0.2,0.6,0.5,1.5,0.7,2.3l0,0c0.2-0.7,0.6-1.7,0.9-2.7l1.2-3.5h2.8l0.6,8.9h-2.1
				l-0.2-3.9c0-0.9-0.1-2-0.1-3.1h0.1c-0.3,1.1-0.5,1.5-0.9,2.9l-1.5,4h-1.6l-1.3-3.9c-0.3-0.9-0.6-2.1-0.8-2.9h-0.1
				c0,1.1-0.1,2.3-0.1,3.2l-0.2,3.8h-2L192.3,457.6z"/>
			<path fill="#231F20" d="M204.8,457.6h2.8l1.3,3.9c0.2,0.6,0.5,1.5,0.7,2.3l0,0c0.2-0.7,0.6-1.7,0.9-2.7l1.2-3.5h2.8l0.6,8.9h-2.1
				l-0.2-3.9c0-0.9-0.1-2-0.1-3.1h-0.1c-0.3,1.1-0.5,1.5-0.9,2.9l-1.5,4h-1.6l-1.3-3.9c-0.3-0.9-0.6-2.1-0.8-2.9h-0.1
				c0,1.1-0.1,2.3-0.1,3.2l-0.2,3.8h-2L204.8,457.6z"/>
			<path fill="#231F20" d="M217.4,467.2l4.4-13.2h1.5l-4.4,13.2H217.4z"/>
			<path fill="#231F20" d="M231.7,456.5h-4.5l-0.4,2.3c0.3,0,0.5-0.1,0.9-0.1c1.1,0,2,0.2,2.9,0.8c0.9,0.6,1.5,1.5,1.5,3
				c0,2.2-1.8,4.1-4.7,4.1c-1.4,0-2.5-0.4-3.1-0.7l0.5-1.6c0.5,0.3,1.5,0.6,2.6,0.6c1.4,0,2.6-0.8,2.6-2.1c0-1.4-1-2.2-3.4-2.2
				c-0.7,0-1.2,0-1.6,0.1l0.8-6h6.1L231.7,456.5L231.7,456.5z"/>
			<path fill="#231F20" d="M242.2,460.5c0,3.8-1.5,6.2-4.4,6.2c-2.7,0-4.2-2.5-4.2-6.1c0-3.7,1.5-6.2,4.4-6.2
				C240.9,454.4,242.2,456.9,242.2,460.5z M236,460.6c0,2.9,0.8,4.4,2,4.4c1.4,0,2-1.6,2-4.4c0-2.7-0.7-4.4-2-4.4
				C236.8,456.2,236,457.6,236,460.6z"/>
			<path fill="#231F20" d="M245,457.6h2.8l1.3,3.9c0.2,0.6,0.5,1.5,0.7,2.3l0,0c0.2-0.7,0.6-1.7,0.9-2.7l1.2-3.5h2.8l0.6,8.9h-2.1
				l-0.2-3.9c0-0.9-0.1-2-0.1-3.1h-0.1c-0.3,1.1-0.5,1.5-0.9,2.9l-1.5,4h-1.6l-1.3-3.9c-0.3-0.9-0.6-2.1-0.8-2.9h-0.1
				c0,1.1-0.1,2.3-0.1,3.2l-0.2,3.8h-2L245,457.6z"/>
			<path fill="#231F20" d="M257.4,457.6h2.8l1.3,3.9c0.2,0.6,0.5,1.5,0.7,2.3l0,0c0.2-0.7,0.6-1.7,0.9-2.7l1.2-3.5h2.8l0.6,8.9h-2.1
				l-0.2-3.9c0-0.9-0.1-2-0.1-3.1h-0.1c-0.3,1.1-0.5,1.5-0.9,2.9l-1.5,4h-1.6l-1.3-3.9c-0.3-0.9-0.6-2.1-0.8-2.9h0.1
				c0,1.1-0.1,2.3-0.1,3.2l-0.2,3.8h-2L257.4,457.6z"/>
		</g>
		<g>
			<g>
				<path fill="#314B34" d="M93.3,538.3c0-0.1,0-0.1,0-0.2c-0.1-0.1-0.1-0.1-0.2-0.2c-4.5-4.4-13.2-7.9-18.9-5.7
					c-0.6,0.6-0.6,0.1-1.5,0.2l0,0c-1-0.1-0.9,0.4-1.5-0.2c-5.9-2.3-14.8,1.6-19.2,6.1l0,0l0,0v274.6h41.4V538.3H93.3L93.3,538.3z"
					/>
				<path fill="#211F1F" d="M93.4,813.5H52c-0.3,0-0.6-0.3-0.6-0.6V538.4c0-0.1,0-0.3,0-0.4l0,0c0-0.1,0.1-0.1,0.1-0.2l0,0
					c3.4-3.5,9.9-6.9,15.8-6.9c1.5,0,2.9,0.3,4.2,0.7c0.1,0,0.2,0.1,0.2,0.1l0.1,0.1l0,0c0.2,0,0.5-0.1,0.9-0.1
					c0.5-0.1,0.8,0,0.9,0.1l0,0c0,0,0.1,0,0.1-0.1c0.1-0.1,0.1-0.1,0.2-0.1c1.3-0.5,2.6-0.7,4.2-0.7c5.8,0,12.1,3.4,15.4,6.6
					c0.1,0.1,0.1,0.1,0.2,0.2l0.1,0.1c0.1,0.1,0.2,0.3,0.2,0.5v274.6C94,813.2,93.7,813.5,93.4,813.5z M52.7,812.2h40.1V538.6
					c0-0.1-0.1-0.1-0.1-0.2c0,0,0,0-0.1-0.1c-3.2-3-9-6.3-14.5-6.3c-1.4,0-2.5,0.2-3.6,0.6c-0.2,0.2-0.5,0.4-0.8,0.4
					c-0.1,0-0.3,0-0.4-0.1c-0.2,0-0.3-0.1-0.6,0c-0.1,0-0.1,0-0.2,0c-0.2,0-0.4,0-0.5,0c-0.1,0-0.2,0.1-0.4,0.1
					c-0.3,0-0.6-0.2-0.8-0.4c-1.1-0.4-2.3-0.6-3.6-0.6c-5.4,0-11.4,3.2-14.7,6.4V812.2z"/>
			</g>
			<g>
				<g>
					<rect x="70.4" y="532.2" fill="#211F1F" width="1.3" height="280.6"/>
				</g>
				<g>
					<rect x="73.8" y="532.2" fill="#211F1F" width="1.3" height="280.6"/>
				</g>
			</g>
		</g>
		<g>
			<g>
				<path fill="#314B34" d="M167.9,538.3c0-0.1,0-0.1,0-0.2c-0.1-0.1-0.1-0.1-0.2-0.2c-4.5-4.4-13.2-7.9-18.9-5.7
					c-0.6,0.6-0.6,0.1-1.5,0.2l0,0c-1-0.1-0.9,0.4-1.5-0.2c-5.9-2.3-14.8,1.6-19.2,6.1l0,0l0,0v274.6h41.4V538.3H167.9L167.9,538.3z
					"/>
				<path fill="#211F1F" d="M168,813.5h-41.4c-0.3,0-0.6-0.3-0.6-0.6V538.4c0-0.1,0-0.3,0-0.4l0,0c0-0.1,0.1-0.1,0.1-0.2l0,0
					c3.4-3.5,9.9-6.9,15.8-6.9c1.5,0,2.9,0.3,4.2,0.7c0.1,0,0.2,0.1,0.2,0.1l0.1,0.1l0,0c0.2,0,0.5-0.1,0.9-0.1
					c0.5-0.1,0.8,0,0.9,0.1l0,0c0,0,0,0,0.1-0.1c0.1-0.1,0.1-0.1,0.2-0.1c1.3-0.5,2.6-0.7,4.2-0.7c5.8,0,12.1,3.4,15.4,6.6
					c0.1,0.1,0.1,0.1,0.2,0.2l0.1,0.1c0.1,0.1,0.2,0.3,0.2,0.5v274.6C168.6,813.2,168.3,813.5,168,813.5z M127.3,812.2h40.1V538.6
					c0-0.1-0.1-0.1-0.1-0.2c0,0,0,0-0.1-0.1c-3.2-3-9-6.3-14.5-6.3c-1.4,0-2.5,0.2-3.6,0.6c-0.2,0.2-0.5,0.4-0.8,0.4
					c-0.1,0-0.3,0-0.4-0.1c-0.2,0-0.3-0.1-0.6,0c-0.1,0-0.1,0-0.2,0c-0.2,0-0.4,0-0.5,0s-0.2,0.1-0.4,0.1c-0.3,0-0.6-0.2-0.8-0.4
					c-1.1-0.4-2.3-0.6-3.6-0.6c-5.4,0-11.4,3.2-14.7,6.4V812.2z"/>
			</g>
			<g>
				<g>
					<rect x="145" y="532.2" fill="#211F1F" width="1.3" height="280.6"/>
				</g>
				<g>
					<rect x="148.3" y="532.2" fill="#211F1F" width="1.3" height="280.6"/>
				</g>
			</g>
		</g>
		<g>
			<g>
				<path fill="#314B34" d="M242.4,538.3c0-0.1,0-0.1,0-0.2c-0.1-0.1-0.1-0.1-0.2-0.2c-4.5-4.4-13.2-7.9-18.9-5.7
					c-0.6,0.6-0.6,0.1-1.5,0.2l0,0c-1-0.1-0.9,0.4-1.5-0.2c-5.9-2.3-14.8,1.6-19.2,6.1l0,0l0,0v274.6h41.4V538.3H242.4L242.4,538.3z
					"/>
				<path fill="#211F1F" d="M242.5,813.5h-41.4c-0.3,0-0.6-0.3-0.6-0.6V538.4c0-0.1,0-0.3,0-0.4l0,0l0.1-0.1l0,0
					c3.4-3.5,9.9-6.9,15.8-6.9c1.5,0,2.9,0.3,4.2,0.7c0.1,0,0.2,0.1,0.2,0.1l0.1,0.1l0,0c0.2,0,0.5-0.1,0.9-0.1
					c0.5-0.1,0.8,0,0.9,0.1l0,0c0,0,0.1,0,0.1-0.1c0.1-0.1,0.1-0.1,0.2-0.1c1.3-0.5,2.6-0.7,4.2-0.7c5.8,0,12.1,3.4,15.4,6.6
					l0.2,0.2c0,0,0.1,0.1,0.1,0.2c0.1,0.1,0.2,0.3,0.2,0.5v274.6C243.1,813.2,242.8,813.5,242.5,813.5z M201.8,812.2H242V538.6
					c0-0.1-0.1-0.1-0.1-0.2l-0.1-0.1c-3.1-3-9-6.2-14.5-6.2c-1.4,0-2.5,0.2-3.6,0.6c-0.2,0.2-0.5,0.4-0.8,0.4c-0.1,0-0.3,0-0.4-0.1
					c-0.2,0-0.3-0.1-0.6,0c-0.1,0-0.1,0-0.2,0c-0.2,0-0.4,0-0.5,0c-0.1,0-0.2,0.1-0.4,0.1c-0.3,0-0.6-0.2-0.8-0.4
					c-1.1-0.4-2.3-0.6-3.6-0.6c-5.4,0-11.4,3.2-14.7,6.4V812.2z"/>
			</g>
			<g>
				<g>
					<rect x="219.5" y="532.2" fill="#211F1F" width="1.3" height="280.6"/>
				</g>
				<g>
					<rect x="222.9" y="532.2" fill="#211F1F" width="1.3" height="280.6"/>
				</g>
			</g>
		</g>
		<g>
			<g>
				<path fill="#187D41" d="M279.7,538.3c0-0.1,0-0.1,0-0.2c-0.1-0.1-0.1-0.1-0.2-0.2c-4.5-4.4-13.2-7.9-18.9-5.7
					c-0.6,0.6-0.6,0.1-1.5,0.2l0,0c-1-0.1-0.9,0.4-1.5-0.2c-5.9-2.3-14.8,1.6-19.2,6.1l0,0H235v274.6h48.2V538.3H279.7L279.7,538.3z
					"/>
				<path fill="#211F1F" d="M283.2,813.5H235c-0.3,0-0.6-0.3-0.6-0.6V538.3c0-0.3,0.3-0.6,0.6-0.6h3.2c3.5-3.4,9.8-6.8,15.6-6.8
					c1.5,0,2.9,0.3,4.2,0.7c0.1,0,0.2,0.1,0.2,0.1l0.1,0.1l0,0c0.2,0,0.5-0.1,0.9-0.1c0.5-0.1,0.8,0,0.9,0.1l0,0c0,0,0.1,0,0.1-0.1
					c0.1-0.1,0.1-0.1,0.2-0.1c1.3-0.5,2.6-0.7,4.2-0.7c5.8,0,12.1,3.4,15.4,6.6l0.2,0.2l0,0h3.2c0.3,0,0.6,0.3,0.6,0.6v274.6
					C283.8,813.2,283.5,813.5,283.2,813.5z M235.7,812.2h47V538.9h-2.9c-0.2,0-0.4-0.1-0.5-0.3c0-0.1-0.1-0.1-0.1-0.2l-0.1-0.1
					c-3.1-3-9-6.2-14.5-6.2c-1.4,0-2.5,0.2-3.6,0.6c-0.2,0.2-0.5,0.4-0.8,0.4c-0.1,0-0.3,0-0.4-0.1c-0.2,0-0.3-0.1-0.6,0
					c-0.1,0-0.1,0-0.2,0c-0.2,0-0.4,0-0.5,0c-0.1,0-0.2,0.1-0.4,0.1c-0.3,0-0.6-0.2-0.8-0.4c-1.1-0.4-2.3-0.6-3.6-0.6
					c-5.5,0-11.6,3.3-14.8,6.5c-0.1,0.1-0.3,0.2-0.5,0.2h-2.8L235.7,812.2L235.7,812.2z"/>
			</g>
			<g>
				<g>
					<rect x="256.8" y="532.2" fill="#211F1F" width="1.3" height="280.6"/>
				</g>
				<g>
					<rect x="260.2" y="532.2" fill="#211F1F" width="1.3" height="280.6"/>
				</g>
			</g>
			<g>
				<g>
					<rect x="237.8" y="538.2" fill="#211F1F" width="1.3" height="274.6"/>
				</g>
				<g>
					<rect x="279.2" y="538.2" fill="#211F1F" width="1.3" height="274.6"/>
				</g>
			</g>
		</g>
		<g>
			<g>
				<path fill="#187D41" d="M205.1,538.3c0-0.1,0-0.1,0-0.2c-0.1-0.1-0.1-0.1-0.2-0.2c-4.5-4.4-13.2-7.9-18.9-5.7
					c-0.6,0.6-0.6,0.1-1.5,0.2l0,0c-1-0.1-0.9,0.4-1.5-0.2c-5.9-2.3-14.8,1.6-19.2,6.1l0,0h-3.4v274.6h48.2V538.3H205.1L205.1,538.3
					z"/>
				<path fill="#211F1F" d="M208.7,813.5h-48.2c-0.3,0-0.6-0.3-0.6-0.6V538.3c0-0.3,0.3-0.6,0.6-0.6h3.2c3.5-3.4,9.8-6.8,15.6-6.8
					c1.5,0,2.9,0.3,4.2,0.7c0.1,0,0.2,0.1,0.2,0.1l0.1,0.1l0,0c0.2,0,0.5-0.1,0.9-0.1c0.5-0.1,0.8,0,0.9,0.1l0,0c0,0,0,0,0.1-0.1
					c0.1-0.1,0.1-0.1,0.2-0.1c1.3-0.5,2.6-0.7,4.2-0.7c5.8,0,12.1,3.4,15.4,6.6l0.2,0.2h3.2c0.3,0,0.6,0.3,0.6,0.6v274.6
					C209.3,813.2,209,813.5,208.7,813.5z M161.1,812.2h47V538.9h-2.9c-0.2,0-0.4-0.1-0.5-0.3c0-0.1-0.1-0.1-0.1-0.2l-0.1-0.1
					c-3.1-3-9-6.2-14.5-6.2c-1.4,0-2.5,0.2-3.6,0.6c-0.2,0.2-0.5,0.4-0.8,0.4c-0.1,0-0.3,0-0.4-0.1c-0.2,0-0.3-0.1-0.6,0
					c-0.1,0-0.1,0-0.2,0c-0.2,0-0.4,0-0.5,0s-0.2,0.1-0.4,0.1c-0.3,0-0.6-0.2-0.8-0.4c-1.1-0.4-2.3-0.6-3.6-0.6
					c-5.5,0-11.6,3.3-14.8,6.5c-0.1,0.1-0.3,0.2-0.5,0.2h-2.8L161.1,812.2L161.1,812.2z"/>
			</g>
			<g>
				<g>
					<rect x="182.3" y="532.2" fill="#211F1F" width="1.3" height="280.6"/>
				</g>
				<g>
					<rect x="185.7" y="532.2" fill="#211F1F" width="1.3" height="280.6"/>
				</g>
			</g>
			<g>
				<g>
					<rect x="163.2" y="538.2" fill="#211F1F" width="1.3" height="274.6"/>
				</g>
				<g>
					<rect x="204.6" y="538.2" fill="#211F1F" width="1.3" height="274.6"/>
				</g>
			</g>
		</g>
		<g>
			<g>
				<path fill="#187D41" d="M130.6,538.3c0-0.1,0-0.1,0-0.2c-0.1-0.1-0.1-0.1-0.2-0.2c-4.5-4.4-13.2-7.9-18.9-5.7
					c-0.6,0.6-0.6,0.1-1.5,0.2l0,0c-1-0.1-0.9,0.4-1.5-0.2c-5.9-2.3-14.8,1.6-19.2,6.1l0,0H86v274.6h48.2V538.3H130.6L130.6,538.3z"
					/>
				<path fill="#211F1F" d="M134.1,813.5H85.9c-0.3,0-0.6-0.3-0.6-0.6V538.3c0-0.3,0.3-0.6,0.6-0.6h3.2c3.5-3.4,9.8-6.8,15.6-6.8
					c1.5,0,2.9,0.3,4.2,0.7c0.1,0,0.2,0.1,0.2,0.1l0.1,0.1l0,0c0.2,0,0.5-0.1,0.9-0.1c0.5-0.1,0.8,0,0.9,0.1l0,0c0,0,0.1,0,0.1-0.1
					c0.1-0.1,0.1-0.1,0.2-0.1c1.3-0.5,2.6-0.7,4.2-0.7c5.8,0,12.1,3.4,15.4,6.6l0.2,0.2l0,0h3.2c0.3,0,0.6,0.3,0.6,0.6v274.6
					C134.7,813.2,134.4,813.5,134.1,813.5z M86.6,812.2h46.9V538.9h-2.9c-0.2,0-0.4-0.1-0.5-0.3c0-0.1-0.1-0.1-0.1-0.2l-0.1-0.1
					c-3.1-3-9-6.2-14.5-6.2c-1.4,0-2.5,0.2-3.6,0.6c-0.2,0.2-0.5,0.4-0.8,0.4c-0.1,0-0.3,0-0.4-0.1c-0.2,0-0.3-0.1-0.6,0
					c-0.1,0-0.1,0-0.2,0c-0.2,0-0.4,0-0.5,0s-0.2,0.1-0.4,0.1c-0.3,0-0.6-0.2-0.8-0.4c-1.1-0.4-2.3-0.6-3.6-0.6
					c-5.5,0-11.6,3.3-14.8,6.6l0,0c-0.1,0.1-0.3,0.2-0.4,0.2h-2.8L86.6,812.2L86.6,812.2z"/>
			</g>
			<g>
				<g>
					<rect x="107.7" y="532.2" fill="#211F1F" width="1.3" height="280.6"/>
				</g>
				<g>
					<rect x="111.1" y="532.2" fill="#211F1F" width="1.3" height="280.6"/>
				</g>
			</g>
			<g>
				<g>
					<rect x="88.7" y="538.2" fill="#211F1F" width="1.3" height="274.6"/>
				</g>
				<g>
					<rect x="130.1" y="538.2" fill="#211F1F" width="1.3" height="274.6"/>
				</g>
			</g>
		</g>
		<g>
			<g>
				<path fill="#187D41" d="M56,538.3c0-0.1,0-0.1,0-0.2c-0.1-0.1-0.1-0.1-0.2-0.2c-4.5-4.4-13.2-7.9-18.9-5.7
					c-0.6,0.6-0.6,0.1-1.5,0.2l0,0c-1-0.1-0.9,0.4-1.5-0.2c-5.9-2.3-14.8,1.6-19.2,6.1l0,0h-3.4v274.6h48.2V538.3H56L56,538.3z"/>
				<path fill="#211F1F" d="M59.6,813.5H11.3c-0.3,0-0.6-0.3-0.6-0.6V538.3c0-0.3,0.3-0.6,0.6-0.6h3.2c3.5-3.4,9.8-6.8,15.6-6.8
					c1.5,0,2.9,0.3,4.2,0.7c0.1,0,0.2,0.1,0.2,0.1l0.1,0.1l0,0c0.2,0,0.5-0.1,0.9-0.1c0.5-0.1,0.8,0,0.9,0.1l0,0c0,0,0.1,0,0.1-0.1
					c0.1-0.1,0.1-0.1,0.2-0.1c1.3-0.5,2.6-0.7,4.2-0.7c5.8,0,12.1,3.4,15.4,6.6c0.1,0.1,0.1,0.1,0.2,0.2l0,0h3.2
					c0.3,0,0.6,0.3,0.6,0.6v274.6C60.2,813.2,59.9,813.5,59.6,813.5z M12,812.2h47V538.9h-2.9c-0.2,0-0.4-0.1-0.5-0.3
					c0-0.1-0.1-0.1-0.1-0.2c0,0,0,0-0.1-0.1c-3.2-3-9-6.3-14.5-6.3c-1.4,0-2.5,0.2-3.6,0.6c-0.2,0.2-0.5,0.4-0.8,0.4
					c-0.1,0-0.3,0-0.4-0.1c-0.2,0-0.3-0.1-0.6,0c-0.1,0-0.1,0-0.2,0c-0.2,0-0.4,0-0.5,0c-0.1,0-0.2,0.1-0.4,0.1
					c-0.3,0-0.6-0.2-0.8-0.4c-1.1-0.4-2.3-0.6-3.6-0.6c-5.5,0-11.6,3.3-14.8,6.6l0,0c-0.1,0.1-0.3,0.2-0.4,0.2h-2.8v273.5H12z"/>
			</g>
			<g>
				<g>
					<rect x="33.2" y="532.2" fill="#211F1F" width="1.3" height="280.6"/>
				</g>
				<g>
					<rect x="36.6" y="532.2" fill="#211F1F" width="1.3" height="280.6"/>
				</g>
			</g>
			<g>
				<g>
					<rect x="14.1" y="538.2" fill="#211F1F" width="1.3" height="274.6"/>
				</g>
				<g>
					<rect x="55.5" y="538.2" fill="#211F1F" width="1.3" height="274.6"/>
				</g>
			</g>
		</g>
		<polygon fill="#010101" points="188.5,446 188.5,445.2 5.8,445.2 5.8,445.2 5.7,445.2 5.7,481.1 3.8,481.1 5.8,488.8 5.7,488.8 
			5.7,499.1 5.9,499.1 3.7,507.2 5.7,507.2 5.7,515.5 6.5,515.5 6.5,507.2 8.4,507.2 6.3,499.1 6.5,499.1 6.5,488.8 6.4,488.8 
			8.4,481.1 6.5,481.1 6.5,446 		"/>
		<g>
			<g>
				<rect x="1" y="602.8" fill="#9C9EA1" width="288.8" height="16.1"/>
				<path fill="#211F1F" d="M289.8,619.5H1c-0.3,0-0.6-0.3-0.6-0.6v-16.1c0-0.3,0.3-0.6,0.6-0.6h288.8c0.3,0,0.6,0.3,0.6,0.6v16.1
					C290.4,619.2,290.2,619.5,289.8,619.5z M1.6,618.2h287.7v-14.9H1.6V618.2z"/>
			</g>
			<g>
				<rect x="1" y="606.2" fill="#211F1F" width="288.8" height="2.3"/>
				<rect x="1" y="613.1" fill="#211F1F" width="288.8" height="2.3"/>
			</g>
		</g>
		<g>
			<g>
				<rect x="1" y="753.9" fill="#9C9EA1" width="288.8" height="16.1"/>
				<path fill="#211F1F" d="M289.8,770.6H1c-0.3,0-0.6-0.3-0.6-0.6V754c0-0.3,0.3-0.6,0.6-0.6h288.8c0.3,0,0.6,0.3,0.6,0.6v16.1
					C290.4,770.3,290.2,770.6,289.8,770.6z M1.6,769.5h287.7v-14.9H1.6V769.5z"/>
			</g>
			<g>
				<rect x="1" y="757.3" fill="#211F1F" width="288.8" height="2.3"/>
				<rect x="1" y="764.4" fill="#211F1F" width="288.8" height="2.3"/>
			</g>
		</g>
		<g>
			<g>
				<g>
					<path fill="#187D41" d="M279.7,538.3c0-0.1,0-0.1,0-0.2c-0.1-0.1-0.1-0.1-0.2-0.2c-4.5-4.4-13.2-7.9-18.9-5.7
						c-0.6,0.6-0.6,0.1-1.5,0.2l0,0c-1-0.1-0.9,0.4-1.5-0.2c-5.9-2.3-14.8,1.6-19.2,6.1l0,0H235v274.6h48.2V538.3H279.7L279.7,538.3
						z"/>
					<path fill="#211F1F" d="M283.2,813.5H235c-0.3,0-0.6-0.3-0.6-0.6V538.3c0-0.3,0.3-0.6,0.6-0.6h3.2c3.5-3.4,9.8-6.8,15.6-6.8
						c1.5,0,2.9,0.3,4.2,0.7c0.1,0,0.2,0.1,0.2,0.1l0.1,0.1l0,0c0.2,0,0.5-0.1,0.9-0.1c0.5-0.1,0.8,0,0.9,0.1l0,0c0,0,0.1,0,0.1-0.1
						c0.1-0.1,0.1-0.1,0.2-0.1c1.3-0.5,2.6-0.7,4.2-0.7c5.8,0,12.1,3.4,15.4,6.6l0.2,0.2l0,0h3.2c0.3,0,0.6,0.3,0.6,0.6v274.6
						C283.8,813.2,283.5,813.5,283.2,813.5z M235.7,812.2h47V538.9h-2.9c-0.2,0-0.4-0.1-0.5-0.3c0-0.1-0.1-0.1-0.1-0.2l-0.1-0.1
						c-3.1-3-9-6.2-14.5-6.2c-1.4,0-2.5,0.2-3.6,0.6c-0.2,0.2-0.5,0.4-0.8,0.4c-0.1,0-0.3,0-0.4-0.1c-0.2,0-0.3-0.1-0.6,0
						c-0.1,0-0.1,0-0.2,0c-0.2,0-0.4,0-0.5,0c-0.1,0-0.2,0.1-0.4,0.1c-0.3,0-0.6-0.2-0.8-0.4c-1.1-0.4-2.3-0.6-3.6-0.6
						c-5.5,0-11.6,3.3-14.8,6.5c-0.1,0.1-0.3,0.2-0.5,0.2h-2.8L235.7,812.2L235.7,812.2z"/>
				</g>
				<g>
					<g>
						<rect x="256.8" y="532.2" fill="#211F1F" width="1.3" height="280.6"/>
					</g>
					<g>
						<rect x="260.2" y="532.2" fill="#211F1F" width="1.3" height="280.6"/>
					</g>
				</g>
				<g>
					<g>
						<rect x="237.8" y="538.2" fill="#211F1F" width="1.3" height="274.6"/>
					</g>
					<g>
						<rect x="279.2" y="538.2" fill="#211F1F" width="1.3" height="274.6"/>
					</g>
				</g>
			</g>
			<g>
				<g>
					<path fill="#187D41" d="M205.1,538.3c0-0.1,0-0.1,0-0.2c-0.1-0.1-0.1-0.1-0.2-0.2c-4.5-4.4-13.2-7.9-18.9-5.7
						c-0.6,0.6-0.6,0.1-1.5,0.2l0,0c-1-0.1-0.9,0.4-1.5-0.2c-5.9-2.3-14.8,1.6-19.2,6.1l0,0h-3.4v274.6h48.2V538.3H205.1
						L205.1,538.3z"/>
					<path fill="#211F1F" d="M208.7,813.5h-48.2c-0.3,0-0.6-0.3-0.6-0.6V538.3c0-0.3,0.3-0.6,0.6-0.6h3.2c3.5-3.4,9.8-6.8,15.6-6.8
						c1.5,0,2.9,0.3,4.2,0.7c0.1,0,0.2,0.1,0.2,0.1l0.1,0.1l0,0c0.2,0,0.5-0.1,0.9-0.1c0.5-0.1,0.8,0,0.9,0.1l0,0c0,0,0,0,0.1-0.1
						c0.1-0.1,0.1-0.1,0.2-0.1c1.3-0.5,2.6-0.7,4.2-0.7c5.8,0,12.1,3.4,15.4,6.6l0.2,0.2h3.2c0.3,0,0.6,0.3,0.6,0.6v274.6
						C209.3,813.2,209,813.5,208.7,813.5z M161.1,812.2h47V538.9h-2.9c-0.2,0-0.4-0.1-0.5-0.3c0-0.1-0.1-0.1-0.1-0.2l-0.1-0.1
						c-3.1-3-9-6.2-14.5-6.2c-1.4,0-2.5,0.2-3.6,0.6c-0.2,0.2-0.5,0.4-0.8,0.4c-0.1,0-0.3,0-0.4-0.1c-0.2,0-0.3-0.1-0.6,0
						c-0.1,0-0.1,0-0.2,0c-0.2,0-0.4,0-0.5,0s-0.2,0.1-0.4,0.1c-0.3,0-0.6-0.2-0.8-0.4c-1.1-0.4-2.3-0.6-3.6-0.6
						c-5.5,0-11.6,3.3-14.8,6.5c-0.1,0.1-0.3,0.2-0.5,0.2h-2.8L161.1,812.2L161.1,812.2z"/>
				</g>
				<g>
					<g>
						<rect x="182.3" y="532.2" fill="#211F1F" width="1.3" height="280.6"/>
					</g>
					<g>
						<rect x="185.7" y="532.2" fill="#211F1F" width="1.3" height="280.6"/>
					</g>
				</g>
				<g>
					<g>
						<rect x="163.2" y="538.2" fill="#211F1F" width="1.3" height="274.6"/>
					</g>
					<g>
						<rect x="204.6" y="538.2" fill="#211F1F" width="1.3" height="274.6"/>
					</g>
				</g>
			</g>
			<g>
				<g>
					<path fill="#187D41" d="M130.6,538.3c0-0.1,0-0.1,0-0.2c-0.1-0.1-0.1-0.1-0.2-0.2c-4.5-4.4-13.2-7.9-18.9-5.7
						c-0.6,0.6-0.6,0.1-1.5,0.2l0,0c-1-0.1-0.9,0.4-1.5-0.2c-5.9-2.3-14.8,1.6-19.2,6.1l0,0H86v274.6h48.2V538.3H130.6L130.6,538.3z
						"/>
					<path fill="#211F1F" d="M134.1,813.5H85.9c-0.3,0-0.6-0.3-0.6-0.6V538.3c0-0.3,0.3-0.6,0.6-0.6h3.2c3.5-3.4,9.8-6.8,15.6-6.8
						c1.5,0,2.9,0.3,4.2,0.7c0.1,0,0.2,0.1,0.2,0.1l0.1,0.1l0,0c0.2,0,0.5-0.1,0.9-0.1c0.5-0.1,0.8,0,0.9,0.1l0,0c0,0,0.1,0,0.1-0.1
						c0.1-0.1,0.1-0.1,0.2-0.1c1.3-0.5,2.6-0.7,4.2-0.7c5.8,0,12.1,3.4,15.4,6.6l0.2,0.2l0,0h3.2c0.3,0,0.6,0.3,0.6,0.6v274.6
						C134.7,813.2,134.4,813.5,134.1,813.5z M86.6,812.2h46.9V538.9h-2.9c-0.2,0-0.4-0.1-0.5-0.3c0-0.1-0.1-0.1-0.1-0.2l-0.1-0.1
						c-3.1-3-9-6.2-14.5-6.2c-1.4,0-2.5,0.2-3.6,0.6c-0.2,0.2-0.5,0.4-0.8,0.4c-0.1,0-0.3,0-0.4-0.1c-0.2,0-0.3-0.1-0.6,0
						c-0.1,0-0.1,0-0.2,0c-0.2,0-0.4,0-0.5,0s-0.2,0.1-0.4,0.1c-0.3,0-0.6-0.2-0.8-0.4c-1.1-0.4-2.3-0.6-3.6-0.6
						c-5.5,0-11.6,3.3-14.8,6.6l0,0c-0.1,0.1-0.3,0.2-0.4,0.2h-2.8L86.6,812.2L86.6,812.2z"/>
				</g>
				<g>
					<g>
						<rect x="107.7" y="532.2" fill="#211F1F" width="1.3" height="280.6"/>
					</g>
					<g>
						<rect x="111.1" y="532.2" fill="#211F1F" width="1.3" height="280.6"/>
					</g>
				</g>
				<g>
					<g>
						<rect x="88.7" y="538.2" fill="#211F1F" width="1.3" height="274.6"/>
					</g>
					<g>
						<rect x="130.1" y="538.2" fill="#211F1F" width="1.3" height="274.6"/>
					</g>
				</g>
			</g>
			<g>
				<g>
					<path fill="#187D41" d="M56,538.3c0-0.1,0-0.1,0-0.2c-0.1-0.1-0.1-0.1-0.2-0.2c-4.5-4.4-13.2-7.9-18.9-5.7
						c-0.6,0.6-0.6,0.1-1.5,0.2l0,0c-1-0.1-0.9,0.4-1.5-0.2c-5.9-2.3-14.8,1.6-19.2,6.1l0,0h-3.4v274.6h48.2V538.3H56L56,538.3z"/>
					<path fill="#211F1F" d="M59.6,813.5H11.3c-0.3,0-0.6-0.3-0.6-0.6V538.3c0-0.3,0.3-0.6,0.6-0.6h3.2c3.5-3.4,9.8-6.8,15.6-6.8
						c1.5,0,2.9,0.3,4.2,0.7c0.1,0,0.2,0.1,0.2,0.1l0.1,0.1l0,0c0.2,0,0.5-0.1,0.9-0.1c0.5-0.1,0.8,0,0.9,0.1l0,0c0,0,0.1,0,0.1-0.1
						c0.1-0.1,0.1-0.1,0.2-0.1c1.3-0.5,2.6-0.7,4.2-0.7c5.8,0,12.1,3.4,15.4,6.6c0.1,0.1,0.1,0.1,0.2,0.2l0,0h3.2
						c0.3,0,0.6,0.3,0.6,0.6v274.6C60.2,813.2,59.9,813.5,59.6,813.5z M12,812.2h47V538.9h-2.9c-0.2,0-0.4-0.1-0.5-0.3
						c0-0.1-0.1-0.1-0.1-0.2c0,0,0,0-0.1-0.1c-3.2-3-9-6.3-14.5-6.3c-1.4,0-2.5,0.2-3.6,0.6c-0.2,0.2-0.5,0.4-0.8,0.4
						c-0.1,0-0.3,0-0.4-0.1c-0.2,0-0.3-0.1-0.6,0c-0.1,0-0.1,0-0.2,0c-0.2,0-0.4,0-0.5,0c-0.1,0-0.2,0.1-0.4,0.1
						c-0.3,0-0.6-0.2-0.8-0.4c-1.1-0.4-2.3-0.6-3.6-0.6c-5.5,0-11.6,3.3-14.8,6.6l0,0c-0.1,0.1-0.3,0.2-0.4,0.2h-2.8v273.5H12z"/>
				</g>
				<g>
					<g>
						<rect x="33.2" y="532.2" fill="#211F1F" width="1.3" height="280.6"/>
					</g>
					<g>
						<rect x="36.6" y="532.2" fill="#211F1F" width="1.3" height="280.6"/>
					</g>
				</g>
				<g>
					<g>
						<rect x="14.1" y="538.2" fill="#211F1F" width="1.3" height="274.6"/>
					</g>
					<g>
						<rect x="55.5" y="538.2" fill="#211F1F" width="1.3" height="274.6"/>
					</g>
				</g>
			</g>
		</g>
	</g>
</g>
</svg>
