<svg xmlns="http://www.w3.org/2000/svg" width="292" height="413.9" viewBox="0 0 292 413.9"><path fill="#010101" d="M241.8 81.9c-6.1 0-13.6-2.2-14.8-4.3-.1-.2-.3-.7-.5-1.1-.8-.1-2.7 0-3.8.1h-.1c-1 0-1.6-.6-1.6-1.3 0-.7.7-1.3 1.6-1.3h1.8c.4 0 .8.3.8.8.7 0 1.4 0 1.7.1 0 0 .8.2 1 .8.1.3.3.9.4 1 .9 1.5 10.1 4.2 16.1 3.2 0 0 0-.1.1-.1.2-.3.6-.9 1.5-1 .5 0 .9.3.9.8s-.3.9-.8.9c0 0-.1.1-.1.2-.1.2-.3.6-.8.8-.1 0-.1.1-.2.1-.9.2-2 .3-3.2.3z"/><path fill="#010101" d="M250.3 81.9c-1.2 0-2.2-.1-3.2-.3-.1 0-.1 0-.2-.1-.4-.2-.6-.5-.8-.8 0-.1-.1-.2-.1-.2-.5 0-.8-.4-.8-.9s.4-.8.9-.8c.9 0 1.3.7 1.5 1v.1c6 1 15.2-1.6 16.1-3.2.1-.1.3-.7.4-1 .2-.6.9-.8 1-.8.4-.1 1.1-.2 1.7-.1 0-.4.4-.8.8-.8h1.8c1 0 1.6.6 1.6 1.3 0 .7-.7 1.3-1.6 1.3h-.1c-1.1-.1-3-.2-3.8-.1-.1.4-.3.9-.5 1.1-1.1 2.2-8.8 4.3-14.7 4.3zm-76.3 0c-6.1 0-13.6-2.2-14.8-4.3-.1-.2-.3-.7-.5-1.1-.8-.1-2.7 0-3.8.1h-.1c-1 0-1.6-.6-1.6-1.3 0-.7.7-1.3 1.6-1.3h1.8c.4 0 .8.3.8.8.7 0 1.4 0 1.7.1.2 0 .8.3 1 .8.1.3.3.9.4 1 .9 1.5 10.1 4.2 16.1 3.2 0 0 0-.1.1-.1.2-.3.6-.9 1.5-1 .5 0 .9.3.9.8s-.3.9-.8.9c0 0-.1.1-.1.2-.1.2-.3.6-.8.8-.1 0-.1.1-.2.1-1 .2-2.1.3-3.2.3z"/><path fill="#010101" d="M182.4 81.9c-1.2 0-2.2-.1-3.2-.3-.1 0-.1 0-.2-.1-.4-.2-.6-.5-.8-.8 0-.1-.1-.2-.1-.2-.5 0-.8-.4-.8-.9s.4-.8.9-.8c.9 0 1.3.7 1.5 1v.1c6 1 15.2-1.6 16.1-3.2.1-.1.3-.7.4-1 .1-.6.9-.8 1-.8.4-.1 1.1-.1 1.7-.1 0-.4.4-.8.8-.8h1.8c1 0 1.6.6 1.6 1.3 0 .7-.7 1.4-1.7 1.4h-.1c-1.1-.1-3-.2-3.8-.1-.1.4-.3.9-.5 1.1-1 2.1-8.6 4.2-14.6 4.2zm-76.3 0c-6.1 0-13.6-2.2-14.8-4.3-.1-.2-.3-.7-.5-1.1-.8-.1-2.7 0-3.8.1h-.1c-1 0-1.6-.6-1.6-1.3 0-.7.7-1.3 1.6-1.3h1.8c.4 0 .8.3.8.8.7 0 1.4 0 1.7.1 0 0 .8.2 1 .8.1.3.3.9.4 1 .9 1.5 10.1 4.2 16.1 3.2 0 0 0-.1.1-.1.2-.3.6-.9 1.5-1 .5 0 .9.3.9.8s-.3.9-.8.9c0 0-.1.1-.1.2-.1.2-.3.6-.8.8-.1 0-.1.1-.2.1-1 .2-2.1.3-3.2.3z"/><path fill="#010101" d="M114.5 81.9c-1.2 0-2.2-.1-3.2-.3-.1 0-.1 0-.2-.1-.4-.2-.6-.5-.8-.8 0-.1-.1-.2-.1-.2-.5 0-.8-.4-.8-.9s.4-.8.9-.8c.9 0 1.3.7 1.5 1v.1c6 1 15.2-1.6 16.1-3.2.1-.1.3-.7.4-1 .1-.5.8-.8 1-.8.4-.1 1.1-.1 1.7-.1 0-.4.4-.8.8-.8h1.8c1 0 1.6.6 1.6 1.3 0 .7-.7 1.3-1.6 1.3h-.1c-1.1-.1-3-.2-3.8-.1-.1.4-.3.9-.5 1.1-1.1 2.2-8.7 4.3-14.7 4.3zm-76.3 0c-6.1 0-13.6-2.2-14.8-4.2-.1-.2-.3-.7-.5-1.1-.8-.1-2.7 0-3.8.1H19c-1 0-1.6-.6-1.6-1.3 0-.7.7-1.3 1.6-1.3h1.8c.4 0 .8.3.8.8.7 0 1.4 0 1.7.1 0 0 .8.2 1 .8.1.3.3.9.4 1 .9 1.5 10.1 4.2 16.1 3.2 0 0 0-.1.1-.1.2-.3.6-.9 1.5-1 .5 0 .9.3.9.8s-.3.9-.8.9c0 0-.1.1-.1.2-.1.2-.3.6-.8.8-.1 0-.1.1-.2.1-1 .1-2.1.2-3.2.2z"/><path fill="#010101" d="M46.6 81.9c-1.2 0-2.2-.1-3.2-.3-.1 0-.1 0-.2-.1-.4-.2-.6-.5-.8-.8 0-.1-.1-.2-.1-.2-.5 0-.8-.4-.8-.9s.4-.8.9-.8c.9 0 1.3.7 1.5 1v.1c6 1 15.2-1.6 16.1-3.2.1-.1.3-.7.4-1 .1-.5.8-.8 1-.8.4-.1 1.1-.1 1.7-.1 0-.4.4-.8.8-.8h1.8c1 0 1.6.5 1.6 1.3s-.7 1.3-1.6 1.3h-.1c-1.1-.1-3-.2-3.8-.1-.1.4-.3.9-.5 1.1-1.1 2.2-8.7 4.3-14.7 4.3z"/><path fill="#9C9EA1" d="M3.3 61h285.1v9.9H3.3V61z"/><path fill="#010101" d="M230.1 43.6v-1.9l-7.8 2.1v-6.5h-.8v6.3h-18.7v-6.3h-.8v6.4l-7.7-2v1.9h-3.8v.9h3.8v1.9l7.7-2.1v85.9h.8V44.5h18.7v85.7h.8V44.3l7.8 2.1v-1.9h50.2v-.9h-50.2z"/><path fill="#231F20" d="M237.6 38.9v-3h-5.3v-1.5l4.8-7.3h2.6v7.2h1.5v1.6h-1.5v3h-2.1zm0-4.7V31c0-.7 0-1.4.1-2h-.1c-.4.8-.7 1.4-1.1 2l-2.1 3.2h3.2zm12.9-7.1v1.5l-5 10.3h-2.3l5-10h-5.6v-1.8h7.9zm3.3 2.9h2.8l1.3 3.9c.2.6.5 1.5.7 2.3.2-.7.6-1.7.9-2.7l1.2-3.5h2.8l.6 8.9H262l-.2-3.9c0-.9-.1-2-.1-3.1h-.1c-.3 1.1-.5 1.5-.9 2.9l-1.5 4h-1.6l-1.3-3.9c-.3-.9-.6-2.1-.8-2.9h-.1c0 1.1-.1 2.3-.1 3.2l-.2 3.8h-2l.7-9zm12.5 0h2.8l1.3 3.9c.2.6.5 1.5.7 2.3.2-.7.6-1.7.9-2.7l1.2-3.5h2.8l.6 8.9h-2.1l-.2-3.9c0-.9-.1-2-.1-3.1-.3 1.1-.5 1.5-.9 2.9l-1.5 4h-1.5l-1.3-3.9c-.3-.9-.6-2.1-.8-2.9h-.1c0 1.1-.1 2.3-.1 3.2l-.2 3.8h-2l.5-9z"/><path fill="#187D41" d="M63 110.6v-.2l-.2-.2c-4.5-4.3-13.2-7.8-19-5.6-.6.6-.6 1.3-1.5 1.4-1-.1-.9-.8-1.5-1.4-5.9-2.3-14.8 1.6-19.2 6.1h-3.2v274.6h48.2V110.7l-3.6-.1z"/><path fill="#211F1F" d="M66.6 385.9H18.4c-.3 0-.6-.3-.6-.6V110.6c0-.3.3-.6.6-.6h3.2c3.5-3.4 9.8-6.8 15.6-6.8 1.5 0 2.9.3 4.2.7.1 0 .2.1.2.1.2.3.4.5.5.7.2.3.3.4.5.5.3-.1.4-.2.6-.5.1-.2.3-.4.5-.7.1-.1.1-.1.2-.1 1.3-.5 2.6-.7 4.2-.7 5.8 0 12.1 3.4 15.4 6.6l.2.2h3.2c.3 0 .6.3.6.6v274.6c-.3.5-.6.7-.9.7zM19 384.7h47V111.3h-2.9c-.2 0-.4-.1-.5-.3 0-.1-.1-.1-.1-.2v-.1c-3.1-3-9-6.2-14.5-6.2-1.4 0-2.5.2-3.6.6-.1.1-.2.2-.3.4-.3.4-.6 1-1.5 1.1h-.2c-1-.1-1.3-.7-1.5-1.1-.1-.1-.2-.3-.3-.4-1.1-.4-2.2-.6-3.6-.6-5.5 0-11.6 3.3-14.8 6.5-.1.1-.3.2-.4.2H19v273.5z"/><path fill="#211F1F" d="M40.2 104.7h1.3v280.6h-1.3V104.7zm3.4 0h1.3v280.6h-1.3V104.7zm-22.4 5.9h1.3v274.6h-1.3V110.6zm41.4 0h1.3v274.6h-1.3V110.6z"/><path fill="#187D41" d="M130.9 110.6v-.2l-.2-.2c-4.5-4.4-13.2-7.9-18.9-5.7-.6.6-.6.1-1.5.2-1-.1-.9.4-1.5-.2-5.9-2.3-14.8 1.6-19.2 6.1h-3.4v274.6h48.2V110.6h-3.5z"/><path fill="#211F1F" d="M134.5 385.9H86.2c-.3 0-.6-.3-.6-.6V110.6c0-.3.3-.6.6-.6h3.2c3.5-3.4 9.8-6.8 15.6-6.8 1.5 0 2.9.3 4.2.7.1 0 .2.1.2.1l.1.1c.2 0 .5-.1.9-.1.5 0 .8 0 .9.1 0 0 .1 0 .1-.1.1-.1.1-.1.2-.1 1.3-.5 2.6-.7 4.2-.7 5.8 0 12.1 3.4 15.4 6.6l.2.2h3.2c.3 0 .6.3.6.6v274.6c-.1.5-.4.7-.7.7zm-47.6-1.2h46.9V111.3h-2.9c-.2 0-.4-.1-.5-.3 0-.1-.1-.1-.1-.2l-.1-.1c-3.1-3-9-6.2-14.5-6.2-1.4 0-2.5.2-3.6.6-.2.2-.5.4-.8.4-.1 0-.3 0-.4-.1-.2 0-.3-.1-.6 0h-.8c-.1 0-.2.1-.4.1-.3 0-.6-.2-.8-.4-1.1-.4-2.3-.6-3.6-.6-5.5 0-11.6 3.3-14.8 6.5-.1.1-.3.2-.5.2h-2.8l.3 273.5z"/><path fill="#211F1F" d="M108.1 104.7h1.3v280.6h-1.3V104.7zm3.4 0h1.3v280.6h-1.3V104.7zM89.1 110.6h1.3v274.6h-1.3V110.6zm41.3 0h1.3v274.6h-1.3V110.6z"/><path fill="#187D41" d="M198.8 110.6v-.2l-.2-.2c-4.5-4.4-13.2-7.9-18.9-5.7-.6.6-.6.1-1.5.2-1-.1-.9.4-1.5-.2-5.9-2.3-14.8 1.6-19.2 6.1H154v274.6h48.2V110.6h-3.4z"/><path fill="#211F1F" d="M202.4 385.9h-48.3c-.3 0-.6-.3-.6-.6V110.6c0-.3.3-.6.6-.6h3.2c3.4-3.4 9.8-6.8 15.6-6.8 1.5 0 2.9.3 4.2.7.1 0 .2.1.2.1l.1.1c.2 0 .5-.1.9-.1.5-.1.8 0 .9.1 0 0 .1 0 .1-.1.1-.1.1-.1.2-.1 1.3-.5 2.6-.7 4.2-.7 5.8 0 12.1 3.4 15.4 6.6l.2.2h3.2c.3 0 .6.3.6.6v274.6c-.1.5-.4.7-.7.7zm-47.6-1.2h47V111.3h-2.9c-.2 0-.4-.1-.5-.2 0-.1-.1-.1-.1-.2l-.1-.1c-3.1-3-9-6.2-14.5-6.2-1.4 0-2.5.2-3.6.6-.2.2-.5.4-.8.4-.1 0-.3 0-.4-.1-.2 0-.3-.1-.6 0h-.8c-.1 0-.2.1-.4.1-.3 0-.6-.2-.8-.4-1.1-.4-2.3-.6-3.6-.6-5.5 0-11.6 3.3-14.8 6.5-.1.1-.3.2-.5.2h-2.8v273.4h.2z"/><path fill="#211F1F" d="M176 104.7h1.3v280.6H176V104.7zm3.4 0h1.3v280.6h-1.3V104.7zM156.9 110.6h1.3v274.6h-1.3V110.6zm41.4 0h1.3v274.6h-1.3V110.6z"/><g><path fill="#187D41" d="M266.7 110.6v-.2l-.2-.2c-4.5-4.4-13.2-7.9-18.9-5.7-.6.6-.6.1-1.5.2-1-.1-.9.4-1.5-.2-5.9-2.3-14.8 1.6-19.2 6.1H222v274.6h48.2V110.6h-3.5z"/><path fill="#211F1F" d="M270.3 385.9h-48.2c-.3 0-.6-.3-.6-.6V110.6c0-.3.3-.6.6-.6h3.2c3.5-3.4 9.8-6.8 15.6-6.8 1.5 0 2.9.3 4.2.7.1 0 .2.1.2.1l.1.1c.2 0 .5-.1.9-.1.5 0 .8 0 .9.1l.1-.1c.1-.1.1-.1.2-.1 1.3-.5 2.6-.7 4.2-.7 5.8 0 12.1 3.4 15.4 6.6l.2.2h3.2c.3 0 .6.3.6.6v274.6c-.3.5-.5.7-.8.7zm-47.7-1.2h47V111.3h-2.9c-.2 0-.4-.1-.5-.3 0-.1-.1-.1-.1-.2l-.1-.1c-3.1-3-9-6.2-14.5-6.2-1.4 0-2.5.2-3.6.6-.2.2-.5.4-.8.4-.1 0-.3 0-.4-.1-.2 0-.3-.1-.6 0h-.8c-.1 0-.2.1-.4.1-.3 0-.6-.2-.8-.4-1.1-.4-2.3-.6-3.6-.6-5.5 0-11.6 3.3-14.8 6.5-.1.1-.3.2-.4.2h-2.8l.1 273.5z"/><path fill="#211F1F" d="M243.9 104.7h1.3v280.6h-1.3V104.7zm3.4 0h1.3v280.6h-1.3V104.7zM224.8 110.6h1.3v274.6h-1.3V110.6zm41.4 0h1.3v274.6h-1.3V110.6z"/></g><g><path fill="#010101" d="M87.6 406c0 3.3-2.3 4.7-4.5 4.7-2.5 0-4.4-1.7-4.4-4.5 0-2.9 1.9-4.7 4.5-4.7 2.7-.1 4.4 1.8 4.4 4.5zm-6.7.1c0 1.7.9 3 2.2 3 1.3 0 2.1-1.3 2.1-3 0-1.4-.6-3-2.1-3-1.6 0-2.2 1.5-2.2 3zm15.9-4.5v7.3h1l-.1 4.4H96l-.1-2.8h-5.8l-.1 2.8h-1.7l-.1-4.4.8-.1c.4-.6.7-1.2.9-1.8.3-1.1.5-2.1.5-3.2v-2.2h6.4zm-4.6 2.9c0 1-.1 1.9-.4 2.7-.2.6-.4 1.1-.7 1.5h3.5v-5.5h-2.4v1.3zm9.5-2.9v3.4h3.4v-3.4h2.2v8.9h-2.2v-3.8h-3.4v3.8h-2.2v-8.9h2.2zm16.5 4.4c0 3.3-2.3 4.7-4.5 4.7-2.5 0-4.4-1.7-4.4-4.5 0-2.9 1.9-4.7 4.5-4.7 2.6-.1 4.4 1.8 4.4 4.5zm-6.7.1c0 1.7.9 3 2.2 3 1.3 0 2.1-1.3 2.1-3 0-1.4-.6-3-2.1-3-1.6 0-2.2 1.5-2.2 3zm15 4.1c-.5.2-1.4.5-2.5.5-2.8 0-4.5-1.7-4.5-4.5 0-2.6 1.8-4.7 4.9-4.7.8 0 1.6.2 2.1.4l-.4 1.6c-.4-.2-.9-.4-1.7-.4-1.7 0-2.7 1.3-2.7 2.9 0 1.8 1.2 2.9 2.7 2.9.8 0 1.4-.2 1.7-.4l.4 1.7zm8.5-8.6v1.7h-2.6v7.2h-2.2v-7.2h-2.6v-1.7h7.4zm9.5 4.4c0 3.3-2.3 4.7-4.5 4.7-2.5 0-4.4-1.7-4.4-4.5 0-2.9 1.9-4.7 4.5-4.7 2.6-.1 4.4 1.8 4.4 4.5zm-6.7.1c0 1.7.9 3 2.2 3s2.1-1.3 2.1-3c0-1.4-.6-3-2.1-3s-2.2 1.5-2.2 3zm8.5-1.5c0-1.2 0-2.1-.1-2.9h1.9l.1 1.4c.7-1 1.6-1.5 3-1.5 2 0 3.8 1.7 3.8 4.5 0 3.2-2 4.7-4.1 4.7-1.1 0-2-.5-2.5-1.2v4.5h-2.2l.1-9.5zm2.3 2.1c0 .2 0 .4.1.6.2.9 1.1 1.5 1.9 1.5 1.5 0 2.2-1.2 2.2-2.9 0-1.5-.8-2.8-2.2-2.8-1 0-1.7.7-2 1.6-.1.2-.1.4-.1.6l.1 1.4zm16.8-.7c0 3.3-2.3 4.7-4.5 4.7-2.5 0-4.4-1.7-4.4-4.5 0-2.9 1.9-4.7 4.5-4.7 2.6-.1 4.4 1.8 4.4 4.5zm-6.6.1c0 1.7.9 3 2.2 3s2.1-1.3 2.1-3c0-1.4-.6-3-2.1-3-1.6 0-2.2 1.5-2.2 3zm10.7-4.5v3.4h3.4v-3.4h2.2v8.9h-2.2v-3.8h-3.4v3.8h-2.2v-8.9h2.2zm10.3 0v3.4h3.4v-3.4h2.2v8.9h-2.2v-3.8h-3.4v3.8h-2.2v-8.9h2.2zm15.2 8.9h-2.2V407h-.9c-.6 0-1.1.2-1.4.6-.6.5-.8 1.5-1.1 2.2-.1.3-.2.5-.4.8h-2.4c.2-.3.4-.6.6-1 .4-.8.7-1.9 1.4-2.5.3-.3.6-.5 1.1-.6v-.1c-1.1-.1-2.3-.8-2.3-2.2 0-1.1.6-1.6 1.4-2s1.9-.6 3.1-.6c1.3 0 2.3.1 3.2.2l-.1 8.7zm-2.2-7.5c-.3-.1-.6-.1-1.1-.1-1 0-2 .4-2 1.4s1.1 1.4 2 1.4h1.1V403zm11.9 7.5h-2.2V407h-.9c-.6 0-1.1.2-1.4.6-.6.5-.8 1.5-1.1 2.2-.1.3-.2.5-.4.8h-2.3c.2-.3.4-.6.6-1 .4-.8.7-1.9 1.4-2.5.3-.3.6-.5 1.1-.6v-.1c-1.1-.1-2.3-.8-2.3-2.2 0-1.1.6-1.6 1.4-2 .8-.4 1.9-.6 3.1-.6 1.3 0 2.3.1 3.2.2v8.7h-.2zm-2.2-7.5c-.3-.1-.6-.1-1.1-.1-1 0-2 .4-2 1.4s1.1 1.4 2 1.4h1.1V403z"/></g><g><path fill="#9C9EA1" d="M5.3 175.2H286v16.1H5.3v-16.1z"/><path fill="#211F1F" d="M285.9 174.6H5.3c-.3 0-.6.3-.6.6v16.1c0 .3.3.6.6.6H286c.3 0 .6-.3.6-.6v-16.1c-.1-.3-.4-.6-.7-.6zm-.5 1.2v2.8H5.9v-2.8h279.5zm0 5.1v4.6H5.9v-4.6h279.5zM5.9 190.7v-2.8h279.5v2.8H5.9z"/></g><g><path fill="#9C9EA1" d="M5.3 326.4H286v16.1H5.3v-16.1z"/><path fill="#211F1F" d="M285.9 325.8H5.3c-.3 0-.6.3-.6.6v16.1c0 .3.3.6.6.6H286c.3 0 .6-.3.6-.6v-16.1c-.1-.3-.4-.6-.7-.6zm-.5 1.2v2.8H5.9V327h279.5zm0 5.1v4.6H5.9v-4.6h279.5zM5.9 341.9v-2.8h279.5v2.8H5.9z"/></g><g><path fill="#187D41" d="M63 110.6v-.2l-.2-.2c-4.5-4.3-13.2-7.8-19-5.6-.6.6-.6.1-1.5.2-1-.1-.9.4-1.5-.2-5.9-2.3-14.8 1.6-19.2 6.1h-3.2v274.6h48.2V110.7l-3.6-.1z"/><path fill="#211F1F" d="M66.6 385.9H18.4c-.3 0-.6-.3-.6-.6V110.6c0-.3.3-.6.6-.6h3.2c3.5-3.4 9.8-6.8 15.6-6.8 1.5 0 2.9.3 4.2.7.1 0 .2.1.2.1l.1.1c.2 0 .5-.1.9-.1.5 0 .8 0 .9.1 0 0 .1 0 .1-.1.1-.1.1-.1.2-.1 1.3-.5 2.6-.7 4.2-.7 5.8 0 12.1 3.4 15.4 6.6l.2.2h3.2c.3 0 .6.3.6.6v274.6c-.2.5-.5.7-.8.7zM19 384.7h47V111.3h-2.9c-.2 0-.4-.1-.5-.3 0-.1-.1-.1-.1-.2v-.1c-3.1-3-9-6.2-14.5-6.2-1.4 0-2.5.2-3.6.6-.2.2-.5.4-.8.4-.1 0-.3 0-.4-.1-.2 0-.3-.1-.6 0h-.8c-.1 0-.2.1-.4.1-.3 0-.6-.2-.8-.4-1.1-.4-2.3-.6-3.6-.6-5.5 0-11.6 3.3-14.8 6.5-.1.1-.3.2-.4.2H19v273.5z"/><path fill="#211F1F" d="M40.2 104.7h1.3v280.6h-1.3V104.7zm3.4 0h1.3v280.6h-1.3V104.7zM21.2 110.6h1.3v274.6h-1.3V110.6zm41.4 0h1.3v274.6h-1.3V110.6z"/><path fill="#187D41" d="M130.9 110.6v-.2l-.2-.2c-4.5-4.4-13.2-7.9-18.9-5.7-.6.6-.6.1-1.5.2-1-.1-.9.4-1.5-.2-5.9-2.3-14.8 1.6-19.2 6.1h-3.4v274.6h48.2V110.6h-3.5z"/><path fill="#211F1F" d="M134.5 385.9H86.2c-.3 0-.6-.3-.6-.6V110.6c0-.3.3-.6.6-.6h3.2c3.5-3.4 9.8-6.8 15.6-6.8 1.5 0 2.9.3 4.2.7.1 0 .2.1.2.1l.1.1c.2 0 .5-.1.9-.1.5 0 .8 0 .9.1 0 0 .1 0 .1-.1.1-.1.1-.1.2-.1 1.3-.5 2.6-.7 4.2-.7 5.8 0 12.1 3.4 15.4 6.6l.2.2h3.2c.3 0 .6.3.6.6v274.6c-.1.5-.4.7-.7.7zm-47.6-1.2h46.9V111.3h-2.9c-.2 0-.4-.1-.5-.3 0-.1-.1-.1-.1-.2l-.1-.1c-3.1-3-9-6.2-14.5-6.2-1.4 0-2.5.2-3.6.6-.2.2-.5.4-.8.4-.1 0-.3 0-.4-.1-.2 0-.3-.1-.6 0h-.8c-.1 0-.2.1-.4.1-.3 0-.6-.2-.8-.4-1.1-.4-2.3-.6-3.6-.6-5.5 0-11.6 3.3-14.8 6.5-.1.1-.3.2-.5.2h-2.8l.3 273.5z"/><path fill="#211F1F" d="M108.1 104.7h1.3v280.6h-1.3V104.7zm3.4 0h1.3v280.6h-1.3V104.7zM89.1 110.6h1.3v274.6h-1.3V110.6zm41.3 0h1.3v274.6h-1.3V110.6z"/><g><path fill="#187D41" d="M198.8 110.6v-.2l-.2-.2c-4.5-4.4-13.2-7.9-18.9-5.7-.6.6-.6.1-1.5.2-1-.1-.9.4-1.5-.2-5.9-2.3-14.8 1.6-19.2 6.1H154v274.6h48.2V110.6h-3.4z"/><path fill="#211F1F" d="M202.4 385.9h-48.3c-.3 0-.6-.3-.6-.6V110.6c0-.3.3-.6.6-.6h3.2c3.4-3.4 9.8-6.8 15.6-6.8 1.5 0 2.9.3 4.2.7.1 0 .2.1.2.1l.1.1c.2 0 .5-.1.9-.1.5-.1.8 0 .9.1 0 0 .1 0 .1-.1.1-.1.1-.1.2-.1 1.3-.5 2.6-.7 4.2-.7 5.8 0 12.1 3.4 15.4 6.6l.2.2h3.2c.3 0 .6.3.6.6v274.6c-.1.5-.4.7-.7.7zm-47.6-1.2h47V111.3h-2.9c-.2 0-.4-.1-.5-.2 0-.1-.1-.1-.1-.2l-.1-.1c-3.1-3-9-6.2-14.5-6.2-1.4 0-2.5.2-3.6.6-.2.2-.5.4-.8.4-.1 0-.3 0-.4-.1-.2 0-.3-.1-.6 0h-.8c-.1 0-.2.1-.4.1-.3 0-.6-.2-.8-.4-1.1-.4-2.3-.6-3.6-.6-5.5 0-11.6 3.3-14.8 6.5-.1.1-.3.2-.5.2h-2.8v273.4h.2z"/><path fill="#211F1F" d="M176 104.7h1.3v280.6H176V104.7zm3.4 0h1.3v280.6h-1.3V104.7zM156.9 110.6h1.3v274.6h-1.3V110.6zm41.4 0h1.3v274.6h-1.3V110.6z"/></g><g><path fill="#187D41" d="M266.7 110.6v-.2l-.2-.2c-4.5-4.4-13.2-7.9-18.9-5.7-.6.6-.6.1-1.5.2-1-.1-.9.4-1.5-.2-5.9-2.3-14.8 1.6-19.2 6.1H222v274.6h48.2V110.6h-3.5z"/><path fill="#211F1F" d="M270.3 385.9h-48.2c-.3 0-.6-.3-.6-.6V110.6c0-.3.3-.6.6-.6h3.2c3.5-3.4 9.8-6.8 15.6-6.8 1.5 0 2.9.3 4.2.7.1 0 .2.1.2.1l.1.1c.2 0 .5-.1.9-.1.5 0 .8 0 .9.1l.1-.1c.1-.1.1-.1.2-.1 1.3-.5 2.6-.7 4.2-.7 5.8 0 12.1 3.4 15.4 6.6l.2.2h3.2c.3 0 .6.3.6.6v274.6c-.3.5-.5.7-.8.7zm-47.7-1.2h47V111.3h-2.9c-.2 0-.4-.1-.5-.3 0-.1-.1-.1-.1-.2l-.1-.1c-3.1-3-9-6.2-14.5-6.2-1.4 0-2.5.2-3.6.6-.2.2-.5.4-.8.4-.1 0-.3 0-.4-.1-.2 0-.3-.1-.6 0h-.8c-.1 0-.2.1-.4.1-.3 0-.6-.2-.8-.4-1.1-.4-2.3-.6-3.6-.6-5.5 0-11.6 3.3-14.8 6.5-.1.1-.3.2-.4.2h-2.8l.1 273.5z"/><path fill="#211F1F" d="M243.9 104.7h1.3v280.6h-1.3V104.7zm3.4 0h1.3v280.6h-1.3V104.7zM224.8 110.6h1.3v274.6h-1.3V110.6zm41.4 0h1.3v274.6h-1.3V110.6z"/></g></g></svg>