<?xml version="1.0" encoding="utf-8"?>
<!-- Generator: Adobe Illustrator 16.2.0, SVG Export Plug-In . SVG Version: 6.00 Build 0)  -->
<!DOCTYPE svg PUBLIC "-//W3C//DTD SVG 1.1//EN" "http://www.w3.org/Graphics/SVG/1.1/DTD/svg11.dtd">
<svg version="1.1" id="Layer_1" xmlns="http://www.w3.org/2000/svg" xmlns:xlink="http://www.w3.org/1999/xlink" x="0px" y="0px"
	 width="760px" height="512px" viewBox="0 0 760 512" enable-background="new 0 0 760 512" xml:space="preserve">
<g>
	<g>
		<g>
			<path fill="#314B34" d="M507.6,122.5c0-0.1,0-0.2-0.1-0.2c-0.1-0.1-0.2-0.2-0.2-0.2c-5.8-5.5-16.8-10.2-24.2-7.4
				c-0.7,0.7-0.7,0.1-1.9,0.2l0,0c-1.2-0.2-1.1,0.5-1.8-0.2c-7.6-2.9-19,2.1-24.6,7.8l0,0l0,0V474h53L507.6,122.5L507.6,122.5z"/>
			<path fill="#211F1F" d="M507.8,474.8h-53c-0.4,0-0.8-0.3-0.8-0.8V122.6c0-0.2,0-0.3,0.1-0.5l0,0c0-0.1,0.1-0.2,0.2-0.2l0,0
				c4.4-4.4,12.7-8.9,20.1-8.9c2,0,3.7,0.3,5.3,1c0.1,0.1,0.2,0.1,0.3,0.2c0.1,0.1,0.1,0.1,0.1,0.1l0,0c0.2-0.1,0.6-0.2,1.2-0.1
				c0.6-0.1,0.9,0,1.2,0.1l0,0l0.1-0.1c0.1-0.1,0.2-0.2,0.3-0.2c1.6-0.6,3.4-1,5.3-1c7.4,0,15.4,4.4,19.6,8.4
				c0.1,0.1,0.2,0.2,0.2,0.2c0.1,0.1,0.1,0.1,0.2,0.2c0.2,0.2,0.3,0.4,0.3,0.6V474C508.6,474.4,508.2,474.8,507.8,474.8z
				 M455.6,473.3H507V122.9c-0.1-0.1-0.1-0.2-0.1-0.2l-0.1-0.1c-4-3.9-11.6-8-18.6-8c-1.7,0-3.2,0.2-4.6,0.8c-0.2,0.2-0.6,0.5-1,0.5
				c-0.2,0-0.3,0-0.5-0.1s-0.4-0.1-0.7,0c-0.1,0-0.2,0-0.2,0c-0.3,0-0.5,0-0.6,0.1c-0.2,0-0.3,0.1-0.5,0.1c-0.4,0-0.8-0.2-1-0.5
				c-1.3-0.5-2.9-0.8-4.6-0.8c-6.9,0-14.6,4-18.8,8.2L455.6,473.3L455.6,473.3z"/>
		</g>
		<g>
			<g>
				<rect x="478.4" y="114.7" fill="#211F1F" width="1.6" height="359.2"/>
			</g>
			<g>
				<rect x="482.7" y="114.7" fill="#211F1F" width="1.6" height="359.2"/>
			</g>
		</g>
	</g>
	<g>
		<g>
			<path fill="#314B34" d="M603.1,122.5c0-0.1,0-0.2-0.1-0.2c-0.1-0.1-0.2-0.2-0.2-0.2c-5.8-5.5-16.8-10.2-24.2-7.4
				c-0.7,0.7-0.7,0.1-1.9,0.2l0,0c-1.2-0.2-1.1,0.5-1.8-0.2c-7.6-2.9-19,2.1-24.6,7.8l0,0l0,0V474h53V122.5H603.1z"/>
			<path fill="#211F1F" d="M603.3,474.8h-53c-0.4,0-0.8-0.3-0.8-0.8V122.6c0-0.2,0-0.3,0.1-0.5l0,0c0-0.1,0.1-0.2,0.2-0.2l0,0
				c4.4-4.4,12.7-8.9,20.1-8.9c2,0,3.7,0.3,5.3,1c0.1,0.1,0.2,0.1,0.3,0.2c0.1,0.1,0.1,0.1,0.1,0.1l0,0c0.2-0.1,0.6-0.2,1.2-0.1
				c0.6-0.1,1,0,1.2,0.1l0,0l0.1-0.1c0.1-0.1,0.2-0.2,0.3-0.2c1.6-0.6,3.4-1,5.3-1c7.4,0,15.4,4.4,19.6,8.4c0.1,0.1,0.2,0.2,0.2,0.2
				c0.1,0.1,0.1,0.1,0.2,0.2c0.2,0.2,0.3,0.4,0.3,0.6V474C604,474.4,603.6,474.8,603.3,474.8z M551.1,473.3h51.4V122.9
				c-0.1-0.1-0.1-0.2-0.1-0.2l-0.1-0.1c-4-3.9-11.6-8-18.6-8c-1.7,0-3.2,0.2-4.6,0.8c-0.2,0.2-0.6,0.5-1,0.5c-0.2,0-0.3,0-0.5-0.1
				c-0.2-0.1-0.4-0.1-0.7,0c-0.1,0-0.2,0-0.2,0c-0.3,0-0.5,0-0.6,0.1c-0.2,0-0.3,0.1-0.5,0.1c-0.4,0-0.8-0.2-1-0.5
				c-1.3-0.5-2.9-0.8-4.6-0.8c-6.9,0-14.6,4-18.8,8.2L551.1,473.3L551.1,473.3z"/>
		</g>
		<g>
			<g>
				<rect x="573.8" y="114.7" fill="#211F1F" width="1.6" height="359.2"/>
			</g>
			<g>
				<rect x="578.2" y="114.7" fill="#211F1F" width="1.6" height="359.2"/>
			</g>
		</g>
	</g>
	<g>
		<g>
			<path fill="#314B34" d="M698.5,122.5c0-0.1,0-0.2-0.1-0.2c-0.1-0.1-0.2-0.2-0.2-0.2c-5.8-5.5-16.8-10.2-24.2-7.4
				c-0.7,0.7-0.7,0.1-1.9,0.2l0,0c-1.2-0.2-1.1,0.5-1.8-0.2c-7.6-2.9-19,2.1-24.6,7.8l0,0l0,0V474h53L698.5,122.5L698.5,122.5z"/>
			<path fill="#211F1F" d="M698.6,474.8h-53c-0.4,0-0.8-0.3-0.8-0.8V122.6c0-0.2,0-0.3,0.1-0.5l0,0c0-0.1,0.1-0.2,0.1-0.2
				s0,0,0.1-0.1c4.4-4.4,12.7-8.9,20.1-8.9c2,0,3.7,0.3,5.3,1c0.1,0.1,0.2,0.1,0.3,0.2c0.1,0.1,0.1,0.1,0.1,0.1l0,0
				c0.2-0.1,0.6-0.2,1.2-0.1c0.6-0.1,1,0,1.2,0.1l0,0l0.1-0.1c0.1-0.1,0.2-0.2,0.3-0.2c1.6-0.6,3.4-1,5.3-1c7.4,0,15.4,4.4,19.7,8.4
				l0.2,0.2c0.1,0.1,0.1,0.2,0.2,0.2c0.2,0.2,0.3,0.4,0.3,0.6V474C699.4,474.4,699.1,474.8,698.6,474.8z M646.5,473.3h51.4V122.9
				c-0.1-0.1-0.1-0.2-0.1-0.2l-0.1-0.1c-4-3.9-11.6-8-18.6-8c-1.7,0-3.2,0.2-4.6,0.8c-0.2,0.2-0.6,0.5-1,0.5c-0.2,0-0.3,0-0.5-0.1
				c-0.2-0.1-0.4-0.1-0.7,0c-0.1,0-0.2,0-0.2,0c-0.3,0-0.5,0-0.6,0.1c-0.2,0-0.3,0.1-0.5,0.1c-0.4,0-0.8-0.2-1-0.5
				c-1.3-0.5-2.9-0.8-4.6-0.8c-6.9,0-14.6,4-18.8,8.2L646.5,473.3L646.5,473.3z"/>
		</g>
		<g>
			<g>
				<rect x="669.3" y="114.7" fill="#211F1F" width="1.6" height="359.2"/>
			</g>
			<g>
				<rect x="673.5" y="114.7" fill="#211F1F" width="1.6" height="359.2"/>
			</g>
		</g>
	</g>
	<g>
		<path fill="#010101" d="M333.7,75.8h-2.3c-0.6,0-1,0.4-1,1c-0.9,0-1.7,0-2.3,0.2c-0.2,0.1-1,0.4-1.2,1c-0.1,0.3-0.4,1-0.5,1.3
			c-1.1,2-12.9,5.3-20.6,4.1c0,0,0-0.1-0.1-0.1c-0.2-0.4-0.6-1.1-1.7-1.2H304l0,0c0,0,0,0-0.1,0h-0.1c0,0,0,0-0.1,0h-0.1
			c-1,0.1-1.4,0.8-1.7,1.2l-0.1,0.1c-7.7,1.2-19.5-2.1-20.6-4.1c-0.1-0.2-0.4-0.9-0.5-1.3c-0.2-0.7-1.2-1-1.2-1
			c-0.6-0.2-1.3-0.2-2.2-0.2c0-0.6-0.5-1-1-1h-2.3c-1.2,0-2.1,0.6-2.1,1.6c0,0.9,0.9,1.6,2.1,1.6h0.1c1.4-0.2,3.9-0.2,4.8-0.1
			c0.2,0.5,0.4,1,0.6,1.3c1.5,2.6,11.2,5.4,18.9,5.4c1.4,0,2.9-0.1,4.1-0.3c0.1,0,0.2-0.1,0.2-0.1c0.5-0.2,0.8-0.6,0.9-1
			c0-0.1,0.1-0.1,0.1-0.2c0,0.1,0.1,0.1,0.1,0.2c0.2,0.3,0.4,0.7,1,1c0.1,0,0.2,0.1,0.2,0.1c1.3,0.2,2.6,0.3,4.1,0.3
			c7.8,0,17.5-2.8,18.9-5.4c0.2-0.3,0.4-0.9,0.6-1.3c1-0.2,3.4,0,4.8,0.1h0.1c1.2,0,2.1-0.6,2.1-1.6
			C335.7,76.6,334.9,75.8,333.7,75.8z"/>
		<path fill="#010101" d="M246.8,75.8h-2.3c-0.6,0-1,0.4-1,1c-0.9,0-1.7,0-2.3,0.2c0,0-1,0.3-1.2,1c-0.1,0.3-0.4,1-0.5,1.3
			c-1.1,2-12.9,5.3-20.6,4.1c0,0,0-0.1-0.1-0.1c-0.2-0.4-0.6-1.1-1.7-1.2c0,0-0.1,0-0.2,0l0,0l0,0h-0.1h-0.1l0,0
			c-1,0.1-1.4,0.8-1.7,1.2l-0.1,0.1c-7.7,1.2-19.5-2.1-20.6-4.1c-0.1-0.2-0.4-0.9-0.5-1.3c-0.2-0.7-1.2-1-1.2-1
			c-0.6-0.2-1.3-0.2-2.2-0.2c-0.1-0.6-0.5-1-1-1h-2.3c-1.2,0-2.1,0.6-2.1,1.6c0,0.9,0.9,1.6,2.1,1.6h0.1c1.4-0.2,3.9-0.2,4.8-0.1
			c0.2,0.5,0.4,1,0.6,1.3c1.5,2.6,11.2,5.4,18.9,5.4c1.4,0,2.9-0.1,4.1-0.3c0.1,0,0.2-0.1,0.2-0.1c0.5-0.2,0.8-0.6,1-1
			c0-0.1,0.1-0.1,0.1-0.2c0,0.1,0.1,0.1,0.1,0.2c0.2,0.3,0.4,0.7,1,1c0.1,0,0.2,0.1,0.2,0.1c1.3,0.2,2.6,0.3,4.1,0.3
			c7.8,0,17.5-2.8,18.9-5.4c0.2-0.3,0.4-0.9,0.6-1.3c0.9-0.2,3.4,0,4.8,0.1h0.1c1.2,0,2.1-0.6,2.1-1.6
			C248.8,76.6,248,75.8,246.8,75.8z"/>
		<path fill="#010101" d="M159.8,75.8h-2.3c-0.6,0-1,0.4-1,1c-0.9,0-1.7,0-2.3,0.2c-0.2,0.1-1,0.4-1.2,1c-0.1,0.3-0.4,1-0.5,1.3
			c-1.1,2-12.9,5.3-20.6,4.1c0,0,0-0.1-0.1-0.1c-0.2-0.4-0.6-1.1-1.7-1.2h-0.1l0,0l0,0h-0.1H130l0,0c-1,0.1-1.4,0.8-1.7,1.2
			l-0.1,0.1c-7.7,1.2-19.5-2.1-20.6-4.1c-0.1-0.2-0.4-0.9-0.5-1.3c-0.2-0.7-1.2-1-1.2-1c-0.6-0.2-1.3-0.2-2.2-0.2
			c-0.1-0.6-0.5-1-1-1h-2.3c-1.2,0-2.1,0.6-2.1,1.6c0,0.9,0.9,1.6,2.1,1.6h0.1c1.4-0.2,3.9-0.2,4.8-0.1c0.2,0.5,0.4,1,0.6,1.3
			c1.5,2.6,11.2,5.4,18.9,5.4c1.4,0,2.9-0.1,4.1-0.3c0.1,0,0.2-0.1,0.2-0.1c0.5-0.2,0.8-0.6,1-1c0-0.1,0.1-0.1,0.1-0.2
			c0,0.1,0.1,0.1,0.1,0.2c0.2,0.3,0.4,0.7,0.9,1c0.1,0,0.2,0.1,0.2,0.1c1.3,0.2,2.6,0.3,4.1,0.3c7.8,0,17.5-2.8,18.9-5.4
			c0.2-0.3,0.4-0.9,0.6-1.3c1-0.2,3.4,0,4.8,0.1h0.1c1.2,0,2.1-0.6,2.1-1.6C162,76.6,161,75.8,159.8,75.8z"/>
		<path fill="#010101" d="M73,75.8h-2.3c-0.6,0-1,0.4-1,1c-0.9,0-1.7,0-2.2,0.2c-0.2,0.1-1,0.4-1.2,1c-0.1,0.3-0.4,1-0.5,1.3
			c-1.1,2-12.9,5.3-20.6,4.1c0,0,0-0.1-0.1-0.1c-0.2-0.4-0.6-1.1-1.7-1.2c-0.1,0-0.1,0-0.2,0l0,0l0,0h-0.1h-0.1c0,0,0,0-0.1,0
			c-1,0.1-1.4,0.8-1.7,1.2l-0.1,0.1c-7.7,1.2-19.5-2.1-20.6-4.1c-0.1-0.2-0.4-1-0.5-1.3c-0.2-0.7-1.2-1-1.2-1
			c-0.6-0.2-1.3-0.2-2.2-0.2c0-0.6-0.5-1-1-1h-2.3c-1.2,0-2.1,0.6-2.1,1.6c0,1,0.9,1.6,2.1,1.6h0.1c1.4-0.2,3.9-0.2,4.8-0.1
			c0.2,0.5,0.4,1,0.6,1.3c1.5,2.6,11.2,5.4,18.9,5.4c1.4,0,2.9-0.1,4.1-0.3c0.1,0,0.2-0.1,0.2-0.1c0.5-0.2,0.8-0.6,1-1
			c0-0.1,0.1-0.1,0.1-0.2c0,0.1,0.1,0.1,0.1,0.2c0.2,0.3,0.4,0.7,1,1c0.1,0,0.2,0.1,0.2,0.1c1.3,0.2,2.6,0.3,4.1,0.3
			c7.8,0,17.5-2.8,18.9-5.4c0.2-0.3,0.4-0.9,0.6-1.3c0.9-0.2,3.4,0,4.8,0.1h0.1c1.2,0,2.1-0.6,2.1-1.6C75,76.6,74.2,75.8,73,75.8z"
			/>
	</g>
	<rect x="0.1" y="59.1" fill="#9C9EA1" width="758.4" height="12.7"/>
	<g>
		<path fill="#010101" d="M702,53.7L702,53.7c-1.5,0.2-3.9,0.2-4.9,0.1c-0.2-0.5-0.4-1-0.6-1.3c-1.7-3.1-15.1-6.5-23-5.1
			c-0.1,0-0.2,0.1-0.2,0.1c-0.5,0.2-0.8,0.6-1,1c0,0.1-0.1,0.1-0.1,0.2c0-0.1-0.1-0.1-0.1-0.2c-0.2-0.3-0.4-0.7-1-1
			c-0.1,0-0.2-0.1-0.2-0.1c-7.9-1.3-21.3,2-23,5.1c-0.2,0.3-0.4,0.9-0.6,1.3c-1,0.2-3.4,0-4.8-0.1h-0.1c-1.2,0-2.1,0.6-2.1,1.6
			c0,1,0.9,1.6,2.1,1.6h2.3c0.6,0,1-0.4,1-0.9c0.9,0,1.7,0,2.2-0.2c0.2-0.1,1-0.4,1.2-1c0.1-0.3,0.4-1,0.5-1.3
			c1.1-2,12.9-5.3,20.6-4.1c0,0,0,0.1,0.1,0.1c0.2,0.4,0.6,1.1,1.7,1.2c0.1,0,0.1,0,0.2,0l0,0c0,0,0,0,0.1,0h0.1c0,0,0,0,0.1,0
			c0,0,0,0,0.1,0c1-0.1,1.4-0.8,1.7-1.2l0.1-0.1c7.7-1.2,19.5,2.1,20.6,4.1c0.1,0.2,0.4,1,0.5,1.3c0.2,0.7,1,1,1.2,1
			c0.6,0.2,1.3,0.2,2.2,0.2c0,0.6,0.5,0.9,1,0.9h2.3c1.2,0,2.1-0.6,2.1-1.6C704,54.4,703.2,53.7,702,53.7z"/>
		<path fill="#010101" d="M606.5,53.7L606.5,53.7c-1.5,0.2-3.9,0.2-4.9,0.1c-0.2-0.5-0.4-1-0.6-1.3c-1.7-3.1-15.1-6.5-23-5.1
			c-0.1,0-0.2,0.1-0.2,0.1c-0.5,0.2-0.8,0.6-1,1c0,0.1-0.1,0.1-0.1,0.2c0-0.1-0.1-0.1-0.1-0.2c-0.2-0.3-0.4-0.7-1-1
			c-0.1,0-0.2-0.1-0.2-0.1c-7.9-1.3-21.3,2-23,5.1c-0.2,0.3-0.4,0.9-0.6,1.3c-0.9,0.2-3.4,0-4.8-0.1H547c-1.2,0-2.1,0.6-2.1,1.6
			c0,1,0.9,1.6,2.1,1.6h2.3c0.6,0,1-0.4,1-0.9c0.9,0,1.7,0,2.2-0.2c0.2-0.1,1-0.4,1.2-1c0.1-0.3,0.4-1,0.5-1.3
			c1.1-2,12.9-5.3,20.6-4.1c0,0,0,0.1,0.1,0.1c0.2,0.4,0.6,1.1,1.7,1.2c0.1,0,0.1,0,0.2,0l0,0c0,0,0,0,0.1,0h0.1h0.1c0,0,0,0,0.1,0
			c1-0.1,1.4-0.8,1.7-1.2l0.1-0.1c7.7-1.2,19.5,2.1,20.6,4.1c0.1,0.2,0.4,0.9,0.5,1.3c0.2,0.6,1,0.9,1.2,1c0.6,0.2,1.3,0.2,2.2,0.2
			c0,0.6,0.5,0.9,1,0.9h2.3c1.2,0,2.1-0.6,2.1-1.6C608.6,54.4,607.7,53.7,606.5,53.7z"/>
		<path fill="#010101" d="M511.1,53.7L511.1,53.7c-1.5,0.2-3.9,0.2-4.9,0.1c-0.2-0.5-0.4-1-0.6-1.3c-1.7-3.1-15.1-6.5-23-5.1
			c-0.1,0-0.2,0.1-0.2,0.1c-0.5,0.2-0.8,0.6-1,1c0,0.1-0.1,0.1-0.1,0.2c0-0.1-0.1-0.1-0.1-0.2c-0.2-0.3-0.4-0.7-1-1
			c-0.1,0-0.2-0.1-0.2-0.1c-7.9-1.3-21.3,2-23,5.1c-0.2,0.3-0.4,0.9-0.6,1.3c-0.9,0.2-3.4,0-4.8-0.1h-0.1c-1.2,0-2.1,0.6-2.1,1.6
			c0,1,0.9,1.6,2.1,1.6h2.3c0.6,0,1-0.4,1-0.9c0.9,0,1.7,0,2.2-0.2c0.2-0.1,1-0.4,1.2-1c0.1-0.3,0.4-1,0.5-1.3
			c1.1-2,12.9-5.3,20.6-4.1c0,0,0,0.1,0.1,0.1c0.2,0.4,0.6,1.1,1.7,1.2c0.1,0,0.1,0,0.2,0l0,0c0,0,0,0,0.1,0h0.1c0,0,0,0,0.1,0
			c0,0,0,0,0.1,0c1-0.1,1.4-0.8,1.7-1.2l0.1-0.1c7.7-1.2,19.5,2.1,20.6,4.1c0.1,0.2,0.4,1,0.5,1.3c0.2,0.6,1,0.9,1.2,1
			c0.6,0.2,1.3,0.2,2.2,0.2c0,0.6,0.5,0.9,1,0.9h2.3c1.2,0,2.1-0.6,2.1-1.6C513.2,54.4,512.3,53.7,511.1,53.7z"/>
	</g>
	<g>
		<path fill="#010101" d="M749.7,75.8h-2.3c-0.6,0-1,0.4-1,1c-0.9,0-1.7,0-2.2,0.2c-0.2,0.1-1,0.4-1.2,1c-0.1,0.3-0.4,1-0.5,1.3
			c-1.1,2-12.9,5.3-20.6,4.1c0,0,0-0.1-0.1-0.1c-0.2-0.4-0.6-1.1-1.7-1.2h-0.1c0,0,0,0-0.1,0c0,0,0,0-0.1,0c-0.1,0-0.1,0-0.1,0
			s0,0-0.1,0h-0.1c-1,0.2-1.4,0.8-1.7,1.2l-0.1,0.1c-7.7,1.2-19.5-2.1-20.6-4.1c-0.1-0.2-0.4-1-0.5-1.3c-0.2-0.6-0.9-1-1.2-1
			c-0.6-0.2-1.3-0.2-2.2-0.2c-0.1-0.6-0.5-1-1-1h-2.3c-1.2,0-2.1,0.7-2.1,1.6c0,0.9,0.9,1.6,2.1,1.6h0.1c1.4-0.2,3.8-0.2,4.8-0.1
			c0.2,0.5,0.4,1,0.6,1.3c1.5,2.6,11.2,5.4,18.9,5.4c1.4,0,2.8-0.1,4.1-0.3c0.1,0,0.2-0.1,0.2-0.1c0.5-0.2,0.8-0.6,1-1
			c0-0.1,0.1-0.1,0.1-0.2c0,0.1,0.1,0.1,0.1,0.2c0.2,0.3,0.4,0.7,1,1c0.1,0,0.2,0.1,0.2,0.1c1.3,0.2,2.6,0.3,4.1,0.3
			c7.8,0,17.5-2.8,18.9-5.4c0.2-0.3,0.4-0.9,0.6-1.3c0.9-0.2,3.4,0,4.8,0.1h0.1c1.2,0,2.1-0.6,2.1-1.6
			C751.8,76.6,750.9,75.8,749.7,75.8z"/>
		<path fill="#010101" d="M654.2,75.8h-2.3c-0.6,0-1,0.4-1,1c-0.9,0-1.7,0-2.2,0.2c-0.2,0.1-1,0.4-1.2,1c-0.1,0.3-0.4,1-0.5,1.3
			c-1.1,2-12.9,5.3-20.6,4.1c0,0,0-0.1-0.1-0.1c-0.2-0.4-0.6-1.1-1.7-1.2h-0.1c0,0,0,0-0.1,0c0,0,0,0-0.1,0h-0.1c0,0,0,0-0.1,0h-0.1
			c-1,0.2-1.4,0.8-1.7,1.2l-0.1,0.1c-7.7,1.2-19.5-2.1-20.6-4.1c-0.1-0.2-0.4-0.9-0.5-1.3c-0.2-0.6-1-1-1.2-1
			c-0.6-0.2-1.4-0.2-2.2-0.2c0-0.6-0.5-1-1-1h-2.3c-1.2,0-2.1,0.7-2.1,1.6c0,1,0.9,1.6,2.1,1.6h0.1c1.4-0.2,3.8-0.2,4.8-0.1
			c0.2,0.5,0.4,1,0.6,1.3c1.5,2.6,11.2,5.4,18.9,5.4c1.4,0,2.9-0.1,4.1-0.3c0.1,0,0.2-0.1,0.2-0.1c0.5-0.2,0.8-0.6,1-1
			c0-0.1,0.1-0.1,0.1-0.2c0,0.1,0.1,0.1,0.1,0.2c0.2,0.3,0.4,0.7,1,1c0.1,0,0.2,0.1,0.2,0.1c1.3,0.2,2.6,0.3,4.1,0.3
			c7.8,0,17.5-2.8,18.9-5.4c0.2-0.3,0.4-0.9,0.6-1.3c1-0.2,3.4,0,4.8,0.1h0.1c1.2,0,2.1-0.6,2.1-1.6
			C656.4,76.6,655.4,75.8,654.2,75.8z"/>
		<path fill="#010101" d="M558.8,75.8h-2.3c-0.6,0-1,0.4-1,1c-0.9,0-1.7,0-2.2,0.2c-0.2,0.1-1,0.4-1.2,1c-0.1,0.3-0.4,1-0.5,1.3
			c-1.1,2-12.9,5.3-20.6,4.1c0,0,0-0.1-0.1-0.1c-0.2-0.4-0.6-1.1-1.7-1.2h-0.1c0,0,0,0-0.1,0c0,0,0,0-0.1,0H529c0,0,0,0-0.1,0h-0.1
			c-1,0.2-1.4,0.8-1.7,1.2l-0.1,0.1c-7.7,1.2-19.5-2.1-20.6-4.1c-0.1-0.2-0.4-0.9-0.5-1.3c-0.2-0.6-1-1-1.2-1
			c-0.6-0.2-1.4-0.2-2.2-0.2c-0.1-0.6-0.5-1-1-1h-2.3c-1.2,0-2.1,0.7-2.1,1.6c0,1,0.9,1.6,2.1,1.6h0.1c1.4-0.2,3.8-0.2,4.8-0.1
			c0.2,0.5,0.4,1,0.6,1.3c1.5,2.6,11.2,5.4,18.9,5.4c1.4,0,2.9-0.1,4.1-0.3c0.1,0,0.2-0.1,0.2-0.1c0.5-0.2,0.8-0.6,1-1
			c0-0.1,0.1-0.1,0.1-0.2c0,0.1,0.1,0.1,0.1,0.2c0.2,0.3,0.4,0.7,1,1c0.1,0,0.2,0.1,0.2,0.1c1.3,0.2,2.6,0.3,4.1,0.3
			c7.8,0,17.5-2.8,18.9-5.4c0.2-0.3,0.4-0.9,0.6-1.3c1-0.2,3.4,0,4.8,0.1h0.1c1.2,0,2.1-0.6,2.1-1.6C560.9,76.6,560,75.8,558.8,75.8
			z"/>
		<path fill="#010101" d="M463.4,75.8h-2.3c-0.6,0-1,0.4-1,1c-0.9,0-1.7,0-2.2,0.2c-0.2,0.1-1,0.4-1.2,1c-0.1,0.3-0.4,1-0.5,1.3
			c-1.1,2-12.9,5.3-20.6,4.1c0,0,0-0.1-0.1-0.1c-0.2-0.4-0.6-1.1-1.7-1.2h-0.1c0,0,0,0-0.1,0c0,0,0,0-0.1,0h-0.1c0,0,0,0-0.1,0h-0.1
			c-1,0.2-1.4,0.8-1.7,1.2l-0.1,0.1c-7.7,1.2-19.5-2.1-20.6-4.1c-0.1-0.2-0.4-0.9-0.5-1.3c-0.2-0.6-1-1-1.2-1
			c-0.6-0.2-1.3-0.2-2.2-0.2c0-0.6-0.5-1-1-1h-2.4c-1.2,0-2.1,0.7-2.1,1.6c0,1,0.9,1.6,2.1,1.6h0.1c1.4-0.2,3.8-0.2,4.8-0.1
			c0.2,0.5,0.4,1,0.6,1.3c1.5,2.6,11.2,5.4,18.9,5.4c1.4,0,2.9-0.1,4.1-0.3c0.1,0,0.2-0.1,0.2-0.1c0.5-0.2,0.8-0.6,1-1
			c0-0.1,0.1-0.1,0.1-0.2c0,0.1,0.1,0.1,0.1,0.2c0.2,0.3,0.4,0.7,1,1c0.1,0,0.2,0.1,0.2,0.1c1.3,0.2,2.6,0.3,4.1,0.3
			c7.8,0,17.5-2.8,18.9-5.4c0.2-0.3,0.4-0.9,0.6-1.3c1-0.2,3.4,0,4.8,0.1h0.1c1.2,0,2.1-0.6,2.1-1.6
			C465.4,76.6,464.5,75.8,463.4,75.8z"/>
	</g>
	<g>
		<rect x="247.6" y="28.6" fill="#010101" width="1" height="118.8"/>
		<rect x="272.5" y="28.6" fill="#010101" width="1" height="118.8"/>
	</g>
	<g>
		<rect x="464" y="28.6" fill="#010101" width="1" height="118.8"/>
		<rect x="497.6" y="28.6" fill="#010101" width="1" height="118.8"/>
	</g>
	<polygon fill="#010101" points="347.8,36.7 283.5,36.7 283.5,34.2 273,37 273,36.7 248,36.7 248,37 237.6,34.1 237.6,36.7 
		232.8,36.7 232.8,37.7 237.6,37.7 237.6,40.2 248,37.4 248,37.7 273,37.7 273,37.4 283.5,40.2 283.5,37.7 347.8,37.7 	"/>
	<polygon fill="#010101" points="507.5,36.7 507.5,34.2 497.7,36.8 497.7,36.7 464.7,36.7 464.7,37 454.3,34.1 454.3,36.7 
		449.5,36.7 449.5,37.7 454.3,37.7 454.3,40.2 464.7,37.4 464.7,37.7 497.7,37.7 497.7,37.6 507.5,40.2 507.5,37.7 743.4,37.7 
		743.4,36.7 	"/>
	<g>
		<path fill="#231F20" d="M293.1,30.6v-3.9h-6.9v-1.9l6.2-9.4h3.4v9.2h2v2.1h-2v3.9H293.1z M293.1,24.5v-4.1c0-0.9,0-1.7,0.1-2.6
			h-0.1c-0.5,1-0.9,1.7-1.3,2.5l-2.8,4.2v0.1L293.1,24.5L293.1,24.5z"/>
		<path fill="#231F20" d="M309.6,15.4v1.8l-6.4,13.3h-3l6.4-12.7v-0.1h-7.1v-2.4L309.6,15.4L309.6,15.4z"/>
		<path fill="#231F20" d="M313.9,19.2h3.6l1.6,4.9c0.2,0.7,0.6,2,0.9,2.9h0.1c0.2-0.8,0.7-2.3,1.1-3.5l1.5-4.4h3.6l0.7,11.3h-2.7
			l-0.2-4.9c-0.1-1.1-0.2-2.6-0.2-4h-0.1c-0.4,1.3-0.6,1.9-1.2,3.7l-1.8,5.1h-2.1l-1.7-5c-0.3-1.1-0.7-2.7-1-3.8H316
			c0,1.4-0.1,2.9-0.2,4l-0.2,4.8H313L313.9,19.2z"/>
		<path fill="#231F20" d="M329.8,19.2h3.6l1.6,4.9c0.2,0.7,0.6,2,0.9,2.9h0.1c0.2-0.8,0.7-2.3,1.1-3.5l1.5-4.4h3.6l0.7,11.3h-2.7
			l-0.2-4.9c-0.1-1.1-0.2-2.6-0.2-4h-0.1c-0.4,1.3-0.6,1.9-1.2,3.7l-1.8,5.1h-2.1l-1.7-5c-0.3-1.1-0.7-2.7-1-3.8h-0.1
			c0,1.4-0.1,2.9-0.2,4l-0.2,4.8h-2.6L329.8,19.2z"/>
	</g>
	<g>
		<path fill="#231F20" d="M13.2,0.2v6.3h6.6V0.2h2.9v15.7h-2.9V9h-6.6v6.9h-2.9V0.2H13.2z"/>
		<path fill="#231F20" d="M26.2,8.2V6.4h12v1.8H26.2z M26.2,13v-1.8h12V13H26.2z"/>
		<path fill="#231F20" d="M42.5,16v-1.7l1.8-1.7c3.6-3.3,5.2-5.1,5.2-7.1c0-1.3-0.7-2.5-2.7-2.5c-1.3,0-2.5,0.7-3.2,1.3l-0.9-2.1
			c1.1-0.9,2.8-1.6,4.7-1.6c3.3,0,5,2.1,5,4.6c0,2.7-1.9,4.8-4.5,7.2l-1.3,1.1v0.1h6.3v2.4L42.5,16L42.5,16z"/>
		<path fill="#231F20" d="M65.7,8.3c0,4.8-1.9,7.9-5.5,7.9c-3.5,0-5.4-3.2-5.4-7.8c0-4.7,2-7.8,5.5-7.8C64,0.6,65.7,3.8,65.7,8.3z
			 M57.7,8.5c0,3.6,1,5.6,2.6,5.6c1.7,0,2.5-2.1,2.5-5.7c0-3.5-0.9-5.6-2.5-5.6C58.7,2.8,57.6,4.7,57.7,8.5z"/>
		<path fill="#231F20" d="M69.3,4.6h3.6l1.6,4.9c0.2,0.7,0.6,2,0.9,2.9h0.1c0.2-0.8,0.7-2.3,1.1-3.5L78,4.5h3.6l0.7,11.3h-2.7
			l-0.2-4.9c-0.1-1.1-0.2-2.6-0.2-4h-0.1c-0.4,1.3-0.6,1.9-1.2,3.7l-1.7,5.2h-2.1l-1.7-5c-0.3-1.1-0.7-2.7-1-3.8h-0.1
			c0,1.4-0.1,2.9-0.2,4L71,15.9h-2.6L69.3,4.6z"/>
		<path fill="#231F20" d="M85.1,4.6h3.6l1.6,4.9c0.2,0.7,0.6,2,0.9,2.9h0.1c0.2-0.8,0.7-2.3,1.1-3.5l1.5-4.4h3.6l0.7,11.3h-2.7
			l-0.2-4.9c-0.1-1.1-0.2-2.6-0.2-4h-0.1c-0.4,1.3-0.6,1.9-1.2,3.7l-1.8,5.1H90l-1.7-5c-0.3-1.1-0.7-2.7-1-3.8h-0.1
			c0,1.4-0.1,2.9-0.2,4l-0.2,4.8h-2.6L85.1,4.6z"/>
		<path fill="#231F20" d="M101.3,16.9L107,0h2l-5.7,16.9H101.3z"/>
		<path fill="#231F20" d="M110.5,13c0.6,0.3,2,1,3.5,1c2.2,0,3.1-1.3,3.1-2.5c0-1.8-1.7-2.5-3.4-2.5h-1.3V6.9h1.3c1.3,0,3-0.6,3-2.1
			c0-1-0.8-1.9-2.5-1.9c-1.3,0-2.5,0.6-3.1,0.9l-0.6-2.1c0.9-0.6,2.5-1.2,4.4-1.2c3.1,0,4.8,1.7,4.8,3.7c0,1.6-1,2.9-2.8,3.6v0.1
			c1.8,0.3,3.3,1.7,3.3,3.8c0,2.5-2.1,4.6-5.9,4.6c-1.8,0-3.4-0.5-4.3-1L110.5,13z"/>
		<path fill="#231F20" d="M133.2,8.3c0,4.8-1.9,7.9-5.5,7.9c-3.5,0-5.4-3.2-5.4-7.8c0-4.7,2-7.8,5.5-7.8
			C131.4,0.6,133.2,3.8,133.2,8.3z M125.1,8.5c0,3.6,1,5.6,2.6,5.6c1.7,0,2.5-2.1,2.5-5.7c0-3.5-0.9-5.6-2.5-5.6
			C126.2,2.8,125.1,4.7,125.1,8.5z"/>
		<path fill="#231F20" d="M136.6,4.6h3.6l1.6,4.9c0.2,0.7,0.6,2,0.9,2.9h0.1c0.2-0.8,0.7-2.3,1.1-3.5l1.5-4.4h3.6l0.7,11.3h-2.7
			l-0.2-4.9c-0.1-1.1-0.2-2.6-0.2-4h-0.1c-0.4,1.3-0.6,1.9-1.2,3.7l-1.8,5.1h-2.1l-1.7-5c-0.3-1.1-0.7-2.7-1-3.8h-0.1
			c0,1.4-0.1,2.9-0.2,4l-0.2,4.8h-2.6L136.6,4.6z"/>
		<path fill="#231F20" d="M152.6,4.6h3.6l1.6,4.9c0.2,0.7,0.6,2,0.9,2.9h0.1c0.2-0.8,0.7-2.3,1.1-3.5l1.5-4.4h3.6l0.7,11.3H163
			l-0.2-4.9c-0.1-1.1-0.2-2.6-0.2-4h-0.1c-0.4,1.3-0.6,1.9-1.2,3.7l-1.8,5.1h-2.1l-1.7-5c-0.3-1.1-0.7-2.7-1-3.8h-0.1
			c0,1.4-0.1,2.9-0.2,4l-0.2,4.8h-2.6L152.6,4.6z"/>
		<path fill="#231F20" d="M168.7,16.9L174.4,0h2l-5.7,16.9H168.7z"/>
		<path fill="#231F20" d="M183.7,16v-3.9h-6.9v-1.9l6.2-9.4h3.4v9.1h2V12h-2v3.9L183.7,16L183.7,16z M183.7,10V5.9
			c0-0.9,0-1.7,0.1-2.6h-0.1c-0.5,0.9-0.9,1.7-1.3,2.5l-2.8,4.1V10H183.7z"/>
		<path fill="#231F20" d="M200.5,8.3c0,4.8-1.9,7.9-5.5,7.9c-3.5,0-5.4-3.2-5.4-7.8c0-4.7,2-7.8,5.5-7.8
			C198.9,0.6,200.5,3.8,200.5,8.3z M192.5,8.5c0,3.6,1,5.6,2.6,5.6c1.7,0,2.5-2.1,2.5-5.7c0-3.5-0.9-5.6-2.5-5.6
			C193.6,2.8,192.5,4.7,192.5,8.5z"/>
		<path fill="#231F20" d="M204.1,4.6h3.6l1.6,4.9c0.2,0.7,0.6,2,0.9,2.9h0.1c0.2-0.8,0.7-2.3,1.1-3.5l1.5-4.4h3.6l0.7,11.3h-2.7
			l-0.2-4.9c-0.1-1.1-0.2-2.6-0.2-4h-0.1c-0.4,1.3-0.6,1.9-1.2,3.7l-1.8,5.1H209l-1.7-5c-0.3-1.1-0.7-2.7-1-3.8h-0.1
			c0,1.4-0.1,2.9-0.2,4l-0.2,4.8h-2.6L204.1,4.6z"/>
		<path fill="#231F20" d="M220,4.6h3.6l1.6,4.9c0.2,0.7,0.6,2,0.9,2.9h0.1c0.2-0.8,0.7-2.3,1.1-3.5l1.5-4.4h3.6l0.7,11.3h-2.7
			l-0.2-4.9c-0.1-1.1-0.2-2.6-0.2-4H230c-0.4,1.3-0.6,1.9-1.2,3.7l-1.8,5.1h-2.1l-1.7-5c-0.3-1.1-0.7-2.7-1-3.8h-0.1
			c0,1.4-0.1,2.9-0.2,4l-0.2,4.8h-2.6L220,4.6z"/>
	</g>
	<g>
		<path fill="#231F20" d="M513.2,14.9h2.9v13.3h6.5v2.4h-9.3V14.9z"/>
		<path fill="#231F20" d="M525,22.9v-1.8h12v1.8H525z M525,27.6v-1.8h12v1.8H525z"/>
		<path fill="#231F20" d="M542.4,28.5c0.5,0.1,0.9,0,1.6-0.1c1.1-0.1,2.2-0.5,3.1-1.2c1-0.8,1.7-1.9,1.9-3.3h-0.1
			c-0.8,0.9-1.8,1.3-3.3,1.3c-2.6,0-4.6-1.9-4.6-4.7c0-2.9,2.2-5.4,5.5-5.4c3.5,0,5.4,2.8,5.4,6.4c0,3.2-1.1,5.5-2.6,7
			c-1.3,1.3-3.2,1.9-5.1,2.1c-0.6,0.1-1.3,0.1-1.7,0.1L542.4,28.5L542.4,28.5z M543.9,20.4c0,1.6,0.9,2.8,2.5,2.8
			c1.2,0,2-0.6,2.5-1.3c0.1-0.2,0.2-0.4,0.2-0.8c0-2.1-0.7-3.8-2.6-3.8C544.9,17.3,543.9,18.6,543.9,20.4z"/>
		<path fill="#231F20" d="M564.4,23c0,4.8-1.9,7.9-5.5,7.9c-3.5,0-5.4-3.2-5.4-7.8c0-4.7,2-7.8,5.5-7.8
			C562.7,15.2,564.4,18.4,564.4,23z M556.4,23c0,3.6,1,5.6,2.6,5.6c1.7,0,2.5-2.1,2.5-5.7c0-3.5-0.9-5.6-2.5-5.6
			C557.4,17.4,556.4,19.2,556.4,23z"/>
		<path fill="#231F20" d="M567.9,19.2h3.6l1.6,4.9c0.2,0.7,0.6,2,0.9,2.9h0.1c0.2-0.8,0.7-2.3,1.1-3.5l1.5-4.4h3.6l0.7,11.3h-2.7
			l-0.2-4.9c-0.1-1.1-0.2-2.6-0.2-4h-0.1c-0.4,1.3-0.6,1.9-1.2,3.7l-1.8,5.1h-2.1l-1.7-5c-0.3-1.1-0.7-2.7-1-3.8h-0.1
			c0,1.4-0.1,2.9-0.2,4l-0.2,4.8h-2.6L567.9,19.2z"/>
		<path fill="#231F20" d="M583.9,19.2h3.6l1.6,4.9c0.2,0.7,0.6,2,0.9,2.9h0.1c0.2-0.8,0.7-2.3,1.1-3.5l1.5-4.4h3.6l0.7,11.3h-2.7
			l-0.2-4.9c-0.1-1.1-0.2-2.6-0.2-4h-0.1c-0.4,1.3-0.6,1.9-1.2,3.7l-1.8,5.1h-2.1l-1.7-5c-0.3-1.1-0.7-2.7-1-3.8H586
			c0,1.4-0.1,2.9-0.2,4l-0.2,4.8H583L583.9,19.2z"/>
		<path fill="#231F20" d="M600,31.5l5.7-16.9h2L602,31.5H600z"/>
		<path fill="#231F20" d="M617.9,17.5c-0.4,0-0.9,0-1.5,0.1c-3.2,0.4-4.7,2.3-5.1,4.4h0.1c0.7-0.9,1.9-1.5,3.4-1.5
			c2.6,0,4.7,1.9,4.7,4.9c0,2.9-2.1,5.4-5.3,5.4c-3.6,0-5.7-2.8-5.7-6.5c0-2.9,1-5.3,2.6-6.8c1.4-1.3,3.2-2.1,5.4-2.2
			c0.6-0.1,1.1-0.1,1.4-0.1V17.5z M616.5,25.6c0-1.7-1-3-2.6-3c-1.1,0-2.1,0.6-2.5,1.6c-0.1,0.2-0.2,0.5-0.2,0.9
			c0.1,2,1,3.6,2.8,3.6C615.6,28.7,616.5,27.4,616.5,25.6z"/>
		<path fill="#231F20" d="M630.8,17.8h-5.9l-0.5,3c0.3-0.1,0.6-0.1,1.1-0.1c1.3,0,2.7,0.3,3.6,0.9c1.1,0.7,2,2,2,3.9
			c0,2.9-2.4,5.2-6.1,5.2c-1.7,0-3.2-0.5-4-0.9l0.6-2.1c0.6,0.3,2,0.8,3.3,0.8c1.7,0,3.2-1,3.2-2.8c0-1.7-1.3-2.9-4.3-2.9
			c-0.9,0-1.5,0.1-2.1,0.2l1-7.7h7.8L630.8,17.8L630.8,17.8z"/>
		<path fill="#231F20" d="M634.4,19.2h3.6l1.6,4.9c0.2,0.7,0.6,2,0.9,2.9h0.1c0.2-0.8,0.7-2.3,1.1-3.5l1.5-4.4h3.6l0.7,11.3h-2.7
			l-0.2-4.9c-0.1-1.1-0.2-2.6-0.2-4h-0.1c-0.4,1.3-0.6,1.9-1.2,3.7l-1.8,5.1h-2.1l-1.7-5c-0.3-1.1-0.7-2.7-1-3.8h-0.1
			c0,1.4-0.1,2.9-0.2,4l-0.2,4.8h-2.6L634.4,19.2z"/>
		<path fill="#231F20" d="M650.4,19.2h3.6l1.6,4.9c0.2,0.7,0.6,2,0.9,2.9h0.1c0.2-0.8,0.7-2.3,1.1-3.5l1.5-4.4h3.6l0.7,11.3h-2.7
			l-0.2-4.9c-0.1-1.1-0.2-2.6-0.2-4h-0.1c-0.4,1.3-0.6,1.9-1.2,3.7l-1.8,5.1h-2.1l-1.7-5c-0.3-1.1-0.7-2.7-1-3.8h-0.1
			c0,1.4-0.1,2.9-0.2,4l-0.2,4.8h-2.6L650.4,19.2z"/>
		<path fill="#231F20" d="M666.5,31.5l5.7-16.9h2l-5.7,16.9H666.5z"/>
		<path fill="#231F20" d="M684.8,17.8h-5.9l-0.5,3c0.3-0.1,0.6-0.1,1.1-0.1c1.3,0,2.7,0.3,3.6,0.9c1.1,0.7,2,2,2,3.9
			c0,2.9-2.4,5.2-6.1,5.2c-1.7,0-3.2-0.5-4-0.9l0.6-2.1c0.6,0.3,2,0.8,3.3,0.8c1.7,0,3.2-1,3.2-2.8c0-1.7-1.3-2.9-4.3-2.9
			c-0.9,0-1.5,0.1-2.1,0.2l1-7.7h7.8L684.8,17.8L684.8,17.8z"/>
		<path fill="#231F20" d="M698.3,23c0,4.8-1.9,7.9-5.5,7.9c-3.5,0-5.4-3.2-5.4-7.8c0-4.7,2-7.8,5.5-7.8
			C696.7,15.2,698.3,18.4,698.3,23z M690.3,23c0,3.6,1,5.6,2.6,5.6c1.7,0,2.5-2.1,2.5-5.7c0-3.5-0.9-5.6-2.5-5.6
			C691.4,17.4,690.3,19.2,690.3,23z"/>
		<path fill="#231F20" d="M701.9,19.2h3.6l1.6,4.9c0.2,0.7,0.6,2,0.9,2.9h0.1c0.2-0.8,0.7-2.3,1.1-3.5l1.5-4.4h3.6l0.7,11.3h-2.7
			l-0.2-4.9c-0.1-1.1-0.2-2.6-0.2-4h-0.1c-0.4,1.3-0.6,1.9-1.2,3.7l-1.8,5.1h-2.1l-1.7-5c-0.3-1.1-0.7-2.7-1-3.8H704
			c0,1.4-0.1,2.9-0.2,4l-0.2,4.8H701L701.9,19.2z"/>
		<path fill="#231F20" d="M717.8,19.2h3.6l1.6,4.9c0.2,0.7,0.6,2,0.9,2.9h0.1c0.2-0.8,0.7-2.3,1.1-3.5l1.5-4.4h3.6l0.7,11.3h-2.7
			l-0.2-4.9c-0.1-1.1-0.2-2.6-0.2-4h-0.1c-0.4,1.3-0.6,1.9-1.2,3.7l-1.8,5.1h-2.1l-1.7-5c-0.3-1.1-0.7-2.7-1-3.8h-0.1
			c0,1.4-0.1,2.9-0.2,4l-0.2,4.8h-2.6L717.8,19.2z"/>
	</g>
	<g>
		<g>
			<path fill="#187D41" d="M69.7,122.5c0-0.1,0-0.2-0.1-0.2c-0.1-0.1-0.2-0.2-0.2-0.2c-5.8-5.5-16.8-10.2-24.2-7.4
				c-0.7,0.7-0.7,1.6-1.9,1.7l0,0c-1.2-0.2-1.1-1-1.8-1.7c-7.6-2.9-19,2.1-24.6,7.8l0,0h-4.4V474h61.7V122.5H69.7z"/>
			<path fill="#211F1F" d="M74.2,474.8H12.4c-0.4,0-0.8-0.3-0.8-0.8V122.5c0-0.4,0.3-0.8,0.8-0.8h4c4.4-4.4,12.6-8.6,19.9-8.6
				c2,0,3.7,0.3,5.3,1c0.1,0.1,0.2,0.1,0.3,0.2c0.3,0.3,0.5,0.6,0.6,0.9c0.2,0.4,0.3,0.6,0.6,0.6c0.3-0.1,0.5-0.2,0.7-0.6
				c0.2-0.2,0.3-0.6,0.6-0.9c0.1-0.1,0.2-0.2,0.2-0.2c1.6-0.6,3.4-0.9,5.3-0.9c7.4,0,15.4,4.4,19.7,8.4l0.2,0.2h4
				c0.4,0,0.8,0.3,0.8,0.8V474C75,474.4,74.6,474.8,74.2,474.8z M13.2,473.3h60.2v-350h-3.7c-0.2,0-0.5-0.1-0.6-0.3
				c-0.1-0.1-0.1-0.2-0.2-0.2l-0.1-0.1c-4-3.9-11.6-8-18.6-8c-1.7,0-3.2,0.2-4.6,0.8c-0.2,0.2-0.2,0.3-0.3,0.5
				c-0.3,0.5-0.7,1.2-1.9,1.3c-0.1,0-0.2,0-0.2,0c-1.2-0.2-1.6-0.9-1.9-1.3c-0.1-0.2-0.2-0.3-0.3-0.5c-1.3-0.5-2.9-0.8-4.6-0.8
				c-7,0-14.9,4.2-19,8.3c0,0,0,0-0.1,0.1c-0.2,0.2-0.3,0.2-0.6,0.2h-3.6L13.2,473.3L13.2,473.3z"/>
		</g>
		<g>
			<g>
				<rect x="40.4" y="114.7" fill="#211F1F" width="1.6" height="359.2"/>
			</g>
			<g>
				<rect x="44.7" y="114.7" fill="#211F1F" width="1.6" height="359.2"/>
			</g>
		</g>
		<g>
			<g>
				<rect x="16.1" y="122.4" fill="#211F1F" width="1.6" height="351.6"/>
			</g>
			<g>
				<rect x="69" y="122.4" fill="#211F1F" width="1.6" height="351.6"/>
			</g>
		</g>
	</g>
	<g>
		<g>
			<path fill="#187D41" d="M156.5,122.5c0-0.1,0-0.2-0.1-0.2c-0.1-0.1-0.2-0.2-0.2-0.2c-5.8-5.5-16.8-10.2-24.2-7.4
				c-0.7,0.7-0.7,0.1-1.9,0.2l0,0c-1.2-0.2-1.1,0.5-1.8-0.2c-7.6-2.9-19,2.1-24.6,7.8l0,0h-4.4V474h61.7V122.5H156.5z"/>
			<path fill="#211F1F" d="M161,474.8H99.4c-0.4,0-0.8-0.3-0.8-0.8V122.5c0-0.4,0.3-0.8,0.8-0.8h4c4.4-4.4,12.6-8.6,19.9-8.6
				c2,0,3.7,0.3,5.3,1c0.1,0.1,0.2,0.1,0.3,0.2c0.1,0.1,0.1,0.1,0.1,0.1l0,0c0.2-0.1,0.6-0.2,1.2-0.1c0.6-0.1,1,0,1.2,0.1l0,0
				l0.1-0.1c0.1-0.1,0.2-0.2,0.2-0.2c1.6-0.6,3.4-1,5.3-1c7.4,0,15.4,4.4,19.7,8.4l0.2,0.2l0,0h4c0.4,0,0.8,0.3,0.8,0.8V474
				C161.8,474.4,161.5,474.8,161,474.8z M100.1,473.3h60.2v-350h-3.7c-0.2,0-0.5-0.1-0.6-0.3c-0.1-0.1-0.1-0.2-0.2-0.2l-0.1-0.1
				c-4-3.9-11.6-8-18.6-8c-1.7,0-3.2,0.2-4.6,0.8c-0.2,0.2-0.6,0.5-1,0.5c-0.2,0-0.3,0-0.5-0.1c-0.2-0.1-0.4-0.1-0.7,0
				c-0.1,0-0.2,0-0.2,0c-0.3-0.1-0.5,0-0.7,0.1c-0.2,0-0.3,0.1-0.5,0.1c-0.4,0-0.8-0.2-1-0.5c-1.3-0.5-2.9-0.8-4.6-0.8
				c-7,0-14.9,4.2-19,8.3c-0.2,0.2-0.4,0.3-0.6,0.3h-3.6L100.1,473.3L100.1,473.3z"/>
		</g>
		<g>
			<g>
				<rect x="127.3" y="114.7" fill="#211F1F" width="1.6" height="359.2"/>
			</g>
			<g>
				<rect x="131.6" y="114.7" fill="#211F1F" width="1.6" height="359.2"/>
			</g>
		</g>
		<g>
			<g>
				<rect x="103" y="122.4" fill="#211F1F" width="1.6" height="351.6"/>
			</g>
			<g>
				<rect x="155.9" y="122.4" fill="#211F1F" width="1.6" height="351.6"/>
			</g>
		</g>
	</g>
	<g>
		<g>
			<path fill="#187D41" d="M243.4,122.5c0-0.1,0-0.2-0.1-0.2c-0.1-0.1-0.2-0.2-0.2-0.2c-5.8-5.5-16.8-10.2-24.2-7.3
				c-0.7,0.7-0.7,0.1-1.9,0.2l0,0c-1.2-0.2-1.1,0.5-1.8-0.2c-7.6-2.9-19,2.1-24.6,7.8l0,0h-4.4V474h61.7V122.5H243.4z"/>
			<path fill="#211F1F" d="M248,474.8h-61.7c-0.4,0-0.8-0.3-0.8-0.8V122.5c0-0.4,0.3-0.8,0.8-0.8h4c4.4-4.4,12.6-8.6,19.9-8.6
				c2,0,3.7,0.3,5.3,1c0.1,0.1,0.2,0.1,0.3,0.2c0.1,0.1,0.1,0.1,0.1,0.1l0,0c0.2-0.1,0.6-0.2,1.2-0.1c0.6-0.1,0.9,0,1.2,0.1l0,0
				l0.1-0.1c0.1-0.1,0.2-0.2,0.2-0.2c1.6-0.6,3.4-1,5.3-1c7.4,0,15.4,4.4,19.6,8.4l0.2,0.2l0,0h4c0.4,0,0.8,0.3,0.8,0.8V474
				C248.7,474.4,248.4,474.8,248,474.8z M187.1,473.3h60.2v-350h-3.7c-0.2,0-0.5-0.1-0.6-0.3c-0.1-0.1-0.1-0.2-0.2-0.2l-0.1-0.1
				c-4-3.9-11.6-8-18.6-8c-1.7,0-3.2,0.2-4.6,0.8c-0.2,0.2-0.6,0.5-1,0.5c-0.2,0-0.3,0-0.5-0.1s-0.4-0.1-0.7,0c-0.1,0-0.2,0-0.2,0
				c-0.3-0.1-0.5,0-0.7,0.1c-0.2,0-0.3,0.1-0.5,0.1c-0.4,0-0.8-0.2-1-0.5c-1.3-0.5-2.9-0.8-4.6-0.8c-7,0-14.8,4.2-19,8.3
				c-0.2,0.2-0.4,0.3-0.6,0.3H187L187.1,473.3L187.1,473.3z"/>
		</g>
		<g>
			<g>
				<rect x="214.1" y="114.7" fill="#211F1F" width="1.6" height="359.2"/>
			</g>
			<g>
				<rect x="218.5" y="114.7" fill="#211F1F" width="1.6" height="359.2"/>
			</g>
		</g>
		<g>
			<g>
				<rect x="189.8" y="122.4" fill="#211F1F" width="1.6" height="351.6"/>
			</g>
			<g>
				<rect x="242.8" y="122.4" fill="#211F1F" width="1.6" height="351.6"/>
			</g>
		</g>
	</g>
	<g>
		<g>
			<path fill="#187D41" d="M330.4,122.5c0-0.1,0-0.2-0.1-0.2c-0.1-0.1-0.2-0.2-0.2-0.2c-5.8-5.5-16.8-10.2-24.2-7.3
				c-0.7,0.7-0.7,0.1-1.9,0.2l0,0c-1.2-0.2-1.1,0.5-1.8-0.2c-7.6-2.9-19,2.1-24.6,7.8l0,0h-4.4V474h61.8V122.5H330.4z"/>
			<path fill="#211F1F" d="M334.9,474.8h-61.8c-0.4,0-0.8-0.3-0.8-0.8V122.5c0-0.4,0.3-0.8,0.8-0.8h4c4.4-4.4,12.6-8.6,19.9-8.6
				c2,0,3.7,0.3,5.3,1c0.1,0.1,0.2,0.1,0.3,0.2c0.1,0.1,0.1,0.1,0.1,0.1l0,0c0.2-0.1,0.6-0.2,1.2-0.1c0.6-0.1,1,0,1.2,0.1l0,0
				l0.1-0.1c0.1-0.1,0.2-0.2,0.2-0.2c1.6-0.6,3.4-1,5.3-1c7.4,0,15.4,4.4,19.7,8.4l0.2,0.2h4c0.4,0,0.8,0.3,0.8,0.8V474
				C335.7,474.4,335.3,474.8,334.9,474.8z M273.9,473.3h60.2v-350h-3.7c-0.2,0-0.5-0.2-0.6-0.3c-0.1-0.1-0.1-0.2-0.2-0.2l-0.1-0.1
				c-4-3.9-11.6-8-18.6-8c-1.7,0-3.2,0.2-4.6,0.8c-0.2,0.2-0.6,0.5-1,0.5c-0.2,0-0.3,0-0.5-0.1c-0.2-0.1-0.4-0.1-0.7,0
				c-0.1,0-0.2,0-0.2,0c-0.3-0.1-0.5,0-0.7,0.1c-0.2,0-0.3,0.1-0.5,0.1c-0.4,0-0.8-0.2-1-0.5c-1.3-0.5-2.9-0.8-4.6-0.8
				c-7,0-14.9,4.2-19,8.3c0,0,0,0-0.1,0.1c-0.2,0.2-0.3,0.2-0.6,0.2h-3.5V473.3z"/>
		</g>
		<g>
			<g>
				<rect x="301.1" y="114.7" fill="#211F1F" width="1.6" height="359.2"/>
			</g>
			<g>
				<rect x="305.4" y="114.7" fill="#211F1F" width="1.6" height="359.2"/>
			</g>
		</g>
		<g>
			<g>
				<rect x="276.8" y="122.4" fill="#211F1F" width="1.6" height="351.6"/>
			</g>
			<g>
				<rect x="329.7" y="122.4" fill="#211F1F" width="1.6" height="351.6"/>
			</g>
		</g>
	</g>
	<g>
		<g>
			<path fill="#314B34" d="M507.6,122.5c0-0.1,0-0.2-0.1-0.2c-0.1-0.1-0.2-0.2-0.2-0.2c-5.8-5.5-16.8-10.2-24.2-7.4
				c-0.7,0.7-0.7,0.1-1.9,0.2l0,0c-1.2-0.2-1.1,0.5-1.8-0.2c-7.6-2.9-19,2.1-24.6,7.8l0,0l0,0V474h53L507.6,122.5L507.6,122.5z"/>
			<path fill="#211F1F" d="M507.8,474.8h-53c-0.4,0-0.8-0.3-0.8-0.8V122.6c0-0.2,0-0.3,0.1-0.5l0,0c0-0.1,0.1-0.2,0.2-0.2l0,0
				c4.4-4.4,12.7-8.9,20.1-8.9c2,0,3.7,0.3,5.3,1c0.1,0.1,0.2,0.1,0.3,0.2c0.1,0.1,0.1,0.1,0.1,0.1l0,0c0.2-0.1,0.6-0.2,1.2-0.1
				c0.6-0.1,0.9,0,1.2,0.1l0,0l0.1-0.1c0.1-0.1,0.2-0.2,0.3-0.2c1.6-0.6,3.4-1,5.3-1c7.4,0,15.4,4.4,19.6,8.4
				c0.1,0.1,0.2,0.2,0.2,0.2c0.1,0.1,0.1,0.1,0.2,0.2c0.2,0.2,0.3,0.4,0.3,0.6V474C508.6,474.4,508.2,474.8,507.8,474.8z
				 M455.6,473.3H507V122.9c-0.1-0.1-0.1-0.2-0.1-0.2l-0.1-0.1c-4-3.9-11.6-8-18.6-8c-1.7,0-3.2,0.2-4.6,0.8c-0.2,0.2-0.6,0.5-1,0.5
				c-0.2,0-0.3,0-0.5-0.1s-0.4-0.1-0.7,0c-0.1,0-0.2,0-0.2,0c-0.3,0-0.5,0-0.6,0.1c-0.2,0-0.3,0.1-0.5,0.1c-0.4,0-0.8-0.2-1-0.5
				c-1.3-0.5-2.9-0.8-4.6-0.8c-6.9,0-14.6,4-18.8,8.2L455.6,473.3L455.6,473.3z"/>
		</g>
		<g>
			<g>
				<rect x="478.4" y="114.7" fill="#211F1F" width="1.6" height="359.2"/>
			</g>
			<g>
				<rect x="482.7" y="114.7" fill="#211F1F" width="1.6" height="359.2"/>
			</g>
		</g>
	</g>
	<g>
		<g>
			<path fill="#314B34" d="M603.1,122.5c0-0.1,0-0.2-0.1-0.2c-0.1-0.1-0.2-0.2-0.2-0.2c-5.8-5.5-16.8-10.2-24.2-7.4
				c-0.7,0.7-0.7,0.1-1.9,0.2l0,0c-1.2-0.2-1.1,0.5-1.8-0.2c-7.6-2.9-19,2.1-24.6,7.8l0,0l0,0V474h53V122.5H603.1z"/>
			<path fill="#211F1F" d="M603.3,474.8h-53c-0.4,0-0.8-0.3-0.8-0.8V122.6c0-0.2,0-0.3,0.1-0.5l0,0c0-0.1,0.1-0.2,0.2-0.2l0,0
				c4.4-4.4,12.7-8.9,20.1-8.9c2,0,3.7,0.3,5.3,1c0.1,0.1,0.2,0.1,0.3,0.2c0.1,0.1,0.1,0.1,0.1,0.1l0,0c0.2-0.1,0.6-0.2,1.2-0.1
				c0.6-0.1,1,0,1.2,0.1l0,0l0.1-0.1c0.1-0.1,0.2-0.2,0.3-0.2c1.6-0.6,3.4-1,5.3-1c7.4,0,15.4,4.4,19.6,8.4c0.1,0.1,0.2,0.2,0.2,0.2
				c0.1,0.1,0.1,0.1,0.2,0.2c0.2,0.2,0.3,0.4,0.3,0.6V474C604,474.4,603.6,474.8,603.3,474.8z M551.1,473.3h51.4V122.9
				c-0.1-0.1-0.1-0.2-0.1-0.2l-0.1-0.1c-4-3.9-11.6-8-18.6-8c-1.7,0-3.2,0.2-4.6,0.8c-0.2,0.2-0.6,0.5-1,0.5c-0.2,0-0.3,0-0.5-0.1
				c-0.2-0.1-0.4-0.1-0.7,0c-0.1,0-0.2,0-0.2,0c-0.3,0-0.5,0-0.6,0.1c-0.2,0-0.3,0.1-0.5,0.1c-0.4,0-0.8-0.2-1-0.5
				c-1.3-0.5-2.9-0.8-4.6-0.8c-6.9,0-14.6,4-18.8,8.2L551.1,473.3L551.1,473.3z"/>
		</g>
		<g>
			<g>
				<rect x="573.8" y="114.7" fill="#211F1F" width="1.6" height="359.2"/>
			</g>
			<g>
				<rect x="578.2" y="114.7" fill="#211F1F" width="1.6" height="359.2"/>
			</g>
		</g>
	</g>
	<g>
		<g>
			<path fill="#314B34" d="M698.5,122.5c0-0.1,0-0.2-0.1-0.2c-0.1-0.1-0.2-0.2-0.2-0.2c-5.8-5.5-16.8-10.2-24.2-7.4
				c-0.7,0.7-0.7,0.1-1.9,0.2l0,0c-1.2-0.2-1.1,0.5-1.8-0.2c-7.6-2.9-19,2.1-24.6,7.8l0,0l0,0V474h53L698.5,122.5L698.5,122.5z"/>
			<path fill="#211F1F" d="M698.6,474.8h-53c-0.4,0-0.8-0.3-0.8-0.8V122.6c0-0.2,0-0.3,0.1-0.5l0,0c0-0.1,0.1-0.2,0.1-0.2
				s0,0,0.1-0.1c4.4-4.4,12.7-8.9,20.1-8.9c2,0,3.7,0.3,5.3,1c0.1,0.1,0.2,0.1,0.3,0.2c0.1,0.1,0.1,0.1,0.1,0.1l0,0
				c0.2-0.1,0.6-0.2,1.2-0.1c0.6-0.1,1,0,1.2,0.1l0,0l0.1-0.1c0.1-0.1,0.2-0.2,0.3-0.2c1.6-0.6,3.4-1,5.3-1c7.4,0,15.4,4.4,19.7,8.4
				l0.2,0.2c0.1,0.1,0.1,0.2,0.2,0.2c0.2,0.2,0.3,0.4,0.3,0.6V474C699.4,474.4,699.1,474.8,698.6,474.8z M646.5,473.3h51.4V122.9
				c-0.1-0.1-0.1-0.2-0.1-0.2l-0.1-0.1c-4-3.9-11.6-8-18.6-8c-1.7,0-3.2,0.2-4.6,0.8c-0.2,0.2-0.6,0.5-1,0.5c-0.2,0-0.3,0-0.5-0.1
				c-0.2-0.1-0.4-0.1-0.7,0c-0.1,0-0.2,0-0.2,0c-0.3,0-0.5,0-0.6,0.1c-0.2,0-0.3,0.1-0.5,0.1c-0.4,0-0.8-0.2-1-0.5
				c-1.3-0.5-2.9-0.8-4.6-0.8c-6.9,0-14.6,4-18.8,8.2L646.5,473.3L646.5,473.3z"/>
		</g>
		<g>
			<g>
				<rect x="669.3" y="114.7" fill="#211F1F" width="1.6" height="359.2"/>
			</g>
			<g>
				<rect x="673.5" y="114.7" fill="#211F1F" width="1.6" height="359.2"/>
			</g>
		</g>
	</g>
	<g>
		<g>
			<path fill="#187D41" d="M746.2,122.5c0-0.1,0-0.2-0.1-0.2c-0.1-0.1-0.2-0.2-0.2-0.2c-5.8-5.5-16.8-10.2-24.2-7.4
				c-0.7,0.7-0.7,0.1-1.9,0.2l0,0c-1.2-0.2-1.1,0.5-1.8-0.2c-7.6-2.9-19,2.1-24.6,7.8l0,0H689V474h61.7V122.5H746.2z"/>
			<path fill="#211F1F" d="M750.7,474.8h-61.7c-0.4,0-0.8-0.3-0.8-0.8V122.5c0-0.4,0.3-0.8,0.8-0.8h4c4.4-4.4,12.6-8.6,19.9-8.6
				c2,0,3.7,0.3,5.3,1c0.1,0.1,0.2,0.1,0.3,0.2c0.1,0.1,0.1,0.1,0.1,0.1l0,0c0.2-0.1,0.6-0.2,1.2-0.1c0.6-0.1,1,0,1.2,0.1l0,0
				l0.1-0.1c0.1-0.1,0.2-0.2,0.2-0.2c1.6-0.6,3.4-1,5.3-1c7.4,0,15.4,4.4,19.7,8.4l0.2,0.2l0,0h4c0.4,0,0.8,0.3,0.8,0.8V474
				C751.5,474.4,751.2,474.8,750.7,474.8z M689.9,473.3H750v-350h-3.7c-0.2,0-0.5-0.1-0.6-0.3c-0.1-0.1-0.1-0.2-0.2-0.2l-0.1-0.1
				c-4-3.9-11.6-8-18.6-8c-1.7,0-3.2,0.2-4.6,0.8c-0.2,0.2-0.6,0.5-1,0.5c-0.2,0-0.3,0-0.5-0.1s-0.4-0.1-0.7,0c-0.1,0-0.2,0-0.2,0
				c-0.3,0-0.5,0-0.6,0.1c-0.2,0-0.3,0.1-0.5,0.1c-0.4,0-0.8-0.2-1-0.5c-1.3-0.5-2.9-0.8-4.6-0.8c-7,0-14.9,4.2-19,8.3
				c-0.2,0.2-0.4,0.3-0.6,0.3h-3.6V473.3L689.9,473.3z"/>
		</g>
		<g>
			<g>
				<rect x="717" y="114.7" fill="#211F1F" width="1.6" height="359.2"/>
			</g>
			<g>
				<rect x="721.3" y="114.7" fill="#211F1F" width="1.6" height="359.2"/>
			</g>
		</g>
		<g>
			<g>
				<rect x="692.6" y="122.4" fill="#211F1F" width="1.6" height="351.6"/>
			</g>
			<g>
				<rect x="745.6" y="122.4" fill="#211F1F" width="1.6" height="351.6"/>
			</g>
		</g>
	</g>
	<g>
		<g>
			<path fill="#187D41" d="M650.8,122.5c0-0.1,0-0.2-0.1-0.2c-0.1-0.1-0.2-0.2-0.2-0.2c-5.8-5.5-16.8-10.2-24.2-7.4
				c-0.7,0.7-0.7,0.1-1.9,0.2l0,0c-1.2-0.2-1.1,0.5-1.8-0.2c-7.6-2.9-19,2.1-24.6,7.8l0,0h-4.4V474h61.7V122.5H650.8z"/>
			<path fill="#211F1F" d="M655.3,474.8h-61.7c-0.4,0-0.8-0.3-0.8-0.8V122.5c0-0.4,0.3-0.8,0.8-0.8h4c4.4-4.4,12.6-8.6,19.9-8.6
				c2,0,3.7,0.3,5.3,1c0.1,0.1,0.2,0.1,0.3,0.2c0.1,0.1,0.1,0.1,0.1,0.1l0,0c0.2-0.1,0.6-0.2,1.2-0.1c0.6-0.1,1,0,1.2,0.1l0,0
				l0.1-0.1c0.1-0.1,0.2-0.2,0.3-0.2c1.6-0.6,3.4-1,5.3-1c7.4,0,15.4,4.4,19.7,8.4l0.2,0.2h4c0.4,0,0.8,0.3,0.8,0.8V474
				C656.1,474.4,655.7,474.8,655.3,474.8z M594.4,473.3h60.2v-350h-3.7c-0.2,0-0.5-0.1-0.6-0.3c-0.1-0.1-0.1-0.2-0.2-0.2l-0.1-0.1
				c-4-3.9-11.6-8-18.6-8c-1.7,0-3.2,0.2-4.6,0.8c-0.2,0.2-0.6,0.5-1,0.5c-0.2,0-0.3,0-0.5-0.1c-0.2-0.1-0.4-0.1-0.7,0
				c-0.1,0-0.2,0-0.2,0c-0.3,0-0.5,0-0.6,0.1c-0.2,0-0.3,0.1-0.5,0.1c-0.4,0-0.8-0.2-1-0.5c-1.3-0.5-2.9-0.8-4.6-0.8
				c-7,0-14.9,4.2-19,8.3c-0.2,0.2-0.4,0.3-0.6,0.3h-3.6V473.3L594.4,473.3z"/>
		</g>
		<g>
			<g>
				<rect x="621.5" y="114.7" fill="#211F1F" width="1.6" height="359.2"/>
			</g>
			<g>
				<rect x="625.8" y="114.7" fill="#211F1F" width="1.6" height="359.2"/>
			</g>
		</g>
		<g>
			<g>
				<rect x="597.2" y="122.4" fill="#211F1F" width="1.6" height="351.6"/>
			</g>
			<g>
				<rect x="650.1" y="122.4" fill="#211F1F" width="1.6" height="351.6"/>
			</g>
		</g>
	</g>
	<g>
		<g>
			<path fill="#187D41" d="M555.4,122.5c0-0.1,0-0.2-0.1-0.2c-0.1-0.1-0.2-0.2-0.2-0.2c-5.8-5.5-16.8-10.2-24.2-7.4
				c-0.7,0.7-0.7,0.1-1.9,0.2l0,0c-1.2-0.2-1.1,0.5-1.8-0.2c-7.6-2.9-19,2.1-24.6,7.8l0,0h-4.4V474h61.7V122.5H555.4z"/>
			<path fill="#211F1F" d="M559.9,474.8h-61.7c-0.4,0-0.8-0.3-0.8-0.8V122.5c0-0.4,0.3-0.8,0.8-0.8h4c4.4-4.4,12.6-8.6,19.9-8.6
				c2,0,3.7,0.3,5.3,1c0.1,0.1,0.2,0.1,0.3,0.2c0.1,0.1,0.1,0.1,0.1,0.1l0,0c0.2-0.1,0.6-0.2,1.2-0.1c0.6-0.1,1,0,1.2,0.1l0,0
				l0.1-0.1c0.1-0.1,0.2-0.2,0.2-0.2c1.6-0.6,3.4-1,5.3-1c7.4,0,15.4,4.4,19.6,8.4l0.2,0.2l0,0h4c0.4,0,0.8,0.3,0.8,0.8V474
				C560.7,474.4,560.3,474.8,559.9,474.8z M498.9,473.3h60.2v-350h-3.7c-0.2,0-0.5-0.1-0.6-0.3c-0.1-0.1-0.1-0.2-0.2-0.2l-0.1-0.1
				c-4-3.9-11.6-8-18.6-8c-1.7,0-3.2,0.2-4.6,0.8c-0.2,0.2-0.6,0.5-1,0.5c-0.2,0-0.3,0-0.5-0.1c-0.2-0.1-0.4-0.1-0.7,0
				c-0.1,0-0.2,0-0.2,0c-0.3,0-0.5,0-0.6,0.1c-0.2,0-0.3,0.1-0.5,0.1c-0.4,0-0.8-0.2-1-0.5c-1.3-0.5-2.9-0.8-4.6-0.8
				c-7,0-14.9,4.2-19,8.4c0,0,0,0-0.1,0.1c-0.2,0.2-0.3,0.2-0.6,0.2h-3.6V473.3L498.9,473.3z"/>
		</g>
		<g>
			<g>
				<rect x="526.1" y="114.7" fill="#211F1F" width="1.6" height="359.2"/>
			</g>
			<g>
				<rect x="530.4" y="114.7" fill="#211F1F" width="1.6" height="359.2"/>
			</g>
		</g>
		<g>
			<g>
				<rect x="501.8" y="122.4" fill="#211F1F" width="1.6" height="351.6"/>
			</g>
			<g>
				<rect x="554.7" y="122.4" fill="#211F1F" width="1.6" height="351.6"/>
			</g>
		</g>
	</g>
	<g>
		<g>
			<path fill="#187D41" d="M459.9,122.5c0-0.1,0-0.2-0.1-0.2c-0.1-0.1-0.2-0.2-0.2-0.2c-5.8-5.5-16.8-10.2-24.2-7.4
				c-0.7,0.7-0.7,0.1-1.9,0.2l0,0c-1.2-0.2-1.1,0.5-1.8-0.2c-7.6-2.9-19,2.1-24.6,7.8l0,0h-4.4V474h61.7V122.5H459.9z"/>
			<path fill="#211F1F" d="M464.4,474.8h-61.7c-0.4,0-0.8-0.3-0.8-0.8V122.5c0-0.4,0.3-0.8,0.8-0.8h4c4.4-4.4,12.6-8.6,19.9-8.6
				c2,0,3.7,0.3,5.3,1c0.1,0.1,0.2,0.1,0.3,0.2c0.1,0.1,0.1,0.1,0.1,0.1l0,0c0.2-0.1,0.6-0.2,1.2-0.1c0.6-0.1,1,0,1.2,0.1l0,0
				l0.1-0.1c0.1-0.1,0.2-0.2,0.3-0.2c1.6-0.6,3.4-1,5.3-1c7.4,0,15.4,4.4,19.6,8.4c0.1,0.1,0.2,0.2,0.2,0.2l0,0h4
				c0.4,0,0.8,0.3,0.8,0.8V474C465.2,474.4,464.9,474.8,464.4,474.8z M403.5,473.3h60.2v-350H460c-0.2,0-0.5-0.1-0.6-0.3
				c-0.1-0.1-0.1-0.2-0.2-0.2l-0.1-0.1c-4-3.9-11.6-8-18.6-8c-1.7,0-3.2,0.2-4.6,0.8c-0.2,0.2-0.6,0.5-1,0.5c-0.2,0-0.3,0-0.5-0.1
				c-0.2-0.1-0.4-0.1-0.7,0c-0.1,0-0.2,0-0.2,0c-0.3,0-0.5,0-0.6,0.1c-0.2,0-0.3,0.1-0.5,0.1c-0.4,0-0.8-0.2-1-0.5
				c-1.3-0.5-2.9-0.8-4.6-0.8c-7,0-14.9,4.2-19,8.4c0,0,0,0-0.1,0.1c-0.2,0.2-0.3,0.2-0.6,0.2h-3.6V473.3L403.5,473.3z"/>
		</g>
		<g>
			<g>
				<rect x="430.7" y="114.7" fill="#211F1F" width="1.6" height="359.2"/>
			</g>
			<g>
				<rect x="434.9" y="114.7" fill="#211F1F" width="1.6" height="359.2"/>
			</g>
		</g>
		<g>
			<g>
				<rect x="406.4" y="122.4" fill="#211F1F" width="1.6" height="351.6"/>
			</g>
			<g>
				<rect x="459.2" y="122.4" fill="#211F1F" width="1.6" height="351.6"/>
			</g>
		</g>
	</g>
	<polygon fill="#010101" points="5.8,49.4 5.8,21.6 4.7,21.6 4.7,49.4 2.2,49.4 5.2,60.6 8.2,49.4 	"/>
	<polygon fill="#010101" points="8.2,82.8 5.5,72.4 5.8,72.4 5.8,59.1 4.7,59.1 4.7,72.4 5,72.4 2.2,82.8 4.7,82.8 4.7,93.4 
		5.8,93.4 5.8,82.8 	"/>
	<rect x="4.8" y="21.6" fill="#010101" width="233.8" height="1"/>
	<g>
		<path fill="#010101" d="M101,500.5c0,4.2-2.9,6-5.9,6c-3.2,0-5.7-2.2-5.7-5.9c0-3.7,2.5-6,5.9-6C98.8,494.7,101,497.1,101,500.5z
			 M92.5,500.7c0,2.2,1.1,3.9,2.9,3.9c1.7,0,2.8-1.6,2.8-3.9c0-1.7-0.8-3.8-2.8-3.8C93.3,496.8,92.5,498.8,92.5,500.7z"/>
		<path fill="#010101" d="M112.9,495v9.3l1.2,0.1l-0.1,5.6h-2.2l-0.1-3.6h-7.4l-0.2,3.6h-2.2l-0.1-5.6l1-0.1
			c0.5-0.7,0.9-1.5,1.1-2.3c0.4-1.3,0.6-2.7,0.6-4V495L112.9,495L112.9,495z M107,498.7c0,1.2-0.2,2.5-0.5,3.5
			c-0.2,0.7-0.5,1.4-0.9,2.1h4.4v-7H107V498.7z"/>
		<path fill="#010101" d="M119.1,495v4.4h4.4V495h2.9v11.3h-2.9v-4.8h-4.4v4.8h-2.9V495H119.1z"/>
		<path fill="#010101" d="M140.1,500.5c0,4.2-2.9,6-5.9,6c-3.2,0-5.7-2.2-5.7-5.9c0-3.7,2.5-6,5.9-6
			C137.9,494.7,140.1,497.1,140.1,500.5z M131.6,500.7c0,2.2,1.1,3.9,2.8,3.9c1.7,0,2.8-1.6,2.8-3.9c0-1.7-0.8-3.8-2.8-3.8
			C132.4,496.8,131.6,498.8,131.6,500.7z"/>
		<path fill="#010101" d="M150.8,506c-0.6,0.3-1.8,0.6-3.2,0.6c-3.6,0-5.9-2.3-5.9-5.8c0-3.4,2.3-6,6.3-6c1,0,2.1,0.2,2.8,0.6
			l-0.5,2.1c-0.5-0.2-1.1-0.5-2.1-0.5c-2.2,0-3.5,1.6-3.5,3.6c0,2.3,1.5,3.6,3.5,3.6c1,0,1.7-0.2,2.3-0.5L150.8,506z"/>
		<path fill="#010101" d="M161.7,495v2.2h-3.4v9.1h-2.9v-9.1h-3.4V495H161.7z"/>
		<path fill="#010101" d="M173.9,500.5c0,4.2-2.9,6-5.9,6c-3.2,0-5.7-2.2-5.7-5.9c0-3.7,2.5-6,5.9-6
			C171.6,494.7,173.9,497.1,173.9,500.5z M165.4,500.7c0,2.2,1.1,3.9,2.9,3.9c1.7,0,2.8-1.6,2.8-3.9c0-1.7-0.8-3.8-2.8-3.8
			C166.2,496.8,165.4,498.8,165.4,500.7z"/>
		<path fill="#010101" d="M176.2,498.8c0-1.5-0.1-2.7-0.1-3.8h2.5l0.2,1.7h0.1c0.9-1.3,2.1-2,3.9-2c2.6,0,4.8,2.2,4.8,5.8
			c0,4.1-2.6,6.1-5.1,6.1c-1.4,0-2.6-0.6-3.2-1.5h-0.1v5.9h-2.8L176.2,498.8L176.2,498.8z M179.2,501.5c0,0.3,0,0.6,0.1,0.8
			c0.3,1.2,1.3,2,2.5,2c1.8,0,2.9-1.5,2.9-3.7c0-2-1-3.6-2.9-3.6c-1.2,0-2.3,0.9-2.5,2.1c-0.1,0.2-0.1,0.5-0.1,0.7V501.5z"/>
		<path fill="#010101" d="M200.7,500.5c0,4.2-2.9,6-5.9,6c-3.2,0-5.7-2.2-5.7-5.9c0-3.7,2.5-6,5.9-6
			C198.4,494.7,200.7,497.1,200.7,500.5z M192.1,500.7c0,2.2,1.1,3.9,2.8,3.9c1.7,0,2.8-1.6,2.8-3.9c0-1.7-0.8-3.8-2.8-3.8
			C192.9,496.8,192.1,498.8,192.1,500.7z"/>
		<path fill="#010101" d="M205.8,495v4.4h4.4V495h2.9v11.3h-2.9v-4.8h-4.4v4.8H203V495H205.8z"/>
		<path fill="#010101" d="M219,495v4.4h4.4V495h2.9v11.3h-2.9v-4.8H219v4.8h-2.9V495H219z"/>
		<path fill="#010101" d="M238.6,506.3h-2.9v-4.5h-1.1c-0.8,0-1.3,0.3-1.7,0.7c-0.7,0.6-1,1.8-1.4,2.8c-0.2,0.3-0.2,0.6-0.5,1h-3.1
			c0.3-0.3,0.5-0.8,0.7-1.3c0.5-1,0.9-2.5,1.7-3.2c0.3-0.3,0.8-0.6,1.3-0.8v-0.1c-1.3-0.2-2.9-1-2.9-2.8c0-1.3,0.7-2.1,1.7-2.6
			c0.9-0.5,2.5-0.7,4-0.7c1.6,0,3,0.1,4,0.2L238.6,506.3L238.6,506.3z M235.8,496.8c-0.4-0.1-0.8-0.1-1.4-0.1
			c-1.3,0-2.5,0.5-2.5,1.7s1.4,1.7,2.5,1.7c0.7,0,1,0,1.4,0V496.8z"/>
		<path fill="#010101" d="M251,506.3h-2.9v-4.5H247c-0.8,0-1.3,0.3-1.7,0.7c-0.7,0.6-1,1.8-1.4,2.8c-0.2,0.3-0.2,0.6-0.5,1h-3.1
			c0.3-0.3,0.5-0.8,0.7-1.3c0.5-1,0.9-2.5,1.7-3.2c0.3-0.3,0.8-0.6,1.3-0.8v-0.1c-1.3-0.2-2.9-1-2.9-2.8c0-1.3,0.7-2.1,1.7-2.6
			c0.9-0.5,2.5-0.7,4-0.7c1.6,0,3,0.1,4,0.2L251,506.3L251,506.3z M248.1,496.8c-0.4-0.1-0.8-0.1-1.4-0.1c-1.3,0-2.5,0.5-2.5,1.7
			s1.4,1.7,2.5,1.7c0.7,0,1,0,1.4,0V496.8z"/>
	</g>
	<g>
		<path fill="#010101" d="M511.4,495v9.3l1.2,0.1l-0.1,5.6h-2.2l-0.1-3.6h-7.4l-0.2,3.6h-2.2l-0.1-5.6l1-0.1
			c0.5-0.7,0.9-1.5,1.1-2.3c0.4-1.3,0.6-2.7,0.6-4V495L511.4,495L511.4,495z M505.6,498.7c0,1.2-0.2,2.5-0.5,3.5
			c-0.2,0.7-0.5,1.4-0.9,2.1h4.4v-7h-3.1V498.7z"/>
		<path fill="#010101" d="M514.7,495.1c0.9-0.2,2.5-0.3,4.1-0.3c1.9,0,5.4,0.2,5.4,2.8c0,1.4-1.1,2.3-2.3,2.5v0.1
			c1.7,0.2,2.9,1.2,2.9,2.8c0,3.1-4.1,3.4-6.4,3.4c-1.4,0-2.9-0.1-3.6-0.2V495.1z M517.5,504.6c0.5,0.1,0.8,0.1,1.4,0.1
			c1.3,0,2.8-0.3,2.8-1.7c0-1.3-1.3-1.7-3.1-1.7h-1.3L517.5,504.6L517.5,504.6z M517.6,499.5h1.2c1.5,0,2.7-0.4,2.7-1.5
			c0-0.9-0.8-1.4-2.5-1.4c-0.6,0-0.9,0.1-1.3,0.1L517.6,499.5L517.6,499.5z"/>
		<path fill="#010101" d="M528.6,495l2.1,6.1c0.2,0.7,0.5,1.6,0.6,2.2h0.1c0.2-0.6,0.4-1.5,0.6-2.2l1.7-6h3.1l-2.8,7.8
			c-1.6,4.3-2.6,6.1-4,7.3c-1.1,1-2.3,1.3-3,1.5l-0.6-2.5c0.5-0.1,1.1-0.4,1.7-0.8c0.6-0.3,1.2-1,1.6-1.8c0.1-0.2,0.2-0.4,0.2-0.5
			c0-0.1,0-0.3-0.2-0.6l-4.1-10.5L528.6,495L528.6,495z"/>
		<path fill="#010101" d="M540.5,495l1.3,2.1c0.4,0.6,0.7,1.2,1,1.7h0.1c0.3-0.6,0.6-1.2,0.9-1.8l1.3-2.1h3.1l-3.8,5.5l3.9,5.9h-3.2
			l-1.4-2.3c-0.4-0.6-0.7-1.2-1-1.8h-0.1c-0.3,0.6-0.6,1.2-1,1.8l-1.3,2.3h-3.2l4-5.8l-3.8-5.5H540.5L540.5,495z"/>
		<path fill="#010101" d="M558,506c-0.6,0.3-1.8,0.6-3.2,0.6c-3.6,0-5.9-2.3-5.9-5.8c0-3.4,2.3-6,6.3-6c1,0,2.1,0.2,2.8,0.6
			l-0.5,2.1c-0.5-0.2-1.1-0.5-2.1-0.5c-2.2,0-3.5,1.6-3.5,3.6c0,2.3,1.5,3.6,3.5,3.6c1,0,1.7-0.2,2.3-0.5L558,506z"/>
		<path fill="#010101" d="M569,495v2.2h-3.4v9.1h-2.9v-9.1h-3.4V495H569z"/>
		<path fill="#010101" d="M581.1,500.5c0,4.2-2.9,6-5.9,6c-3.2,0-5.7-2.2-5.7-5.9c0-3.7,2.5-6,5.9-6
			C578.9,494.7,581.1,497.1,581.1,500.5z M572.5,500.7c0,2.2,1.1,3.9,2.8,3.9c1.7,0,2.8-1.6,2.8-3.9c0-1.7-0.8-3.8-2.8-3.8
			C573.4,496.8,572.5,498.8,572.5,500.7z"/>
		<path fill="#010101" d="M583.5,498.8c0-1.5-0.1-2.7-0.1-3.8h2.5l0.2,1.7h0.1c0.9-1.3,2.1-2,3.9-2c2.6,0,4.8,2.2,4.8,5.8
			c0,4.1-2.6,6.1-5.1,6.1c-1.4,0-2.6-0.6-3.2-1.5h-0.1v5.9h-2.9V498.8z M586.3,501.5c0,0.3,0,0.6,0.1,0.8c0.3,1.2,1.3,2,2.5,2
			c1.8,0,2.8-1.5,2.8-3.7c0-2-1-3.6-2.8-3.6c-1.2,0-2.3,0.9-2.5,2.1c-0.1,0.2-0.1,0.5-0.1,0.7V501.5z"/>
		<path fill="#010101" d="M607.8,500.5c0,4.2-2.9,6-5.9,6c-3.2,0-5.7-2.2-5.7-5.9c0-3.7,2.5-6,5.9-6
			C605.6,494.7,607.8,497.1,607.8,500.5z M599.3,500.7c0,2.2,1.1,3.9,2.8,3.9c1.7,0,2.8-1.6,2.8-3.9c0-1.7-0.8-3.8-2.8-3.8
			C600.2,496.8,599.3,498.8,599.3,500.7z"/>
		<path fill="#010101" d="M613.1,495v4.4h4.4V495h2.8v11.3h-2.8v-4.8h-4.4v4.8h-2.9V495H613.1z"/>
		<path fill="#010101" d="M626.2,495v4.4h4.4V495h2.8v11.3h-2.8v-4.8h-4.4v4.8h-2.8V495H626.2z"/>
		<path fill="#010101" d="M645.8,506.3H643v-4.5h-1.1c-0.8,0-1.3,0.3-1.7,0.7c-0.7,0.6-1,1.8-1.4,2.8c-0.2,0.3-0.2,0.6-0.5,1h-3.1
			c0.3-0.3,0.5-0.8,0.7-1.3c0.5-1,0.9-2.5,1.7-3.2c0.3-0.3,0.8-0.6,1.3-0.8v-0.1c-1.3-0.2-2.9-1-2.9-2.8c0-1.3,0.7-2.1,1.7-2.6
			c1-0.5,2.5-0.7,4-0.7s3,0.1,4,0.2L645.8,506.3L645.8,506.3z M643,496.8c-0.4-0.1-0.8-0.1-1.4-0.1c-1.3,0-2.5,0.5-2.5,1.7
			s1.4,1.7,2.5,1.7c0.7,0,1,0,1.4,0V496.8z"/>
		<path fill="#010101" d="M658.2,506.3h-2.9v-4.5h-1.1c-0.8,0-1.3,0.3-1.7,0.7c-0.7,0.6-1,1.8-1.4,2.8c-0.2,0.3-0.2,0.6-0.5,1h-3
			c0.3-0.3,0.5-0.8,0.7-1.3c0.5-1,0.9-2.5,1.7-3.2c0.3-0.3,0.8-0.6,1.3-0.8v-0.1c-1.3-0.2-2.9-1-2.9-2.8c0-1.3,0.7-2.1,1.7-2.6
			c1-0.5,2.5-0.7,4-0.7c1.6,0,3,0.1,4,0.2V506.3L658.2,506.3z M655.3,496.8c-0.4-0.1-0.8-0.1-1.4-0.1c-1.3,0-2.5,0.5-2.5,1.7
			s1.4,1.7,2.5,1.7c0.7,0,1,0,1.4,0V496.8z"/>
	</g>
	<g>
		<g>
			<rect x="0.8" y="205" fill="#9C9EA1" width="758.4" height="20.6"/>
			<path fill="#211F1F" d="M759.2,226.5H0.8c-0.4,0-0.8-0.3-0.8-0.8v-20.6c0-0.4,0.3-0.8,0.8-0.8h758.4c0.4,0,0.8,0.3,0.8,0.8v20.6
				C760,226.1,759.7,226.5,759.2,226.5z M1.6,224.9h756.8v-19.1H1.6V224.9z"/>
		</g>
		<g>
			<rect x="0.8" y="209.4" fill="#211F1F" width="758.4" height="3"/>
			<rect x="0.8" y="218.3" fill="#211F1F" width="758.4" height="3"/>
		</g>
	</g>
	<rect x="0.8" y="398.6" fill="#9C9EA1" width="758.4" height="20.6"/>
	<path fill="#211F1F" d="M759.2,420H0.8c-0.4,0-0.8-0.3-0.8-0.8v-20.6c0-0.4,0.3-0.8,0.8-0.8h758.4c0.4,0,0.8,0.3,0.8,0.8v20.6
		C760,419.7,759.7,420,759.2,420z M1.6,418.5h756.8v-19.1H1.6V418.5z"/>
	<g>
		<rect x="0.8" y="403" fill="#211F1F" width="758.4" height="3"/>
		<rect x="0.8" y="411.9" fill="#211F1F" width="758.4" height="3"/>
	</g>
	<g>
		<g>
			<g>
				<path fill="#187D41" d="M69.7,122.5c0-0.1,0-0.2-0.1-0.2c-0.1-0.1-0.2-0.2-0.2-0.2c-5.8-5.5-16.8-10.2-24.2-7.4
					c-0.7,0.7-0.7,0.1-1.9,0.2l0,0c-1.2-0.2-1.1,0.5-1.8-0.2c-7.6-2.9-19,2.1-24.6,7.8l0,0h-4.4V474h61.7V122.5H69.7z"/>
				<path fill="#211F1F" d="M74.2,474.8H12.4c-0.4,0-0.8-0.3-0.8-0.8V122.5c0-0.4,0.3-0.8,0.8-0.8h4c4.4-4.4,12.6-8.6,19.9-8.6
					c2,0,3.7,0.3,5.3,1c0.1,0.1,0.2,0.1,0.3,0.2c0.1,0.1,0.1,0.1,0.1,0.1l0,0c0.2-0.1,0.6-0.2,1.2-0.1c0.6-0.1,0.9,0,1.2,0.1l0,0
					l0.1-0.1c0.1-0.1,0.2-0.2,0.2-0.2c1.6-0.6,3.4-1,5.3-1c7.4,0,15.4,4.4,19.7,8.4l0.2,0.2h4c0.4,0,0.8,0.3,0.8,0.8V474
					C75,474.4,74.6,474.8,74.2,474.8z M13.2,473.3h60.2v-350h-3.7c-0.2,0-0.5-0.1-0.6-0.3c-0.1-0.1-0.1-0.2-0.2-0.2l-0.1-0.1
					c-4-3.9-11.6-8-18.6-8c-1.7,0-3.2,0.2-4.6,0.8c-0.2,0.2-0.6,0.5-1,0.5c-0.2,0-0.3,0-0.5-0.1c-0.2-0.1-0.4-0.1-0.7,0
					c-0.1,0-0.2,0-0.2,0c-0.3-0.1-0.5,0-0.7,0.1c-0.2,0-0.3,0.1-0.5,0.1c-0.4,0-0.8-0.2-1-0.5c-1.3-0.5-2.9-0.8-4.6-0.8
					c-7,0-14.9,4.2-19,8.3c0,0,0,0-0.1,0.1c-0.2,0.2-0.3,0.2-0.6,0.2h-3.6L13.2,473.3L13.2,473.3z"/>
			</g>
			<g>
				<g>
					<rect x="40.4" y="114.7" fill="#211F1F" width="1.6" height="359.2"/>
				</g>
				<g>
					<rect x="44.7" y="114.7" fill="#211F1F" width="1.6" height="359.2"/>
				</g>
			</g>
			<g>
				<g>
					<rect x="16.1" y="122.4" fill="#211F1F" width="1.6" height="351.6"/>
				</g>
				<g>
					<rect x="69" y="122.4" fill="#211F1F" width="1.6" height="351.6"/>
				</g>
			</g>
		</g>
		<g>
			<g>
				<path fill="#187D41" d="M156.5,122.5c0-0.1,0-0.2-0.1-0.2c-0.1-0.1-0.2-0.2-0.2-0.2c-5.8-5.5-16.8-10.2-24.2-7.4
					c-0.7,0.7-0.7,0.1-1.9,0.2l0,0c-1.2-0.2-1.1,0.5-1.8-0.2c-7.6-2.9-19,2.1-24.6,7.8l0,0h-4.4V474h61.7V122.5H156.5z"/>
				<path fill="#211F1F" d="M161,474.8H99.4c-0.4,0-0.8-0.3-0.8-0.8V122.5c0-0.4,0.3-0.8,0.8-0.8h4c4.4-4.4,12.6-8.6,19.9-8.6
					c2,0,3.7,0.3,5.3,1c0.1,0.1,0.2,0.1,0.3,0.2c0.1,0.1,0.1,0.1,0.1,0.1l0,0c0.2-0.1,0.6-0.2,1.2-0.1c0.6-0.1,1,0,1.2,0.1l0,0
					l0.1-0.1c0.1-0.1,0.2-0.2,0.2-0.2c1.6-0.6,3.4-1,5.3-1c7.4,0,15.4,4.4,19.7,8.4l0.2,0.2l0,0h4c0.4,0,0.8,0.3,0.8,0.8V474
					C161.8,474.4,161.5,474.8,161,474.8z M100.1,473.3h60.2v-350h-3.7c-0.2,0-0.5-0.1-0.6-0.3c-0.1-0.1-0.1-0.2-0.2-0.2l-0.1-0.1
					c-4-3.9-11.6-8-18.6-8c-1.7,0-3.2,0.2-4.6,0.8c-0.2,0.2-0.6,0.5-1,0.5c-0.2,0-0.3,0-0.5-0.1c-0.2-0.1-0.4-0.1-0.7,0
					c-0.1,0-0.2,0-0.2,0c-0.3-0.1-0.5,0-0.7,0.1c-0.2,0-0.3,0.1-0.5,0.1c-0.4,0-0.8-0.2-1-0.5c-1.3-0.5-2.9-0.8-4.6-0.8
					c-7,0-14.9,4.2-19,8.3c-0.2,0.2-0.4,0.3-0.6,0.3h-3.6L100.1,473.3L100.1,473.3z"/>
			</g>
			<g>
				<g>
					<rect x="127.3" y="114.7" fill="#211F1F" width="1.6" height="359.2"/>
				</g>
				<g>
					<rect x="131.6" y="114.7" fill="#211F1F" width="1.6" height="359.2"/>
				</g>
			</g>
			<g>
				<g>
					<rect x="103" y="122.4" fill="#211F1F" width="1.6" height="351.6"/>
				</g>
				<g>
					<rect x="155.9" y="122.4" fill="#211F1F" width="1.6" height="351.6"/>
				</g>
			</g>
		</g>
		<g>
			<g>
				<path fill="#187D41" d="M243.4,122.5c0-0.1,0-0.2-0.1-0.2c-0.1-0.1-0.2-0.2-0.2-0.2c-5.8-5.5-16.8-10.2-24.2-7.3
					c-0.7,0.7-0.7,0.1-1.9,0.2l0,0c-1.2-0.2-1.1,0.5-1.8-0.2c-7.6-2.9-19,2.1-24.6,7.8l0,0h-4.4V474h61.7V122.5H243.4z"/>
				<path fill="#211F1F" d="M248,474.8h-61.7c-0.4,0-0.8-0.3-0.8-0.8V122.5c0-0.4,0.3-0.8,0.8-0.8h4c4.4-4.4,12.6-8.6,19.9-8.6
					c2,0,3.7,0.3,5.3,1c0.1,0.1,0.2,0.1,0.3,0.2c0.1,0.1,0.1,0.1,0.1,0.1l0,0c0.2-0.1,0.6-0.2,1.2-0.1c0.6-0.1,0.9,0,1.2,0.1l0,0
					l0.1-0.1c0.1-0.1,0.2-0.2,0.2-0.2c1.6-0.6,3.4-1,5.3-1c7.4,0,15.4,4.4,19.6,8.4l0.2,0.2l0,0h4c0.4,0,0.8,0.3,0.8,0.8V474
					C248.7,474.4,248.4,474.8,248,474.8z M187.1,473.3h60.2v-350h-3.7c-0.2,0-0.5-0.1-0.6-0.3c-0.1-0.1-0.1-0.2-0.2-0.2l-0.1-0.1
					c-4-3.9-11.6-8-18.6-8c-1.7,0-3.2,0.2-4.6,0.8c-0.2,0.2-0.6,0.5-1,0.5c-0.2,0-0.3,0-0.5-0.1s-0.4-0.1-0.7,0c-0.1,0-0.2,0-0.2,0
					c-0.3-0.1-0.5,0-0.7,0.1c-0.2,0-0.3,0.1-0.5,0.1c-0.4,0-0.8-0.2-1-0.5c-1.3-0.5-2.9-0.8-4.6-0.8c-7,0-14.8,4.2-19,8.3
					c-0.2,0.2-0.4,0.3-0.6,0.3H187L187.1,473.3L187.1,473.3z"/>
			</g>
			<g>
				<g>
					<rect x="214.1" y="114.7" fill="#211F1F" width="1.6" height="359.2"/>
				</g>
				<g>
					<rect x="218.5" y="114.7" fill="#211F1F" width="1.6" height="359.2"/>
				</g>
			</g>
			<g>
				<g>
					<rect x="189.8" y="122.4" fill="#211F1F" width="1.6" height="351.6"/>
				</g>
				<g>
					<rect x="242.8" y="122.4" fill="#211F1F" width="1.6" height="351.6"/>
				</g>
			</g>
		</g>
		<g>
			<g>
				<path fill="#187D41" d="M330.4,122.5c0-0.1,0-0.2-0.1-0.2c-0.1-0.1-0.2-0.2-0.2-0.2c-5.8-5.5-16.8-10.2-24.2-7.3
					c-0.7,0.7-0.7,0.1-1.9,0.2l0,0c-1.2-0.2-1.1,0.5-1.8-0.2c-7.6-2.9-19,2.1-24.6,7.8l0,0h-4.4V474h61.8V122.5H330.4z"/>
				<path fill="#211F1F" d="M334.9,474.8h-61.8c-0.4,0-0.8-0.3-0.8-0.8V122.5c0-0.4,0.3-0.8,0.8-0.8h4c4.4-4.4,12.6-8.6,19.9-8.6
					c2,0,3.7,0.3,5.3,1c0.1,0.1,0.2,0.1,0.3,0.2c0.1,0.1,0.1,0.1,0.1,0.1l0,0c0.2-0.1,0.6-0.2,1.2-0.1c0.6-0.1,1,0,1.2,0.1l0,0
					l0.1-0.1c0.1-0.1,0.2-0.2,0.2-0.2c1.6-0.6,3.4-1,5.3-1c7.4,0,15.4,4.4,19.7,8.4l0.2,0.2h4c0.4,0,0.8,0.3,0.8,0.8V474
					C335.7,474.4,335.3,474.8,334.9,474.8z M273.9,473.3h60.2v-350h-3.7c-0.2,0-0.5-0.2-0.6-0.3c-0.1-0.1-0.1-0.2-0.2-0.2l-0.1-0.1
					c-4-3.9-11.6-8-18.6-8c-1.7,0-3.2,0.2-4.6,0.8c-0.2,0.2-0.6,0.5-1,0.5c-0.2,0-0.3,0-0.5-0.1c-0.2-0.1-0.4-0.1-0.7,0
					c-0.1,0-0.2,0-0.2,0c-0.3-0.1-0.5,0-0.7,0.1c-0.2,0-0.3,0.1-0.5,0.1c-0.4,0-0.8-0.2-1-0.5c-1.3-0.5-2.9-0.8-4.6-0.8
					c-7,0-14.9,4.2-19,8.3c0,0,0,0-0.1,0.1c-0.2,0.2-0.3,0.2-0.6,0.2h-3.5V473.3z"/>
			</g>
			<g>
				<g>
					<rect x="301.1" y="114.7" fill="#211F1F" width="1.6" height="359.2"/>
				</g>
				<g>
					<rect x="305.4" y="114.7" fill="#211F1F" width="1.6" height="359.2"/>
				</g>
			</g>
			<g>
				<g>
					<rect x="276.8" y="122.4" fill="#211F1F" width="1.6" height="351.6"/>
				</g>
				<g>
					<rect x="329.7" y="122.4" fill="#211F1F" width="1.6" height="351.6"/>
				</g>
			</g>
		</g>
	</g>
	<g>
		<g>
			<g>
				<path fill="#187D41" d="M746.2,122.5c0-0.1,0-0.2-0.1-0.2c-0.1-0.1-0.2-0.2-0.2-0.2c-5.8-5.5-16.8-10.2-24.2-7.4
					c-0.7,0.7-0.7,0.1-1.9,0.2l0,0c-1.2-0.2-1.1,0.5-1.8-0.2c-7.6-2.9-19,2.1-24.6,7.8l0,0H689V474h61.7V122.5H746.2z"/>
				<path fill="#211F1F" d="M750.7,474.8h-61.7c-0.4,0-0.8-0.3-0.8-0.8V122.5c0-0.4,0.3-0.8,0.8-0.8h4c4.4-4.4,12.6-8.6,19.9-8.6
					c2,0,3.7,0.3,5.3,1c0.1,0.1,0.2,0.1,0.3,0.2c0.1,0.1,0.1,0.1,0.1,0.1l0,0c0.2-0.1,0.6-0.2,1.2-0.1c0.6-0.1,1,0,1.2,0.1l0,0
					l0.1-0.1c0.1-0.1,0.2-0.2,0.2-0.2c1.6-0.6,3.4-1,5.3-1c7.4,0,15.4,4.4,19.7,8.4l0.2,0.2l0,0h4c0.4,0,0.8,0.3,0.8,0.8V474
					C751.5,474.4,751.2,474.8,750.7,474.8z M689.9,473.3H750v-350h-3.7c-0.2,0-0.5-0.1-0.6-0.3c-0.1-0.1-0.1-0.2-0.2-0.2l-0.1-0.1
					c-4-3.9-11.6-8-18.6-8c-1.7,0-3.2,0.2-4.6,0.8c-0.2,0.2-0.6,0.5-1,0.5c-0.2,0-0.3,0-0.5-0.1s-0.4-0.1-0.7,0c-0.1,0-0.2,0-0.2,0
					c-0.3,0-0.5,0-0.6,0.1c-0.2,0-0.3,0.1-0.5,0.1c-0.4,0-0.8-0.2-1-0.5c-1.3-0.5-2.9-0.8-4.6-0.8c-7,0-14.9,4.2-19,8.3
					c-0.2,0.2-0.4,0.3-0.6,0.3h-3.6V473.3L689.9,473.3z"/>
			</g>
			<g>
				<g>
					<rect x="717" y="114.7" fill="#211F1F" width="1.6" height="359.2"/>
				</g>
				<g>
					<rect x="721.3" y="114.7" fill="#211F1F" width="1.6" height="359.2"/>
				</g>
			</g>
			<g>
				<g>
					<rect x="692.6" y="122.4" fill="#211F1F" width="1.6" height="351.6"/>
				</g>
				<g>
					<rect x="745.6" y="122.4" fill="#211F1F" width="1.6" height="351.6"/>
				</g>
			</g>
		</g>
		<g>
			<g>
				<path fill="#187D41" d="M650.8,122.5c0-0.1,0-0.2-0.1-0.2c-0.1-0.1-0.2-0.2-0.2-0.2c-5.8-5.5-16.8-10.2-24.2-7.4
					c-0.7,0.7-0.7,0.1-1.9,0.2l0,0c-1.2-0.2-1.1,0.5-1.8-0.2c-7.6-2.9-19,2.1-24.6,7.8l0,0h-4.4V474h61.7V122.5H650.8z"/>
				<path fill="#211F1F" d="M655.3,474.8h-61.7c-0.4,0-0.8-0.3-0.8-0.8V122.5c0-0.4,0.3-0.8,0.8-0.8h4c4.4-4.4,12.6-8.6,19.9-8.6
					c2,0,3.7,0.3,5.3,1c0.1,0.1,0.2,0.1,0.3,0.2c0.1,0.1,0.1,0.1,0.1,0.1l0,0c0.2-0.1,0.6-0.2,1.2-0.1c0.6-0.1,1,0,1.2,0.1l0,0
					l0.1-0.1c0.1-0.1,0.2-0.2,0.3-0.2c1.6-0.6,3.4-1,5.3-1c7.4,0,15.4,4.4,19.7,8.4l0.2,0.2h4c0.4,0,0.8,0.3,0.8,0.8V474
					C656.1,474.4,655.7,474.8,655.3,474.8z M594.4,473.3h60.2v-350h-3.7c-0.2,0-0.5-0.1-0.6-0.3c-0.1-0.1-0.1-0.2-0.2-0.2l-0.1-0.1
					c-4-3.9-11.6-8-18.6-8c-1.7,0-3.2,0.2-4.6,0.8c-0.2,0.2-0.6,0.5-1,0.5c-0.2,0-0.3,0-0.5-0.1c-0.2-0.1-0.4-0.1-0.7,0
					c-0.1,0-0.2,0-0.2,0c-0.3,0-0.5,0-0.6,0.1c-0.2,0-0.3,0.1-0.5,0.1c-0.4,0-0.8-0.2-1-0.5c-1.3-0.5-2.9-0.8-4.6-0.8
					c-7,0-14.9,4.2-19,8.3c-0.2,0.2-0.4,0.3-0.6,0.3h-3.6V473.3L594.4,473.3z"/>
			</g>
			<g>
				<g>
					<rect x="621.5" y="114.7" fill="#211F1F" width="1.6" height="359.2"/>
				</g>
				<g>
					<rect x="625.8" y="114.7" fill="#211F1F" width="1.6" height="359.2"/>
				</g>
			</g>
			<g>
				<g>
					<rect x="597.2" y="122.4" fill="#211F1F" width="1.6" height="351.6"/>
				</g>
				<g>
					<rect x="650.1" y="122.4" fill="#211F1F" width="1.6" height="351.6"/>
				</g>
			</g>
		</g>
		<g>
			<g>
				<path fill="#187D41" d="M555.4,122.5c0-0.1,0-0.2-0.1-0.2c-0.1-0.1-0.2-0.2-0.2-0.2c-5.8-5.5-16.8-10.2-24.2-7.4
					c-0.7,0.7-0.7,0.1-1.9,0.2l0,0c-1.2-0.2-1.1,0.5-1.8-0.2c-7.6-2.9-19,2.1-24.6,7.8l0,0h-4.4V474h61.7V122.5H555.4z"/>
				<path fill="#211F1F" d="M559.9,474.8h-61.7c-0.4,0-0.8-0.3-0.8-0.8V122.5c0-0.4,0.3-0.8,0.8-0.8h4c4.4-4.4,12.6-8.6,19.9-8.6
					c2,0,3.7,0.3,5.3,1c0.1,0.1,0.2,0.1,0.3,0.2c0.1,0.1,0.1,0.1,0.1,0.1l0,0c0.2-0.1,0.6-0.2,1.2-0.1c0.6-0.1,1,0,1.2,0.1l0,0
					l0.1-0.1c0.1-0.1,0.2-0.2,0.2-0.2c1.6-0.6,3.4-1,5.3-1c7.4,0,15.4,4.4,19.6,8.4l0.2,0.2l0,0h4c0.4,0,0.8,0.3,0.8,0.8V474
					C560.7,474.4,560.3,474.8,559.9,474.8z M498.9,473.3h60.2v-350h-3.7c-0.2,0-0.5-0.1-0.6-0.3c-0.1-0.1-0.1-0.2-0.2-0.2l-0.1-0.1
					c-4-3.9-11.6-8-18.6-8c-1.7,0-3.2,0.2-4.6,0.8c-0.2,0.2-0.6,0.5-1,0.5c-0.2,0-0.3,0-0.5-0.1c-0.2-0.1-0.4-0.1-0.7,0
					c-0.1,0-0.2,0-0.2,0c-0.3,0-0.5,0-0.6,0.1c-0.2,0-0.3,0.1-0.5,0.1c-0.4,0-0.8-0.2-1-0.5c-1.3-0.5-2.9-0.8-4.6-0.8
					c-7,0-14.9,4.2-19,8.4c0,0,0,0-0.1,0.1c-0.2,0.2-0.3,0.2-0.6,0.2h-3.6V473.3L498.9,473.3z"/>
			</g>
			<g>
				<g>
					<rect x="526.1" y="114.7" fill="#211F1F" width="1.6" height="359.2"/>
				</g>
				<g>
					<rect x="530.4" y="114.7" fill="#211F1F" width="1.6" height="359.2"/>
				</g>
			</g>
			<g>
				<g>
					<rect x="501.8" y="122.4" fill="#211F1F" width="1.6" height="351.6"/>
				</g>
				<g>
					<rect x="554.7" y="122.4" fill="#211F1F" width="1.6" height="351.6"/>
				</g>
			</g>
		</g>
		<g>
			<g>
				<path fill="#187D41" d="M459.9,122.5c0-0.1,0-0.2-0.1-0.2c-0.1-0.1-0.2-0.2-0.2-0.2c-5.8-5.5-16.8-10.2-24.2-7.4
					c-0.7,0.7-0.7,0.1-1.9,0.2l0,0c-1.2-0.2-1.1,0.5-1.8-0.2c-7.6-2.9-19,2.1-24.6,7.8l0,0h-4.4V474h61.7V122.5H459.9z"/>
				<path fill="#211F1F" d="M464.4,474.8h-61.7c-0.4,0-0.8-0.3-0.8-0.8V122.5c0-0.4,0.3-0.8,0.8-0.8h4c4.4-4.4,12.6-8.6,19.9-8.6
					c2,0,3.7,0.3,5.3,1c0.1,0.1,0.2,0.1,0.3,0.2c0.1,0.1,0.1,0.1,0.1,0.1l0,0c0.2-0.1,0.6-0.2,1.2-0.1c0.6-0.1,1,0,1.2,0.1l0,0
					l0.1-0.1c0.1-0.1,0.2-0.2,0.3-0.2c1.6-0.6,3.4-1,5.3-1c7.4,0,15.4,4.4,19.6,8.4c0.1,0.1,0.2,0.2,0.2,0.2l0,0h4
					c0.4,0,0.8,0.3,0.8,0.8V474C465.2,474.4,464.9,474.8,464.4,474.8z M403.5,473.3h60.2v-350H460c-0.2,0-0.5-0.1-0.6-0.3
					c-0.1-0.1-0.1-0.2-0.2-0.2l-0.1-0.1c-4-3.9-11.6-8-18.6-8c-1.7,0-3.2,0.2-4.6,0.8c-0.2,0.2-0.6,0.5-1,0.5c-0.2,0-0.3,0-0.5-0.1
					c-0.2-0.1-0.4-0.1-0.7,0c-0.1,0-0.2,0-0.2,0c-0.3,0-0.5,0-0.6,0.1c-0.2,0-0.3,0.1-0.5,0.1c-0.4,0-0.8-0.2-1-0.5
					c-1.3-0.5-2.9-0.8-4.6-0.8c-7,0-14.9,4.2-19,8.4c0,0,0,0-0.1,0.1c-0.2,0.2-0.3,0.2-0.6,0.2h-3.6V473.3L403.5,473.3z"/>
			</g>
			<g>
				<g>
					<rect x="430.7" y="114.7" fill="#211F1F" width="1.6" height="359.2"/>
				</g>
				<g>
					<rect x="434.9" y="114.7" fill="#211F1F" width="1.6" height="359.2"/>
				</g>
			</g>
			<g>
				<g>
					<rect x="406.4" y="122.4" fill="#211F1F" width="1.6" height="351.6"/>
				</g>
				<g>
					<rect x="459.2" y="122.4" fill="#211F1F" width="1.6" height="351.6"/>
				</g>
			</g>
		</g>
	</g>
</g>
</svg>
