<svg xmlns="http://www.w3.org/2000/svg" width="80" height="36" viewBox="0 0 80 36"><g fill="#126E39"><path d="M65.9 34.3H0v1.4h79.9v-1.4h-1zM40 0L0 19v2.6h1.1c1.3-1.3 3.9-2.4 5.7-1.8.2.2.2.4.4.4.3 0 .3-.2.4-.4 1.7-.6 4.2.4 5.5 1.7l.1.1v.1h1.1v2.8h2.3v-9.6h1.1c1.3-1.3 3.9-2.4 5.7-1.8.2.2.2.4.4.4.3 0 .3-.2.4-.4 1.7-.6 4.2.4 5.5 1.7l.1.1v.1h1.1v9.5h2.3V8h1.1c1.3-1.3 3.9-2.4 5.7-1.8 0 .2 0 .4.3.4s.3-.2.4-.4c1.7-.6 4.2.4 5.5 1.7l.1.1v.1h1.1v16.3h2.3v-9.5h1.1c1.3-1.3 3.9-2.4 5.7-1.8.2.2.2.4.4.4.3 0 .3-.2.4-.4 1.7-.6 4.2.4 5.5 1.7l.1.1v.1H64v9.5h2.3v-2.8h1.1c1.3-1.3 3.9-2.4 5.7-1.8.2.2.2.4.4.4.3 0 .3-.2.4-.4 1.7-.6 4.2.4 5.5 1.7l.1.1v.1h.5V19L40 0z"/><g><path d="M.9 31.1c.2.6.6.9 1.2.9.4 0 .6-.1.8-.2.2-.2.4-.4.4-.7s-.2-.6-.6-.8c-.2-.2-.5-.2-.7-.3l-.6-.3c-.4-.3-.8-.6-.9-1.1-.1-.2-.1-.4-.1-.6 0-.3.1-.6.2-.8.1-.3.2-.5.4-.7.4-.3 1-.5 1.6-.5.4 0 .9 0 1.2.2l.2.2-.2.4c0 .1-.1.3-.2.5-.2-.3-.3-.5-.4-.6-.2-.2-.4-.2-.6-.2-.3 0-.5.1-.6.2-.2.2-.3.4-.3.6 0 .4.2.6.5.8.2.2.4.3.7.4.6.3 1.1.6 1.2.9.1.2.2.3.3.5 0 .2.1.4.1.6 0 .6-.2 1.2-.7 1.5-.4.4-1 .6-1.6.6-.2 0-.4 0-.6-.1-.2-.1-.4-.1-.6-.2l-.4-.2c.1-.3.2-.4.2-.6s.1-.3.1-.6zM7 26V28.5l.6.1h1.8l.6-.1V26h1.6v6.6H10v-3l-.6-.1H7.6l-.6.1v1.2c0 .4 0 .8.1 1.2v.6H5.6V32l.1-1.3v-2.5V26H7zM12.4 26h.7c.6 0 1.2.1 1.7.1s1.1 0 1.7-.1h.7v.8H15.5V32.6H14v-5.9H12.3v-.4l.1-.3zM18.8 27.8l.4-1.2.2-.6h.8l.2.6.4 1.2c.6 1.4 1.1 2.8 1.7 4l.4.7h-1.6l-.2-.6-.4-.7-.2-.4-.5-.1h-1.2l-.5.1-.1.4c-.1.2-.2.5-.3.8l-.2.6h-1l.4-.6c.6-1.2 1.1-2.6 1.7-4.2zM19 30h1.1l.3-.1-.2-.4-.4-1.2-.3-.5-.2.5-.4 1.2-.2.5h.3zM25.3 26v3l.6-.6.6-.7c.4-.4.6-.8.8-1.1l.4-.5H29l-.5.6-.7.7-.9 1.1-.4.3.5.9 1 1.3.6 1 .4.5h-1.9l-.3-.5c-.2-.2-.3-.5-.6-.9l-.6-.9-.4-.6v2.3l.1.6h-1.5V26h1.5zM29.9 31.2V26.3l-.1-.5.8.1H33l.5-.1v.8h-.6l-1.1-.1h-.5v2h2.2v.8l-.6-.1h-1.6v2.3h1.6l.6-.1v.8H30.6l-.8.1.1-.5v-.6zM34 26h.7c.6 0 1.2.1 1.7.1s1.1 0 1.7-.1h.7v.8H37.1V32.6h-1.4v-5.9H34V26zM39.7 31.1c.2 0 .4.1.5.2.2.2.2.3.2.5s-.1.4-.2.6c-.2.2-.4.2-.5.2s-.4-.1-.5-.2c-.2 0-.2-.3-.2-.6 0-.2.1-.4.2-.5s.4-.2.5-.2zM46.4 27c-.4-.3-.7-.5-1.2-.5-.6 0-1.2.3-1.6.9-.4.5-.5 1.1-.5 1.9 0 .5.1 1.1.3 1.5s.4.7.8 1c.4.3.8.3 1.2.3.5 0 1.1-.2 1.5-.5l.3-.2.2.1-.4.5-.1.4-.2.1c-.4.2-1.1.3-1.6.3-.6 0-1.2-.1-1.7-.3-.4-.2-.7-.4-1.1-.6-.3-.3-.5-.6-.6-.9-.2-.4-.2-.9-.2-1.4 0-1.1.4-2 1.1-2.6.6-.6 1.5-.9 2.7-.9.6 0 1.1.1 1.5.3l.4.2-.2.4-.2.6h-.1c0-.4-.2-.5-.3-.6zM51.5 25.9c1.1 0 1.9.3 2.4.8.3.3.6.6.7 1 .2.4.3 1 .3 1.5 0 1.1-.4 1.9-1.1 2.6-.6.6-1.5 1-2.6 1s-1.9-.3-2.5-.9c-.6-.6-1.1-1.4-1.1-2.4 0-1.1.4-1.9 1.1-2.6.8-.7 1.7-.9 2.8-1zm-1.7 5.3c.2.3.4.4.6.6s.6.2 1 .2c.7 0 1.2-.3 1.6-1 .3-.5.4-1.2.4-1.9s-.2-1.3-.4-1.9c-.2-.3-.3-.4-.6-.6-.3-.2-.6-.2-1.1-.2-.7 0-1.2.3-1.6 1-.3.5-.4 1.1-.4 1.9 0 .9.2 1.5.5 1.9zM55.6 32.5l.2-.6c.2-.6.2-1.2.3-1.8l.2-1.2.3-2.2.1-.9h.7l.4 1 .6 1.4c.2.6.5 1.1.7 1.5l.4.6.4-.6.8-1.5c.4-.7.6-1.3.8-1.7l.3-.6h.9l.1.6c.1.6.2 1.4.3 2.4.2 1.1.3 1.9.4 2.7l.2.8H62v-.6c-.1-.9-.1-1.5-.2-1.6l-.2-1.3-.1-.8-.4.8-.6 1.1c-.4.7-.6 1.2-.8 1.7l-.3.7H59l-.2-.4c-.1-.2-.2-.5-.4-.9l-.6-1.1-.6-1-.4-.7v.7l-.2 1.3c-.1.6-.1 1.2-.2 1.6v.6h-.8zM65.2 31.1c.2 0 .4.1.5.2.2.2.2.3.2.5s-.1.4-.2.6c-.2.2-.4.2-.5.2s-.4-.1-.6-.2c-.2-.2-.2-.4-.2-.6 0-.2.1-.4.2-.5.1-.1.3-.2.6-.2zM68.7 27v2.4c0 .4 0 .8.1 1.2 0 .3.2.5.3.7.3.4.7.6 1.4.6.6 0 1.2-.3 1.5-.8.2-.4.3-1 .4-1.8V25.9h.9v2.2c0 1.1 0 1.8-.1 2-.1.8-.4 1.4-.7 1.8-.3.2-.6.4-1 .5-.4.1-.7.2-1.1.2-.9 0-1.6-.2-2.1-.7-.3-.3-.5-.6-.6-1-.1-.3-.1-.6-.1-1.2V26h1.5v.4l-.4.6zM75.4 27.8l.4-1.2.2-.6h.8l.2.6.4 1.2c.6 1.4 1.1 2.8 1.7 4l.4.7H77.8l-.2-.6-.4-.7-.2-.4-.5-.1h-1.2l-.5.1-.1.4c-.1.2-.2.5-.3.8l-.2.6h-1l.4-.6c.6-1.2 1.2-2.6 1.8-4.2zm.2 2.2h1.1l.3-.1-.2-.4-.4-1.2-.2-.5-.2.5-.5 1.2-.2.4.3.1z"/></g></g></svg>