<svg xmlns="http://www.w3.org/2000/svg" width="900" height="605" viewBox="0 0 900 605"><path fill="#E7E6E6" d="M378.2 524.4c-8.6-3.2-14.7-5.9-23.6-2-6.9 3-14.4 10.5-22 10.5-7.8-.1-16-1.7-23.2-4.7-3-1.2-9.9-12.2-5.8-14.8 1.8-1.1 4.8-2.2 6.9-2.5 1.9-.3 2.1 2.3 4.3 2.1 4.5-.4 4.9-10.7 5.3-13.8.8-5.8 5.8-5.1 8-10.4.7-1.5 1.1-7.5 2.7-8 2.3-.8 4.9-.3 7.2-.8 7.5-1.5 5.2-11.2 3.6-16.6-1-3.4-2.7-6.9-3.3-10.4-.9-4.8 4.2-4.7 7.5-6.4 2.4-1.2 4.9-4.3 7.9-3.4 2.8.9 5.2 2.7 7.6 4.2 7.4 4.7 17 4.8 25.6 5.8 7.6 1 8.3-.8 5-7.5-.9-1.8-1.9-3.5-2.8-5.3-1.3-2.7 3.7-5.7 3-8.7-.4-1.5-1.1-3-1-4.8.2-1.8 1.3-3.2 1.2-5-.3-3.8-4.4-3.2-7-3.5-8.7-1.1-11.7-11-12.1-18.6-.2-4.7.2-9.3.2-14-4.9 2.8-10.4-5.1-12.4-8.5-1.4-2.4-2.8-4.9-3.9-7.5-2.2-5 .9-7.2 2.6-11.7 3.1-8.4.1-14.4-6-20.1-5.8-5.5-14.2-12.4-22.4-13.6-8.4-1.2-14.7-7.1-21.6-11.4-3.7-2.3-8-3-12.2-4-5-1.2-9.3-4.8-13.6-7.3-8.9-5.2-14.9-.1-23.7 2.6-4.4 1.3-9 1.7-13.6 2.1-5.1.4-6.4 1.8-10.6 4.1-3.8 2.1-8.7 1.8-12.6 3.8-3.2 1.7-5.7 3.8-7.8 6.9-5.8 8.4-16.2 6.5-25.3 7-8.1.5-17 0-24.6 3.4-6.4 2.9-11.5 11.7-18.8 11.8-7.2.1-7.8-11.2-14.3-13.2-7.5-2.4-15.5-3.8-23.3-4.6-8.5-.8-16.8-1.6-23.9-6.8-4.8-3.4-12-8.9-17.9-9.1-2.6-.1-4.2 3.5-6.3 4.7-2.9 1.5-6.9-1-9.1-2.5-3.4-2.1-6.4-4.9-9.3-7.5-3-2.8-3.5-6.6-6.6-9.1-2.7-2.2-5.8-4.3-7.9-7-2.1-2.9-3-6.4-4.7-9.4-4.9-8.8.5-15.4 5.7-22.4 4.7-6.2 9.7-12.6 16.8-16 2.6-1.2 5.3-1.5 8-2.6 4.3-1.6 3-5.7 3-9.5 0-4.4.6-8.8-.5-13-1-3.7-2.6-7.4-2.5-11.2.2-7.9 10.8-15.6 15.9-20.7 7-6.9 14.3-13.7 21.5-20.5 5.9-5.5 11.9-14.5 20.6-14.8 2.5-.1 9.3.9 11.1-1.1 1.5-1.7 1.8-5 2-7.2 1-8.7-.4-17.5.4-26.3.4-3.7 1.4-7.1-.3-10.7-1.4-2.9-3.4-5.5-4.9-8.4-4.4-9-5.6-18.3-6-28.3-.3-7.5 11.9-6.1 16.7-7.4 1.5-.5 6.7-1.7 7-3.6.5-3.2 1-5.1 4.3-6.9 13.4-6.9 29.5-6.9 44.3-6.7 14.2.3 28.9-.3 42.5 4.1 7.2 2.4 15.1 2.8 22.2 5.3 7 2.6 13.7 4.9 21 6.5 5.6 1.1 2.5 7.5 6.9 10.1 5.5 3.1 13.6 2.2 19.8 2.2-2.1 5.4 1.7 6.1 6.2 5.2 6.1-1.2 12.4-2.8 18.7-2.8 8.9 0 15.1 7.6 23.6 8.4 4.5.4 6.9-3 10-5.7 1.3-1.1 4.8-3.7 6.4-1.5 2.3 3.1.8 7.9 3.1 11.1 4.7 6.5 15.5-1 20.6-2.6 5-1.5 18-.3 21.8 4 2.2 2.4 2.5 5.5 6 6.7 3.7 1.2 8.2 4.1 11.9 4.7 4.8.7-1.2-20.4-1.5-22.9-.7-6.8-1.9-10.5 3.7-15.7 3.1-2.9 6.7-5.2 9.9-7.9 3.7-3 6.6-6.2 11.3-7.4 8.4-2.2 16.8-2.5 25.5-1.9 7 .5 15.9 3.3 22.7 1 3-1 6.7-3.7 7.8-6.8 1.2-3.1-.9-7.1 1.3-9.9 4.9-6.1 12.6-1.1 18.7-.8 5.6.4 9.3-3.6 14.3-5.4 5.7-2.1 11.9-1.8 17.8-.8 5.8 1 11.7-.8 16.3 3.7 3.8 3.8 6.9 7.8 7.7 13.2.6 4.2 1.2 7.3 4.5 10.1 4.3 3.7 6.3 8.3 8.9 13.1 2.7 4.9-4.3 6.9-5.8 10.3-1.9 4.2-1 9.3 2.1 12.6 3.2 3.4 4.9 5.7 5 10.6.2 3.8-1.5 7.6 3.1 8.6 5.9 1.2 11.5 3 17.6 3 5.3 0 13.2-4.6 17.9-.9 3.8 3 8.3 7.8 9.9 12.6.6 1.7-.4 3-1 4.5-1.1 2.8-.1 5.2 1.3 7.7 2.8 4.8 3.9 8.5 4.8 13.9 1.1 7 5 14 7.3 20.7 6.9-5.1 14.3-6 22.7-6.9 2.8-.3 2 1 4.3 2.5 3.1 2 7.3 3.5 11 4.2 2.4.4 6.4.6 7.7 3.1 1.6 3.2 4.9 4 7 .8 1.9-2.8 3.3-5.9 6.8-6.9 3.1-1 8.4-3.5 11.1-1.1 4.4 3.7 10.8-10.2 16.9-4.4 5 4.8 6.2 12.5 12.1 16 4.2 2.5 8.3 5.2 12.3 8 2.5 1.6 7.2 6.9 9.4 2.9 4.1-7.3 10.3-7.3 17.7-4.4 3.5 1.4 7.2 2.7 9.9 5.5 2.5 2.7 4.5 3.6 8.1 4.2 4.1.7 6.7-2.8 10.6-3.4 2.6-.4 4.4 4.4 7 4.9 8.5 1.4 15.9 6.6 23.5 10.3 3.2 1.5 6.2 2 9.7 2.7 4.4 1 6.4 4 8.1 8.1 1.8 4.3.1 8.6-1.4 12.7-1.4 3.9-1.9 8.1-3.5 11.9-1 2.4-4.5 2.7-6.6 3.4-2.5 1-5.1 5.7-4.1 8.4 2.8 6.3 12.8 1.9 17.2 3.6 1.6.6 2.8 5 1.8 6.5-1.1 1.7-5.4 1.3-7.1 1.5-2.1.2-4.3.1-6.4.7-2 .5.8 11 1.6 12.5 5 8.1 10.4 17.2 11.5 27 .5 4.2.3 8.5 0 12.7-.2 3.7.7 9.9-1.5 13-5.1 7-11.4 5-18.8 5h1.6-13.1c-3.4 0-11.4-1.5-14.3.4-2.2 1.4-3 5.3-4.8 7.3-2.5 2.9-6.1 5-9.3 6.9-2.6 1.5-5.6 2.5-6.9 5.4-1.5 3.7-2.5 7.7-3.8 11.5-2.2 6.7-2.3 16.7-6.8 22.1-6.9 8.3-19.8 6.9-28.5 12.1-5.2 3-9.6 10.3-16 10.9-4.8.5-10.2-.1-14.5 2.5-1.9 1.1-1.7 2.5-2.5 4.3-1.1 2.9-4.5 4.9-7 6.5-6.4 3.8-12.8 1.7-18.3 7.1-4.7 4.7-9 5.8-15.6 5.9-3.2.1-6.6-.1-9.8.5-3.8.7-3.9.2-6.5 3.5-4.6 5.9-12.1 10-18.2 14.1-7.6 5-15.6 9.6-24.3 12.7-9.2 3.3-17.6 2.6-27.2 2.4-10.2-.2-20.5 1.5-30.6 1.6 1.3 2.8 2 5.9 4.1 8.3 2.4 2.8 8.4 2.8 11.7 3.3 9.1 1.4 19.3 1.3 27.2 6.9 6.9 4.9 11.3 12.1 17.9 17.1 3.2 2.5 6.6 4.9 8 8.9 1.4 4.1 1 8.6 2.6 12.6 2.8 7.3 11 5.1 17.3 5.3 1.3 0 18.8.1 16.4-4.9-1.6-3.4-1-6.6 2.7-8.6 3.5-2 7.7.7 10.4 2.9 3.7 3 4.9 0 8.3-1.9 4-2.2 8.4-2.2 12.5-3.8 1.1-.5 5.2-2.9 6.4-1.4 1.6 2.1-.1 6-.9 8.1-3.1 8.2-.9 16.5-2.9 25-2 8.8-20.7 4.3-27.1 2.4-4-1.1-6.9-3.6-10.7-5.1-3-1.2-5.5.9-8.1 2.2-3.5 1.9-6.9 3.5-9.2 6.9-2.3 3.4-6.5 9.1-6.7 13.2-.4 6.9-14 6.7-19.2 7.7-7.8 1.6-14.5 3.4-19.5 9.9-8.8 11.2-20.2 14.8-34.1 12.3-3.6-.7-4.9 4.9-7.8-.5-2.4-4.5-5.4-9.8-6.2-14.8-1.7-10.6 7.7-23.6-1.4-32.6-4.3-4.2-8.5-6.7-14.3-8-6.1-1.3-12.4-3.6-18.6-4.4-4.5-.6-10.6 1.1-14.2-2.2-4.7-4.2-2.8-12.5 1.5-16.3 4.1-3.6 10.2-2.8 14.9-5.2 5.2-2.8 9.2-6.7 14.8-8.9 5.7-2.4 11.3-3.2 17.2-4.8 5.2-1.3 5.2-7.6 4.8-12-.3-3.1.6-13.6-4.4-11.9-1 .4-10.9 7.2-10.8 6.3 0 .6.9.9.8 1.6.4-3-21.5-7.1-22.8-7.2-6.1-.3-10 4.5-15.7 5.8-5.5 1.3-12.9.2-18-2.5-9.3-4.9-15.4-14.9-15.4-25.4 0-6.3 2.8-4 6.2-7.3 3.7-3.6 0-7.6-3.3-9.2-5.3-2.5-10.1-2.2-15.7-.6-7 2.1-14 3.5-21.2 4.9-5.4 1-10.8 2.8-16.1 4.3-5.8 1.7-7.9 3.1-9.9 8.9-4.9 14-16.3 26.2-26.4 36.8-4.9 5.1-10.9 9.3-15.4 14.7-5 5.9-8.3 15.1-12.2 22.4"/></svg>