<svg xmlns="http://www.w3.org/2000/svg" width="100" height="100" viewBox="0 0 100 100"><path fill="#2A2F34" d="M49.4 46.2l-2-3.5 2.7-1.5 2.7 1.5-1.9 3.5-.8-.4zM89.5 68.3l-3.3-1.8 1.9-3.4 3.3 1.8-1.9 3.4zm-6.4-3.7l-3.3-1.8 1.9-3.4 3.3 1.8-1.9 3.4zm-6.4-3.7l-3.3-1.8 1.9-3.4 3.3 1.8-1.9 3.4zm-6.5-3.6l-3.3-1.8 1.9-3.4 3.3 1.8-1.9 3.4zm-6.4-3.8l-3.3-1.8 1.9-3.4 3.3 1.8-1.9 3.4zm-6.5-3.6L54.1 48l1.9-3.4 3.3 1.8-2 3.5zM94.8 72.1l-.8-1.2-1.2-.8.4-.7-.4-.7L94 68l.8-1.2 4.7 2.6zM55.7 94.6l-2-3.4 3.3-1.9 2 3.4-3.3 1.9zm6.6-3.7l-2-3.4 3.3-1.9 2 3.4-3.3 1.9zm6.5-3.8l-2-3.4 3.3-1.9 2 3.4-3.3 1.9zm6.5-3.7l-2-3.4 3.3-1.9 2 3.4-3.3 1.9zm6.5-3.8l-2-3.4 3.3-1.9 2 3.4-3.3 1.9zm6.5-3.7l-2-3.4 3.3-1.9 2 3.4-3.3 1.9zM49.8 98.1l-2.7-1.6 2-3.4.7.4.8-.4 1.9 3.4zM43.9 94.7l-3.3-1.8 1.9-3.4 3.3 1.8-1.9 3.4zM37.5 91l-3.3-1.8 1.9-3.4 3.3 1.8-1.9 3.4zM31 87.3l-3.3-1.8 1.9-3.4 3.3 1.8-1.9 3.4zm-6.5-3.7l-3.3-1.8 1.9-3.4 3.3 1.8-1.9 3.4zm-6.4-3.7l-3.3-1.8 1.9-3.4 3.3 1.8-1.9 3.4zm-6.5-3.7l-3.3-1.8 1.9-3.4 3.3 1.8-1.9 3.4zM5.2 72.5L.5 69.8l4.7-2.7.7 1.3 1.2.7-.4.7.4.8-1.2.7zM10.4 68.7l-2-3.4 3.3-1.9 2 3.4-3.3 1.9zm6.5-3.8L15 61.5l3.3-1.9 2 3.4-3.4 1.9zm6.5-3.7l-2-3.4 3.3-1.9 2 3.4-3.3 1.9zm6.5-3.7l-2-3.4 3.3-1.9 2 3.4-3.3 1.9zm6.5-3.9l-2-3.4 3.3-1.9 2 3.4-3.3 1.9zm6.5-3.7l-2-3.4 3.3-1.9 2 3.4-3.3 1.9z"/><g><path fill="#939598" d="M50.1 15.1l30.4 17.4-30.6 17.7-30.4-17.4z"/><path fill="#2A2F34" d="M49.9 52.1c-.4 0-.7-.1-1-.3L18.5 34.5c-.6-.4-1-1-1-1.7s.4-1.3 1-1.7l30.6-17.7c.6-.4 1.3-.4 2 0l30.4 17.4c.6.4 1 1 1 1.7 0 .8-.4 1.3-1 1.7L50.9 51.9c-.3.2-.7.2-1 .2zM23.4 32.8l26.5 15.1 26.7-15.4-26.5-15.1-26.7 15.4z"/><path fill="#0D6D38" d="M80.4 32.3l.3 35.4-30.6 17.7-.4-35.4z"/><path fill="#2A2F34" d="M50.3 87.5c-.4 0-.7-.1-1-.3-.6-.4-1-1-1-1.7L48 50.1c0-.7.4-1.3 1-1.7l30.6-17.7c.6-.4 1.3-.4 2 0 .6.4 1 1 1 1.7l.4 35.3c0 .7-.4 1.3-1 1.7L51.2 87.2c-.2.2-.6.3-.9.3zm1.6-36.2l.3 30.8 26.7-15.4-.3-30.8-26.7 15.4z"/><g><path fill="#FFF" d="M49.9 50.2l.4 35.3-30.6-17.3-.2-35.4z"/><path fill="#2A2F34" d="M50.3 87.5c-.4 0-.7-.1-1-.3L18.8 69.8c-.6-.4-1-1-1-1.7l-.4-35.4c0-.7.4-1.3 1-1.7.6-.4 1.3-.4 2 0l30.4 17.4c.6.4 1 1 1 1.7l.4 35.1v.3c0 1.2-.9 2-1.9 2zM21.8 67l26.5 15.1-.3-30.8-26.5-15.1.3 30.8z"/></g></g><g><path fill="#939598" d="M50.1 2.5l16.1 9.1L50 21l-16-9.2z"/><path fill="#2A2F34" d="M50 22.9c-.4 0-.7-.1-1-.3l-16-9.1c-.6-.4-1-1-1-1.7s.4-1.3 1-1.7L49.2.8c.6-.4 1.3-.4 2 0l16 9.2c.6.4 1 1 1 1.7s-.4 1.3-1 1.7L51 22.7c-.3.2-.6.2-1 .2zM37.9 11.8L50 18.7l12.2-7.1-12.1-6.9-12.2 7.1z"/><path fill="#0D6D38" d="M66 11.5l.2 18.6L50 39.5l-.2-18.7z"/><path fill="#2A2F34" d="M50.2 41.6c-.4 0-.7-.1-1-.3-.6-.4-1-1-1-1.7L48 20.9c0-.7.4-1.3 1-1.7l16.2-9.3c.6-.4 1.3-.4 2 0 .6.4 1 1 1 1.7l.2 18.7c0 .7-.4 1.3-1 1.7l-16.2 9.3c-.3.2-.6.3-1 .3zM52 22.1l.1 14.1 12.3-7.1-.1-14.1L52 22.1z"/><g><path fill="#FFF" d="M50 21l.2 18.7-16-9.2-.2-18.7z"/><path fill="#2A2F34" d="M50.2 41.6c-.4 0-.7-.1-1-.3l-16.1-9.1c-.6-.4-1-1-1-1.7L32 11.8c0-.7.4-1.3 1-1.7.6-.4 1.3-.4 2 0l16.1 9.2c.6.4 1 1 1 1.7l.2 18.4v.3c-.1 1-1 1.9-2.1 1.9zM36.1 29.3l12.1 6.9-.1-14.1L36 15.2l.1 14.1z"/></g></g></svg>