<svg xmlns="http://www.w3.org/2000/svg" width="100" height="100" viewBox="0 0 100 100"><path fill="#2A2F34" d="M57.7 99H40.8l-1-12.7c-3.5-1-6.9-2.5-10-4.4l-9.3 7.9-12-11.9 8.2-9.7c-1.8-3.1-3.1-6.6-3.9-10.2L.5 57V40.2l12.7-1c1-3.5 2.5-6.9 4.4-10l-7.9-9.3 11.9-12 9.7 8.2c3.1-1.8 6.6-3.1 10.2-3.9l1-12.2h16.9l1 12.6c3.5 1 6.9 2.5 10 4.4l9.3-7.9L91.6 21l-8.2 9.7c1.8 3.1 3.1 6.6 3.9 10.2l12.2 1v16.9l-12.7 1c-1 3.5-2.5 6.9-4.4 10l7.9 9.3-11.9 12-9.7-8.2c-3.1 1.8-6.6 3.1-10.2 3.9L57.7 99zm-13.4-3.8h9.8l1-11.6 1.4-.3c4.1-.8 8-2.3 11.5-4.5l1.1-.8 9.1 7.7 7-7-7.5-8.9.9-1.2c2.4-3.4 4-7.2 5-11.2l.3-1.3 11.9-1v-9.8l-11.5-1-.4-1.3c-.8-4.1-2.3-8-4.5-11.5l-.8-1.1 7.7-9.1-7-7-8.9 7.5-1.1-.8c-3.4-2.3-7.2-4-11.2-5l-1.3-.3-1-11.9H46l-1 11.5-1.4.3c-4.1.8-8 2.3-11.5 4.5l-1.1.8-9.1-7.7-7.1 7 7.5 8.9-.9 1.2c-2.4 3.4-4 7.2-5 11.2l-.3 1.3-11.9 1v9.8l11.5 1L16 56c.8 4.1 2.3 8 4.5 11.5l.8 1.1-7.7 9.1 7 7 8.9-7.5 1.2.9c3.4 2.4 7.2 4 11.2 5l1.3.3 1.1 11.8z"/><path fill="#2A2F34" d="M50 79.3c-16.5 0-29.8-13.3-29.8-29.8h4.7c0 13.9 11.3 25.2 25.2 25.2 13.8 0 25.2-11.3 25.2-25.2H80c-.1 16.4-13.5 29.8-30 29.8zM24.9 49.5h-4.7c0-.9 0-1.7.1-2.6l4.7.4c-.1.7-.1 1.4-.1 2.2z"/><path fill="#939598" d="M25.8 43l-4.5-1.2c.5-1.7 1-3.3 1.8-4.9l4.2 2c-.7 1.3-1.2 2.6-1.5 4.1zm48.5 0c-.4-1.4-.9-2.8-1.5-4.1l4.2-2c.8 1.6 1.3 3.2 1.8 4.9L74.3 43zm-44.9-7.9l-3.8-2.7c1-1.4 2.1-2.8 3.3-4l3.3 3.3c-1 1-2 2.1-2.8 3.4zm41.2-.1c-.9-1.2-1.8-2.3-2.9-3.3l3.3-3.3c1.2 1.2 2.4 2.6 3.3 4L70.6 35zm-35-6.1l-2.7-3.8c1.4-1 3-1.9 4.5-2.6l2 4.2c-1.4.6-2.6 1.3-3.8 2.2zm28.8-.1c-1.2-.9-2.5-1.6-3.8-2.2l2-4.2c1.5.8 3 1.6 4.5 2.6l-2.7 3.8zm-20.9-3.6l-1.2-4.5c1.7-.5 3.4-.8 5.1-1l.4 4.7c-1.5.1-2.9.4-4.3.8zm13 0c-1.4-.4-2.9-.7-4.3-.8l.4-4.7c1.7.2 3.4.5 5.1.9l-1.2 4.6z"/><path fill="#2A2F34" d="M79.9 49.5h-4.7c0-.7 0-1.4-.1-2.1l4.7-.4c.1.7.1 1.6.1 2.5z"/><g fill="#0D6D38"><path d="M50 27.3c-12.2 0-22.2 9.9-22.2 22.2 0 12.3 10 22.1 22.2 22.1s22.2-9.9 22.2-22.2c0-12.2-10-22.1-22.2-22.1zM39.3 61.6v-20h-.1l-4.4 2.3-.8-3.5 5.9-3h3.8v24.2h-4.4zm18 .4c-5.6 0-8.6-5-8.6-12.4 0-7.5 3.1-12.6 8.9-12.6 5.8 0 8.6 5.2 8.6 12.3 0 7.8-3.1 12.6-8.9 12.7z"/><path d="M57.5 40.5c-2.5 0-4.2 3-4.1 9.1 0 5.9 1.6 9 4.1 9 2.7 0 4.1-3.2 4.1-9.1 0-5.7-1.5-9-4.1-9z"/></g></svg>