<svg xmlns="http://www.w3.org/2000/svg" width="100" height="100" viewBox="0 0 100 100"><path fill="#2A2F34" d="M49.3 47.9h3.1v26.6h-3.1zM26.3 44.4c-1.9 0-3.7-.7-5-2.1-1.3-1.3-2.1-3.2-2.1-5h3.1c0 1.1.4 2.1 1.2 2.8 1.5 1.5 4.2 1.5 5.7 0 .7-.7 1.2-1.8 1.2-2.8 0-1-.4-2.1-1.2-2.8-.4-.4-2-.9-3.2-1.2C1.1 27.2 4.3 7.8 4.4 7.7l.2-1.3h16.8v3.1H7.3c-.2 4 .8 16.2 19.4 20.6.6.1 3.4.7 4.7 2.1 1.3 1.3 2.1 3.2 2.1 5 0 1.9-.7 3.7-2.1 5-1.4 1.4-3.2 2.2-5.1 2.2zM74.9 44.4c-1.9 0-3.7-.7-5-2.1-1.3-1.3-2.1-3.2-2.1-5 0-1.9.7-3.6 2.1-5 1.3-1.3 4.1-2 4.8-2.1C93.3 25.7 94.2 13.6 94 9.6H79.8V6.4h16.8l.2 1.3c0 .2 3.2 19.6-21.6 25.5-1.2.3-2.8.8-3.2 1.2-.7.7-1.2 1.8-1.2 2.8 0 1.1.4 2.1 1.2 2.8 1.5 1.5 4.2 1.5 5.7 0 .7-.7 1.2-1.8 1.2-2.8H82c0 1.9-.7 3.7-2.1 5-1.3 1.4-3.1 2.2-5 2.2z"/><path fill="#939598" d="M20 0h61.6c0 36.9-30.7 59.9-30.7 59.9S20 36.7 20 0z"/><path fill="#FFF" d="M62.6 37.4l-2.3-2.1c6.6-7.7 10.8-16.3 12.6-26l3.1.6c-2 10.3-6.3 19.5-13.4 27.5z"/><path fill="#2A2F34" d="M64.4 77.5h-3.1c0-.8-.7-1.5-1.5-1.5H41.7c-.8 0-1.5.7-1.5 1.5h-3.1c0-2.5 2.1-4.6 4.6-4.6h18.1c2.6.1 4.6 2.1 4.6 4.6z"/><path fill="#0D6D38" d="M31.1 77h39.4v19.9H31.1z"/><path fill="#E7E7E7" d="M26.8 93.7h48v4.8h-48z"/><path fill="#2A2F34" d="M76.4 100H25.3v-7.8h51.1v7.8zm-48-3.1h44.8v-1.7H28.4v1.7z"/><path fill="#FFF" d="M40.2 80.4h21.2V90H40.2z"/><path fill="#2A2F34" d="M47.6 61.6H54v3.1h-6.4zM45.8 65.5h10v3.1h-10zM45.7 83.7h10v3.1h-10z"/><path fill="#0D6D38" d="M20 0c0 35.6 28.9 58.4 30.8 59.9V0H20z"/></svg>