<svg xmlns="http://www.w3.org/2000/svg" width="100" height="100" viewBox="0 0 100 100"><path fill="#2A2F34" d="M45.73 59.94h-11.9v-7.35h2.73v4.55h9.17v2.8zm-9.17-15.19h-2.73v-7.42h11.9v2.73h-9.17v4.69zm33.95 15.19H59.8v-2.8h7.98v-4.55h2.73v7.35zm0-15.19h-2.73v-4.69H59.8v-2.73h10.71v7.42zm-45.99 2.52h7V50h-7v-2.73zm14.63 0h6.37V50h-6.37v-2.73zm34.09 0h4.34V50h-4.34v-2.73z"/><path fill="#2A2F34" d="M20.46 54.06c-3.01 0-5.46-2.38-5.46-5.39s2.45-5.46 5.39-5.46c3.01 0 5.39 2.45 5.39 5.39.14 3.08-2.31 5.46-5.32 5.46zm0-8.05c-1.47 0-2.66 1.19-2.66 2.66s1.26 2.66 2.66 2.66c1.47 0 2.66-1.26 2.66-2.66.07-1.47-1.19-2.66-2.66-2.66zm48.44 8.05c-3.01 0-5.39-2.45-5.39-5.39 0-3.01 2.45-5.39 5.39-5.39 2.94 0 5.39 2.45 5.39 5.39 0 3.01-2.45 5.39-5.39 5.39zm0-8.05c-1.54 0-2.66 1.26-2.66 2.66 0 1.47 1.26 2.66 2.66 2.66 1.47 0 2.66-1.26 2.66-2.66 0-1.47-1.26-2.66-2.66-2.66z"/><path fill="#939598" d="M45.59 45.31h14.42v6.72H45.59v-6.72z"/><path fill="#0D6D38" d="M77.44 45.31h6.72v6.72h-6.72v-6.72zm-42.193 9.044l-5.792-5.79 5.79-5.792 5.793 5.79-5.79 5.792z"/><path fill="#939598" d="M45.59 35.72h14.42v6.72H45.59v-6.72zm0 19.11h14.42v6.72H45.59v-6.72zM16.26 70.09h68.6v11.34h-68.6V70.09z"/><path fill="#2A2F34" d="M19.69 70.09h2.73v5.39h-2.73v-5.39zm4.76 0h2.73v2.94h-2.73v-2.94zm4.83 0h2.73v5.39h-2.73v-5.39zm4.83 0h2.73v2.94h-2.73v-2.94zm4.76 0h2.73v5.39h-2.73v-5.39zm4.83 0h2.73v2.94H43.7v-2.94zm4.76 0h2.73v5.39h-2.73v-5.39zm4.83 0h2.73v2.94h-2.73v-2.94zm4.83 0h2.73v5.39h-2.73v-5.39zm4.76 0h2.73v2.94h-2.73v-2.94zm4.83 0h2.73v5.39h-2.73v-5.39zm4.83 0h2.73v2.94h-2.73v-2.94zm4.76 0h2.73v5.39H77.3v-5.39z"/><path fill="#FFF" d="M80.66 26.2h2.31c.28 0 .56-.21.56-.56v-3.78c0-.28-.21-.56-.56-.56h-2.31v4.9z"/><path fill="#2A2F34" d="M83.11 27.6H80.8v-2.73h1.54v-2.1H80.8v-2.8h2.31c1.05 0 1.89.84 1.89 1.89v3.78c-.07 1.12-.91 1.96-1.89 1.96zm-57.82 0h-1.33l-8.4-3.78 8.4-3.85h1.33v2.73h-.77l-2.31 1.12 2.31 1.05h.77v2.73z"/><path fill="#0D6D38" d="M24.38 19.97h49v7.63h-49v-7.63z"/><path fill="#939598" d="M75.34 19.97h5.39v7.63h-5.39v-7.63z"/><path fill="#2A2F34" d="M72.89 19.97h2.73v7.63h-2.73v-7.63z"/></svg>