<svg xmlns="http://www.w3.org/2000/svg" width="100" height="100" viewBox="0 0 100 100"><circle fill="#939598" cx="46.64" cy="48.46" r="31.64"/><circle fill="#FFF" cx="46.64" cy="48.46" r="26.53"/><path fill="#2A2F34" d="M46.64 76.32c-15.33 0-27.79-12.46-27.79-27.79s12.53-27.86 27.86-27.86S74.5 33.13 74.5 48.46 62.04 76.32 46.64 76.32zm0-53.06c-13.86 0-25.2 11.34-25.2 25.2 0 13.93 11.34 25.34 25.27 25.34 14 0 25.34-11.34 25.34-25.34s-11.41-25.2-25.41-25.2z"/><g fill="#2A2F34"><path d="M45.38 24.8h2.52v4.9h-2.52v-4.9zm11.778 8.032l-2.182-1.26 2.45-4.244 2.182 1.262-2.45 4.242zm6.39 7.374l-1.26-2.182 4.242-2.45 1.26 2.182-4.242 2.45zM65.4 47.2h4.9v2.52h-4.9V47.2zm1.126 14.243l-4.243-2.45 1.26-2.185 4.244 2.453-1.26 2.183zm-9.067 8.223l-2.45-4.243 2.182-1.26 2.45 4.24-2.183 1.263zM45.38 67.22h2.52v4.9h-2.52v-4.9zm-9.394 2.417l-2.183-1.26 2.452-4.243 2.182 1.262-2.45 4.24zm-9.186-8.23l-1.258-2.184 4.244-2.448 1.258 2.185-4.244 2.446zM22.98 47.2h4.9v2.52h-4.9V47.2zm6.776-6.998l-4.242-2.452 1.26-2.182 4.244 2.452-1.262 2.182zm6.45-7.32L33.76 28.64l2.182-1.26 2.45 4.245-2.185 1.26zM46.64 51.26c-.7 0-1.33-.28-1.82-.7-.56-.49-.91-1.12-.91-1.89-.07-.77.21-1.47.7-1.96.49-.56 1.26-.91 2.03-.91.7 0 1.33.28 1.82.7 1.12.98 1.19 2.8.21 3.85-.42.56-1.19.91-2.03.91zm0-2.94c-.07 0-.14 0-.21.07-.07.07-.07.14-.07.21 0 .07 0 .14.07.14.07.07.21.14.28 0 .07-.07.07-.28 0-.28.07-.14 0-.14-.07-.14z"/><path d="M48.6 48.27l-1.88-1.68 10.313-11.53 1.88 1.68-10.314 11.53zm-3.45.552L35.024 39.77l1.68-1.878 10.122 9.053-1.678 1.877z"/></g><path fill="#0D6D38" d="M85 67.5c0 8.61-7 15.68-15.68 15.68-8.61 0-15.68-7-15.68-15.68 0-8.61 7-15.68 15.68-15.68C78 51.89 85 58.89 85 67.5z"/><path fill="#FFF" d="M64.07 75.48v-4.06h-7.21v-1.96l6.51-9.94h3.5v9.66h2.1v2.24h-2.1v4.06h-2.8zm0-6.37v-4.34c0-.91 0-1.82.14-2.8h-.14c-.49.98-.91 1.82-1.4 2.73l-2.87 4.34v.07h4.27zm17.71-1.68c0 5.11-2.03 8.33-5.81 8.33-3.64 0-5.67-3.36-5.67-8.19 0-4.97 2.1-8.33 5.88-8.33 3.85.07 5.6 3.5 5.6 8.19zm-8.4.14c0 3.92 1.05 5.88 2.73 5.88 1.75 0 2.73-2.17 2.73-5.95 0-3.71-.91-5.88-2.73-5.88-1.61-.07-2.73 1.96-2.73 5.95z"/></svg>