<svg xmlns="http://www.w3.org/2000/svg" width="100" height="100" viewBox="0 0 100 100"><path fill="#FFF" d="M63.188 27.27l-30.17 52.253-15.883-9.17 30.17-52.255 15.883 9.17z"/><path fill="#2A2F34" d="M33.48 81.27l-18.13-10.5 31.5-54.46 18.13 10.5-31.5 54.46zM18.99 69.86l13.65 7.84 28.84-49.98-13.65-7.77-28.84 49.91z"/><path fill="#0D6D38" d="M22.54 68.94l26.214-45.404 9.092 5.25L31.632 74.19l-9.093-5.25z"/><path fill="#2A2F34" d="M36.922 67.77l-11.64-6.718 1.294-2.243 11.64 6.718-1.294 2.243zm5.973-10.264l-11.64-6.718 1.293-2.243 11.642 6.72-1.295 2.24zm5.905-10.26l-11.64-6.72 1.295-2.242 11.638 6.72-1.293 2.243zm6.002-10.32l-11.638-6.72 1.295-2.245 11.638 6.72-1.296 2.245zM27.75 72.954l-2.243-1.294 1.155-2 2.243 1.295-1.155 2z"/><path fill="#FFF" d="M80.417 51.193l-52.254 30.17-9.17-15.883 52.255-30.17 9.17 15.883z"/><path fill="#2A2F34" d="M27.67 83.09l-10.5-18.13 54.46-31.5 10.5 18.13-54.46 31.5zm-6.86-17.15l7.84 13.65 49.98-28.84-7.91-13.65-49.91 28.84z"/><path fill="#939598" d="M24.286 66.892L69.69 40.678l5.25 9.093-45.404 26.215-5.25-9.093z"/><path fill="#2A2F34" d="M37.344 73.206l-6.72-11.64 2.242-1.297 6.72 11.64-2.242 1.296zM47.67 67.28l-6.72-11.64 2.242-1.295 6.72 11.64-2.243 1.295zm10.29-5.992l-6.72-11.64 2.243-1.294 6.72 11.64-2.242 1.294zm10.31-5.9l-6.72-11.64 2.244-1.295 6.72 11.64-2.244 1.294zM26.848 73.055l-1.295-2.243 2-1.155 1.295 2.242-2 1.155z"/><g><path fill="#FFF" d="M23.05 62.16h60.34V80.5H23.05V62.16z"/><path fill="#2A2F34" d="M84.65 81.83H21.72v-21h62.93v21zm-60.34-2.66h57.68V63.42H24.31v15.75z"/><path fill="#2A2F34" d="M35.09 64.61h2.59v13.44h-2.59V64.61zm11.83 0h2.59v13.44h-2.59V64.61zm11.97 0h2.59v13.44h-2.59V64.61zm11.83 0h2.59v13.44h-2.59V64.61zM26.06 70h2.31v2.59h-2.31V70z"/></g></svg>