<svg xmlns="http://www.w3.org/2000/svg" width="100" height="100" viewBox="0 0 100 100"><circle fill="#939598" cx="45.2" cy="47.8" r="45.2"/><circle fill="#FFF" cx="45.2" cy="47.8" r="37.9"/><path fill="#2A2F34" d="M45.2 87.6c-21.9 0-39.7-17.8-39.7-39.7S23.4 8.1 45.3 8.1 85 25.9 85 47.8 67.2 87.6 45.2 87.6zm0-75.8c-19.8 0-36 16.2-36 36C9.2 67.7 25.4 84 45.3 84c20 0 36.2-16.2 36.2-36.2s-16.3-36-36.3-36z"/><g><path fill="#2A2F34" d="M43.4 14H47v7h-3.6zM60.226 25.473l-3.117-1.8 3.5-6.062 3.118 1.802zM69.353 36.008l-1.8-3.118 6.062-3.5 1.8 3.118zM72 46h7v3.6h-7zM73.61 66.347l-6.062-3.5 1.8-3.12 6.062 3.503zM60.656 78.094l-3.5-6.062 3.117-1.8 3.5 6.06zM43.4 74.6H47v7h-3.6zM29.98 78.053l-3.118-1.8 3.502-6.062 3.117 1.802zM16.857 66.295l-1.798-3.118 6.063-3.497 1.798 3.12zM11.4 46h7v3.6h-7zM21.08 36.002L15.02 32.5l1.8-3.117 6.063 3.502zM30.296 25.547l-3.498-6.064 3.118-1.8 3.5 6.064z"/><g><path fill="#2A2F34" d="M45.2 51.8c-1 0-1.9-.4-2.6-1-.8-.7-1.3-1.6-1.3-2.7-.1-1.1.3-2.1 1-2.8.7-.8 1.8-1.3 2.9-1.3 1 0 1.9.4 2.6 1 1.6 1.4 1.7 4 .3 5.5-.6.8-1.7 1.3-2.9 1.3zm0-4.2c-.1 0-.2 0-.3.1-.1.1-.1.2-.1.3 0 .1 0 .2.1.2.1.1.3.2.4 0 .1-.1.1-.4 0-.4.1-.2 0-.2-.1-.2z"/><path fill="#2A2F34" d="M47.998 47.528l-2.684-2.4 14.732-16.473 2.684 2.4zM43.07 48.317L28.607 35.385l2.4-2.684 14.46 12.933z"/></g></g><g><path fill="#0D6D38" d="M100 75c0 12.3-10 22.4-22.4 22.4-12.3 0-22.4-10-22.4-22.4 0-12.3 10-22.4 22.4-22.4C90 52.7 100 62.7 100 75z"/><g fill="#FFF"><path d="M70.1 86.4v-5.8H59.8v-2.8l9.3-14.2h5v13.8h3v3.2h-3v5.8h-4zm0-9.1v-6.2c0-1.3 0-2.6.2-4h-.2c-.7 1.4-1.3 2.6-2 3.9L64 77.2v.1h6.1zM95.4 74.9c0 7.3-2.9 11.9-8.3 11.9-5.2 0-8.1-4.8-8.1-11.7 0-7.1 3-11.9 8.4-11.9 5.5.1 8 5 8 11.7zm-12 .2c0 5.6 1.5 8.4 3.9 8.4 2.5 0 3.9-3.1 3.9-8.5 0-5.3-1.3-8.4-3.9-8.4-2.3-.1-3.9 2.8-3.9 8.5z"/></g></g></svg>