<svg xmlns="http://www.w3.org/2000/svg" width="100" height="100" viewBox="0 0 100 100"><path fill="#2A2F34" d="M49.682 48.53h2.17v18.62h-2.17V48.53zm-16.1-2.45c-1.33 0-2.59-.49-3.5-1.47-.91-.91-1.47-2.24-1.47-3.5h2.17c0 .77.28 1.47.84 1.96 1.05 1.05 2.94 1.05 3.99 0 .49-.49.84-1.26.84-1.96s-.28-1.47-.84-1.96c-.28-.28-1.4-.63-2.24-.84-17.43-4.27-15.19-17.85-15.12-17.92l.14-.91h11.76v2.17h-9.87c-.14 2.8.56 11.34 13.58 14.42.42.07 2.38.49 3.29 1.47.91.91 1.47 2.24 1.47 3.5 0 1.33-.49 2.59-1.47 3.5-.98.98-2.24 1.54-3.57 1.54zm34.02 0c-1.33 0-2.59-.49-3.5-1.47-.91-.91-1.47-2.24-1.47-3.5 0-1.33.49-2.52 1.47-3.5.91-.91 2.87-1.4 3.36-1.47 13.02-3.15 13.65-11.62 13.51-14.42h-9.94v-2.24h11.76l.142.91c0 .14 2.24 13.72-15.12 17.85-.84.21-1.96.56-2.24.84-.49.49-.84 1.26-.84 1.96 0 .77.28 1.47.84 1.96 1.05 1.05 2.94 1.05 3.99 0 .49-.49.84-1.26.84-1.96h2.17c0 1.33-.49 2.59-1.47 3.5a4.777 4.777 0 0 1-3.5 1.54z"/><path fill="#939598" d="M29.172 15h43.12c0 25.83-21.49 41.93-21.49 41.93S29.173 40.69 29.173 15z"/><path fill="#FFF" d="M58.992 41.18l-1.61-1.47c4.62-5.39 7.56-11.41 8.82-18.2l2.17.42c-1.4 7.21-4.41 13.65-9.38 19.25z"/><path fill="#2A2F34" d="M60.253 69.25h-2.17c0-.56-.49-1.05-1.05-1.05h-12.67c-.56 0-1.05.49-1.05 1.05h-2.17c0-1.75 1.47-3.22 3.22-3.22h12.67c1.82.07 3.22 1.47 3.22 3.22z"/><path fill="#0D6D38" d="M36.942 68.9h27.58v13.93h-27.58V68.9z"/><path fill="#E7E7E7" d="M33.932 80.59h33.6v3.36h-33.6v-3.36z"/><path fill="#2A2F34" d="M68.652 85h-35.77v-5.46h35.77V85zm-33.6-2.17h31.36v-1.19h-31.36v1.19z"/><path fill="#FFF" d="M43.313 71.28h14.84V78h-14.84v-6.72z"/><path fill="#2A2F34" d="M48.493 58.12h4.48v2.17h-4.48v-2.17zm-1.26 2.73h7v2.17h-7v-2.17zm-.07 12.74h7v2.17h-7v-2.17z"/><path fill="#0D6D38" d="M29.172 15c0 24.92 20.23 40.88 21.56 41.93V15h-21.56z"/></svg>