<svg xmlns="http://www.w3.org/2000/svg" width="100" height="100" viewBox="0 0 100 100"><path fill="#FFF" d="M68.84 17.655l-43.1 74.65-22.69-13.1 43.1-74.65z"/><path fill="#2A2F34" d="M26.4 94.8L.5 79.8 45.5 2l25.9 15-45 77.8zM5.7 78.5l19.5 11.2 41.2-71.4L46.9 7.2 5.7 78.5z"/><path fill="#0D6D38" d="M10.77 77.186l37.45-64.863 12.99 7.5-37.45 64.863z"/><path fill="#2A2F34" d="M31.317 75.515l-16.63-9.598 1.85-3.205 16.63 9.598zM39.85 60.852l-16.63-9.598 1.85-3.204 16.63 9.598zM48.286 46.195l-16.627-9.6 1.85-3.205 16.626 9.6zM56.86 31.45l-16.626-9.6 1.85-3.206 16.627 9.6z"/><g><path fill="#2A2F34" d="M18.214 82.92l-3.204-1.848 1.65-2.858 3.204 1.85z"/></g><g><path fill="#FFF" d="M93.453 51.833l-74.65 43.1-13.1-22.69 74.65-43.1z"/><path fill="#2A2F34" d="M18.1 97.4l-15-25.9 77.8-45 15 25.9-77.8 45zM8.3 72.9l11.2 19.5 71.4-41.2-11.3-19.5L8.3 72.9z"/><path fill="#939598" d="M13.265 74.26l64.863-37.45 7.5 12.99-64.863 37.45z"/><path fill="#2A2F34" d="M31.92 83.28l-9.6-16.63 3.203-1.85 9.6 16.628zM46.67 74.814l-9.6-16.627 3.205-1.85 9.6 16.627zM61.372 66.254l-9.6-16.627 3.204-1.85 9.6 16.627zM76.1 57.824l-9.6-16.627 3.206-1.85 9.6 16.627z"/><g><path fill="#2A2F34" d="M16.925 83.064l-1.85-3.205 2.858-1.65 1.85 3.203z"/></g></g><g><path fill="#FFF" d="M11.5 67.5h86.2v26.2H11.5z"/><path fill="#2A2F34" d="M99.5 95.6H9.6v-30h89.9v30zm-86.2-3.8h82.4V69.3H13.3v22.5z"/><path fill="#2A2F34" d="M28.7 71h3.7v19.2h-3.7zM45.6 71h3.7v19.2h-3.7zM62.7 71h3.7v19.2h-3.7zM79.6 71h3.7v19.2h-3.7z"/><g><path fill="#2A2F34" d="M15.8 78.7h3.3v3.7h-3.3z"/></g></g></svg>