<svg xmlns="http://www.w3.org/2000/svg" width="100" height="100" viewBox="0 0 100 100"><path fill="#2A2F34" d="M49.58 47.13l-1.4-2.45 1.89-1.05 1.89 1.05-1.33 2.45-.56-.28-.49.28zM77.65 62.6l-2.31-1.26 1.33-2.38 2.31 1.26-1.33 2.38zm-4.48-2.59l-2.31-1.26 1.33-2.38 2.31 1.26-1.33 2.38zm-4.48-2.59l-2.31-1.26 1.33-2.38 2.31 1.26-1.33 2.38zm-4.55-2.52l-2.31-1.26 1.33-2.38 2.31 1.26-1.33 2.38zm-4.48-2.66l-2.31-1.26 1.33-2.38 2.31 1.26-1.33 2.38zm-4.55-2.52l-2.24-1.33 1.33-2.38 2.31 1.26-1.4 2.45zm26.25 15.54l-.56-.84-.84-.56.28-.49-.28-.49.84-.49.56-.84 3.29 1.82-3.29 1.89zM53.99 81.01l-1.4-2.38 2.31-1.33 1.4 2.38-2.31 1.33zm4.62-2.59l-1.4-2.38 2.31-1.33 1.4 2.38-2.31 1.33zm4.55-2.66l-1.4-2.38 2.31-1.33 1.4 2.38-2.31 1.33zm4.55-2.59l-1.4-2.38 2.31-1.33 1.4 2.38-2.31 1.33zm4.55-2.66l-1.4-2.38 2.31-1.33 1.4 2.38-2.31 1.33zm4.55-2.59l-1.4-2.38 2.31-1.33 1.4 2.38-2.31 1.33zM49.86 83.46l-1.89-1.12 1.4-2.38.49.28.56-.28 1.33 2.38-1.89 1.12zm-4.13-2.38l-2.31-1.26 1.33-2.38 2.31 1.26-1.33 2.38zm-4.48-2.59l-2.31-1.26 1.33-2.38 2.31 1.26-1.33 2.38zM36.7 75.9l-2.31-1.26 1.33-2.38 2.31 1.26-1.33 2.38zm-4.55-2.59l-2.31-1.26 1.33-2.38 2.31 1.26-1.33 2.38zm-4.48-2.59l-2.31-1.26 1.33-2.38L29 68.34l-1.33 2.38zm-4.55-2.59l-2.31-1.26 1.33-2.38 2.31 1.26-1.33 2.38zm-4.48-2.59l-3.29-1.89 3.29-1.89.49.91.84.488-.28.49.28.56-.84.49-.49.842zm3.64-2.66l-1.4-2.38 2.31-1.33 1.4 2.38-2.31 1.33zm4.55-2.66l-1.33-2.38 2.31-1.33 1.4 2.38-2.38 1.33zm4.55-2.59l-1.4-2.38 2.31-1.33 1.4 2.38-2.31 1.33zm4.55-2.59l-1.4-2.38 2.31-1.33 1.4 2.38-2.31 1.33zm4.55-2.73l-1.4-2.38 2.31-1.33 1.4 2.38-2.31 1.33zm4.55-2.59l-1.4-2.38 2.31-1.33 1.4 2.38-2.31 1.33z"/><path fill="#939598" d="M50.07 25.36l21.28 12.18-21.42 12.39-21.28-12.18 21.42-12.39z"/><path fill="#2A2F34" d="M49.93 51.26c-.28 0-.49-.07-.7-.21L27.95 38.94c-.42-.28-.7-.7-.7-1.19s.28-.91.7-1.19l21.42-12.39c.42-.28.91-.28 1.4 0l21.28 12.18c.42.28.7.7.7 1.19 0 .56-.28.91-.7 1.19L50.63 51.12c-.21.14-.49.14-.7.14zM31.38 37.75l18.55 10.57 18.69-10.78-18.55-10.57-18.69 10.78z"/><path fill="#0D6D38" d="M71.28 37.4l.21 24.78-21.42 12.39-.28-24.78L71.28 37.4z"/><path fill="#2A2F34" d="M50.21 76.04c-.28 0-.49-.07-.7-.21-.42-.28-.7-.7-.7-1.19l-.21-24.78c0-.49.28-.91.7-1.19l21.42-12.39c.42-.28.91-.28 1.4 0 .42.28.7.7.7 1.19l.28 24.71c0 .49-.28.91-.7 1.19L50.84 75.83c-.14.14-.42.21-.63.21zm1.12-25.34l.21 21.56 18.69-10.78-.21-21.56L51.33 50.7z"/><path fill="#FFF" d="M49.93 49.93l.28 24.71-21.42-12.11-.14-24.78 21.28 12.18z"/><path fill="#2A2F34" d="M50.21 76.04c-.28 0-.49-.07-.7-.21L28.16 63.65c-.42-.28-.7-.7-.7-1.19l-.28-24.78c0-.49.28-.91.7-1.19.42-.28.91-.28 1.4 0l21.28 12.18c.42.28.7.7.7 1.19l.28 24.57v.21c0 .84-.63 1.4-1.33 1.4zM30.26 61.69l18.55 10.57-.21-21.56-18.55-10.57.21 21.56z"/><g><path fill="#939598" d="M50.07 16.54l11.27 6.37L50 29.49l-11.2-6.44 11.27-6.51z"/><path fill="#2A2F34" d="M50 30.82c-.28 0-.49-.07-.7-.21l-11.2-6.37c-.42-.28-.7-.7-.7-1.19s.28-.91.7-1.19l11.34-6.51c.42-.28.91-.28 1.4 0l11.2 6.44c.42.28.7.7.7 1.19s-.28.91-.7 1.19L50.7 30.68c-.21.14-.42.14-.7.14zm-8.47-7.77L50 27.88l8.54-4.97-8.47-4.83-8.54 4.97z"/><path fill="#0D6D38" d="M61.2 22.84l.14 13.02L50 42.44l-.14-13.09 11.34-6.51z"/><path fill="#2A2F34" d="M50.14 43.91c-.28 0-.49-.07-.7-.21-.42-.28-.7-.7-.7-1.19l-.14-13.09c0-.49.28-.91.7-1.19l11.34-6.51c.42-.28.91-.28 1.4 0 .42.28.7.7.7 1.19L62.88 36c0 .49-.28.91-.7 1.19L50.84 43.7c-.21.14-.42.21-.7.21zm1.26-13.65l.07 9.87 8.61-4.97-.07-9.87-8.61 4.97z"/><path fill="#FFF" d="M50 29.49l.14 13.09-11.2-6.44-.14-13.09L50 29.49z"/><path fill="#2A2F34" d="M50.14 43.91c-.28 0-.49-.07-.7-.21l-11.27-6.37c-.42-.28-.7-.7-.7-1.19l-.07-13.09c0-.49.28-.91.7-1.19.42-.28.91-.28 1.4 0l11.27 6.44c.42.28.7.7.7 1.19l.14 12.88v.21c-.07.7-.7 1.33-1.47 1.33zm-9.87-8.61l8.47 4.83-.07-9.87-8.47-4.83.07 9.87z"/></g></svg>