<?xml version="1.0" encoding="utf-8"?>
<!-- Generator: Adobe Illustrator 16.2.0, SVG Export Plug-In . SVG Version: 6.00 Build 0)  -->
<!DOCTYPE svg PUBLIC "-//W3C//DTD SVG 1.1//EN" "http://www.w3.org/Graphics/SVG/1.1/DTD/svg11.dtd">
<svg version="1.1" id="Layer_1" xmlns="http://www.w3.org/2000/svg" xmlns:xlink="http://www.w3.org/1999/xlink" x="0px" y="0px"
	 width="100px" height="100px" viewBox="0 0 100 100" enable-background="new 0 0 100 100" xml:space="preserve">
<g>
	<g>
		<circle fill="#939598" cx="45.2" cy="47.8" r="45.2"/>
		<g>
			<circle fill="#FFFFFF" cx="45.2" cy="47.8" r="37.9"/>
			<path fill="#2A2F34" d="M45.2,87.6c-21.9,0-39.7-17.8-39.7-39.7S23.4,8.1,45.3,8.1c21.9,0,39.7,17.8,39.7,39.7
				S67.2,87.6,45.2,87.6z M45.2,11.8C25.4,11.8,9.2,28,9.2,47.8C9.2,67.7,25.4,84,45.3,84c20,0,36.2-16.2,36.2-36.2
				S65.2,11.8,45.2,11.8z"/>
		</g>
		<g>
			<g>
				<g>
					<rect x="43.4" y="14" fill="#2A2F34" width="3.6" height="7"/>
				</g>
				<g>
					
						<rect x="58.7" y="18.1" transform="matrix(-0.8659 -0.5002 0.5002 -0.8659 102.0012 70.5078)" fill="#2A2F34" width="3.6" height="7"/>
				</g>
				<g>
					<rect x="69.7" y="29.2" transform="matrix(-0.5 -0.866 0.866 -0.5 78.9154 110.968)" fill="#2A2F34" width="3.6" height="7"/>
				</g>
				<g>
					<rect x="72" y="46" fill="#2A2F34" width="7" height="3.6"/>
				</g>
				<g>
					
						<rect x="68" y="61.2" transform="matrix(-0.8659 -0.5002 0.5002 -0.8659 101.8787 153.3537)" fill="#2A2F34" width="7" height="3.6"/>
				</g>
				<g>
					
						<rect x="56.9" y="72.3" transform="matrix(-0.5001 -0.866 0.866 -0.5001 26.5 163.5264)" fill="#2A2F34" width="7" height="3.6"/>
				</g>
				<g>
					<rect x="43.4" y="74.6" fill="#2A2F34" width="3.6" height="7"/>
				</g>
				<g>
					
						<rect x="28.3" y="70.6" transform="matrix(-0.8658 -0.5003 0.5003 -0.8658 19.1601 153.3369)" fill="#2A2F34" width="3.6" height="7"/>
				</g>
				<g>
					
						<rect x="17.2" y="59.5" transform="matrix(-0.4995 -0.8663 0.8663 -0.4995 -26.0963 110.916)" fill="#2A2F34" width="3.6" height="7"/>
				</g>
				<g>
					<rect x="11.4" y="46" fill="#2A2F34" width="7" height="3.6"/>
				</g>
				<g>
					
						<rect x="15.5" y="30.9" transform="matrix(-0.8659 -0.5003 0.5003 -0.8659 19.0436 70.5132)" fill="#2A2F34" width="7" height="3.6"/>
				</g>
				<g>
					
						<rect x="26.6" y="19.9" transform="matrix(-0.4998 -0.8662 0.8662 -0.4998 26.3536 58.5336)" fill="#2A2F34" width="7" height="3.6"/>
				</g>
			</g>
			<g>
				<g>
					<path fill="#2A2F34" d="M45.2,51.8L45.2,51.8c-1,0-1.9-0.4-2.6-1c-0.8-0.7-1.3-1.6-1.3-2.7c-0.1-1.1,0.3-2.1,1-2.8
						c0.7-0.8,1.8-1.3,2.9-1.3c1,0,1.9,0.4,2.6,1c1.6,1.4,1.7,4,0.3,5.5C47.5,51.3,46.4,51.8,45.2,51.8z M45.2,47.6
						c-0.1,0-0.2,0-0.3,0.1c-0.1,0.1-0.1,0.2-0.1,0.3c0,0.1,0,0.2,0.1,0.2c0.1,0.1,0.3,0.2,0.4,0c0.1-0.1,0.1-0.4,0-0.4
						C45.4,47.6,45.3,47.6,45.2,47.6z"/>
				</g>
				<g>
					
						<rect x="52.2" y="27.1" transform="matrix(-0.7454 -0.6666 0.6666 -0.7454 68.8428 102.525)" fill="#2A2F34" width="3.6" height="22.1"/>
				</g>
				<g>
					
						<rect x="27.4" y="38.7" transform="matrix(-0.7454 -0.6666 0.6666 -0.7454 37.6952 95.4287)" fill="#2A2F34" width="19.4" height="3.6"/>
				</g>
			</g>
		</g>
	</g>
	<g>
		<path fill="#0D6D38" d="M100,75c0,12.3-10,22.4-22.4,22.4c-12.3,0-22.4-10-22.4-22.4c0-12.3,10-22.4,22.4-22.4
			C90,52.7,100,62.7,100,75z"/>
		<g>
			<path fill="#FFFFFF" d="M70.1,86.4v-5.8H59.8v-2.8l9.3-14.2h5v13.8h3v3.2h-3v5.8H70.1z M70.1,77.3v-6.2c0-1.3,0-2.6,0.2-4h-0.2
				c-0.7,1.4-1.3,2.6-2,3.9l-4.1,6.2v0.1H70.1z"/>
			<path fill="#FFFFFF" d="M95.4,74.9c0,7.3-2.9,11.9-8.3,11.9c-5.2,0-8.1-4.8-8.1-11.7c0-7.1,3-11.9,8.4-11.9
				C92.9,63.3,95.4,68.2,95.4,74.9z M83.4,75.1c0,5.6,1.5,8.4,3.9,8.4c2.5,0,3.9-3.1,3.9-8.5c0-5.3-1.3-8.4-3.9-8.4
				C85,66.5,83.4,69.4,83.4,75.1z"/>
		</g>
	</g>
</g>
</svg>
