<svg xmlns="http://www.w3.org/2000/svg" width="100" height="100" viewBox="0 0 100 100"><path fill="#2A2F34" d="M43.9 63.9h-17V53.4h3.9v6.5h13.1zM30.8 42.2h-3.9V31.6h17v3.9H30.8zM79.3 63.9H64v-4h11.4v-6.5h3.9zM79.3 42.2h-3.9v-6.7H64v-3.9h15.3zM13.6 45.8h10v3.9h-10zM34.5 45.8h9.1v3.9h-9.1zM83.2 45.8h6.2v3.9h-6.2z"/><path fill="#2A2F34" d="M7.8 55.5c-4.3 0-7.8-3.4-7.8-7.7C0 43.5 3.5 40 7.7 40c4.3 0 7.7 3.5 7.7 7.7.2 4.4-3.3 7.8-7.6 7.8zm0-11.5C5.7 44 4 45.7 4 47.8c0 2.1 1.8 3.8 3.8 3.8 2.1 0 3.8-1.8 3.8-3.8.1-2.1-1.7-3.8-3.8-3.8zM77 55.5c-4.3 0-7.7-3.5-7.7-7.7 0-4.3 3.5-7.7 7.7-7.7s7.7 3.5 7.7 7.7c0 4.3-3.5 7.7-7.7 7.7zM77 44c-2.2 0-3.8 1.8-3.8 3.8 0 2.1 1.8 3.8 3.8 3.8 2.1 0 3.8-1.8 3.8-3.8 0-2.1-1.8-3.8-3.8-3.8z"/><path fill="#939598" d="M43.7 43h20.6v9.6H43.7z"/><path fill="#0D6D38" d="M89.2 43h9.6v9.6h-9.6zM28.924 55.92l-8.274-8.272 8.272-8.274 8.274 8.27z"/><g fill="#939598"><path d="M43.7 29.3h20.6v9.6H43.7zM43.7 56.6h20.6v9.6H43.7z"/></g><path fill="#939598" d="M1.8 78.4h98v16.2h-98z"/><path fill="#2A2F34" d="M6.7 78.4h3.9v7.7H6.7zM13.5 78.4h3.9v4.2h-3.9zM20.4 78.4h3.9v7.7h-3.9zM27.3 78.4h3.9v4.2h-3.9zM34.1 78.4H38v7.7h-3.9zM41 78.4h3.9v4.2H41zM47.8 78.4h3.9v7.7h-3.9zM54.7 78.4h3.9v4.2h-3.9zM61.6 78.4h3.9v7.7h-3.9zM68.4 78.4h3.9v4.2h-3.9zM75.3 78.4h3.9v7.7h-3.9zM82.2 78.4h3.9v4.2h-3.9zM89 78.4h3.9v7.7H89z"/><path fill="#FFF" d="M93.8 15.7h3.3c.4 0 .8-.3.8-.8V9.5c0-.4-.3-.8-.8-.8h-3.3v7z"/><path fill="#2A2F34" d="M97.3 17.7H94v-3.9h2.2v-3H94v-4h3.3c1.5 0 2.7 1.2 2.7 2.7v5.4c-.1 1.6-1.3 2.8-2.7 2.8zM14.7 17.7h-1.9l-12-5.4 12-5.5h1.9v3.9h-1.1l-3.3 1.6 3.3 1.5h1.1z"/><path fill="#0D6D38" d="M13.4 6.8h70v10.9h-70z"/><path fill="#939598" d="M86.2 6.8h7.7v10.9h-7.7z"/><g><path fill="#2A2F34" d="M82.7 6.8h3.9v10.9h-3.9z"/></g></svg>