<?xml version="1.0" encoding="utf-8"?>
<!-- Generator: Adobe Illustrator 16.2.0, SVG Export Plug-In . SVG Version: 6.00 Build 0)  -->
<!DOCTYPE svg PUBLIC "-//W3C//DTD SVG 1.1//EN" "http://www.w3.org/Graphics/SVG/1.1/DTD/svg11.dtd">
<svg version="1.1" id="Layer_1" xmlns="http://www.w3.org/2000/svg" xmlns:xlink="http://www.w3.org/1999/xlink" x="0px" y="0px"
	 width="100px" height="100px" viewBox="0 0 100 100" enable-background="new 0 0 100 100" xml:space="preserve">
<g>
	<g>
		<g>
			
				<rect x="-7.1" y="35.2" transform="matrix(-0.5 0.866 -0.866 -0.5 95.7739 41.4038)" fill="#FFFFFF" width="86.2" height="26.2"/>
			<path fill="#2A2F34" d="M26.4,94.8l-25.9-15L45.5,2l25.9,15L26.4,94.8z M5.7,78.5l19.5,11.2l41.2-71.4L46.9,7.2L5.7,78.5z"/>
		</g>
		<rect x="-1.5" y="41" transform="matrix(0.5 -0.866 0.866 0.5 -23.987 55.3873)" fill="#0D6D38" width="74.9" height="15"/>
		<g>
			<g>
				
					<rect x="14.4" y="67.3" transform="matrix(-0.8661 -0.4999 0.4999 -0.8661 10.1451 141.0018)" fill="#2A2F34" width="19.2" height="3.7"/>
			</g>
			<g>
				
					<rect x="22.9" y="52.6" transform="matrix(-0.8661 -0.4999 0.4999 -0.8661 33.3893 117.857)" fill="#2A2F34" width="19.2" height="3.7"/>
			</g>
			<g>
				
					<rect x="31.3" y="37.8" transform="matrix(-0.866 -0.5 0.5 -0.866 56.4921 94.5793)" fill="#2A2F34" width="19.2" height="3.7"/>
			</g>
			<g>
				
					<rect x="39.8" y="23.2" transform="matrix(-0.866 -0.5 0.5 -0.866 79.7281 71.4397)" fill="#2A2F34" width="19.2" height="3.7"/>
			</g>
		</g>
		<g>
			
				<rect x="15.6" y="78.9" transform="matrix(-0.8661 -0.4998 0.4998 -0.8661 -7.7088 159.0534)" fill="#2A2F34" width="3.7" height="3.3"/>
		</g>
	</g>
	<g>
		<g>
			
				<rect x="6.5" y="48.9" transform="matrix(-0.866 0.5 -0.5 -0.866 123.5317 90.9303)" fill="#FFFFFF" width="86.2" height="26.2"/>
			<path fill="#2A2F34" d="M18.1,97.4l-15-25.9l77.8-45l15,25.9L18.1,97.4z M8.3,72.9l11.2,19.5l71.4-41.2L79.6,31.7L8.3,72.9z"/>
		</g>
		<rect x="12" y="54.5" transform="matrix(0.866 -0.5 0.5 0.866 -24.3772 33.0625)" fill="#939598" width="74.9" height="15"/>
		<g>
			<g>
				
					<rect x="19.2" y="72.1" transform="matrix(-0.5 -0.866 0.866 -0.5 -20.9199 135.9557)" fill="#2A2F34" width="19.2" height="3.7"/>
			</g>
			<g>
				
					<rect x="33.9" y="63.6" transform="matrix(-0.5 -0.866 0.866 -0.5 8.5431 135.9714)" fill="#2A2F34" width="19.2" height="3.7"/>
			</g>
			<g>
				
					<rect x="48.7" y="55.1" transform="matrix(-0.5 -0.866 0.866 -0.5 38.0055 135.9781)" fill="#2A2F34" width="19.2" height="3.7"/>
			</g>
			<g>
				
					<rect x="63.3" y="46.7" transform="matrix(-0.5 -0.866 0.866 -0.5 67.3091 135.9919)" fill="#2A2F34" width="19.2" height="3.7"/>
			</g>
		</g>
		<g>
			
				<rect x="15.5" y="79" transform="matrix(-0.5001 -0.866 0.866 -0.5001 -43.7372 135.9946)" fill="#2A2F34" width="3.7" height="3.3"/>
		</g>
	</g>
	<g>
		<g>
			<rect x="11.5" y="67.5" fill="#FFFFFF" width="86.2" height="26.2"/>
			<path fill="#2A2F34" d="M99.5,95.6H9.6v-30h89.9V95.6z M13.3,91.8h82.4V69.3H13.3V91.8z"/>
		</g>
		<g>
			<g>
				<rect x="28.7" y="71" fill="#2A2F34" width="3.7" height="19.2"/>
			</g>
			<g>
				<rect x="45.6" y="71" fill="#2A2F34" width="3.7" height="19.2"/>
			</g>
			<g>
				<rect x="62.7" y="71" fill="#2A2F34" width="3.7" height="19.2"/>
			</g>
			<g>
				<rect x="79.6" y="71" fill="#2A2F34" width="3.7" height="19.2"/>
			</g>
		</g>
		<g>
			<rect x="15.8" y="78.7" fill="#2A2F34" width="3.3" height="3.7"/>
		</g>
	</g>
</g>
</svg>
