<svg xmlns="http://www.w3.org/2000/svg" width="300" height="112" viewBox="0 0 300 112"><path fill="#010101" d="M244.4 64.7l18.8-.1v-2.7l-17.8.1-.1-26.8 17.8-.1v-2.7l-18.8.1c1.1-4.9 2.1-9.8 3.2-14.7l6.1-15.6-.2-.2-9.5 5.8-9.6-5.8-.2.3 6.3 15.5 3.3 14.7-104 .3c-5.6 0-10.7.4-15 1.2-.1 0-.3 0-.6.2-1.2.6-1.8 1.6-2.4 2.6-.7 1.3-1.2 1.8-2.2 1.9-1.2-.1-1.6-.7-2.3-1.9l-.2-.3c-.5-.8-1.2-1.7-2.2-2.3l-.1-.1c-.1 0-.2-.1-.3-.1-4.3-.8-9.1-1.2-14.4-1.2-10.6 0-23.1 1.5-34.9 4.3-17 4-29.8 9.7-32.5 14.5-.7 1.2-1.7 4.1-2.1 5.6-.2.1-.5.3-.5.4h-.1c-1.3.4-3.5.5-6.7.5-2.2 0-6.1-.1-11.9-.5h-.5c-2.9 0-5.1 1.4-5.3 3.3h-.3v49.5h2.7V95.2c4.8 1.1 9.7 2 14.5 3.2l15.6 6.2.3-.2-5-8.3 172.6-.5-4.8 8.3.3.2 15.5-6.3c4.9-1.2 10-2.2 14.9-3.4l.1 15.3h2.7l-.2-15.4.1.1 9.7-5.9 9.5 5.8.2-.3-6.3-15.5c-1.2-4.5-2.2-9.2-3.2-13.8zm-1.8-29.5l.1 26.8h-8.5v-2h-.1c-.1-.6-.3-1.3-.8-1.7-1-1-2.6-1.5-4.5-1.5h-.6c-1.9.2-7.6.6-12.6.6-2.8 0-4.7-.1-6-.4-.4-.2-.6-.3-.7-.4-.5-1.5-1.5-4.5-2.2-5.5-2.9-4.9-15.4-10.4-32.6-14.3-2.3-.5-4.6-1-7-1.5l75.5-.1zm-26 55.2L201 84.2l-.3.2 4.9 8.2-172.4.5 4.9-8.1-.3-.2-15.5 6.3c-4.8 1.1-9.7 2.1-14.5 3.3l-.1-30.2c.8.3 1.7.5 2.7.5h8.5c.9 0 1.5-.7 1.5-1.5 0-.9-.7-1.5-1.5-1.5h-8.4c-1.2 0-1.9-.3-2.3-.6.3-.2 1-.6 2.1-.6.7.1 7 .6 12.6.6 3.5 0 6-.2 7.4-.6.6-.1 2.5-1.1 2.7-2.2.4-1.4 1.5-4.3 1.9-5.1C39.1 46.1 72.5 36 99.8 36c5 0 9.7.4 13.7 1.1.4.3.7.8 1 1.3l.1.1c.8 1.3 1.9 3.1 4.6 3.3h.4c2.8-.2 4-2.2 4.6-3.4.3-.6.7-1.2 1-1.4 4.3-.8 9.1-1.2 14.4-1.2 27.1 0 60.3 9.9 64.2 16.9.5.9 1.6 3.7 2 5.1.4 1.3 2.2 2.1 2.7 2.2 1.5.4 3.8.6 7.1.6 4.9 0 10.6-.5 13-.7 1.3 0 1.9.4 2.2.6-.3.2-1 .6-2.2.6h-8.5c-.9 0-1.5.7-1.5 1.5 0 .9.7 1.5 1.5 1.5h8.5v.7h2.7l.1 29c-4.9-1.3-9.8-2.2-14.8-3.4zm23.7-11.8l-6 15.3-.1-29.2h9.2c-1.1 4.6-2.1 9.3-3.1 13.9z"/><g fill="#020202"><path d="M91.3 74.3L89 75.6l-.4-1.4 2.9-1.5H93v13.4h-1.7V74.3zM98.4 83.9c.6.4 1.6.9 3 .9 2.3 0 3.1-1.5 3-2.6 0-1.8-1.6-2.7-3.5-2.7h-1.1v-1.4h1.1c1.4 0 3-.7 3-2.2 0-1.2-.7-2-2.3-2-1.2 0-2.1.5-2.7 1l-.5-1.4c.8-.6 2-1.1 3.6-1.1 2.6 0 3.9 1.5 3.9 3.2 0 1.4-.9 2.5-2.4 3.2 1.6.3 3 1.5 3 3.5 0 2.1-1.6 4.1-4.8 4.1-1.5 0-2.8-.5-3.5-1l.2-1.5zM117.4 79c0 4.5-1.6 7.1-4.6 7.1-2.6 0-4.4-2.4-4.4-6.9 0-4.4 1.9-7 4.6-7 2.9.1 4.4 2.6 4.4 6.8zm-7.2.3c0 3.5 1.2 5.5 2.7 5.5 1.8 0 2.7-2.1 2.7-5.6 0-3.3-.9-5.5-2.7-5.5-1.7 0-2.7 2-2.7 5.6zM122.2 76h2.2l1.8 5c.3.8.7 1.9 1 2.7.2-.8.8-2.3 1.2-3.5l1.5-4.4h2.2l.8 10h-1.7l-.3-4.7c-.1-1.1-.2-2.3-.2-3.6-.3 1-.6 1.6-1.2 3.3l-1.8 5h-1.4l-1.7-4.9c-.3-1-.8-2.4-1.1-3.4h-.1c0 1.3-.1 2.5-.2 3.7l-.2 4.7h-1.6l.8-9.9zM135.4 75.9h2.2l1.8 5c.3.8.7 1.9 1 2.7.2-.8.8-2.3 1.2-3.5l1.5-4.4h2.2l.8 10h-1.7l-.3-4.7c-.1-1.1-.2-2.3-.2-3.6h-.1c-.3 1-.6 1.6-1.2 3.3l-1.8 5h-1.4l-1.7-4.9c-.3-1-.8-2.4-1.1-3.4h-.1c0 1.3-.1 2.5-.2 3.6l-.2 4.7h-1.5l.8-9.8z"/></g><g fill="#020202"><path d="M249.3 54.2V53l1.4-1.4c3.5-3.3 4.9-5 4.9-7 0-1.4-.7-2.6-2.7-2.6-1.3 0-2.2.7-2.8 1.2l-.6-1.4c1-.8 2.2-1.4 3.9-1.4 2.9 0 4.1 1.9 4.1 4 0 2.5-1.7 4.4-4.5 7.2l-1.1 1.1h6.1v1.5h-8.7zM260.3 52c.6.4 1.6.9 3 .9 2.3 0 3.1-1.5 3-2.6 0-1.8-1.6-2.7-3.5-2.7h-1.1v-1.4h1.1c1.4 0 3-.7 3-2.2 0-1.1-.7-2-2.3-2-1.1 0-2.1.5-2.7 1l-.5-1.4c.7-.6 2-1.1 3.6-1.1 2.6 0 3.9 1.5 3.9 3.2 0 1.4-.9 2.5-2.4 3.2 1.6.3 3 1.5 3 3.5 0 2.1-1.6 4.1-4.8 4.1-1.5 0-2.8-.5-3.5-1l.2-1.5zM271.1 44.1h2.2l1.8 5c.3.8.7 1.9 1 2.7.2-.8.8-2.3 1.2-3.5l1.5-4.4h2.2l.8 10h-1.7l-.3-4.7c-.1-1.1-.2-2.3-.2-3.6h-.1c-.3 1-.6 1.6-1.2 3.3l-1.8 5h-1.4l-1.7-4.9c-.3-1-.8-2.4-1.1-3.4h-.1c0 1.3-.1 2.5-.2 3.6l-.3 4.7h-1.6l1-9.8zM284.4 44.1h2.2l1.8 5c.3.8.7 1.9 1 2.7.2-.8.8-2.3 1.3-3.5l1.5-4.4h2.2l.8 10h-1.7l-.3-4.7c-.1-1.1-.2-2.3-.2-3.6h-.1c-.3 1-.6 1.6-1.2 3.3l-1.8 5h-1.4l-1.7-4.9c-.3-1-.8-2.4-1.1-3.4h-.1c0 1.3-.1 2.5-.2 3.6l-.3 4.7h-1.6l.9-9.8z"/></g></svg>