<svg xmlns="http://www.w3.org/2000/svg" width="260" height="136" viewBox="0 0 260 136"><path d="M129.6 129.1l-7.4-2.9-.2.1 2.4 3.9H12.9l2.4-3.9-.2-.1-7.4 2.9c-2.6.6-5.2 1.1-7.7 1.7 2.6.6 5.2 1.1 7.7 1.7l7.4 2.9.2-.1-2.4-3.9h111.5l-2.4 3.9.2.1 7.4-2.9c2.6-.6 5.2-1.1 7.7-1.7-2.6-.5-5.1-1.1-7.7-1.7zM164.3 115.4l-1.9 1.8.9.9 1.9-1.9-.7-.1z"/><path d="M162.4 117.2l1.9-1.9-1.1-4.4h-.2l-3.1 7.3c-1.4 2.2-2.8 4.5-4.3 6.7 2.2-1.4 4.4-2.9 6.7-4.3l7.3-3.2.1-.2-4.5-1.1-1.9 1.9-.9-.8z"/><path d="M253.3 24.4l-7.3 3.2v.2l4.5 1.1-86.1 86.5.2.7.7.2 86.1-86.5 1.1 4.5.2-.1 3.1-7.3c1.4-2.2 2.8-4.5 4.3-6.7-2.3 1.4-4.5 2.8-6.8 4.2zM240.7 16.7c0-.6-.4-1.2-1.1-1.5-.5-.3-1.3-.4-2-.4h-.1c-.1 0-8.8.8-11.5.1-.1 0-.3-.2-.5-.3-.3-.9-.9-2.7-1.3-3.3-.1-.2-.3-.4-.5-.6 0-.1-.1-.2-.2-.3-.1-.1-.2-.1-.3-.2-3-3.2-11.2-5.9-18.5-7.5-11-2.5-17.8-3.4-25.7-2-.1 0-.1 0-.2.1-.7.3-1.1.9-1.4 1.5-.4.7-.7 1.1-1.4 1.2h-.1c-.1 0-.2-.1-.3-.1-.5-.2-.7-.5-1.1-1.1-.3-.6-.7-1.2-1.4-1.5-.1 0-.1 0-.2-.1-7.8-1.3-17.3-.7-28.3 1.8-8.1 1.9-17.4 5.2-19.4 8.7-.4.6-1 2.2-1.2 3.1l-.5.5c-2.7.7-11.4 0-11.5 0h-.1c-1 0-1.8.1-2.4.4-.1 0-.1 0-.2.1-.4.2-.8.5-.9.9L2.3 117c-.7.4-1.2 1-1.2 1.7 0 1.2 1.4 2.2 3.2 2.2h5.1c.3 0 .6-.1.7-.4l1.8-1.7c.9 0 1.9 0 2.6-.1.7-.1 1.3-.1 1.7-.2.3-.1 1.4-.6 1.6-1.3.2-.8.9-2.5 1.2-3.1 2-3.5 17.1-8.8 32.8-10 5.5-.4 10.4-.3 14.4.4.2.1.4.4.6.8.4.8 1.1 1.9 2.8 2h.1c1.7-.1 2.4-1.3 2.8-2 .2-.3.4-.7.6-.8 1.2-.2 2.5-.4 3.9-.5 17.5-1.4 40.7 5.6 43.3 10.1.3.5 1 2.3 1.2 3.1.2.7 1.4 1.3 1.6 1.3 1.5.4 4.3.4 6.8.3l-.7.7c-.3.3-.3.8 0 1.1.1.1.1.1.2.1.2.2.4.2.6.2h5.5c1.4-.1 2.5-.8 2.7-1.7L240.3 17.7c.2-.2.3-.4.2-.7.1 0 .2-.2.2-.3zm-3.1-.5c.9 0 1.5.3 1.5.5v.1l-101 100.8c-.6-.6-1.6-1-2.7-1h-.1-.5c-3.7.3-8 .5-10.3.2L225.3 16.3l.1-.1c.1 0 .2.1.2.1 2.9.7 11.3 0 12-.1zm-115.4 96.9c-.1-.1-.2-.3-.3-.4L222.9 12c.3.6 1 2.3 1.2 3.1 0 .1.1.1.1.2L123.4 115.9c-.4-.9-.9-2.2-1.2-2.8zM9.5 119H4.4c-.7 0-1.1-.2-1.3-.3.2-.1.6-.3 1.3-.3.5 0 2.9.2 5.5.3l-.4.3zm8.1-5.9c-.4.7-1 2.4-1.3 3.3-.1.1-.3.2-.4.2-.3.1-.8.2-1.4.2-2.9.2-8-.1-9.5-.2l105-100c.3-.1.9-.2 1.8-.2.6 0 6.1.5 9.8.3L25.5 108c-4.1 1.7-7 3.5-7.9 5.1zm34.1-10.9c-4.8.4-9.6 1.1-14.5 2.2-2.9.7-5.6 1.4-8.1 2.2L124.4 16c.4-.2.8-.5.9-.9.1-.2.2-.4.2-.6.3-.9.8-2.2 1-2.6 1.4-2.5 9-5.8 18.4-8 9.8-2.3 18.4-3 25.8-2.1L66.3 102.5c-4.1-.6-9.1-.7-14.6-.3zm16.1 1l104.8-101c.2.2.4.5.5.8.3.4.6 1 1.1 1.4L69.4 105.3c-.4-.2-.6-.5-.9-1-.2-.4-.4-.7-.7-1.1zm34.9 1.3c-9-2.1-18.3-2.9-25.6-2.3H77L181 1.9c7.4-1 13.5 0 23.3 2.3 8.1 1.8 14.8 4.4 17.5 6.7l-101 100.8c-2.9-2.6-9.6-5.3-18.1-7.2zm32.7 14.6h-3.3l.5-.4c1.5-.1 2.6-.2 2.8-.2.7 0 1.1.2 1.3.3-.2.1-.6.3-1.3.3z"/><g><path d="M52.4 125.4H51v-5.8-1.7l-.3.3c-.1.1-.6.5-1.4 1.1l-.7-.9 2.6-2.1h1.2v9.1zM61.1 118.4c0 .6-.2 1-.5 1.4-.3.4-.8.6-1.4.8.7.1 1.3.3 1.6.7.4.4.5.8.5 1.4 0 .9-.3 1.5-.9 2-.6.5-1.5.7-2.6.7-1 0-1.8-.2-2.5-.5v-1.3c.4.2.8.3 1.2.4s.8.2 1.2.2c.7 0 1.2-.1 1.6-.4s.5-.7.5-1.2-.2-.8-.6-1.1c-.4-.2-1-.3-1.8-.3h-.8V120h.8c1.4 0 2.2-.5 2.2-1.5 0-.4-.1-.7-.4-.9-.3-.2-.6-.3-1.1-.3-.3 0-.7 0-1 .1-.3.1-.7.3-1.1.6l-.7-1c.8-.6 1.8-.9 2.9-.9.9 0 1.6.2 2.1.6s.8 1 .8 1.7zM68.7 120.9c0 1.6-.3 2.7-.8 3.5-.5.8-1.3 1.1-2.3 1.1-1 0-1.8-.4-2.3-1.2-.5-.8-.8-1.9-.8-3.4 0-1.6.3-2.8.8-3.5.5-.8 1.3-1.1 2.3-1.1 1 0 1.8.4 2.3 1.2.5.7.8 1.8.8 3.4zm-4.7 0c0 1.2.1 2.1.4 2.6s.7.8 1.2.8 1-.3 1.2-.8c.3-.5.4-1.4.4-2.6 0-1.2-.1-2.1-.4-2.6-.3-.5-.7-.8-1.2-.8s-1 .3-1.2.8c-.2.4-.4 1.3-.4 2.6zM75.4 124l.1-.3c.2-.6.3-1.1.4-1.4l1.5-3.7h1.9v6.8H78v-5.5l-.1.4c-.2.7-.3 1.1-.5 1.5l-1.5 3.7h-1.1l-1.5-3.7c-.2-.5-.4-1.1-.6-1.8v5.5h-1.3v-6.8h1.9l1.5 3.6c.2.2.4.8.6 1.7zM85.4 124l.1-.3c.2-.6.3-1.1.4-1.4l1.5-3.7h1.9v6.8H88v-5.5l-.1.4c-.2.7-.3 1.1-.5 1.5l-1.5 3.7h-1.1l-1.5-3.7c-.2-.5-.4-1.1-.6-1.8v5.5h-1.3v-6.8h1.9l1.5 3.6c.2.2.4.8.6 1.7z"/></g><g><path d="M213.4 86.9H212v-5.8c0-.7 0-1.2.1-1.7l-.3.3c-.1.1-.6.5-1.4 1.1l-.7-.9 2.6-2.1h1.2v9.1zM216.6 86.2c0-.3.1-.5.2-.7.2-.2.4-.2.7-.2.3 0 .5.1.7.3s.2.4.2.7c0 .3-.1.5-.2.7-.2.2-.4.3-.7.3-.3 0-.5-.1-.7-.3s-.2-.5-.2-.8zM222.8 81.3c.9 0 1.6.2 2.2.7s.8 1.1.8 2c0 1-.3 1.7-.9 2.3-.6.5-1.5.8-2.6.8-1 0-1.8-.2-2.4-.5v-1.3c.3.2.7.3 1.1.4.4.1.8.2 1.2.2.7 0 1.2-.1 1.5-.4.3-.3.5-.7.5-1.3 0-1.1-.7-1.6-2.1-1.6-.2 0-.4 0-.7.1s-.5.1-.7.1l-.6-.4.3-4.4h4.7v1.3h-3.4l-.2 2.2c.1 0 .3-.1.5-.1.3-.1.5-.1.8-.1zM232.4 85.6l.1-.3c.2-.6.3-1.1.4-1.4l1.5-3.7h1.9V87H235v-5.5l-.1.4c-.2.7-.3 1.1-.5 1.5l-1.5 3.7h-1.1l-1.5-3.7c-.2-.5-.4-1.1-.6-1.8v5.5h-1.3v-6.8h1.9l1.5 3.6c.2.2.4.8.6 1.7z"/></g></svg>