<?xml version="1.0" encoding="utf-8"?>
<!-- Generator: Adobe Illustrator 16.2.0, SVG Export Plug-In . SVG Version: 6.00 Build 0)  -->
<!DOCTYPE svg PUBLIC "-//W3C//DTD SVG 1.1//EN" "http://www.w3.org/Graphics/SVG/1.1/DTD/svg11.dtd">
<svg version="1.1" id="Layer_1" xmlns="http://www.w3.org/2000/svg" xmlns:xlink="http://www.w3.org/1999/xlink" x="0px" y="0px"
	 width="260px" height="136px" viewBox="0 0 260 136" enable-background="new 0 0 260 136" xml:space="preserve">
<g>
	<path d="M129.6,129.1l-7.4-2.9l-0.2,0.1l2.4,3.9H12.9l2.4-3.9l-0.2-0.1l-7.4,2.9c-2.6,0.6-5.2,1.1-7.7,1.7c2.6,0.6,5.2,1.1,7.7,1.7
		l7.4,2.9l0.2-0.1l-2.4-3.9h111.5l-2.4,3.9l0.2,0.1l7.4-2.9c2.6-0.6,5.2-1.1,7.7-1.7C134.7,130.3,132.2,129.7,129.6,129.1z"/>
	<g>
		<polygon points="164.3,115.4 162.4,117.2 163.3,118.1 165.2,116.2 164.5,116.1 		"/>
		<g>
			<path d="M162.4,117.2l1.9-1.9l-1.1-4.4l-0.2,0l-3.1,7.3c-1.4,2.2-2.8,4.5-4.3,6.7c2.2-1.4,4.4-2.9,6.7-4.3l7.3-3.2l0.1-0.2
				l-4.5-1.1l-1.9,1.9L162.4,117.2z"/>
			<path d="M253.3,24.4l-7.3,3.2l0,0.2l4.5,1.1l-86.1,86.5l0.2,0.7l0.7,0.2l86.1-86.5l1.1,4.5l0.2-0.1l3.1-7.3
				c1.4-2.2,2.8-4.5,4.3-6.7C257.8,21.6,255.6,23,253.3,24.4z"/>
		</g>
	</g>
	<path d="M240.7,16.7c0-0.6-0.4-1.2-1.1-1.5c-0.5-0.3-1.3-0.4-2-0.4c0,0,0,0-0.1,0c-0.1,0-8.8,0.8-11.5,0.1c-0.1,0-0.3-0.2-0.5-0.3
		c-0.3-0.9-0.9-2.7-1.3-3.3c-0.1-0.2-0.3-0.4-0.5-0.6c0-0.1-0.1-0.2-0.2-0.3c-0.1-0.1-0.2-0.1-0.3-0.2C220.2,7,212,4.3,204.7,2.7
		c-11-2.5-17.8-3.4-25.7-2c-0.1,0-0.1,0-0.2,0.1c-0.7,0.3-1.1,0.9-1.4,1.5C177,3,176.7,3.4,176,3.5c0,0,0,0-0.1,0
		c-0.1,0-0.2-0.1-0.3-0.1c-0.5-0.2-0.7-0.5-1.1-1.1c-0.3-0.6-0.7-1.2-1.4-1.5c-0.1,0-0.1,0-0.2-0.1c-7.8-1.3-17.3-0.7-28.3,1.8
		c-8.1,1.9-17.4,5.2-19.4,8.7c-0.4,0.6-1,2.2-1.2,3.1l-0.5,0.5c0,0,0,0,0,0c-2.7,0.7-11.4,0-11.5,0c0,0,0,0-0.1,0
		c-1,0-1.8,0.1-2.4,0.4c-0.1,0-0.1,0-0.2,0.1c-0.4,0.2-0.8,0.5-0.9,0.9c0,0,0,0,0,0L2.3,117c-0.7,0.4-1.2,1-1.2,1.7
		c0,1.2,1.4,2.2,3.2,2.2h5.1c0.3,0,0.6-0.1,0.7-0.4l1.8-1.7c0.9,0,1.9,0,2.6-0.1c0.7-0.1,1.3-0.1,1.7-0.2c0.3-0.1,1.4-0.6,1.6-1.3
		c0.2-0.8,0.9-2.5,1.2-3.1c2-3.5,17.1-8.8,32.8-10c5.5-0.4,10.4-0.3,14.4,0.4c0.2,0.1,0.4,0.4,0.6,0.8c0.4,0.8,1.1,1.9,2.8,2l0,0
		l0,0c0,0,0,0,0,0h0c0,0,0,0,0.1,0l0,0c1.7-0.1,2.4-1.3,2.8-2c0.2-0.3,0.4-0.7,0.6-0.8c1.2-0.2,2.5-0.4,3.9-0.5
		c17.5-1.4,40.7,5.6,43.3,10.1c0.3,0.5,1,2.3,1.2,3.1c0.2,0.7,1.4,1.3,1.6,1.3c1.5,0.4,4.3,0.4,6.8,0.3l-0.7,0.7
		c-0.3,0.3-0.3,0.8,0,1.1c0.1,0.1,0.1,0.1,0.2,0.1c0.2,0.2,0.4,0.2,0.6,0.2l5.1,0c0.1,0,0.3,0,0.4,0c0,0,0,0,0,0
		c1.4-0.1,2.5-0.8,2.7-1.7c0,0,0,0,0,0L240.3,17.7c0.2-0.2,0.3-0.4,0.2-0.7C240.6,17,240.7,16.8,240.7,16.7z M237.6,16.2
		c0.9,0,1.5,0.3,1.5,0.5c0,0,0,0,0,0.1l-101,100.8c-0.6-0.6-1.6-1-2.7-1c0,0,0,0-0.1,0c0,0-0.2,0-0.5,0c-3.7,0.3-8,0.5-10.3,0.2
		L225.3,16.3c0,0,0.1-0.1,0.1-0.1c0.1,0,0.2,0.1,0.2,0.1C228.5,17,236.9,16.3,237.6,16.2z M122.2,113.1c-0.1-0.1-0.2-0.3-0.3-0.4
		L222.9,12c0.3,0.6,1,2.3,1.2,3.1c0,0.1,0.1,0.1,0.1,0.2L123.4,115.9C123,115,122.5,113.7,122.2,113.1z M9.5,119
		C9.5,119,9.5,119,9.5,119l-5.1,0c-0.7,0-1.1-0.2-1.3-0.3c0.2-0.1,0.6-0.3,1.3-0.3c0.5,0,2.9,0.2,5.5,0.3L9.5,119z M17.6,113.1
		c-0.4,0.7-1,2.4-1.3,3.3c-0.1,0.1-0.3,0.2-0.4,0.2c-0.3,0.1-0.8,0.2-1.4,0.2c-2.9,0.2-8-0.1-9.5-0.2L110,16.6
		c0.3-0.1,0.9-0.2,1.8-0.2c0.6,0,6.1,0.5,9.8,0.3L25.5,108C21.4,109.7,18.5,111.5,17.6,113.1z M51.7,102.2
		c-4.8,0.4-9.6,1.1-14.5,2.2c-2.9,0.7-5.6,1.4-8.1,2.2l95.3-90.6c0.4-0.2,0.8-0.5,0.9-0.9c0.1-0.2,0.2-0.4,0.2-0.6
		c0.3-0.9,0.8-2.2,1-2.6c1.4-2.5,9-5.8,18.4-8c9.8-2.3,18.4-3,25.8-2.1L66.3,102.5C62.2,101.9,57.2,101.8,51.7,102.2z M67.8,103.2
		l104.8-101c0.2,0.2,0.4,0.5,0.5,0.8c0.3,0.4,0.6,1,1.1,1.4L69.4,105.3c-0.4-0.2-0.6-0.5-0.9-1C68.3,103.9,68.1,103.6,67.8,103.2z
		 M102.7,104.5c-9-2.1-18.3-2.9-25.6-2.3c0,0-0.1,0-0.1,0L181,1.9c7.4-1,13.5,0,23.3,2.3c8.1,1.8,14.8,4.4,17.5,6.7l-101,100.8
		C117.9,109.1,111.2,106.4,102.7,104.5z M135.4,119.1l-3.3,0l0.5-0.4c1.5-0.1,2.6-0.2,2.8-0.2c0.7,0,1.1,0.2,1.3,0.3
		C136.5,118.9,136.1,119.1,135.4,119.1z"/>
	<g>
		<path d="M52.4,125.4H51v-5.8c0-0.7,0-1.2,0-1.7c-0.1,0.1-0.2,0.2-0.3,0.3c-0.1,0.1-0.6,0.5-1.4,1.1l-0.7-0.9l2.6-2.1h1.2V125.4z"
			/>
		<path d="M61.1,118.4c0,0.6-0.2,1-0.5,1.4c-0.3,0.4-0.8,0.6-1.4,0.8v0c0.7,0.1,1.3,0.3,1.6,0.7c0.4,0.4,0.5,0.8,0.5,1.4
			c0,0.9-0.3,1.5-0.9,2c-0.6,0.5-1.5,0.7-2.6,0.7c-1,0-1.8-0.2-2.5-0.5v-1.3c0.4,0.2,0.8,0.3,1.2,0.4s0.8,0.2,1.2,0.2
			c0.7,0,1.2-0.1,1.6-0.4s0.5-0.7,0.5-1.2c0-0.5-0.2-0.8-0.6-1.1c-0.4-0.2-1-0.3-1.8-0.3h-0.8v-1.2h0.8c1.4,0,2.2-0.5,2.2-1.5
			c0-0.4-0.1-0.7-0.4-0.9c-0.3-0.2-0.6-0.3-1.1-0.3c-0.3,0-0.7,0-1,0.1c-0.3,0.1-0.7,0.3-1.1,0.6l-0.7-1c0.8-0.6,1.8-0.9,2.9-0.9
			c0.9,0,1.6,0.2,2.1,0.6S61.1,117.7,61.1,118.4z"/>
		<path d="M68.7,120.9c0,1.6-0.3,2.7-0.8,3.5c-0.5,0.8-1.3,1.1-2.3,1.1c-1,0-1.8-0.4-2.3-1.2c-0.5-0.8-0.8-1.9-0.8-3.4
			c0-1.6,0.3-2.8,0.8-3.5c0.5-0.8,1.3-1.1,2.3-1.1c1,0,1.8,0.4,2.3,1.2C68.4,118.2,68.7,119.3,68.7,120.9z M64,120.9
			c0,1.2,0.1,2.1,0.4,2.6s0.7,0.8,1.2,0.8s1-0.3,1.2-0.8c0.3-0.5,0.4-1.4,0.4-2.6c0-1.2-0.1-2.1-0.4-2.6c-0.3-0.5-0.7-0.8-1.2-0.8
			s-1,0.3-1.2,0.8C64.2,118.7,64,119.6,64,120.9z"/>
		<path d="M75.4,124l0.1-0.3c0.2-0.6,0.3-1.1,0.4-1.4l1.5-3.7h1.9v6.8h-1.3v-5.5l-0.1,0.4c-0.2,0.7-0.3,1.1-0.5,1.5l-1.5,3.7h-1.1
			l-1.5-3.7c-0.2-0.5-0.4-1.1-0.6-1.8v5.5h-1.3v-6.8h1.9l1.5,3.6C75,122.5,75.2,123.1,75.4,124z"/>
		<path d="M85.4,124l0.1-0.3c0.2-0.6,0.3-1.1,0.4-1.4l1.5-3.7h1.9v6.8H88v-5.5l-0.1,0.4c-0.2,0.7-0.3,1.1-0.5,1.5l-1.5,3.7h-1.1
			l-1.5-3.7c-0.2-0.5-0.4-1.1-0.6-1.8v5.5h-1.3v-6.8h1.9l1.5,3.6C85,122.5,85.2,123.1,85.4,124z"/>
	</g>
	<g>
		<path d="M213.4,86.9h-1.4v-5.8c0-0.7,0-1.2,0.1-1.7c-0.1,0.1-0.2,0.2-0.3,0.3c-0.1,0.1-0.6,0.5-1.4,1.1l-0.7-0.9l2.6-2.1h1.2V86.9
			z"/>
		<path d="M216.6,86.2c0-0.3,0.1-0.5,0.2-0.7c0.2-0.2,0.4-0.2,0.7-0.2c0.3,0,0.5,0.1,0.7,0.3s0.2,0.4,0.2,0.7c0,0.3-0.1,0.5-0.2,0.7
			c-0.2,0.2-0.4,0.3-0.7,0.3c-0.3,0-0.5-0.1-0.7-0.3S216.6,86.5,216.6,86.2z"/>
		<path d="M222.8,81.3c0.9,0,1.6,0.2,2.2,0.7s0.8,1.1,0.8,2c0,1-0.3,1.7-0.9,2.3c-0.6,0.5-1.5,0.8-2.6,0.8c-1,0-1.8-0.2-2.4-0.5
			v-1.3c0.3,0.2,0.7,0.3,1.1,0.4c0.4,0.1,0.8,0.2,1.2,0.2c0.7,0,1.2-0.1,1.5-0.4c0.3-0.3,0.5-0.7,0.5-1.3c0-1.1-0.7-1.6-2.1-1.6
			c-0.2,0-0.4,0-0.7,0.1s-0.5,0.1-0.7,0.1l-0.6-0.4l0.3-4.4h4.7v1.3h-3.4l-0.2,2.2c0.1,0,0.3-0.1,0.5-0.1
			C222.3,81.3,222.5,81.3,222.8,81.3z"/>
		<path d="M232.4,85.6l0.1-0.3c0.2-0.6,0.3-1.1,0.4-1.4l1.5-3.7h1.9v6.8H235v-5.5l-0.1,0.4c-0.2,0.7-0.3,1.1-0.5,1.5l-1.5,3.7h-1.1
			l-1.5-3.7c-0.2-0.5-0.4-1.1-0.6-1.8v5.5h-1.3v-6.8h1.9l1.5,3.6C232,84.1,232.2,84.7,232.4,85.6z"/>
	</g>
</g>
</svg>
