<svg xmlns="http://www.w3.org/2000/svg" width="280" height="195" viewBox="0 0 280 195"><path fill="#FFF" d="M6.1 79.3h256.7v8.8H6.1z"/><path fill="#211F1F" d="M262.8 88.5H6.1c-.2 0-.3-.1-.3-.3v-8.8c.1-.2.2-.4.3-.4h256.7c.1 0 .2 0 .2.1s.1.1.1.2v8.8c0 .2-.1.4-.3.4zM6.4 87.9h256.1v-8.3H6.4v8.3z"/><g fill="#211F1F"><path d="M6.1 81.2h256.7v1.3H6.1zM6.1 85h256.7v1.3H6.1z"/></g><path fill="#FFF" d="M6.1 163.3h256.7v8.8H6.1z"/><path fill="#211F1F" d="M6.1 172.5c-.1 0-.2 0-.2-.1s-.1-.1-.1-.2v-8.8c0-.2.1-.3.3-.3h256.7c.2 0 .3.1.3.3v8.8c0 .2-.1.3-.3.3H6.1zm.3-8.9v8.3h256.1v-8.3H6.4z"/><g fill="#211F1F"><path d="M6.1 165.2h256.7v1.3H6.1zM6.1 169h256.7v1.3H6.1z"/></g><path fill="#FFF" d="M121.8 22.7c0-.1-.1-.1-.1-.1-1.7-1.8-5-3.4-7.3-2.4-.2.2-.2.5-.6.6-.4 0-.3-.3-.6-.6-2.3-1-5.7.7-7.4 2.6h-1.3v171H123v-171h-1.2z"/><path fill="#211F1F" d="M123.2 194h-18.5c-.2 0-.3-.1-.3-.3v-171c0-.2.1-.3.3-.3h1.2c1.3-1.4 3.8-2.9 6-2.9.6 0 1.1.1 1.6.3 0 0 .1 0 .1.1.1.1.1.2.2.3.1.1.1.2.1.2.1 0 .1-.1.1-.2s.1-.2.2-.3l.1-.1c.5-.2 1-.3 1.6-.3 2.3 0 4.7 1.5 6 2.8l.1.1h1.2c.2 0 .3.1.3.3v171c0 .2-.2.3-.3.3zm-18.3-.6h17.9V23h-1.1c-.1 0-.2 0-.2-.1 0 0 0-.1-.1-.1-1.2-1.3-3.5-2.6-5.5-2.6-.5 0-.9.1-1.3.2l-.1.1c-.1.2-.2.4-.6.5h-.1c-.4-.1-.5-.3-.6-.5l-.1-.1c-.4-.2-.8-.2-1.3-.2-2.1 0-4.4 1.4-5.6 2.7-.1.1-.2.1-.2.1h-1v170.4z"/><g fill="none" stroke="#211F1F" stroke-width=".992" stroke-miterlimit="10"><path d="M113.3 20.2v173.5M114.6 20.2v173.5"/></g><g fill="none" stroke="#211F1F" stroke-width=".992" stroke-miterlimit="10"><path d="M106 22.7v171M121.9 22.7v171"/></g><path fill="#FFF" d="M147.9 18.5c0-.1-.1-.1-.1-.2-1.7-1.9-5-3.5-7.3-2.5-.2.2-.2.5-.6.6-.4 0-.3-.3-.6-.6-2.3-1-5.7.7-7.4 2.7h-1.3v175.2h18.5V18.5h-1.2z"/><path fill="#211F1F" d="M149.3 194h-18.5c-.2 0-.3-.1-.3-.3V18.5c0-.2.1-.3.3-.3h1.2c1.3-1.5 3.8-3 6-3 .6 0 1.1.1 1.6.3 0 0 .1 0 .1.1.1.1.2.2.2.3.1.1.1.2.1.2.1 0 .1-.1.1-.2s.1-.2.2-.3l.1-.1c.5-.2 1-.3 1.6-.3 2.3 0 4.7 1.5 6 2.9v.1h1.3c.2 0 .3.1.3.3v175.2c0 .2-.2.3-.3.3zm-18.3-.6h18V18.8h-1.1c-.1 0-.2 0-.2-.1 0 0 0-.1-.1-.1-1.2-1.3-3.5-2.7-5.5-2.7-.5 0-.9.1-1.3.2l-.1.1c-.1.2-.2.4-.6.5h-.1c-.4-.1-.5-.3-.6-.5 0-.1-.1-.1-.1-.1-.4-.2-.8-.2-1.3-.2-2.1 0-4.4 1.4-5.6 2.8-.1.1-.1.1-.2.1h-1v174.6z"/><g fill="none" stroke="#211F1F" stroke-width=".992" stroke-miterlimit="10"><path d="M139.4 15.9v177.8M140.6 15.9v177.8"/></g><g fill="none" stroke="#211F1F" stroke-width=".992" stroke-miterlimit="10"><path d="M132.1 18.5v175.2M147.9 18.5v175.2"/></g><g><path fill="#FFF" d="M174 22.7c0-.1-.1-.1-.1-.1-1.7-1.8-5-3.4-7.3-2.4-.2.2-.2.5-.6.6-.4 0-.3-.3-.6-.6-2.3-1-5.7.7-7.4 2.6h-1.3v171h18.5v-171H174z"/><path fill="#211F1F" d="M156.8 194c-.1 0-.2 0-.2-.1-.1-.1-.1-.1-.1-.2v-171c0-.2.1-.3.3-.3h1.2c1.4-1.5 3.8-2.9 6-2.9.6 0 1.1.1 1.6.3 0 0 .1 0 .1.1.1.1.2.2.2.3.1.1.1.2.1.2.1 0 .1-.1.1-.2s.1-.2.2-.3l.1-.1c.5-.2 1-.3 1.6-.3 2.3 0 4.7 1.5 6 2.8l.1.1h1.2c.2 0 .3.1.3.3v171c0 .2-.1.3-.3.3h-18.5zm.3-171v170.4H175V23h-1c-.1 0-.2 0-.2-.1v-.1c-1.2-1.3-3.5-2.6-5.5-2.6-.5 0-.9.1-1.3.2l-.1.1c-.1.2-.2.4-.6.5h-.1c-.4-.1-.5-.3-.6-.5l-.1-.1c-.4-.2-.8-.2-1.3-.2-2.1 0-4.4 1.4-5.7 2.8-.1.1-.1.1-.2.1h-1.2z"/><g fill="none" stroke="#211F1F" stroke-width=".992" stroke-miterlimit="10"><path d="M165.4 20.2v173.5M166.7 20.2v173.5"/></g><g fill="none" stroke="#211F1F" stroke-width=".992" stroke-miterlimit="10"><path d="M158.1 22.7v171M174 22.7v171"/></g></g><g><path fill="#FFF" d="M200.1 28.6c0-.1-.1-.1-.1-.1-1.7-1.8-5-3.3-7.3-2.3-.2.2-.2.5-.6.5-.4 0-.3-.3-.6-.5-2.3-.9-5.7.7-7.4 2.5h-1.3v165.1h18.5V28.6h-1.2z"/><path fill="#211F1F" d="M201.4 194h-18.5c-.2 0-.3-.1-.3-.3V28.6c0-.2.1-.3.3-.3h1.2c1.3-1.4 3.8-2.8 6-2.8.6 0 1.1.1 1.6.3 0 0 .1 0 .1.1.1.1.2.2.2.3.1.1.1.1.1.2.1 0 .1 0 .2-.2 0-.1.1-.2.2-.3l.1-.1c.5-.2 1-.3 1.6-.3 2.3 0 4.7 1.4 6 2.7v.1h1.3c.2 0 .3.1.3.3v165.1c-.1.2-.2.3-.4.3zm-18.2-.6h17.9V28.9H200c-.1 0-.2 0-.2-.1v-.1c-1.2-1.3-3.5-2.5-5.5-2.5-.5 0-.9.1-1.3.2l-.1.1c-.1.2-.2.4-.6.5h-.1c-.4 0-.5-.3-.6-.5l-.1-.1c-.4-.2-.8-.2-1.3-.2-2.1 0-4.4 1.3-5.6 2.6-.1.1-.1.1-.2.1h-1v164.5z"/><g fill="none" stroke="#211F1F" stroke-width=".992" stroke-miterlimit="10"><path d="M191.5 26.2v167.5M192.8 26.2v167.5"/></g><g fill="none" stroke="#211F1F" stroke-width=".992" stroke-miterlimit="10"><path d="M184.2 28.6v165.1M200.1 28.6v165.1"/></g></g><g><path fill="#FFF" d="M226.2 32.9s0-.1 0 0c0-.1-.1-.1-.1-.1-1.7-1.7-5-3.1-7.3-2.3-.2.2-.2.5-.6.5-.4 0-.3-.3-.6-.5-2.3-.9-5.7.6-7.4 2.4H209v160.8h18.5V32.9h-1.3z"/><path fill="#211F1F" d="M227.5 194H209c-.2 0-.3-.1-.3-.3V32.9c0-.2.1-.3.3-.3h1.2c1.3-1.3 3.8-2.7 6-2.7.6 0 1.1.1 1.6.3 0 0 .1 0 .1.1.1.1.2.2.2.3.1.1.1.1.1.2.1 0 .1 0 .2-.2 0-.1.1-.2.2-.3l.1-.1c.5-.2 1-.3 1.6-.3 2.3 0 4.7 1.4 5.9 2.6l.1.1h1.2c.2 0 .3.1.3.3v160.8c0 .2-.1.3-.3.3zm-18.2-.6h17.9V33.2h-1.1c-.1 0-.2 0-.2-.1V33c-1.2-1.2-3.5-2.4-5.5-2.4-.5 0-.9.1-1.3.2l-.1.1c-.1.2-.2.4-.6.4h-.1c-.4 0-.5-.3-.6-.4l-.1-.1c-.4-.1-.8-.2-1.3-.2-2.1 0-4.4 1.3-5.6 2.5-.1.1-.1.1-.2.1h-1v160.2z"/><g fill="none" stroke="#211F1F" stroke-width=".992" stroke-miterlimit="10"><path d="M217.6 30.5v163.2M218.9 30.5v163.2"/></g><g fill="none" stroke="#211F1F" stroke-width=".992" stroke-miterlimit="10"><path d="M210.3 32.9v160.8M226.2 32.9v160.8"/></g></g><g><path fill="#FFF" d="M252.3 38.8s0-.1 0 0c0-.1-.1-.1-.1-.1-1.7-1.6-5-3-7.3-2.2-.2.2-.2.5-.6.5-.4 0-.3-.3-.6-.5-2.3-.9-5.7.6-7.4 2.3H235v154.9h18.5V38.8h-1.2z"/><path fill="#211F1F" d="M253.6 194h-18.5c-.2 0-.3-.1-.3-.3V38.8c0-.2.1-.3.3-.3h1.2c1.3-1.3 3.8-2.6 6-2.6.6 0 1.1.1 1.6.3 0 0 .1 0 .1.1.1.1.2.2.2.3l.1.1c.1 0 .1 0 .2-.2 0-.1.1-.2.2-.3l.1-.1c.5-.2 1-.3 1.6-.3 2.3 0 4.7 1.3 5.9 2.5l.1.1h1.2c.2 0 .3.1.3.3v154.9c0 .3-.1.4-.3.4zm-18.2-.6h17.9V39.1h-1.1c-.1 0-.2 0-.2-.1v-.1c-1.2-1.2-3.5-2.3-5.5-2.3-.5 0-.9.1-1.3.2l-.1.1c-.1.2-.2.4-.6.4h-.1c-.4-.1-.5-.3-.6-.4l-.1-.1c-.4-.1-.9-.2-1.3-.2-2.1 0-4.4 1.2-5.7 2.5-.1.1-.1.1-.2.1h-1v154.2z"/><g fill="none" stroke="#211F1F" stroke-width=".992" stroke-miterlimit="10"><path d="M243.7 36.5v157.2M245 36.5v157.2"/></g><g fill="none" stroke="#211F1F" stroke-width=".992" stroke-miterlimit="10"><path d="M236.4 38.8v154.9M252.3 38.8v154.9"/></g></g><g><path fill="#FFF" d="M278.4 46.3c0-.1-.1-.1-.1-.1-1.7-1.6-5-2.9-7.3-2.1-.2.2-.2.4-.6.5-.4 0-.3-.3-.6-.5-2.3-.8-5.7.6-7.4 2.2h-1.3v147.4h18.5V46.3h-1.2z"/><path fill="#211F1F" d="M279.7 194h-18.5c-.2 0-.3-.1-.3-.3V46.3c0-.2.1-.3.3-.3h1.2c1.3-1.2 3.8-2.5 6-2.5.6 0 1.1.1 1.6.3 0 0 .1 0 .1.1.1.1.2.2.2.3.1.1.1.1.2.1l.1-.2c0-.1.1-.2.2-.3l.1-.1c.5-.2 1-.3 1.6-.3 2.3 0 4.7 1.3 5.9 2.4h1.3c.2 0 .3.1.3.3v147.4c0 .4-.1.5-.3.5zm-18.2-.6h17.9V46.6h-1.1c-.1 0-.2 0-.2-.1v-.1c-1.2-1.1-3.5-2.3-5.6-2.3-.5 0-1 .1-1.4.2l-.1.1c-.1.2-.2.4-.6.4-.5 0-.6-.3-.7-.4 0 0 0-.1-.1-.1-.4-.1-.9-.2-1.4-.2-2.1 0-4.4 1.2-5.6 2.4-.1.1-.1.1-.2.1h-1v146.8z"/><g fill="none" stroke="#211F1F" stroke-width=".992" stroke-miterlimit="10"><path d="M269.8 44.1v149.6M271.1 44.1v149.6"/></g><g fill="none" stroke="#211F1F" stroke-width=".992" stroke-miterlimit="10"><path d="M262.5 46.3v147.4M278.4 46.3v147.4"/></g></g><g><path fill="#FFF" d="M95.7 28.6c0-.1-.1-.1-.1-.1-1.7-1.8-5-3.3-7.3-2.3-.2.2-.2.5-.6.5-.4 0-.3-.3-.6-.5-2.3-.9-5.7.7-7.4 2.5h-1.3v165.1h18.5V28.6h-1.2z"/><path fill="#211F1F" d="M97.1 194H78.6c-.2 0-.3-.1-.3-.3V28.6c0-.2.1-.3.3-.3h1.2c1.3-1.4 3.8-2.8 6-2.8.6 0 1.1.1 1.6.3 0 0 .1 0 .1.1.1.1.2.2.2.3.1.1.1.1.1.2.1 0 .1 0 .2-.2 0-.1.1-.2.2-.3l.1-.1c.5-.2 1-.3 1.6-.3 2.3 0 4.7 1.4 6 2.7l.1.1h1.2c.2 0 .3.1.3.3v165.1c-.1.2-.3.3-.4.3zm-18.2-.6h17.9V28.9h-1.1c-.1 0-.2 0-.2-.1v-.1c-1.2-1.3-3.5-2.5-5.5-2.5-.5 0-.9.1-1.3.2l-.1.1c-.1.2-.2.4-.6.5h-.1c-.4-.1-.5-.3-.6-.5l-.1-.1c-.4-.2-.8-.2-1.3-.2-2.1 0-4.4 1.3-5.7 2.7-.1.1-.1.1-.2.1h-1v164.4z"/><g fill="none" stroke="#211F1F" stroke-width=".992" stroke-miterlimit="10"><path d="M87.2 26.2v167.5M88.5 26.2v167.5"/></g><g fill="none" stroke="#211F1F" stroke-width=".992" stroke-miterlimit="10"><path d="M79.9 28.6v165.1M95.8 28.6v165.1"/></g></g><g><path fill="#FFF" d="M69.6 32.9s0-.1 0 0c0-.1-.1-.1-.1-.1-1.7-1.7-5-3.1-7.3-2.3-.2.2-.2.5-.6.5-.4 0-.3-.3-.6-.5-2.3-.9-5.7.6-7.4 2.4h-1.3v160.8H71V32.9h-1.4z"/><path fill="#211F1F" d="M71 194H52.5c-.2 0-.3-.1-.3-.3V32.9c0-.2.1-.3.3-.3h1.2c1.3-1.3 3.8-2.7 6-2.7.6 0 1.1.1 1.6.3 0 0 .1 0 .1.1.1.1.2.2.2.3l.1.1c.1 0 .1 0 .2-.2 0-.1.1-.2.2-.3l.1-.1c.5-.2 1-.3 1.6-.3 2.3 0 4.7 1.4 5.9 2.6l.1.1H71c.2 0 .3.1.3.3v160.8c0 .3-.1.4-.3.4zm-18.2-.6h17.9V33.2h-1.1c-.1 0-.2 0-.2-.1 0 0 0-.1-.1-.1-1.2-1.2-3.5-2.4-5.5-2.4-.5 0-.9.1-1.3.2l-.1.1c-.1.2-.2.4-.6.4h-.1c-.4 0-.5-.3-.6-.4l-.1-.1c-.4-.1-.9-.2-1.3-.2-2.1 0-4.4 1.3-5.7 2.6-.1.1-.1.1-.2.1h-1v160.1z"/><g fill="none" stroke="#211F1F" stroke-width=".992" stroke-miterlimit="10"><path d="M61.1 30.5v163.2M62.4 30.5v163.2"/></g><g fill="none" stroke="#211F1F" stroke-width=".992" stroke-miterlimit="10"><path d="M53.8 32.9v160.8M69.7 32.9v160.8"/></g></g><g><path fill="#FFF" d="M43.5 38.8c.1 0 .1-.1 0 0 0-.1-.1-.1-.1-.1-1.7-1.6-5-3-7.3-2.2-.1.2-.1.4-.5.5-.4 0-.3-.3-.6-.5-2.3-.9-5.7.6-7.4 2.3h-1.3v154.9h18.5V38.8h-1.3z"/><path fill="#211F1F" d="M44.9 194H26.4c-.2 0-.3-.1-.3-.3V38.8c0-.2.1-.3.3-.3h1.2c1.3-1.3 3.8-2.6 6-2.6.6 0 1.1.1 1.6.3 0 0 .1 0 .1.1.1.1.2.2.2.3l.1.1c.1 0 .1 0 .2-.2 0-.1.1-.2.2-.3l.1-.1c.5-.2 1-.3 1.6-.3 2.3 0 4.7 1.3 5.9 2.5l.1.1h1.2c.2 0 .3.1.3.3v154.9c0 .3-.1.4-.3.4zm-18.2-.6h17.9V39.1h-1.1c-.1 0-.2 0-.2-.1v-.1c-1.2-1.2-3.5-2.4-5.6-2.4-.5 0-.9.1-1.3.2l-.1.1c-.1.2-.2.4-.6.4h-.1c-.4-.1-.5-.3-.6-.4l-.1-.1c-.4-.1-.9-.2-1.3-.2-2.1 0-4.4 1.2-5.7 2.5-.1.1-.1.1-.2.1h-1v154.3z"/><g fill="none" stroke="#211F1F" stroke-width=".992" stroke-miterlimit="10"><path d="M35 36.5v157.2M36.3 36.5v157.2"/></g><g fill="none" stroke="#211F1F" stroke-width=".992" stroke-miterlimit="10"><path d="M27.7 38.8v154.9M43.6 38.8v154.9"/></g></g><g><path fill="#FFF" d="M17.5 46.3c0-.1-.1-.1-.1-.1-1.7-1.6-5-2.9-7.3-2.1-.2.2-.2.4-.6.5-.4 0-.3-.3-.6-.5-2.3-.8-5.7.6-7.4 2.2H.3v147.4h18.5V46.3h-1.3z"/><path fill="#211F1F" d="M18.8 194H.3c-.2 0-.3-.1-.3-.3V46.3c0-.1.1-.3.3-.3h1.2c1.3-1.2 3.8-2.5 6-2.5.6 0 1.1.1 1.6.3 0 0 .1 0 .1.1.1.1.2.2.2.3l.1.1c.1 0 .1 0 .2-.1 0-.1.1-.2.2-.3l.1-.1c.5-.2 1-.3 1.6-.3 2.3 0 4.7 1.3 5.9 2.4h1.3c.2 0 .3.1.3.3v147.4c0 .3-.1.4-.3.4zm-18.2-.6h17.9V46.6h-1.1c-.1 0-.2 0-.2-.1v-.1c-1.2-1.1-3.5-2.3-5.5-2.3-.5 0-1 .1-1.4.2l-.1.1c-.1.2-.2.4-.6.4h-.1c-.4-.1-.5-.3-.6-.4 0 0 0-.1-.1-.1-.4-.1-.9-.2-1.3-.2-2.1 0-4.4 1.2-5.7 2.4-.1.1-.1.1-.2.1h-1v146.8z"/><g fill="none" stroke="#211F1F" stroke-width=".992" stroke-miterlimit="10"><path d="M8.9 44.1v149.6M10.2 44.1v149.6"/></g><g fill="none" stroke="#211F1F" stroke-width=".992" stroke-miterlimit="10"><path d="M1.6 46.3v147.4M17.5 46.3v147.4"/></g></g></svg>