<?xml version="1.0" encoding="utf-8"?>
<!-- Generator: Adobe Illustrator 16.2.0, SVG Export Plug-In . SVG Version: 6.00 Build 0)  -->
<!DOCTYPE svg PUBLIC "-//W3C//DTD SVG 1.1//EN" "http://www.w3.org/Graphics/SVG/1.1/DTD/svg11.dtd">
<svg version="1.1" id="Layer_1" xmlns="http://www.w3.org/2000/svg" xmlns:xlink="http://www.w3.org/1999/xlink" x="0px" y="0px"
	 width="280px" height="195px" viewBox="0 0 280 195" enable-background="new 0 0 280 195" xml:space="preserve">
<g>
	<g>
		<g>
			
				<path fill="#BDBEC0" stroke="#211F1F" stroke-width="0.7087" stroke-linecap="round" stroke-linejoin="round" stroke-miterlimit="10" d="
				M35.7,48.4L35.7,48.4C35.7,48.3,35.6,48.3,35.7,48.4c-2-2-5.8-3.6-8.3-2.6c-0.2,0.2-0.2,0.5-0.6,0.6l0,0c-0.4,0-0.4-0.3-0.6-0.6
				c-2.6-1-6.4,0.8-8.3,2.6l0,0l0,0v145.2h17.9V48.4L35.7,48.4z"/>
			<g>
				<line fill="none" stroke="#211F1F" stroke-width="0.7087" stroke-miterlimit="10" x1="26.2" y1="45.9" x2="26.2" y2="193.7"/>
				<line fill="none" stroke="#211F1F" stroke-width="0.7087" stroke-miterlimit="10" x1="27.6" y1="45.9" x2="27.6" y2="193.7"/>
			</g>
		</g>
		<g>
			
				<path fill="#BDBEC0" stroke="#211F1F" stroke-width="0.7087" stroke-linecap="round" stroke-linejoin="round" stroke-miterlimit="10" d="
				M68,48.4L68,48.4C68,48.3,67.9,48.3,68,48.4c-2-2-5.8-3.6-8.3-2.6c-0.2,0.2-0.2,0.5-0.6,0.6l0,0c-0.4,0-0.4-0.3-0.6-0.6
				c-2.6-1-6.4,0.8-8.3,2.6l0,0l0,0v145.2H68V48.4L68,48.4z"/>
			<g>
				<line fill="none" stroke="#211F1F" stroke-width="0.7087" stroke-miterlimit="10" x1="58.5" y1="45.9" x2="58.5" y2="193.7"/>
				<line fill="none" stroke="#211F1F" stroke-width="0.7087" stroke-miterlimit="10" x1="59.9" y1="45.9" x2="59.9" y2="193.7"/>
			</g>
		</g>
		<g>
			
				<path fill="#BDBEC0" stroke="#211F1F" stroke-width="0.7087" stroke-linecap="round" stroke-linejoin="round" stroke-miterlimit="10" d="
				M100.3,48.4C100.4,48.4,100.3,48.4,100.3,48.4C100.3,48.3,100.2,48.3,100.3,48.4c-2-2-5.8-3.6-8.3-2.6c-0.2,0.2-0.2,0.5-0.6,0.6
				l0,0c-0.4,0-0.4-0.3-0.6-0.6c-2.6-1-6.4,0.8-8.3,2.6l0,0l0,0v145.2h17.9V48.4L100.3,48.4z"/>
			<g>
				<line fill="none" stroke="#211F1F" stroke-width="0.7087" stroke-miterlimit="10" x1="90.7" y1="45.9" x2="90.7" y2="193.7"/>
				<line fill="none" stroke="#211F1F" stroke-width="0.7087" stroke-miterlimit="10" x1="92.3" y1="45.9" x2="92.3" y2="193.7"/>
			</g>
		</g>
		<g>
			
				<path fill="#BDBEC0" stroke="#211F1F" stroke-width="0.7087" stroke-linecap="round" stroke-linejoin="round" stroke-miterlimit="10" d="
				M132.7,48.4L132.7,48.4C132.7,48.3,132.6,48.3,132.7,48.4c-2-2-5.8-3.6-8.3-2.6c-0.2,0.2-0.2,0.5-0.6,0.6l0,0
				c-0.4,0-0.4-0.3-0.6-0.6c-2.6-1-6.4,0.8-8.3,2.6l0,0l0,0v145.2h17.9V48.4L132.7,48.4z"/>
			<g>
				<line fill="none" stroke="#211F1F" stroke-width="0.7087" stroke-miterlimit="10" x1="123" y1="45.9" x2="123" y2="193.7"/>
				<line fill="none" stroke="#211F1F" stroke-width="0.7087" stroke-miterlimit="10" x1="124.6" y1="45.9" x2="124.6" y2="193.7"/>
			</g>
		</g>
		<g>
			
				<path fill="#BDBEC0" stroke="#211F1F" stroke-width="0.7087" stroke-linecap="round" stroke-linejoin="round" stroke-miterlimit="10" d="
				M165,48.4L165,48.4C165,48.3,164.9,48.3,165,48.4c-2-2-5.8-3.6-8.3-2.6c-0.2,0.2-0.2,0.5-0.6,0.6l0,0c-0.4,0-0.4-0.3-0.6-0.6
				c-2.6-1-6.4,0.8-8.3,2.6l0,0l0,0v145.2H165V48.4L165,48.4z"/>
			<g>
				<line fill="none" stroke="#211F1F" stroke-width="0.7087" stroke-miterlimit="10" x1="155.2" y1="45.9" x2="155.2" y2="193.7"/>
				<line fill="none" stroke="#211F1F" stroke-width="0.7087" stroke-miterlimit="10" x1="156.7" y1="45.9" x2="156.7" y2="193.7"/>
			</g>
		</g>
		<g>
			
				<path fill="#BDBEC0" stroke="#211F1F" stroke-width="0.7087" stroke-linecap="round" stroke-linejoin="round" stroke-miterlimit="10" d="
				M197.2,48.4L197.2,48.4C197.2,48.3,197.1,48.3,197.2,48.4c-2.2-2-5.8-3.6-8.3-2.6c-0.2,0.2-0.2,0.5-0.6,0.6l0,0
				c-0.4,0-0.4-0.3-0.6-0.6c-2.6-1-6.4,0.8-8.3,2.6l0,0l0,0v145.2h17.9V48.4L197.2,48.4z"/>
			<g>
				<line fill="none" stroke="#211F1F" stroke-width="0.7087" stroke-miterlimit="10" x1="187.5" y1="45.9" x2="187.5" y2="193.7"/>
				<line fill="none" stroke="#211F1F" stroke-width="0.7087" stroke-miterlimit="10" x1="189" y1="45.9" x2="189" y2="193.7"/>
			</g>
		</g>
		<g>
			
				<path fill="#BDBEC0" stroke="#211F1F" stroke-width="0.7087" stroke-linecap="round" stroke-linejoin="round" stroke-miterlimit="10" d="
				M229.5,48.4L229.5,48.4C229.5,48.3,229.4,48.3,229.5,48.4c-2-2-5.8-3.6-8.3-2.6c-0.2,0.2-0.2,0.5-0.6,0.6l0,0
				c-0.4,0-0.4-0.3-0.6-0.6c-2.6-1-6.4,0.8-8.3,2.6l0,0l0,0v145.2h17.9V48.4L229.5,48.4z"/>
			<g>
				<line fill="none" stroke="#211F1F" stroke-width="0.7087" stroke-miterlimit="10" x1="219.9" y1="45.9" x2="219.9" y2="193.7"/>
				<line fill="none" stroke="#211F1F" stroke-width="0.7087" stroke-miterlimit="10" x1="221.3" y1="45.9" x2="221.3" y2="193.7"/>
			</g>
		</g>
		<g>
			
				<path fill="#BDBEC0" stroke="#211F1F" stroke-width="0.7087" stroke-linecap="round" stroke-linejoin="round" stroke-miterlimit="10" d="
				M261.8,48.4L261.8,48.4C261.8,48.3,261.7,48.3,261.8,48.4c-2-2-5.8-3.6-8.3-2.6c-0.2,0.2-0.2,0.5-0.6,0.6l0,0
				c-0.4,0-0.4-0.3-0.6-0.6c-2.6-1-6.4,0.8-8.3,2.6l0,0l0,0v145.2h17.9V48.4L261.8,48.4z"/>
			<g>
				<line fill="none" stroke="#211F1F" stroke-width="0.7087" stroke-miterlimit="10" x1="252.2" y1="45.9" x2="252.2" y2="193.7"/>
				<line fill="none" stroke="#211F1F" stroke-width="0.7087" stroke-miterlimit="10" x1="253.6" y1="45.9" x2="253.6" y2="193.7"/>
			</g>
		</g>
	</g>
	<g>
		<g>
			<g>
				<rect x="12.7" y="76" fill="#FFFFFF" width="256.5" height="8.8"/>
				<path fill="#211F1F" d="M12.7,85.2c-0.1,0-0.2,0-0.2-0.1s-0.1-0.1-0.1-0.2V76c0-0.2,0.1-0.3,0.3-0.3h256.5
					c0.2,0,0.3,0.1,0.3,0.3v8.8c0,0.2-0.1,0.3-0.3,0.3H12.7z M12.9,76.3v8.3h255.9v-8.3H12.9z"/>
			</g>
			<g>
				<rect x="12.7" y="77.8" fill="#211F1F" width="256.5" height="1.3"/>
				<rect x="12.7" y="81.7" fill="#211F1F" width="256.5" height="1.3"/>
			</g>
		</g>
		<g>
			<g>
				<rect x="12.7" y="160" fill="#FFFFFF" width="256.5" height="8.8"/>
				<path fill="#211F1F" d="M269.1,169.1H12.7c-0.2,0-0.3-0.1-0.3-0.3V160c0-0.2,0.1-0.3,0.3-0.3h256.5c0.1,0,0.2,0,0.2,0.1
					c0.1,0.1,0.1,0.1,0.1,0.2v8.8C269.5,169,269.3,169.1,269.1,169.1z M12.9,168.5h255.9v-8.3H12.9V168.5z"/>
			</g>
			<g>
				<rect x="12.7" y="161.8" fill="#211F1F" width="256.5" height="1.3"/>
				<rect x="12.7" y="165.7" fill="#211F1F" width="256.5" height="1.3"/>
			</g>
		</g>
	</g>
	<g>
		<g>
			<path fill="#FFFFFF" d="M116.5,13.2C116.5,13.2,116.5,13.1,116.5,13.2C116.5,13.1,116.4,13.1,116.5,13.2c-2-2-5.8-3.6-8.3-2.6
				c-0.2,0.2-0.2,0.5-0.6,0.6l0,0c-0.4,0-0.4-0.3-0.6-0.6c-2.6-1-6.4,0.6-8.3,2.6l0,0h-1.5v180.4H118V13.2H116.5z"/>
			<path fill="#211F1F" d="M118,194H97.1c-0.2,0-0.3-0.1-0.3-0.3V13.2c0-0.2,0.1-0.3,0.3-0.3h1.4c1.5-1.5,4.3-2.9,6.8-2.9
				c0.6,0,1.3,0.1,1.8,0.3c0,0,0.1,0,0.1,0.1c0.1,0.1,0.2,0.2,0.2,0.3c0.1,0.1,0.1,0.2,0.2,0.2c0.1,0,0.1-0.1,0.2-0.2
				c0.1-0.1,0.1-0.2,0.2-0.3l0.1-0.1c0.5-0.2,1.2-0.3,1.8-0.3c2.5,0,5.2,1.5,6.7,2.9l0.1,0.1h1.4c0.2,0,0.3,0.1,0.3,0.3v180.4
				C118.3,193.8,118.2,194,118,194z M97.4,193.3h20.2V13.5h-1.2c-0.1,0-0.2,0-0.2-0.1v-0.1l0,0c-1.4-1.3-3.9-2.7-6.2-2.7
				c-0.6,0-1.1,0.1-1.5,0.3l-0.1,0.1c-0.1,0.2-0.3,0.4-0.6,0.5h-0.1c-0.4,0-0.6-0.3-0.6-0.5c0-0.1-0.1-0.1-0.1-0.1
				c-0.5-0.2-1-0.3-1.5-0.3c-2.4,0-5,1.4-6.4,2.8c-0.1,0.1-0.1,0.1-0.2,0.1h-1.2L97.4,193.3L97.4,193.3z"/>
		</g>
		<g>
			<line fill="none" stroke="#211F1F" stroke-width="0.7087" stroke-miterlimit="10" x1="106.9" y1="10.5" x2="106.9" y2="193.7"/>
			<line fill="none" stroke="#211F1F" stroke-width="0.7087" stroke-miterlimit="10" x1="108.3" y1="10.5" x2="108.3" y2="193.7"/>
		</g>
		<g>
			<line fill="none" stroke="#211F1F" stroke-width="0.7087" stroke-miterlimit="10" x1="98.6" y1="13.2" x2="98.6" y2="193.7"/>
			<line fill="none" stroke="#211F1F" stroke-width="0.7087" stroke-miterlimit="10" x1="116.5" y1="13.2" x2="116.5" y2="193.7"/>
		</g>
	</g>
	<g>
		<g>
			<path fill="#FFFFFF" d="M148.8,3.2L148.8,3.2C148.8,3.1,148.7,3.1,148.8,3.2c-2-2-5.8-3.6-8.3-2.6c-0.2,0.2-0.2,0.5-0.6,0.6l0,0
				c-0.4-0.1-0.4-0.3-0.6-0.6c-2.6-1-6.4,0.6-8.3,2.6l0,0h-1.5v190.4h20.9V3.2H148.8z"/>
			<path fill="#211F1F" d="M150.3,194h-20.9c-0.2,0-0.3-0.1-0.3-0.3V3.2c0-0.2,0.1-0.3,0.3-0.3h1.4c1.5-1.5,4.3-2.9,6.8-2.9
				c0.6,0,1.3,0.1,1.8,0.3c0,0,0.1,0,0.1,0.1c0.1,0.1,0.2,0.2,0.2,0.3c0.1,0.1,0.1,0.2,0.2,0.2s0.1-0.1,0.2-0.2
				c0.1-0.1,0.1-0.2,0.2-0.3l0.1-0.1c0.5-0.2,1.2-0.3,1.8-0.3c2.5,0,5.2,1.5,6.7,2.9c0,0,0,0,0.1,0.1h1.4c0.2,0,0.3,0.1,0.3,0.3
				v190.4C150.6,193.8,150.5,194,150.3,194z M129.7,193.3H150V3.4h-1.2c-0.1,0-0.2,0-0.2-0.1c0,0,0-0.1-0.1-0.1l0,0
				c-1.4-1.3-4-2.7-6.2-2.7c-0.6,0-1.1,0.1-1.5,0.3L140.6,1c-0.1,0.2-0.3,0.4-0.6,0.5h-0.1c-0.4-0.1-0.6-0.3-0.6-0.5
				c0-0.1-0.1-0.1-0.1-0.2c-0.5-0.2-1-0.2-1.5-0.2c-2.4,0-5,1.4-6.4,2.8l-0.1,0.1H131h-1.2v189.9H129.7z"/>
		</g>
		<g>
			<line fill="none" stroke="#211F1F" stroke-width="0.7087" stroke-miterlimit="10" x1="139.2" y1="0.6" x2="139.2" y2="193.7"/>
			<line fill="none" stroke="#211F1F" stroke-width="0.7087" stroke-miterlimit="10" x1="140.6" y1="0.6" x2="140.6" y2="193.7"/>
		</g>
		<g>
			<line fill="none" stroke="#211F1F" stroke-width="0.7087" stroke-miterlimit="10" x1="130.9" y1="3.2" x2="130.9" y2="193.7"/>
			<line fill="none" stroke="#211F1F" stroke-width="0.7087" stroke-miterlimit="10" x1="148.9" y1="3.2" x2="148.9" y2="193.7"/>
		</g>
	</g>
	<g>
		<g>
			<path fill="#FFFFFF" d="M181.1,13.2C181.1,13.2,181.1,13.1,181.1,13.2C181.1,13.1,181,13.1,181.1,13.2c-2-2-5.8-3.6-8.3-2.6
				c-0.2,0.2-0.2,0.5-0.6,0.6l0,0c-0.4,0-0.4-0.3-0.6-0.6c-2.6-1-6.4,0.6-8.3,2.6l0,0h-1.5v180.4h20.9V13.2H181.1z"/>
			<path fill="#211F1F" d="M182.7,194h-20.9c-0.2,0-0.3-0.1-0.3-0.3V13.2c0-0.2,0.1-0.3,0.3-0.3h1.4c1.5-1.5,4.3-2.9,6.8-2.9
				c0.6,0,1.3,0.1,1.8,0.3c0,0,0.1,0,0.1,0.1c0.1,0.1,0.2,0.2,0.2,0.3c0.1,0.1,0.1,0.2,0.2,0.2c0.1,0,0.1-0.1,0.2-0.2
				c0.1-0.1,0.1-0.2,0.2-0.3l0.1-0.1c0.5-0.2,1.2-0.3,1.8-0.3c2.5,0,5.2,1.5,6.7,2.9l0.1,0.1h1.4c0.2,0,0.3,0.1,0.3,0.3v180.4
				C183,193.8,182.8,194,182.7,194z M162.1,193.3h20.2V13.5h-1.2c-0.1,0-0.2,0-0.2-0.1v-0.1l0,0c-1.4-1.3-3.9-2.7-6.2-2.7
				c-0.6,0-1.1,0.1-1.5,0.3l-0.1,0.1c-0.1,0.2-0.3,0.4-0.6,0.5h-0.2c-0.4,0-0.6-0.3-0.8-0.5c0-0.1-0.1-0.1-0.1-0.1
				c-0.5-0.2-1-0.3-1.5-0.3c-2.4,0-5,1.4-6.4,2.8l0,0c-0.1,0.1-0.1,0.1-0.2,0.1h-1.2V193.3L162.1,193.3z"/>
		</g>
		<g>
			<line fill="none" stroke="#211F1F" stroke-width="0.7087" stroke-miterlimit="10" x1="171.5" y1="10.5" x2="171.5" y2="193.7"/>
			<line fill="none" stroke="#211F1F" stroke-width="0.7087" stroke-miterlimit="10" x1="172.9" y1="10.5" x2="172.9" y2="193.7"/>
		</g>
		<g>
			<line fill="none" stroke="#211F1F" stroke-width="0.7087" stroke-miterlimit="10" x1="163.3" y1="13.2" x2="163.3" y2="193.7"/>
			<line fill="none" stroke="#211F1F" stroke-width="0.7087" stroke-miterlimit="10" x1="181.2" y1="13.2" x2="181.2" y2="193.7"/>
		</g>
	</g>
	<g>
		<g>
			<path fill="#FFFFFF" d="M213.4,24.7C213.5,24.7,213.5,24.7,213.4,24.7C213.4,24.5,213.3,24.5,213.4,24.7c-2-2-5.8-3.4-8.3-2.6
				c-0.2,0.2-0.2,0.5-0.6,0.6l0,0c-0.4,0-0.4-0.3-0.6-0.6c-2.6-1-6.4,0.6-8.3,2.6l0,0H194v169h20.9v-169H213.4z"/>
			<path fill="#211F1F" d="M215,194h-20.9c-0.2,0-0.3-0.1-0.3-0.3v-169c0-0.2,0.1-0.3,0.3-0.3h1.4c1.5-1.5,4.3-2.9,6.7-2.9
				c0.6,0,1.3,0.1,1.8,0.3c0,0,0.1,0,0.1,0.1c0.1,0.1,0.2,0.2,0.2,0.3c0.1,0.1,0.1,0.2,0.2,0.2s0.1-0.1,0.2-0.2
				c0.1-0.1,0.1-0.2,0.2-0.3l0.1-0.1c0.5-0.2,1.2-0.3,1.8-0.3c2.5,0,5.2,1.5,6.7,2.9l0.1,0.1l0,0h1.4c0.2,0,0.3,0.1,0.3,0.3v169
				C215.2,193.8,215.1,194,215,194z M194.3,193.3h20.2V25h-1.2c-0.1,0-0.2,0-0.2-0.1v-0.1l0,0c-1.4-1.3-3.9-2.7-6.2-2.7
				c-0.6,0-1.1,0.1-1.5,0.3l-0.1,0.1c-0.1,0.2-0.3,0.4-0.8,0.5l0,0c-0.4,0-0.6-0.3-0.6-0.5c0-0.1-0.1-0.1-0.1-0.2
				c-0.5-0.2-1-0.3-1.5-0.3c-2.4,0-5,1.4-6.4,2.8l0,0c-0.1,0-0.1,0.1-0.2,0.1h-1.2L194.3,193.3L194.3,193.3z"/>
		</g>
		<g>
			<line fill="none" stroke="#211F1F" stroke-width="0.7087" stroke-miterlimit="10" x1="203.8" y1="22.1" x2="203.8" y2="193.7"/>
			<line fill="none" stroke="#211F1F" stroke-width="0.7087" stroke-miterlimit="10" x1="205.3" y1="22.1" x2="205.3" y2="193.7"/>
		</g>
		<g>
			<line fill="none" stroke="#211F1F" stroke-width="0.7087" stroke-miterlimit="10" x1="195.6" y1="24.7" x2="195.6" y2="193.7"/>
			<line fill="none" stroke="#211F1F" stroke-width="0.7087" stroke-miterlimit="10" x1="213.5" y1="24.7" x2="213.5" y2="193.7"/>
		</g>
	</g>
	<g>
		<g>
			<path fill="#FFFFFF" d="M245.8,35.5C245.8,35.4,245.8,35.4,245.8,35.5C245.8,35.4,245.7,35.4,245.8,35.5c-2.2-2-5.8-3.6-8.3-2.6
				c-0.2,0.2-0.2,0.5-0.6,0.6l0,0c-0.4,0-0.4-0.3-0.6-0.6c-2.6-1-6.4,0.6-8.3,2.6l0,0h-1.5v158.1h20.9V35.5H245.8z"/>
			<path fill="#211F1F" d="M247.2,194h-20.9c-0.2,0-0.3-0.1-0.3-0.3V35.5c0-0.2,0.1-0.3,0.3-0.3h1.4c1.5-1.5,4.3-2.9,6.8-2.9
				c0.8,0,1.3,0.1,1.8,0.3c0,0,0.1,0,0.1,0.1c0.1,0.1,0.2,0.2,0.2,0.3c0.1,0.1,0.1,0.2,0.2,0.2c0.1,0,0.1-0.1,0.2-0.2
				c0.1-0.1,0.1-0.2,0.2-0.3l0.1-0.1c0.5-0.2,1.2-0.3,1.8-0.3c2.5,0,5.2,1.5,6.7,2.9v0.1h1.5c0.2,0,0.3,0.1,0.3,0.3v158.1
				C247.5,193.8,247.4,194,247.2,194z M226.6,193.3h20.2V35.7h-1.2c-0.1,0-0.2,0-0.2-0.1v-0.1l0,0c-1.4-1.3-3.9-2.7-6.2-2.7
				c-0.6,0-1.1,0.1-1.5,0.3c0,0-0.1,0.1-0.1,0.2c-0.1,0.2-0.3,0.4-0.6,0.5h-0.1c-0.4,0-0.6-0.3-0.8-0.5c0-0.1-0.1-0.1-0.1-0.2
				c-0.5-0.2-1-0.3-1.5-0.3c-2.4,0-5,1.4-6.4,2.8l0,0c-0.1,0.1-0.1,0.1-0.2,0.1h-1.2L226.6,193.3L226.6,193.3z"/>
		</g>
		<g>
			<line fill="none" stroke="#211F1F" stroke-width="0.7087" stroke-miterlimit="10" x1="236.1" y1="32.8" x2="236.1" y2="193.7"/>
			<line fill="none" stroke="#211F1F" stroke-width="0.7087" stroke-miterlimit="10" x1="237.5" y1="32.8" x2="237.5" y2="193.7"/>
		</g>
		<g>
			<line fill="none" stroke="#211F1F" stroke-width="0.7087" stroke-miterlimit="10" x1="227.8" y1="35.4" x2="227.8" y2="193.7"/>
			<line fill="none" stroke="#211F1F" stroke-width="0.7087" stroke-miterlimit="10" x1="245.8" y1="35.4" x2="245.8" y2="193.7"/>
		</g>
	</g>
	<g>
		<g>
			<path fill="#FFFFFF" d="M278,48.4L278,48.4C278,48.3,277.8,48.3,278,48.4c-2.2-2-5.8-3.6-8.3-2.6c-0.2,0.2-0.2,0.5-0.6,0.6l0,0
				c-0.4,0-0.4-0.3-0.6-0.6c-2.6-1-6.4,0.8-8.3,2.6l0,0h-1.5v145.2h20.9V48.4H278z"/>
			<path fill="#211F1F" d="M279.5,194h-20.9c-0.2,0-0.3-0.1-0.3-0.3V48.4c0-0.2,0.1-0.3,0.3-0.3h1.4c1.5-1.5,4.3-2.9,6.8-2.9
				c0.6,0,1.3,0.1,1.8,0.3c0,0,0.1,0,0.1,0.1c0.1,0.1,0.2,0.2,0.2,0.3c0.1,0.1,0.1,0.2,0.2,0.2s0.1-0.1,0.2-0.2
				c0.1-0.1,0.1-0.2,0.2-0.3l0.1-0.1c0.5-0.2,1.2-0.3,1.8-0.3c2.5,0,5.2,1.5,6.7,2.9l0.1,0.1h1.4c0.2,0,0.3,0.1,0.3,0.3v145.2
				C279.8,193.8,279.7,194,279.5,194z M258.9,193.3h20.2V48.8H278c-0.1,0-0.2,0-0.2-0.1c0,0,0-0.1-0.1-0.1l0,0
				c-1.4-1.3-3.9-2.7-6.2-2.7c-0.6,0-1.1,0.1-1.5,0.3c0,0-0.1,0.1-0.1,0.2c-0.1,0.2-0.3,0.4-0.6,0.5H269c-0.4-0.1-0.6-0.3-0.8-0.5
				c0-0.1-0.1-0.1-0.1-0.1c-0.5-0.2-1-0.3-1.5-0.3c-2.4,0-5,1.4-6.4,2.8c0,0,0,0-0.1,0.1c0,0-0.1,0.1-0.2,0.1h-1.2L258.9,193.3
				L258.9,193.3z"/>
		</g>
		<g>
			<line fill="none" stroke="#211F1F" stroke-width="0.7087" stroke-miterlimit="10" x1="268.3" y1="45.9" x2="268.3" y2="193.7"/>
			<line fill="none" stroke="#211F1F" stroke-width="0.7087" stroke-miterlimit="10" x1="269.8" y1="45.9" x2="269.8" y2="193.7"/>
		</g>
		<g>
			<line fill="none" stroke="#211F1F" stroke-width="0.7087" stroke-miterlimit="10" x1="260.1" y1="48.4" x2="260.1" y2="193.7"/>
			<line fill="none" stroke="#211F1F" stroke-width="0.7087" stroke-miterlimit="10" x1="278" y1="48.4" x2="278" y2="193.7"/>
		</g>
	</g>
	<g>
		<g>
			<path fill="#FFFFFF" d="M84.3,24.7L84.3,24.7C84.3,24.5,84.2,24.5,84.3,24.7c-2-2-5.8-3.4-8.3-2.6c-0.2,0.2-0.2,0.5-0.6,0.6l0,0
				c-0.4,0-0.4-0.3-0.6-0.6c-2.6-1-6.4,0.6-8.3,2.6l0,0h-1.5v169h20.9v-169H84.3z"/>
			<path fill="#211F1F" d="M85.7,194H64.8c-0.2,0-0.3-0.1-0.3-0.3v-169c0-0.2,0.1-0.3,0.3-0.3h1.4c1.5-1.5,4.3-2.9,6.8-2.9
				c0.6,0,1.3,0.1,1.8,0.3c0,0,0.1,0,0.1,0.1c0.1,0.1,0.2,0.2,0.2,0.3c0.1,0.1,0.1,0.2,0.2,0.2c0.1,0,0.1-0.1,0.2-0.2
				c0.1-0.1,0.1-0.2,0.2-0.3l0.1-0.1c0.5-0.2,1.2-0.3,1.8-0.3c2.5,0,5.2,1.5,6.7,2.9l0.1,0.1h1.4c0.2,0,0.3,0.1,0.3,0.3v169
				C86,193.8,85.9,194,85.7,194z M65.1,193.3h20.2V25h-1.2c-0.1,0-0.2,0-0.2-0.1v-0.1l0,0c-1.4-1.3-3.9-2.7-6.2-2.7
				c-0.6,0-1.1,0.1-1.5,0.3l-0.1,0.1c-0.1,0.2-0.3,0.4-0.6,0.5h-0.1c-0.4,0-0.6-0.3-0.6-0.5c0-0.1-0.1-0.1-0.1-0.1
				c-0.5-0.2-1-0.3-1.5-0.3c-2.4,0-5,1.4-6.4,2.8l0,0c-0.1,0-0.1,0.1-0.2,0.1h-1.2L65.1,193.3L65.1,193.3z"/>
		</g>
		<g>
			<line fill="none" stroke="#211F1F" stroke-width="0.7087" stroke-miterlimit="10" x1="74.5" y1="22.1" x2="74.5" y2="193.7"/>
			<line fill="none" stroke="#211F1F" stroke-width="0.7087" stroke-miterlimit="10" x1="76" y1="22.1" x2="76" y2="193.7"/>
		</g>
		<g>
			<line fill="none" stroke="#211F1F" stroke-width="0.7087" stroke-miterlimit="10" x1="66.3" y1="24.7" x2="66.3" y2="193.7"/>
			<line fill="none" stroke="#211F1F" stroke-width="0.7087" stroke-miterlimit="10" x1="84.3" y1="24.7" x2="84.3" y2="193.7"/>
		</g>
	</g>
	<g>
		<g>
			<path fill="#FFFFFF" d="M52,35.5C52,35.4,52,35.4,52,35.5C52,35.4,51.9,35.4,52,35.5c-2-2-5.8-3.6-8.3-2.6
				c-0.2,0.2-0.2,0.5-0.6,0.6l0,0c-0.4,0-0.4-0.3-0.6-0.6c-2.6-1-6.4,0.6-8.3,2.6l0,0h-1.5v158.1h20.9V35.5H52z"/>
			<path fill="#211F1F" d="M53.5,194H32.6c-0.2,0-0.3-0.1-0.3-0.3V35.5c0-0.2,0.1-0.3,0.3-0.3H34c1.5-1.5,4.3-2.9,6.8-2.9
				c0.6,0,1.3,0.1,1.8,0.3c0,0,0.1,0,0.1,0.1c0.1,0.1,0.2,0.2,0.2,0.3c0.1,0.1,0.1,0.2,0.2,0.2c0.1,0,0.1-0.1,0.2-0.2
				c0.1-0.1,0.1-0.2,0.2-0.3l0.1-0.1c0.5-0.2,1.2-0.3,1.8-0.3c2.5,0,5.2,1.5,6.7,2.9c0,0,0,0,0.1,0.1h1.4c0.2,0,0.3,0.1,0.3,0.3
				v158.1C53.7,193.8,53.6,194,53.5,194z M32.8,193.3h20.2V35.7h-1.2c-0.1,0-0.2,0-0.2-0.1c0,0,0-0.1-0.1-0.1l0,0
				c-1.4-1.3-3.9-2.7-6.2-2.7c-0.6,0-1.1,0.1-1.5,0.3l-0.1,0.1c-0.1,0.2-0.3,0.4-0.6,0.5H43c-0.4,0-0.6-0.3-0.6-0.5
				c0-0.1-0.1-0.1-0.1-0.2c-0.5-0.2-1-0.3-1.5-0.3c-2.4,0-5,1.4-6.4,2.8l0,0c-0.1,0.1-0.1,0.1-0.2,0.1h-1.2v157.7H32.8z"/>
		</g>
		<g>
			<line fill="none" stroke="#211F1F" stroke-width="0.7087" stroke-miterlimit="10" x1="42.3" y1="32.8" x2="42.3" y2="193.7"/>
			<line fill="none" stroke="#211F1F" stroke-width="0.7087" stroke-miterlimit="10" x1="43.8" y1="32.8" x2="43.8" y2="193.7"/>
		</g>
		<g>
			<line fill="none" stroke="#211F1F" stroke-width="0.7087" stroke-miterlimit="10" x1="34.1" y1="35.4" x2="34.1" y2="193.7"/>
			<line fill="none" stroke="#211F1F" stroke-width="0.7087" stroke-miterlimit="10" x1="52" y1="35.4" x2="52" y2="193.7"/>
		</g>
	</g>
	<g>
		<g>
			<path fill="#FFFFFF" d="M19.7,48.4L19.7,48.4C19.7,48.3,19.6,48.3,19.7,48.4c-2-2-5.8-3.6-8.3-2.6c-0.2,0.2-0.2,0.5-0.6,0.6l0,0
				c-0.4,0-0.4-0.3-0.6-0.6c-2.6-1-6.4,0.8-8.3,2.6l0,0H0.3v145.2h20.9V48.4H19.7z"/>
			<path fill="#211F1F" d="M21.2,194H0.3c-0.2,0-0.3-0.1-0.3-0.3V48.4c0-0.2,0.1-0.3,0.3-0.3h1.4c1.5-1.5,4.3-2.9,6.8-2.9
				c0.6,0,1.3,0.1,1.8,0.3c0,0,0.1,0,0.1,0.1c0.1,0.1,0.2,0.2,0.2,0.3c0.1,0.1,0.1,0.2,0.2,0.2c0.1,0,0.1-0.1,0.2-0.2
				c0.1-0.1,0.1-0.2,0.2-0.3l0.1-0.1c0.5-0.2,1.2-0.3,1.8-0.3c2.5,0,5.2,1.5,6.7,2.9c0,0,0,0,0.1,0.1h1.4c0.2,0,0.3,0.1,0.3,0.3
				v145.2C21.5,193.8,21.3,194,21.2,194z M0.6,193.3h20.2V48.8h-1.2c-0.1,0-0.2,0-0.2-0.1c0,0,0-0.1-0.1-0.1l0,0
				c-1.4-1.3-3.9-2.7-6.2-2.7c-0.6,0-1.1,0.1-1.5,0.3l-0.1,0.1c-0.1,0.2-0.3,0.4-0.6,0.5h-0.2c-0.4-0.1-0.6-0.3-0.6-0.5
				c0-0.1-0.1-0.1-0.1-0.1c-0.5-0.2-1-0.3-1.5-0.3c-2.4,0-5,1.4-6.4,2.8c0,0.1-0.1,0.1-0.1,0.1H1.8H0.6V193.3z"/>
		</g>
		<g>
			<line fill="none" stroke="#211F1F" stroke-width="0.7087" stroke-miterlimit="10" x1="10" y1="45.9" x2="10" y2="193.7"/>
			<line fill="none" stroke="#211F1F" stroke-width="0.7087" stroke-miterlimit="10" x1="11.5" y1="45.9" x2="11.5" y2="193.7"/>
		</g>
		<g>
			<line fill="none" stroke="#211F1F" stroke-width="0.7087" stroke-miterlimit="10" x1="1.8" y1="48.4" x2="1.8" y2="193.7"/>
			<line fill="none" stroke="#211F1F" stroke-width="0.7087" stroke-miterlimit="10" x1="19.7" y1="48.4" x2="19.7" y2="193.7"/>
		</g>
	</g>
</g>
</svg>
