<svg xmlns="http://www.w3.org/2000/svg" width="280" height="195" viewBox="0 0 280 195"><g stroke="#211F1F" stroke-width=".709" stroke-miterlimit="10"><path fill="#BCBEC0" stroke-linecap="round" stroke-linejoin="round" d="M35.8 18.8s0-.1 0 0c0-.1-.1-.1-.1-.1-2-1.9-5.7-3.4-8.2-2.5-.2.2-.2.5-.6.6-.4 0-.4-.3-.6-.6-2.6-1-6.4.7-8.3 2.6v174.9h17.9l-.1-174.9z"/><g fill="none"><path d="M26.2 16.2v177.5M27.6 16.2v177.5"/></g><path fill="#BCBEC0" stroke-linecap="round" stroke-linejoin="round" d="M68.1 18.8s0-.1 0 0c0-.1-.1-.1-.1-.1-2-1.9-5.7-3.4-8.2-2.5-.2.2-.2.5-.6.6-.4 0-.4-.3-.6-.6-2.6-1-6.4.7-8.3 2.6v174.9h17.9l-.1-174.9z"/><g fill="none"><path d="M58.5 16.2v177.5M59.9 16.2v177.5"/></g><path fill="#BCBEC0" stroke-linecap="round" stroke-linejoin="round" d="M100.4 18.8c.1 0 0-.1 0 0 0-.1-.1-.1-.1-.1-2-1.9-5.7-3.4-8.2-2.5-.2.2-.2.5-.6.6-.4 0-.4-.3-.6-.6-2.6-1-6.4.7-8.3 2.6v174.9h17.9l-.1-174.9z"/><g fill="none"><path d="M90.8 16.2v177.5M92.3 16.2v177.5"/></g><path fill="#BCBEC0" stroke-linecap="round" stroke-linejoin="round" d="M132.8 18.8s0-.1 0 0c0-.1-.1-.1-.1-.1-2-1.9-5.7-3.4-8.2-2.5-.2.2-.2.5-.6.6-.4 0-.4-.3-.6-.6-2.6-1-6.4.7-8.3 2.6v174.9h17.9l-.1-174.9z"/><g fill="none"><path d="M123.1 16.2v177.5M124.6 16.2v177.5"/></g><g><path fill="#BCBEC0" stroke-linecap="round" stroke-linejoin="round" d="M165.1 18.8s0-.1 0 0c0-.1-.1-.1-.1-.1-2-1.9-5.7-3.4-8.2-2.5-.2.2-.2.5-.6.6-.4 0-.4-.3-.6-.6-2.6-1-6.4.7-8.3 2.6v174.9h17.9l-.1-174.9z"/><g fill="none"><path d="M155.4 16.2v177.5M156.9 16.2v177.5"/></g></g><g><path fill="#BCBEC0" stroke-linecap="round" stroke-linejoin="round" d="M197.4 18.8s0-.1 0 0c0-.1-.1-.1-.1-.1-2-1.9-5.7-3.4-8.2-2.5-.2.2-.2.5-.6.6-.4 0-.4-.3-.6-.6-2.6-1-6.4.7-8.3 2.6v174.9h17.9l-.1-174.9z"/><g fill="none"><path d="M187.7 16.2v177.5M189.2 16.2v177.5"/></g></g><g><path fill="#BCBEC0" stroke-linecap="round" stroke-linejoin="round" d="M229.7 18.8s0-.1 0 0c0-.1-.1-.1-.1-.1-2-1.9-5.7-3.4-8.2-2.5-.2.2-.2.5-.6.6-.4 0-.4-.3-.6-.6-2.6-1-6.4.7-8.3 2.6v174.9h17.9l-.1-174.9z"/><g fill="none"><path d="M220.1 16.2v177.5M221.5 16.2v177.5"/></g></g><g><path fill="#BCBEC0" stroke-linecap="round" stroke-linejoin="round" d="M262 18.8s0-.1 0 0c0-.1-.1-.1-.1-.1-2-1.9-5.7-3.4-8.2-2.5-.2.2-.2.5-.6.6-.4 0-.4-.3-.6-.6-2.6-1-6.4.7-8.3 2.6v174.9h17.9L262 18.8z"/><g fill="none"><path d="M252.4 16.2v177.5M253.8 16.2v177.5"/></g></g></g><path fill="#FFF" d="M11.3 59.9H268v10.3H11.3z"/><path fill="#211F1F" d="M268 70.5H11.3c-.2 0-.3-.1-.3-.3V59.9c0-.2.1-.3.3-.3H268c.2 0 .3.1.3.3v10.3c0 .2-.2.3-.3.3zm-256.4-.6h256.1v-9.7H11.6v9.7z"/><g fill="#211F1F"><path d="M11.3 62.1H268v1.5H11.3zM11.3 66.6H268v1.5H11.3z"/></g><path fill="#FFF" d="M11.3 157.8H268v10.3H11.3z"/><path fill="#211F1F" d="M268 168.4H11.3c-.2 0-.3-.1-.3-.3v-10.3c0-.2.1-.3.3-.3H268c.1 0 .2 0 .2.1s.1.1.1.2v10.3c0 .2-.2.3-.3.3zm-256.4-.5h256.1v-9.7H11.6v9.7z"/><g fill="#211F1F"><path d="M11.3 160H268v1.5H11.3zM11.3 164.5H268v1.5H11.3z"/></g><path fill="#FFF" d="M148.9 18.8s0-.1 0 0c0-.1-.1-.1-.1-.1-2-1.9-5.7-3.4-8.2-2.5-.2.2-.2.5-.6.6-.4 0-.4-.3-.6-.6-2.6-1-6.4.7-8.3 2.6h-1.5v174.9h20.9V18.8h-1.6z"/><path fill="#211F1F" d="M150.4 194h-20.9c-.2 0-.3-.1-.3-.3V18.8c0-.2.1-.3.3-.3h1.4c1.5-1.5 4.3-2.9 6.7-2.9.7 0 1.3.1 1.8.3 0 0 .1 0 .1.1.1.1.2.2.2.3.1.1.1.2.2.2s.1-.1.2-.2.1-.2.2-.3l.1-.1c.5-.2 1.1-.3 1.8-.3 2.5 0 5.2 1.5 6.7 2.9l.1.1h1.4c.2 0 .3.1.3.3v174.9c0 .1-.1.2-.3.2zm-20.6-.6h20.3V19.1h-1.2c-.1 0-.2 0-.2-.1v-.1c-1.4-1.3-3.9-2.7-6.3-2.7-.6 0-1.1.1-1.5.3l-.1.1c-.1.2-.3.4-.7.5h-.1c-.4-.1-.6-.3-.7-.5 0-.1-.1-.1-.1-.2-.5-.2-1-.3-1.5-.3-2.4 0-5 1.4-6.4 2.8-.1 0-.1.1-.2.1h-1.2v174.4z"/><g fill="none" stroke="#211F1F" stroke-width=".709" stroke-miterlimit="10"><path d="M139.3 16.2v177.5M140.7 16.2v177.5"/></g><g fill="none" stroke="#211F1F" stroke-width=".709" stroke-miterlimit="10"><path d="M131 18.8v174.9M149 18.8v174.9"/></g><g><path fill="#FFF" d="M181.2 18.8s0-.1 0 0c0-.1-.1-.1-.1-.1-2-1.9-5.7-3.4-8.2-2.5-.2.2-.2.5-.6.6-.4 0-.4-.3-.6-.6-2.6-1-6.4.7-8.3 2.6h-1.5v174.9h20.9V18.8h-1.6z"/><path fill="#211F1F" d="M182.8 194h-20.9c-.2 0-.3-.1-.3-.3V18.8c0-.2.1-.3.3-.3h1.4c1.5-1.5 4.3-2.9 6.7-2.9.7 0 1.3.1 1.8.3 0 0 .1 0 .1.1.1.1.2.2.2.3.1.1.1.2.2.2s.1-.1.2-.2.1-.2.2-.3l.1-.1c.5-.2 1.2-.3 1.8-.3 2.5 0 5.2 1.5 6.7 2.9l.1.1h1.4c.2 0 .3.1.3.3v174.9c0 .1-.2.2-.3.2zm-20.6-.6h20.3V19.1h-1.2c-.1 0-.2 0-.2-.1 0 0 0-.1-.1-.1-1.4-1.3-3.9-2.7-6.3-2.7-.6 0-1.1.1-1.5.3l-.1.1c-.1.2-.3.4-.7.5h-.1c-.4-.1-.6-.3-.7-.5 0-.1-.1-.1-.1-.2-.5-.2-1-.3-1.5-.3-2.4 0-5 1.4-6.4 2.8-.1.1-.1.1-.2.1h-1.2v174.4z"/><g fill="none" stroke="#211F1F" stroke-width=".709" stroke-miterlimit="10"><path d="M171.6 16.2v177.5M173 16.2v177.5"/></g><g fill="none" stroke="#211F1F" stroke-width=".709" stroke-miterlimit="10"><path d="M163.4 18.8v174.9M181.3 18.8v174.9"/></g></g><g><path fill="#FFF" d="M213.5 18.8c.1 0 0-.1 0 0 0-.1-.1-.1-.1-.1-2-1.9-5.7-3.4-8.2-2.5-.2.2-.2.5-.6.6-.4 0-.4-.3-.6-.6-2.6-1-6.4.7-8.3 2.6h-1.5v174.9h20.9V18.8h-1.6z"/><path fill="#211F1F" d="M215.1 194h-20.9c-.2 0-.3-.1-.3-.3V18.8c0-.2.1-.3.3-.3h1.4c1.5-1.5 4.3-2.9 6.8-2.9.7 0 1.3.1 1.8.3 0 0 .1 0 .1.1.1.1.2.2.2.3.1.1.1.2.2.2s.1-.1.2-.2.1-.2.2-.3l.1-.1c.5-.2 1.1-.3 1.8-.3 2.5 0 5.2 1.5 6.7 2.9l.1.1h1.4c.2 0 .3.1.3.3v174.9c-.1.1-.3.2-.4.2zm-20.6-.6h20.3V19.1h-1.2c-.1 0-.2 0-.2-.1v-.1c-1.4-1.3-3.9-2.7-6.3-2.7-.6 0-1.1.1-1.5.3l-.1.1c-.1.2-.3.4-.7.5h-.1c-.4-.1-.6-.3-.7-.5 0-.1-.1-.1-.1-.1-.5-.2-1-.3-1.5-.3-2.4 0-5 1.4-6.4 2.8-.1 0-.1.1-.2.1h-1.2v174.3z"/><g fill="none" stroke="#211F1F" stroke-width=".709" stroke-miterlimit="10"><path d="M203.9 16.2v177.5M205.4 16.2v177.5"/></g><g fill="none" stroke="#211F1F" stroke-width=".709" stroke-miterlimit="10"><path d="M195.7 18.8v174.9M213.6 18.8v174.9"/></g></g><g><path fill="#FFF" d="M245.9 18.8s0-.1 0 0c0-.1-.1-.1-.1-.1-2-1.9-5.7-3.4-8.2-2.5-.2.2-.2.5-.6.6-.4 0-.4-.3-.6-.6-2.6-1-6.4.7-8.3 2.6h-1.5v174.9h20.9V18.8h-1.6z"/><path fill="#211F1F" d="M247.4 194h-20.9c-.2 0-.3-.1-.3-.3V18.8c0-.2.1-.3.3-.3h1.4c1.5-1.5 4.3-2.9 6.8-2.9.7 0 1.3.1 1.8.3 0 0 .1 0 .1.1.1.1.2.2.2.3.1.1.1.2.2.2s.1-.1.2-.2.1-.2.2-.3l.1-.1c.5-.2 1.1-.3 1.8-.3 2.5 0 5.2 1.5 6.7 2.9l.1.1h1.4c.2 0 .3.1.3.3v174.9c-.1.1-.2.2-.4.2zm-20.6-.6h20.3V19.1h-1.2c-.1 0-.2 0-.2-.1v-.1c-1.4-1.3-3.9-2.7-6.3-2.7-.6 0-1.1.1-1.5.3l-.1.1c-.1.2-.3.4-.7.5h-.1c-.4-.1-.6-.3-.7-.5 0-.1-.1-.1-.1-.2-.5-.2-1-.3-1.5-.3-2.4 0-5 1.4-6.4 2.8-.1 0-.1.1-.2.1h-1.2v174.4z"/><g fill="none" stroke="#211F1F" stroke-width=".709" stroke-miterlimit="10"><path d="M236.2 16.2v177.5M237.7 16.2v177.5"/></g><g fill="none" stroke="#211F1F" stroke-width=".709" stroke-miterlimit="10"><path d="M228 18.8v174.9M245.9 18.8v174.9"/></g></g><g><path fill="#FFF" d="M278.2 18.8s0-.1 0 0c0-.1-.1-.1-.1-.1-2-1.9-5.7-3.4-8.2-2.5-.2.2-.2.5-.6.6-.4 0-.4-.3-.6-.6-2.6-1-6.4.7-8.3 2.6h-1.5v174.9h20.9V18.8h-1.6z"/><path fill="#211F1F" d="M279.7 194h-20.9c-.2 0-.3-.1-.3-.3V18.8c0-.2.1-.3.3-.3h1.4c1.5-1.5 4.3-2.9 6.8-2.9.7 0 1.3.1 1.8.3 0 0 .1 0 .1.1.1.1.2.2.2.3.1.1.1.2.2.2s.1-.1.2-.2.1-.2.2-.3l.1-.1c.5-.2 1.2-.3 1.8-.3 2.5 0 5.2 1.5 6.7 2.9l.1.1h1.4c.2 0 .3.1.3.3v174.9c-.1.1-.2.2-.4.2zm-20.6-.6h20.3V19.1h-1.2c-.1 0-.2 0-.2-.1v-.1c-1.4-1.3-3.9-2.7-6.3-2.7-.6 0-1.1.1-1.5.3l-.1.1c-.1.2-.3.4-.7.5h-.1c-.4-.1-.6-.3-.7-.5 0-.1-.1-.1-.1-.1-.5-.2-1-.3-1.5-.3-2.4 0-5 1.4-6.4 2.8l-.1.1h-1.3v174.3z"/><g fill="none" stroke="#211F1F" stroke-width=".709" stroke-miterlimit="10"><path d="M268.5 16.2v177.5M270 16.2v177.5"/></g><g fill="none" stroke="#211F1F" stroke-width=".709" stroke-miterlimit="10"><path d="M260.3 18.8v174.9M278.2 18.8v174.9"/></g></g><g><path fill="#FFF" d="M116.6 18.8s0-.1 0 0c0-.1-.1-.1-.1-.1-2-1.9-5.7-3.4-8.2-2.5-.2.2-.2.5-.6.6-.4 0-.4-.3-.6-.6-2.6-1-6.4.7-8.3 2.6h-1.5v174.9h20.9V18.8h-1.6z"/><path fill="#211F1F" d="M118.1 194H97.2c-.2 0-.3-.1-.3-.3V18.8c0-.2.1-.3.3-.3h1.4c1.5-1.5 4.3-2.9 6.7-2.9.7 0 1.3.1 1.8.3 0 0 .1 0 .1.1.1.1.2.2.2.3.1.1.1.2.2.2s.1-.1.2-.2.1-.2.2-.3l.1-.1c.5-.2 1.1-.3 1.8-.3 2.5 0 5.2 1.5 6.7 2.9l.1.1h1.4c.2 0 .3.1.3.3v174.9c0 .1-.1.2-.3.2zm-20.6-.6h20.3V19.1h-1.2c-.1 0-.2 0-.2-.1 0 0 0-.1-.1-.1-1.4-1.3-3.9-2.7-6.3-2.7-.6 0-1.1.1-1.5.3l-.1.1c-.1.2-.3.4-.7.5h-.1c-.4-.1-.6-.3-.7-.5 0-.1-.1-.1-.1-.1-.5-.2-1-.3-1.5-.3-2.4 0-5 1.4-6.4 2.8-.1 0-.1.1-.2.1h-1.2v174.3z"/><g fill="none" stroke="#211F1F" stroke-width=".709" stroke-miterlimit="10"><path d="M107 16.2v177.5M108.4 16.2v177.5"/></g><g fill="none" stroke="#211F1F" stroke-width=".709" stroke-miterlimit="10"><path d="M98.7 18.8v174.9M116.6 18.8v174.9"/></g></g><g><path fill="#FFF" d="M84.3 18.8s0-.1 0 0c0-.1-.1-.1-.1-.1-2-1.9-5.7-3.4-8.2-2.5-.2.2-.2.5-.6.6-.4 0-.4-.3-.6-.6-2.6-1-6.4.7-8.3 2.6H65v174.9h20.9V18.8h-1.6z"/><path fill="#211F1F" d="M85.8 194H64.9c-.2 0-.3-.1-.3-.3V18.8c0-.2.1-.3.3-.3h1.4c1.5-1.5 4.3-2.9 6.8-2.9.7 0 1.3.1 1.8.3 0 0 .1 0 .1.1.1.1.2.2.2.3.1.1.1.2.2.2s.1-.1.2-.2.1-.2.2-.3l.1-.1c.5-.2 1.2-.3 1.8-.3 2.5 0 5.2 1.5 6.7 2.9l.1.1h1.4c.2 0 .3.1.3.3v174.9c-.1.1-.2.2-.4.2zm-20.6-.6h20.3V19.1h-1.2c-.1 0-.2 0-.2-.1 0 0 0-.1-.1-.1-1.4-1.3-3.9-2.7-6.3-2.7-.6 0-1.1.1-1.5.3l-.1.1c-.1.1-.3.4-.7.4h-.1c-.4-.1-.6-.3-.7-.5 0-.1-.1-.1-.1-.1-.5-.2-1-.3-1.5-.3-2.4 0-5 1.4-6.4 2.8-.1.1-.1.1-.2.1h-1.2v174.4z"/><g fill="none" stroke="#211F1F" stroke-width=".709" stroke-miterlimit="10"><path d="M74.6 16.2v177.5M76.1 16.2v177.5"/></g><g fill="none" stroke="#211F1F" stroke-width=".709" stroke-miterlimit="10"><path d="M66.4 18.8v174.9M84.3 18.8v174.9"/></g></g><g><path fill="#FFF" d="M52 18.8s0-.1 0 0c0-.1-.1-.1-.1-.1-2-1.9-5.7-3.4-8.2-2.5-.2.2-.2.5-.6.6-.4 0-.4-.3-.6-.6-2.6-1-6.4.7-8.3 2.6h-1.5v174.9h20.9V18.8H52z"/><path fill="#211F1F" d="M53.5 194H32.6c-.2 0-.3-.1-.3-.3V18.8c0-.2.1-.3.3-.3H34c1.5-1.5 4.3-2.9 6.8-2.9.7 0 1.3.1 1.8.3 0 0 .1 0 .1.1.1.1.2.2.2.3.1.1.1.2.2.2s.1-.1.2-.2.1-.2.2-.3l.1-.1c.5-.2 1.2-.3 1.8-.3 2.5 0 5.2 1.5 6.7 2.9l.1.1h1.4c.2 0 .3.1.3.3v174.9c-.1.1-.2.2-.4.2zm-20.6-.6h20.3V19.1H52c-.1 0-.2 0-.2-.1v-.1c-1.4-1.3-3.9-2.7-6.3-2.7-.6 0-1.1.1-1.5.3l-.1.1c-.1.2-.3.4-.7.5h-.1c-.4-.1-.6-.3-.7-.5 0-.1-.1-.1-.1-.1-.5-.2-1-.3-1.5-.3-2.4 0-5 1.4-6.4 2.8-.1.1-.1.1-.2.1H33v174.3z"/><g fill="none" stroke="#211F1F" stroke-width=".709" stroke-miterlimit="10"><path d="M42.3 16.2v177.5M43.8 16.2v177.5"/></g><g fill="none" stroke="#211F1F" stroke-width=".709" stroke-miterlimit="10"><path d="M34.1 18.8v174.9M52 18.8v174.9"/></g></g><g><path fill="#FFF" d="M19.7 18.8s0-.1 0 0c0-.1-.1-.1-.1-.1-2-1.9-5.7-3.4-8.2-2.5-.2.2-.2.5-.6.6-.4 0-.4-.3-.6-.6-2.6-1-6.4.7-8.3 2.6H.3v174.9h20.9V18.8h-1.5z"/><path fill="#211F1F" d="M21.2 194H.3c-.2 0-.3-.1-.3-.3V18.8c0-.2.1-.3.3-.3h1.4C3.2 17 6 15.6 8.4 15.6c.7 0 1.3.1 1.8.3 0 0 .1 0 .1.1.1.1.2.2.2.3.1.1.1.2.2.2s.1-.1.2-.2.1-.2.2-.3l.1-.1c.5-.2 1.2-.3 1.8-.3 2.5 0 5.2 1.5 6.7 2.9l.1.1h1.4c.2 0 .3.1.3.3v174.9c0 .1-.2.2-.3.2zm-20.6-.6h20.3V19.1h-1.2c-.1 0-.2 0-.2-.1v-.1c-1.4-1.3-3.9-2.7-6.3-2.7-.6 0-1.1.1-1.5.3l-.1.1c-.1.2-.3.4-.7.5h-.1c-.4-.1-.6-.3-.7-.5 0-.1-.1-.1-.1-.2-.5-.2-1-.3-1.5-.3-2.4 0-5 1.4-6.4 2.8 0 .1-.1.1-.1.1H.7v174.4z"/><g fill="none" stroke="#211F1F" stroke-width=".709" stroke-miterlimit="10"><path d="M10 16.2v177.5M11.5 16.2v177.5"/></g><g fill="none" stroke="#211F1F" stroke-width=".709" stroke-miterlimit="10"><path d="M1.8 18.8v174.9M19.7 18.8v174.9"/></g></g></svg>