<svg xmlns="http://www.w3.org/2000/svg" width="280" height="195" viewBox="0 0 280 195"><g stroke="#211F1F" stroke-width=".709" stroke-miterlimit="10"><path fill="#BDBEC0" stroke-linecap="round" stroke-linejoin="round" d="M35.7 48.4c0-.1-.1-.1 0 0-2-2-5.8-3.6-8.3-2.6-.2.2-.2.5-.6.6-.4 0-.4-.3-.6-.6-2.6-1-6.4.8-8.3 2.6v145.2h17.9V48.4h-.1z"/><g fill="none"><path d="M26.2 45.9v147.8M27.6 45.9v147.8"/></g><path fill="#BDBEC0" stroke-linecap="round" stroke-linejoin="round" d="M68 48.4c0-.1-.1-.1 0 0-2-2-5.8-3.6-8.3-2.6-.2.2-.2.5-.6.6-.4 0-.4-.3-.6-.6-2.6-1-6.4.8-8.3 2.6v145.2H68V48.4z"/><g fill="none"><path d="M58.5 45.9v147.8M59.9 45.9v147.8"/></g><path fill="#BDBEC0" stroke-linecap="round" stroke-linejoin="round" d="M100.3 48.4c.1 0 0 0 0 0 0-.1-.1-.1 0 0-2-2-5.8-3.6-8.3-2.6-.2.2-.2.5-.6.6-.4 0-.4-.3-.6-.6-2.6-1-6.4.8-8.3 2.6v145.2h17.9V48.4h-.1z"/><g fill="none"><path d="M90.7 45.9v147.8M92.3 45.9v147.8"/></g><path fill="#BDBEC0" stroke-linecap="round" stroke-linejoin="round" d="M132.7 48.4c0-.1-.1-.1 0 0-2-2-5.8-3.6-8.3-2.6-.2.2-.2.5-.6.6-.4 0-.4-.3-.6-.6-2.6-1-6.4.8-8.3 2.6v145.2h17.9V48.4h-.1z"/><g fill="none"><path d="M123 45.9v147.8M124.6 45.9v147.8"/></g><g><path fill="#BDBEC0" stroke-linecap="round" stroke-linejoin="round" d="M165 48.4c0-.1-.1-.1 0 0-2-2-5.8-3.6-8.3-2.6-.2.2-.2.5-.6.6-.4 0-.4-.3-.6-.6-2.6-1-6.4.8-8.3 2.6v145.2H165V48.4z"/><g fill="none"><path d="M155.2 45.9v147.8M156.7 45.9v147.8"/></g></g><g><path fill="#BDBEC0" stroke-linecap="round" stroke-linejoin="round" d="M197.2 48.4c0-.1-.1-.1 0 0-2.2-2-5.8-3.6-8.3-2.6-.2.2-.2.5-.6.6-.4 0-.4-.3-.6-.6-2.6-1-6.4.8-8.3 2.6v145.2h17.9V48.4h-.1z"/><g fill="none"><path d="M187.5 45.9v147.8M189 45.9v147.8"/></g></g><g><path fill="#BDBEC0" stroke-linecap="round" stroke-linejoin="round" d="M229.5 48.4c0-.1-.1-.1 0 0-2-2-5.8-3.6-8.3-2.6-.2.2-.2.5-.6.6-.4 0-.4-.3-.6-.6-2.6-1-6.4.8-8.3 2.6v145.2h17.9V48.4h-.1z"/><g fill="none"><path d="M219.9 45.9v147.8M221.3 45.9v147.8"/></g></g><g><path fill="#BDBEC0" stroke-linecap="round" stroke-linejoin="round" d="M261.8 48.4c0-.1-.1-.1 0 0-2-2-5.8-3.6-8.3-2.6-.2.2-.2.5-.6.6-.4 0-.4-.3-.6-.6-2.6-1-6.4.8-8.3 2.6v145.2h17.9V48.4h-.1z"/><g fill="none"><path d="M252.2 45.9v147.8M253.6 45.9v147.8"/></g></g></g><path fill="#FFF" d="M12.7 76h256.5v8.8H12.7z"/><path fill="#211F1F" d="M12.7 85.2c-.1 0-.2 0-.2-.1s-.1-.1-.1-.2V76c0-.2.1-.3.3-.3h256.5c.2 0 .3.1.3.3v8.8c0 .2-.1.3-.3.3H12.7zm.2-8.9v8.3h255.9v-8.3H12.9z"/><g fill="#211F1F"><path d="M12.7 77.8h256.5v1.3H12.7zM12.7 81.7h256.5V83H12.7z"/></g><path fill="#FFF" d="M12.7 160h256.5v8.8H12.7z"/><path fill="#211F1F" d="M269.1 169.1H12.7c-.2 0-.3-.1-.3-.3V160c0-.2.1-.3.3-.3h256.5c.1 0 .2 0 .2.1.1.1.1.1.1.2v8.8c0 .2-.2.3-.4.3zm-256.2-.6h255.9v-8.3H12.9v8.3z"/><g fill="#211F1F"><path d="M12.7 161.8h256.5v1.3H12.7zM12.7 165.7h256.5v1.3H12.7z"/></g><path fill="#FFF" d="M116.5 13.2s0-.1 0 0c0-.1-.1-.1 0 0-2-2-5.8-3.6-8.3-2.6-.2.2-.2.5-.6.6-.4 0-.4-.3-.6-.6-2.6-1-6.4.6-8.3 2.6h-1.5v180.4H118V13.2h-1.5z"/><path fill="#211F1F" d="M118 194H97.1c-.2 0-.3-.1-.3-.3V13.2c0-.2.1-.3.3-.3h1.4c1.5-1.5 4.3-2.9 6.8-2.9.6 0 1.3.1 1.8.3 0 0 .1 0 .1.1.1.1.2.2.2.3.1.1.1.2.2.2s.1-.1.2-.2.1-.2.2-.3l.1-.1c.5-.2 1.2-.3 1.8-.3 2.5 0 5.2 1.5 6.7 2.9l.1.1h1.4c.2 0 .3.1.3.3v180.4c-.1.1-.2.3-.4.3zm-20.6-.7h20.2V13.5h-1.2c-.1 0-.2 0-.2-.1v-.1c-1.4-1.3-3.9-2.7-6.2-2.7-.6 0-1.1.1-1.5.3l-.1.1c-.1.2-.3.4-.6.5h-.1c-.4 0-.6-.3-.6-.5 0-.1-.1-.1-.1-.1-.5-.2-1-.3-1.5-.3-2.4 0-5 1.4-6.4 2.8-.1.1-.1.1-.2.1h-1.2l-.3 179.8z"/><g fill="none" stroke="#211F1F" stroke-width=".709" stroke-miterlimit="10"><path d="M106.9 10.5v183.2M108.3 10.5v183.2"/></g><g fill="none" stroke="#211F1F" stroke-width=".709" stroke-miterlimit="10"><path d="M98.6 13.2v180.5M116.5 13.2v180.5"/></g><g><path fill="#FFF" d="M148.8 3.2c0-.1-.1-.1 0 0-2-2-5.8-3.6-8.3-2.6-.2.2-.2.5-.6.6-.4-.1-.4-.3-.6-.6-2.6-1-6.4.6-8.3 2.6h-1.5v190.4h20.9V3.2h-1.6z"/><path fill="#211F1F" d="M150.3 194h-20.9c-.2 0-.3-.1-.3-.3V3.2c0-.2.1-.3.3-.3h1.4c1.5-1.5 4.3-2.9 6.8-2.9.6 0 1.3.1 1.8.3 0 0 .1 0 .1.1.1.1.2.2.2.3.1.1.1.2.2.2s.1-.1.2-.2.1-.2.2-.3l.1-.1c.5-.2 1.2-.3 1.8-.3 2.5 0 5.2 1.5 6.7 2.9l.1.1h1.4c.2 0 .3.1.3.3v190.4c-.1.1-.2.3-.4.3zm-20.6-.7H150V3.4h-1.2c-.1 0-.2 0-.2-.1 0 0 0-.1-.1-.1-1.4-1.3-4-2.7-6.2-2.7-.6 0-1.1.1-1.5.3l-.2.2c-.1.2-.3.4-.6.5h-.1c-.4-.1-.6-.3-.6-.5 0-.1-.1-.1-.1-.2-.5-.2-1-.2-1.5-.2-2.4 0-5 1.4-6.4 2.8l-.1.1h-1.4v189.9h-.1z"/><g fill="none" stroke="#211F1F" stroke-width=".709" stroke-miterlimit="10"><path d="M139.2.6v193.1M140.6.6v193.1"/></g><g fill="none" stroke="#211F1F" stroke-width=".709" stroke-miterlimit="10"><path d="M130.9 3.2v190.5M148.9 3.2v190.5"/></g></g><g><path fill="#FFF" d="M181.1 13.2s0-.1 0 0c0-.1-.1-.1 0 0-2-2-5.8-3.6-8.3-2.6-.2.2-.2.5-.6.6-.4 0-.4-.3-.6-.6-2.6-1-6.4.6-8.3 2.6h-1.5v180.4h20.9V13.2h-1.6z"/><path fill="#211F1F" d="M182.7 194h-20.9c-.2 0-.3-.1-.3-.3V13.2c0-.2.1-.3.3-.3h1.4c1.5-1.5 4.3-2.9 6.8-2.9.6 0 1.3.1 1.8.3 0 0 .1 0 .1.1.1.1.2.2.2.3.1.1.1.2.2.2s.1-.1.2-.2.1-.2.2-.3l.1-.1c.5-.2 1.2-.3 1.8-.3 2.5 0 5.2 1.5 6.7 2.9l.1.1h1.4c.2 0 .3.1.3.3v180.4c-.1.1-.3.3-.4.3zm-20.6-.7h20.2V13.5h-1.2c-.1 0-.2 0-.2-.1v-.1c-1.4-1.3-3.9-2.7-6.2-2.7-.6 0-1.1.1-1.5.3l-.1.1c-.1.2-.3.4-.6.5h-.2c-.4 0-.6-.3-.8-.5 0-.1-.1-.1-.1-.1-.5-.2-1-.3-1.5-.3-2.4 0-5 1.4-6.4 2.8-.1.1-.1.1-.2.1h-1.2v179.8z"/><g fill="none" stroke="#211F1F" stroke-width=".709" stroke-miterlimit="10"><path d="M171.5 10.5v183.2M172.9 10.5v183.2"/></g><g fill="none" stroke="#211F1F" stroke-width=".709" stroke-miterlimit="10"><path d="M163.3 13.2v180.5M181.2 13.2v180.5"/></g></g><g><path fill="#FFF" d="M213.4 24.7c.1 0 .1 0 0 0 0-.2-.1-.2 0 0-2-2-5.8-3.4-8.3-2.6-.2.2-.2.5-.6.6-.4 0-.4-.3-.6-.6-2.6-1-6.4.6-8.3 2.6H194v169h20.9v-169h-1.5z"/><path fill="#211F1F" d="M215 194h-20.9c-.2 0-.3-.1-.3-.3v-169c0-.2.1-.3.3-.3h1.4c1.5-1.5 4.3-2.9 6.7-2.9.6 0 1.3.1 1.8.3 0 0 .1 0 .1.1.1.1.2.2.2.3.1.1.1.2.2.2s.1-.1.2-.2.1-.2.2-.3l.1-.1c.5-.2 1.2-.3 1.8-.3 2.5 0 5.2 1.5 6.7 2.9l.1.1h1.4c.2 0 .3.1.3.3v169c-.1 0-.2.2-.3.2zm-20.7-.7h20.2V25h-1.2c-.1 0-.2 0-.2-.1v-.1c-1.4-1.3-3.9-2.7-6.2-2.7-.6 0-1.1.1-1.5.3l-.1.1c-.1.2-.3.4-.8.5-.4 0-.6-.3-.6-.5 0-.1-.1-.1-.1-.2-.5-.2-1-.3-1.5-.3-2.4 0-5 1.4-6.4 2.8-.1 0-.1.1-.2.1h-1.2l-.2 168.4z"/><g fill="none" stroke="#211F1F" stroke-width=".709" stroke-miterlimit="10"><path d="M203.8 22.1v171.6M205.3 22.1v171.6"/></g><g fill="none" stroke="#211F1F" stroke-width=".709" stroke-miterlimit="10"><path d="M195.6 24.7v169M213.5 24.7v169"/></g></g><g><path fill="#FFF" d="M245.8 35.5c0-.1 0-.1 0 0 0-.1-.1-.1 0 0-2.2-2-5.8-3.6-8.3-2.6-.2.2-.2.5-.6.6-.4 0-.4-.3-.6-.6-2.6-1-6.4.6-8.3 2.6h-1.5v158.1h20.9V35.5h-1.6z"/><path fill="#211F1F" d="M247.2 194h-20.9c-.2 0-.3-.1-.3-.3V35.5c0-.2.1-.3.3-.3h1.4c1.5-1.5 4.3-2.9 6.8-2.9.8 0 1.3.1 1.8.3 0 0 .1 0 .1.1.1.1.2.2.2.3.1.1.1.2.2.2s.1-.1.2-.2.1-.2.2-.3l.1-.1c.5-.2 1.2-.3 1.8-.3 2.5 0 5.2 1.5 6.7 2.9v.1h1.5c.2 0 .3.1.3.3v158.1c-.1.1-.2.3-.4.3zm-20.6-.7h20.2V35.7h-1.2c-.1 0-.2 0-.2-.1v-.1c-1.4-1.3-3.9-2.7-6.2-2.7-.6 0-1.1.1-1.5.3 0 0-.1.1-.1.2-.1.2-.3.4-.6.5h-.1c-.4 0-.6-.3-.8-.5 0-.1-.1-.1-.1-.2-.5-.2-1-.3-1.5-.3-2.4 0-5 1.4-6.4 2.8-.1.1-.1.1-.2.1h-1.2l-.1 157.6z"/><g fill="none" stroke="#211F1F" stroke-width=".709" stroke-miterlimit="10"><path d="M236.1 32.8v160.9M237.5 32.8v160.9"/></g><g fill="none" stroke="#211F1F" stroke-width=".709" stroke-miterlimit="10"><path d="M227.8 35.4v158.3M245.8 35.4v158.3"/></g></g><g><path fill="#FFF" d="M278 48.4c0-.1-.2-.1 0 0-2.2-2-5.8-3.6-8.3-2.6-.2.2-.2.5-.6.6-.4 0-.4-.3-.6-.6-2.6-1-6.4.8-8.3 2.6h-1.5v145.2h20.9V48.4H278z"/><path fill="#211F1F" d="M279.5 194h-20.9c-.2 0-.3-.1-.3-.3V48.4c0-.2.1-.3.3-.3h1.4c1.5-1.5 4.3-2.9 6.8-2.9.6 0 1.3.1 1.8.3 0 0 .1 0 .1.1.1.1.2.2.2.3.1.1.1.2.2.2s.1-.1.2-.2.1-.2.2-.3l.1-.1c.5-.2 1.2-.3 1.8-.3 2.5 0 5.2 1.5 6.7 2.9l.1.1h1.4c.2 0 .3.1.3.3v145.2c-.1.1-.2.3-.4.3zm-20.6-.7h20.2V48.8H278c-.1 0-.2 0-.2-.1 0 0 0-.1-.1-.1-1.4-1.3-3.9-2.7-6.2-2.7-.6 0-1.1.1-1.5.3 0 0-.1.1-.1.2-.1.2-.3.4-.6.5h-.3c-.4-.1-.6-.3-.8-.5 0-.1-.1-.1-.1-.1-.5-.2-1-.3-1.5-.3-2.4 0-5 1.4-6.4 2.8l-.1.1s-.1.1-.2.1h-1.2l.2 144.3z"/><g fill="none" stroke="#211F1F" stroke-width=".709" stroke-miterlimit="10"><path d="M268.3 45.9v147.8M269.8 45.9v147.8"/></g><g fill="none" stroke="#211F1F" stroke-width=".709" stroke-miterlimit="10"><path d="M260.1 48.4v145.3M278 48.4v145.3"/></g></g><g><path fill="#FFF" d="M84.3 24.7c0-.2-.1-.2 0 0-2-2-5.8-3.4-8.3-2.6-.2.2-.2.5-.6.6-.4 0-.4-.3-.6-.6-2.6-1-6.4.6-8.3 2.6H65v169h20.9v-169h-1.6z"/><path fill="#211F1F" d="M85.7 194H64.8c-.2 0-.3-.1-.3-.3v-169c0-.2.1-.3.3-.3h1.4c1.5-1.5 4.3-2.9 6.8-2.9.6 0 1.3.1 1.8.3 0 0 .1 0 .1.1.1.1.2.2.2.3.1.1.1.2.2.2s.1-.1.2-.2.1-.2.2-.3l.1-.1c.5-.2 1.2-.3 1.8-.3 2.5 0 5.2 1.5 6.7 2.9l.1.1h1.4c.2 0 .3.1.3.3v169c-.1 0-.2.2-.4.2zm-20.6-.7h20.2V25h-1.2c-.1 0-.2 0-.2-.1v-.1c-1.4-1.3-3.9-2.7-6.2-2.7-.6 0-1.1.1-1.5.3l-.1.1c-.1.2-.3.4-.6.5h-.1c-.4 0-.6-.3-.6-.5 0-.1-.1-.1-.1-.1-.5-.2-1-.3-1.5-.3-2.4 0-5 1.4-6.4 2.8-.1 0-.1.1-.2.1h-1.2l-.3 168.3z"/><g fill="none" stroke="#211F1F" stroke-width=".709" stroke-miterlimit="10"><path d="M74.5 22.1v171.6M76 22.1v171.6"/></g><g fill="none" stroke="#211F1F" stroke-width=".709" stroke-miterlimit="10"><path d="M66.3 24.7v169M84.3 24.7v169"/></g></g><g><path fill="#FFF" d="M52 35.5c0-.1 0-.1 0 0 0-.1-.1-.1 0 0-2-2-5.8-3.6-8.3-2.6-.2.2-.2.5-.6.6-.4 0-.4-.3-.6-.6-2.6-1-6.4.6-8.3 2.6h-1.5v158.1h20.9V35.5H52z"/><path fill="#211F1F" d="M53.5 194H32.6c-.2 0-.3-.1-.3-.3V35.5c0-.2.1-.3.3-.3H34c1.5-1.5 4.3-2.9 6.8-2.9.6 0 1.3.1 1.8.3 0 0 .1 0 .1.1.1.1.2.2.2.3.1.1.1.2.2.2s.1-.1.2-.2.1-.2.2-.3l.1-.1c.5-.2 1.2-.3 1.8-.3 2.5 0 5.2 1.5 6.7 2.9l.1.1h1.4c.2 0 .3.1.3.3v158.1c-.2.1-.3.3-.4.3zm-20.7-.7H53V35.7h-1.2c-.1 0-.2 0-.2-.1 0 0 0-.1-.1-.1-1.4-1.3-3.9-2.7-6.2-2.7-.6 0-1.1.1-1.5.3l-.1.1c-.1.2-.3.4-.6.5H43c-.4 0-.6-.3-.6-.5 0-.1-.1-.1-.1-.2-.5-.2-1-.3-1.5-.3-2.4 0-5 1.4-6.4 2.8-.1.1-.1.1-.2.1H33v157.7h-.2z"/><g fill="none" stroke="#211F1F" stroke-width=".709" stroke-miterlimit="10"><path d="M42.3 32.8v160.9M43.8 32.8v160.9"/></g><g fill="none" stroke="#211F1F" stroke-width=".709" stroke-miterlimit="10"><path d="M34.1 35.4v158.3M52 35.4v158.3"/></g></g><g><path fill="#FFF" d="M19.7 48.4c0-.1-.1-.1 0 0-2-2-5.8-3.6-8.3-2.6-.2.2-.2.5-.6.6-.4 0-.4-.3-.6-.6-2.6-1-6.4.8-8.3 2.6H.3v145.2h20.9V48.4h-1.5z"/><path fill="#211F1F" d="M21.2 194H.3c-.2 0-.3-.1-.3-.3V48.4c0-.2.1-.3.3-.3h1.4c1.5-1.5 4.3-2.9 6.8-2.9.6 0 1.3.1 1.8.3 0 0 .1 0 .1.1.1.1.2.2.2.3.1.1.1.2.2.2s.1-.1.2-.2.1-.2.2-.3l.1-.1c.5-.2 1.2-.3 1.8-.3 2.5 0 5.2 1.5 6.7 2.9l.1.1h1.4c.2 0 .3.1.3.3v145.2c-.1.1-.3.3-.4.3zm-20.6-.7h20.2V48.8h-1.2c-.1 0-.2 0-.2-.1 0 0 0-.1-.1-.1-1.4-1.3-3.9-2.7-6.2-2.7-.6 0-1.1.1-1.5.3l-.1.1c-.1.2-.3.4-.6.5h-.2c-.4-.1-.6-.3-.6-.5 0-.1-.1-.1-.1-.1-.5-.2-1-.3-1.5-.3-2.4 0-5 1.4-6.4 2.8 0 .1-.1.1-.1.1H.6v144.5z"/><g fill="none" stroke="#211F1F" stroke-width=".709" stroke-miterlimit="10"><path d="M10 45.9v147.8M11.5 45.9v147.8"/></g><g fill="none" stroke="#211F1F" stroke-width=".709" stroke-miterlimit="10"><path d="M1.8 48.4v145.3M19.7 48.4v145.3"/></g></g></svg>