<?xml version="1.0" encoding="utf-8"?>
<!-- Generator: Adobe Illustrator 16.2.0, SVG Export Plug-In . SVG Version: 6.00 Build 0)  -->
<!DOCTYPE svg PUBLIC "-//W3C//DTD SVG 1.1//EN" "http://www.w3.org/Graphics/SVG/1.1/DTD/svg11.dtd">
<svg version="1.1" id="Layer_1" xmlns="http://www.w3.org/2000/svg" xmlns:xlink="http://www.w3.org/1999/xlink" x="0px" y="0px"
	 width="280px" height="195px" viewBox="0 0 280 195" enable-background="new 0 0 280 195" xml:space="preserve">
<g>
	<g>
		<g>
			<g>
				<rect x="6.1" y="60.2" fill="#FFFFFF" width="256.7" height="10.3"/>
				<path fill="#211F1F" d="M262.8,70.8H6.1c-0.2,0-0.3-0.1-0.3-0.3V60.2c0-0.2,0.1-0.3,0.3-0.3h256.7c0.2,0,0.3,0.1,0.3,0.3v10.3
					C263.1,70.7,263,70.8,262.8,70.8z M6.4,70.2h256.1v-9.7H6.4V70.2z"/>
			</g>
			<g>
				<rect x="6.1" y="62.4" fill="#211F1F" width="256.7" height="1.5"/>
				<rect x="6.1" y="66.9" fill="#211F1F" width="256.7" height="1.5"/>
			</g>
		</g>
		<g>
			<g>
				<rect x="6.1" y="158.1" fill="#FFFFFF" width="256.7" height="10.3"/>
				<path fill="#211F1F" d="M262.8,168.7H6.1c-0.2,0-0.3-0.1-0.3-0.3v-10.3c0-0.2,0.1-0.3,0.3-0.3l256.7,0c0.1,0,0.2,0,0.2,0.1
					s0.1,0.1,0.1,0.2v10.3C263.1,168.6,263,168.7,262.8,168.7z M6.4,168.2h256.1v-9.7l-256.1,0V168.2z"/>
			</g>
			<g>
				<rect x="6.1" y="160.3" fill="#211F1F" width="256.7" height="1.5"/>
				<rect x="6.1" y="164.8" fill="#211F1F" width="256.7" height="1.5"/>
			</g>
		</g>
	</g>
	<g>
		<g>
			<g>
				<path fill="#FFFFFF" d="M121.8,42.3C121.8,42.3,121.8,42.2,121.8,42.3c0-0.1-0.1-0.1-0.1-0.2c-1.7-2.2-5-4.1-7.3-2.9
					c-0.2,0.3-0.2,0.6-0.6,0.7v0c-0.4-0.1-0.3-0.4-0.6-0.7c-2.3-1.2-5.7,0.8-7.4,3.1c0,0,0,0,0,0h-1.3v151.4h18.5V42.3H121.8z"/>
				<path fill="#211F1F" d="M123.2,194h-18.5c-0.2,0-0.3-0.1-0.3-0.3V42.3c0-0.2,0.1-0.3,0.3-0.3h1.2c1.3-1.7,3.8-3.4,6-3.4
					c0.6,0,1.2,0.1,1.7,0.4c0,0,0.1,0.1,0.1,0.1c0.1,0.1,0.1,0.2,0.2,0.3c0.1,0.1,0.1,0.2,0.1,0.2c0,0,0.1-0.1,0.1-0.2
					c0.1-0.1,0.1-0.2,0.2-0.3c0,0,0.1-0.1,0.1-0.1c0.5-0.3,1-0.4,1.7-0.4c2.3,0,4.7,1.8,6,3.4l0,0.1h1.2c0.2,0,0.3,0.1,0.3,0.3
					v151.4C123.5,193.9,123.3,194,123.2,194z M104.9,193.4h17.9V42.6h-1.1c-0.1,0-0.2,0-0.2-0.1c0,0-0.1-0.1-0.1-0.1c0,0,0,0,0-0.1
					c-1.2-1.6-3.5-3.1-5.5-3.1c-0.5,0-0.9,0.1-1.3,0.3c0,0.1-0.1,0.1-0.1,0.2c-0.1,0.2-0.2,0.5-0.6,0.6c0,0-0.1,0-0.1,0
					c-0.4-0.1-0.5-0.4-0.6-0.6c0-0.1-0.1-0.1-0.1-0.2c-0.4-0.2-0.8-0.3-1.3-0.3c-2.1,0-4.4,1.7-5.6,3.3c0,0.1-0.1,0.1-0.2,0.1
					c0,0,0,0-0.1,0h-1V193.4z"/>
			</g>
			<g>
				<line fill="none" stroke="#211F1F" stroke-width="0.9921" stroke-miterlimit="10" x1="113.3" y1="39.2" x2="113.3" y2="193.7"/>
				<line fill="none" stroke="#211F1F" stroke-width="0.9921" stroke-miterlimit="10" x1="114.6" y1="39.2" x2="114.6" y2="193.7"/>
			</g>
			<g>
				<line fill="none" stroke="#211F1F" stroke-width="0.9921" stroke-miterlimit="10" x1="106" y1="42.3" x2="106" y2="193.7"/>
				<line fill="none" stroke="#211F1F" stroke-width="0.9921" stroke-miterlimit="10" x1="121.9" y1="42.3" x2="121.9" y2="193.7"/>
			</g>
		</g>
		<g>
			<g>
				<path fill="#FFFFFF" d="M147.9,21.9C147.9,21.9,147.9,21.9,147.9,21.9c0-0.1-0.1-0.1-0.1-0.1c-1.7-1.8-5-3.4-7.3-2.4
					c-0.2,0.2-0.2,0.5-0.6,0.6l0,0c-0.4,0-0.3-0.3-0.6-0.6c-2.3-1-5.7,0.7-7.4,2.6c0,0,0,0,0,0h-1.3v171.8h18.5V21.9H147.9z"/>
				<path fill="#211F1F" d="M149.3,194h-18.5c-0.2,0-0.3-0.1-0.3-0.3V21.9c0-0.2,0.1-0.3,0.3-0.3h1.2c1.3-1.4,3.8-2.9,6-2.9
					c0.6,0,1.1,0.1,1.6,0.3c0,0,0.1,0,0.1,0.1c0.1,0.1,0.2,0.2,0.2,0.3c0.1,0.1,0.1,0.2,0.1,0.2c0.1,0,0.1-0.1,0.2-0.2
					c0-0.1,0.1-0.2,0.2-0.3c0,0,0.1-0.1,0.1-0.1c0.5-0.2,1-0.3,1.6-0.3c2.3,0,4.7,1.5,6,2.8l0,0.1h1.2c0.2,0,0.3,0.1,0.3,0.3v171.8
					C149.6,193.9,149.4,194,149.3,194z M131,193.4H149V22.2h-1.1c-0.1,0-0.2,0-0.2-0.1c0,0,0-0.1,0-0.1l0,0
					c-1.2-1.3-3.5-2.6-5.5-2.6c-0.5,0-0.9,0.1-1.3,0.2c0,0-0.1,0.1-0.1,0.1c-0.1,0.2-0.2,0.4-0.6,0.5c0,0-0.1,0-0.1,0
					c-0.4-0.1-0.5-0.3-0.6-0.5c0-0.1-0.1-0.1-0.1-0.1c-0.4-0.2-0.8-0.2-1.3-0.2c-2.1,0-4.4,1.4-5.6,2.8c-0.1,0.1-0.1,0.1-0.2,0.1h-1
					V193.4z"/>
			</g>
			<g>
				<line fill="none" stroke="#211F1F" stroke-width="0.9921" stroke-miterlimit="10" x1="139.4" y1="19.4" x2="139.4" y2="193.7"/>
				<line fill="none" stroke="#211F1F" stroke-width="0.9921" stroke-miterlimit="10" x1="140.6" y1="19.4" x2="140.6" y2="193.7"/>
			</g>
			<g>
				<line fill="none" stroke="#211F1F" stroke-width="0.9921" stroke-miterlimit="10" x1="132.1" y1="21.9" x2="132.1" y2="193.7"/>
				<line fill="none" stroke="#211F1F" stroke-width="0.9921" stroke-miterlimit="10" x1="147.9" y1="21.9" x2="147.9" y2="193.7"/>
			</g>
		</g>
		<g>
			<g>
				<path fill="#FFFFFF" d="M174,42.3C174,42.3,174,42.2,174,42.3c0-0.1-0.1-0.1-0.1-0.2c-1.7-2.2-5-4.1-7.3-2.9
					c-0.2,0.3-0.2,0.6-0.6,0.7v0c-0.4-0.1-0.3-0.4-0.6-0.7c-2.3-1.2-5.7,0.8-7.4,3.1c0,0,0,0,0,0h-1.3v151.4h18.5V42.3H174z"/>
				<path fill="#211F1F" d="M175.4,194h-18.5c-0.2,0-0.3-0.1-0.3-0.3V42.3c0-0.2,0.1-0.3,0.3-0.3h1.2c1.3-1.7,3.8-3.4,6-3.4
					c0.6,0,1.2,0.1,1.7,0.4c0,0,0.1,0.1,0.1,0.1c0.1,0.1,0.1,0.2,0.2,0.3c0.1,0.1,0.1,0.2,0.1,0.2c0,0,0.1-0.1,0.1-0.2
					c0.1-0.1,0.1-0.2,0.2-0.3c0,0,0.1-0.1,0.1-0.1c0.5-0.3,1-0.4,1.7-0.4c2.3,0,4.7,1.8,6,3.4l0,0.1h1.2c0.2,0,0.3,0.1,0.3,0.3
					v151.4C175.6,193.9,175.5,194,175.4,194z M157.1,193.4h17.9V42.6H174c-0.1,0-0.2,0-0.2-0.1c0,0-0.1-0.1-0.1-0.1l0,0
					c-1.2-1.6-3.5-3.2-5.5-3.2c-0.5,0-0.9,0.1-1.3,0.3c0,0.1-0.1,0.1-0.1,0.2c-0.1,0.2-0.2,0.5-0.6,0.6c0,0-0.1,0-0.1,0
					c-0.4-0.1-0.5-0.4-0.6-0.6c0-0.1-0.1-0.1-0.1-0.2c-0.4-0.2-0.8-0.3-1.3-0.3c-2.1,0-4.4,1.7-5.6,3.3c0,0,0,0,0,0
					c-0.1,0.1-0.1,0.1-0.2,0.1h-1V193.4z"/>
			</g>
			<g>
				<line fill="none" stroke="#211F1F" stroke-width="0.9921" stroke-miterlimit="10" x1="165.4" y1="39.2" x2="165.4" y2="193.7"/>
				<line fill="none" stroke="#211F1F" stroke-width="0.9921" stroke-miterlimit="10" x1="166.7" y1="39.2" x2="166.7" y2="193.7"/>
			</g>
			<g>
				<line fill="none" stroke="#211F1F" stroke-width="0.9921" stroke-miterlimit="10" x1="158.1" y1="42.3" x2="158.1" y2="193.7"/>
				<line fill="none" stroke="#211F1F" stroke-width="0.9921" stroke-miterlimit="10" x1="174" y1="42.3" x2="174" y2="193.7"/>
			</g>
		</g>
		<g>
			<g>
				<path fill="#FFFFFF" d="M200.1,21.9C200.1,21.9,200.1,21.9,200.1,21.9c0-0.1-0.1-0.1-0.1-0.1c-1.7-1.8-5-3.4-7.3-2.4
					c-0.2,0.2-0.2,0.5-0.6,0.6l0,0c-0.4,0-0.3-0.3-0.6-0.6c-2.3-1-5.7,0.7-7.4,2.6c0,0,0,0,0,0h-1.3v171.8h18.5V21.9H200.1z"/>
				<path fill="#211F1F" d="M201.4,194h-18.5c-0.2,0-0.3-0.1-0.3-0.3V21.9c0-0.2,0.1-0.3,0.3-0.3h1.2c1.3-1.4,3.8-2.9,6-2.9
					c0.6,0,1.1,0.1,1.6,0.3c0,0,0.1,0,0.1,0.1c0.1,0.1,0.2,0.2,0.2,0.3c0.1,0.1,0.1,0.2,0.1,0.2c0.1,0,0.1-0.1,0.2-0.2
					c0-0.1,0.1-0.2,0.2-0.3c0,0,0.1-0.1,0.1-0.1c0.5-0.2,1-0.3,1.6-0.3c2.3,0,4.7,1.5,6,2.8l0,0.1h1.3c0.2,0,0.3,0.1,0.3,0.3v171.8
					C201.7,193.9,201.6,194,201.4,194z M183.2,193.4h17.9V22.2h-1.1c-0.1,0-0.2,0-0.2-0.1c0,0,0-0.1-0.1-0.1c0,0,0,0,0,0
					c-1.2-1.3-3.5-2.6-5.5-2.6c-0.5,0-0.9,0.1-1.3,0.2c0,0-0.1,0.1-0.1,0.1c-0.1,0.2-0.2,0.4-0.6,0.5c0,0-0.1,0-0.1,0
					c-0.4-0.1-0.5-0.3-0.6-0.5c0-0.1-0.1-0.1-0.1-0.1c-0.4-0.2-0.8-0.2-1.3-0.2c-2.1,0-4.4,1.4-5.6,2.8c-0.1,0.1-0.1,0.1-0.2,0.1h-1
					V193.4z"/>
			</g>
			<g>
				<line fill="none" stroke="#211F1F" stroke-width="0.9921" stroke-miterlimit="10" x1="191.5" y1="19.4" x2="191.5" y2="193.7"/>
				<line fill="none" stroke="#211F1F" stroke-width="0.9921" stroke-miterlimit="10" x1="192.8" y1="19.4" x2="192.8" y2="193.7"/>
			</g>
			<g>
				<line fill="none" stroke="#211F1F" stroke-width="0.9921" stroke-miterlimit="10" x1="184.2" y1="21.9" x2="184.2" y2="193.7"/>
				<line fill="none" stroke="#211F1F" stroke-width="0.9921" stroke-miterlimit="10" x1="200.1" y1="21.9" x2="200.1" y2="193.7"/>
			</g>
		</g>
		<g>
			<g>
				<path fill="#FFFFFF" d="M226.2,42.3C226.2,42.3,226.2,42.2,226.2,42.3c0-0.1-0.1-0.1-0.1-0.2c-1.7-2.2-5-4.1-7.3-2.9
					c-0.2,0.3-0.2,0.6-0.6,0.7v0c-0.4-0.1-0.3-0.4-0.6-0.7c-2.3-1.2-5.7,0.8-7.4,3.1c0,0,0,0,0,0H209v151.4h18.5V42.3H226.2z"/>
				<path fill="#211F1F" d="M227.5,194H209c-0.2,0-0.3-0.1-0.3-0.3V42.3c0-0.2,0.1-0.3,0.3-0.3h1.2c1.3-1.7,3.8-3.4,6-3.4
					c0.6,0,1.2,0.1,1.6,0.4c0,0,0.1,0.1,0.1,0.1c0.1,0.1,0.1,0.2,0.2,0.3c0.1,0.1,0.1,0.2,0.1,0.2c0,0,0.1-0.1,0.1-0.2
					c0.1-0.1,0.1-0.2,0.2-0.3c0,0,0.1-0.1,0.1-0.1c0.5-0.3,1-0.4,1.7-0.4c2.3,0,4.7,1.8,6,3.4l0,0.1h1.2c0.2,0,0.3,0.1,0.3,0.3
					v151.4C227.8,193.9,227.7,194,227.5,194z M209.3,193.4h17.9V42.6h-1.1c-0.1,0-0.2,0-0.2-0.1c0,0-0.1-0.1-0.1-0.1l0,0
					c-1.2-1.6-3.5-3.2-5.5-3.2c-0.5,0-0.9,0.1-1.3,0.3c0,0.1-0.1,0.1-0.1,0.2c-0.1,0.2-0.2,0.5-0.6,0.6c0,0-0.1,0-0.1,0
					c-0.4-0.1-0.5-0.4-0.6-0.6c0-0.1-0.1-0.1-0.1-0.2c-0.4-0.2-0.8-0.3-1.3-0.3c-2.1,0-4.4,1.7-5.6,3.3c-0.1,0.1-0.1,0.1-0.3,0.1h-1
					V193.4z"/>
			</g>
			<g>
				<line fill="none" stroke="#211F1F" stroke-width="0.9921" stroke-miterlimit="10" x1="217.6" y1="39.2" x2="217.6" y2="193.7"/>
				<line fill="none" stroke="#211F1F" stroke-width="0.9921" stroke-miterlimit="10" x1="218.9" y1="39.2" x2="218.9" y2="193.7"/>
			</g>
			<g>
				<line fill="none" stroke="#211F1F" stroke-width="0.9921" stroke-miterlimit="10" x1="210.3" y1="42.3" x2="210.3" y2="193.7"/>
				<line fill="none" stroke="#211F1F" stroke-width="0.9921" stroke-miterlimit="10" x1="226.2" y1="42.3" x2="226.2" y2="193.7"/>
			</g>
		</g>
		<g>
			<g>
				<path fill="#FFFFFF" d="M252.3,21.9C252.3,21.9,252.3,21.9,252.3,21.9c0-0.1-0.1-0.1-0.1-0.1c-1.7-1.8-5-3.4-7.3-2.4
					c-0.2,0.2-0.2,0.5-0.6,0.6l0,0c-0.4,0-0.3-0.3-0.6-0.6c-2.3-1-5.7,0.7-7.4,2.6c0,0,0,0,0,0h-1.3v171.8h18.5V21.9H252.3z"/>
				<path fill="#211F1F" d="M253.6,194h-18.5c-0.2,0-0.3-0.1-0.3-0.3V21.9c0-0.2,0.1-0.3,0.3-0.3h1.2c1.3-1.4,3.8-2.9,6-2.9
					c0.6,0,1.1,0.1,1.6,0.3c0,0,0.1,0,0.1,0.1c0.1,0.1,0.1,0.2,0.2,0.3c0.1,0.1,0.1,0.2,0.1,0.2c0.1,0,0.1-0.1,0.1-0.2
					c0-0.1,0.1-0.2,0.2-0.3c0,0,0.1-0.1,0.1-0.1c0.5-0.2,1-0.3,1.6-0.3c2.3,0,4.7,1.5,6,2.8c0,0,0,0,0,0.1h1.2
					c0.2,0,0.3,0.1,0.3,0.3v171.8C253.9,193.9,253.8,194,253.6,194z M235.4,193.4h17.9V22.2h-1.1c-0.1,0-0.2,0-0.2-0.1
					c0,0-0.1-0.1-0.1-0.1l0,0c-1.2-1.3-3.5-2.6-5.5-2.6c-0.5,0-0.9,0.1-1.3,0.2c0,0-0.1,0.1-0.1,0.1c-0.1,0.2-0.2,0.4-0.6,0.5
					c0,0-0.1,0-0.1,0c-0.4-0.1-0.5-0.3-0.6-0.5c0-0.1-0.1-0.1-0.1-0.1c-0.4-0.2-0.8-0.2-1.3-0.2c-2.1,0-4.4,1.4-5.6,2.8c0,0,0,0,0,0
					c-0.1,0.1-0.1,0.1-0.2,0.1h-1V193.4z"/>
			</g>
			<g>
				<line fill="none" stroke="#211F1F" stroke-width="0.9921" stroke-miterlimit="10" x1="243.7" y1="19.4" x2="243.7" y2="193.7"/>
				<line fill="none" stroke="#211F1F" stroke-width="0.9921" stroke-miterlimit="10" x1="245" y1="19.4" x2="245" y2="193.7"/>
			</g>
			<g>
				<line fill="none" stroke="#211F1F" stroke-width="0.9921" stroke-miterlimit="10" x1="236.4" y1="21.9" x2="236.4" y2="193.7"/>
				<line fill="none" stroke="#211F1F" stroke-width="0.9921" stroke-miterlimit="10" x1="252.3" y1="21.9" x2="252.3" y2="193.7"/>
			</g>
		</g>
		<g>
			<g>
				<path fill="#FFFFFF" d="M278.4,42.3C278.4,42.3,278.4,42.2,278.4,42.3c0-0.1-0.1-0.1-0.1-0.2c-1.7-2.2-5-4.1-7.3-2.9
					c-0.2,0.3-0.2,0.6-0.6,0.7v0c-0.4-0.1-0.3-0.4-0.6-0.7c-2.3-1.2-5.7,0.8-7.4,3.1c0,0,0,0,0,0h-1.3v151.4l18.5,0V42.3H278.4z"/>
				<path fill="#211F1F" d="M261.2,194c-0.1,0-0.2,0-0.2-0.1s-0.1-0.1-0.1-0.2V42.3c0-0.2,0.1-0.3,0.3-0.3h1.2
					c1.3-1.7,3.8-3.4,6-3.4c0.6,0,1.2,0.1,1.7,0.4c0,0,0.1,0.1,0.1,0.1c0.1,0.1,0.1,0.2,0.2,0.4c0.1,0.1,0.1,0.2,0.1,0.2
					c0,0,0.1-0.1,0.1-0.2c0.1-0.1,0.1-0.2,0.2-0.3c0,0,0.1-0.1,0.1-0.1c0.5-0.3,1-0.4,1.7-0.4c2.3,0,4.7,1.8,6,3.4l0,0.1h1.2
					c0.2,0,0.3,0.1,0.3,0.3v151.4c0,0.2-0.1,0.3-0.3,0.3H261.2z M261.5,42.6v150.8h17.9V42.6h-1.1c-0.1,0-0.2,0-0.2-0.1
					c0,0-0.1-0.1-0.1-0.1l0,0c-1.2-1.6-3.5-3.2-5.5-3.2c-0.5,0-0.9,0.1-1.3,0.3c0,0.1-0.1,0.1-0.1,0.2c-0.1,0.2-0.2,0.5-0.6,0.6
					c0,0-0.1,0-0.1,0c-0.4-0.1-0.5-0.3-0.6-0.6c0-0.1-0.1-0.1-0.1-0.2c-0.4-0.2-0.8-0.3-1.3-0.3c-2.1,0-4.4,1.7-5.6,3.3
					c0,0.1-0.1,0.1-0.3,0.1H261.5z"/>
			</g>
			<g>
				<line fill="none" stroke="#211F1F" stroke-width="0.9921" stroke-miterlimit="10" x1="269.8" y1="39.2" x2="269.8" y2="193.7"/>
				<line fill="none" stroke="#211F1F" stroke-width="0.9921" stroke-miterlimit="10" x1="271.1" y1="39.2" x2="271.1" y2="193.7"/>
			</g>
			<g>
				<line fill="none" stroke="#211F1F" stroke-width="0.9921" stroke-miterlimit="10" x1="262.5" y1="42.3" x2="262.5" y2="193.7"/>
				<line fill="none" stroke="#211F1F" stroke-width="0.9921" stroke-miterlimit="10" x1="278.4" y1="42.3" x2="278.4" y2="193.7"/>
			</g>
		</g>
		<g>
			<g>
				<path fill="#FFFFFF" d="M95.7,21.9C95.7,21.9,95.7,21.9,95.7,21.9c0-0.1-0.1-0.1-0.1-0.1c-1.7-1.8-5-3.4-7.3-2.4
					c-0.2,0.2-0.2,0.5-0.6,0.6l0,0c-0.4,0-0.3-0.3-0.6-0.6c-2.3-1-5.7,0.7-7.4,2.6c0,0,0,0,0,0h-1.3v171.8h18.5V21.9H95.7z"/>
				<path fill="#211F1F" d="M97.1,194H78.6c-0.2,0-0.3-0.1-0.3-0.3V21.9c0-0.2,0.1-0.3,0.3-0.3h1.2c1.3-1.4,3.8-2.9,6-2.9
					c0.6,0,1.1,0.1,1.6,0.3c0,0,0.1,0,0.1,0.1c0.1,0.1,0.2,0.2,0.2,0.3c0.1,0.1,0.1,0.2,0.1,0.2c0.1,0,0.1-0.1,0.2-0.2
					c0-0.1,0.1-0.2,0.2-0.3c0,0,0.1-0.1,0.1-0.1c0.5-0.2,1-0.3,1.6-0.3c2.3,0,4.7,1.5,6,2.8l0.1,0.1h1.2c0.2,0,0.3,0.1,0.3,0.3
					v171.8C97.4,193.9,97.2,194,97.1,194z M78.9,193.4h17.9V22.2h-1.1c-0.1,0-0.2,0-0.2-0.1c0,0,0-0.1-0.1-0.1
					c-1.3-1.3-3.5-2.6-5.5-2.6c-0.5,0-0.9,0.1-1.3,0.2c0,0-0.1,0.1-0.1,0.1c-0.1,0.2-0.2,0.4-0.6,0.5c0,0-0.1,0-0.1,0
					c-0.4-0.1-0.5-0.3-0.6-0.5c0,0-0.1-0.1-0.1-0.1c-0.4-0.2-0.8-0.2-1.3-0.2c-2.1,0-4.4,1.4-5.6,2.8c-0.1,0.1-0.1,0.1-0.2,0.1h-1
					V193.4z"/>
			</g>
			<g>
				<line fill="none" stroke="#211F1F" stroke-width="0.9921" stroke-miterlimit="10" x1="87.2" y1="19.4" x2="87.2" y2="193.7"/>
				<line fill="none" stroke="#211F1F" stroke-width="0.9921" stroke-miterlimit="10" x1="88.5" y1="19.4" x2="88.5" y2="193.7"/>
			</g>
			<g>
				<line fill="none" stroke="#211F1F" stroke-width="0.9921" stroke-miterlimit="10" x1="79.9" y1="21.9" x2="79.9" y2="193.7"/>
				<line fill="none" stroke="#211F1F" stroke-width="0.9921" stroke-miterlimit="10" x1="95.8" y1="21.9" x2="95.8" y2="193.7"/>
			</g>
		</g>
		<g>
			<g>
				<path fill="#FFFFFF" d="M69.6,42.3C69.6,42.3,69.6,42.2,69.6,42.3c0-0.1-0.1-0.1-0.1-0.2c-1.7-2.2-5-4.1-7.3-2.9
					c-0.2,0.3-0.2,0.6-0.6,0.7v0c-0.4-0.1-0.3-0.4-0.6-0.7c-2.3-1.2-5.7,0.8-7.4,3.1c0,0,0,0,0,0h-1.3v151.4H71V42.3H69.6z"/>
				<path fill="#211F1F" d="M71,194H52.5c-0.2,0-0.3-0.1-0.3-0.3V42.3c0-0.2,0.1-0.3,0.3-0.3h1.2c1.3-1.7,3.8-3.4,6-3.4
					c0.6,0,1.2,0.1,1.7,0.4c0,0,0.1,0.1,0.1,0.1c0.1,0.1,0.1,0.2,0.2,0.3c0.1,0.1,0.1,0.2,0.1,0.2c0,0,0.1-0.1,0.1-0.2
					c0.1-0.1,0.1-0.2,0.2-0.3c0,0,0.1-0.1,0.1-0.1c0.5-0.3,1-0.4,1.7-0.4c2.3,0,4.7,1.8,6,3.4l0,0.1H71c0.2,0,0.3,0.1,0.3,0.3v151.4
					C71.3,193.9,71.2,194,71,194z M52.8,193.4h17.9V42.6h-1.1c-0.1,0-0.2,0-0.2-0.1c0,0-0.1-0.1-0.1-0.1l0,0
					c-1.2-1.6-3.5-3.2-5.5-3.2c-0.5,0-0.9,0.1-1.3,0.3c0,0.1-0.1,0.1-0.1,0.2c-0.1,0.2-0.2,0.5-0.6,0.6c0,0-0.1,0-0.1,0
					c-0.4-0.1-0.5-0.3-0.6-0.6c0-0.1-0.1-0.1-0.1-0.2c-0.4-0.2-0.8-0.3-1.3-0.3c-2.1,0-4.4,1.7-5.6,3.3c-0.1,0.1-0.1,0.1-0.3,0.1h-1
					V193.4z"/>
			</g>
			<g>
				<line fill="none" stroke="#211F1F" stroke-width="0.9921" stroke-miterlimit="10" x1="61.1" y1="39.2" x2="61.1" y2="193.7"/>
				<line fill="none" stroke="#211F1F" stroke-width="0.9921" stroke-miterlimit="10" x1="62.4" y1="39.2" x2="62.4" y2="193.7"/>
			</g>
			<g>
				<line fill="none" stroke="#211F1F" stroke-width="0.9921" stroke-miterlimit="10" x1="53.8" y1="42.3" x2="53.8" y2="193.7"/>
				<line fill="none" stroke="#211F1F" stroke-width="0.9921" stroke-miterlimit="10" x1="69.7" y1="42.3" x2="69.7" y2="193.7"/>
			</g>
		</g>
		<g>
			<g>
				<path fill="#FFFFFF" d="M43.5,21.9C43.6,21.9,43.6,21.9,43.5,21.9c0-0.1-0.1-0.1-0.1-0.1c-1.7-1.8-5-3.4-7.3-2.4
					c-0.2,0.2-0.2,0.5-0.6,0.6l0,0c-0.4,0-0.3-0.3-0.6-0.6c-2.3-1-5.7,0.7-7.4,2.6c0,0,0,0,0,0h-1.3v171.8h18.5V21.9H43.5z"/>
				<path fill="#211F1F" d="M44.9,194H26.4c-0.2,0-0.3-0.1-0.3-0.3V21.9c0-0.2,0.1-0.3,0.3-0.3h1.2c1.3-1.4,3.8-2.9,6-2.9
					c0.6,0,1.1,0.1,1.6,0.3c0,0,0.1,0,0.1,0.1c0.1,0.1,0.2,0.2,0.2,0.3c0.1,0.1,0.1,0.2,0.1,0.2c0.1,0,0.1-0.1,0.1-0.2
					c0-0.1,0.1-0.2,0.2-0.3c0,0,0.1-0.1,0.1-0.1c0.5-0.2,1-0.3,1.6-0.3c2.3,0,4.7,1.5,6,2.8l0,0.1h1.3c0.2,0,0.3,0.1,0.3,0.3v171.8
					C45.2,193.9,45.1,194,44.9,194z M26.7,193.4h17.9V22.2h-1.1c-0.1,0-0.2,0-0.2-0.1c0,0,0-0.1-0.1-0.1c0,0,0,0,0,0
					c-1.2-1.3-3.5-2.6-5.5-2.6c-0.5,0-0.9,0.1-1.3,0.2c0,0-0.1,0.1-0.1,0.1c-0.1,0.2-0.2,0.4-0.6,0.5c0,0-0.1,0-0.1,0
					c-0.4-0.1-0.5-0.3-0.6-0.5c0,0-0.1-0.1-0.1-0.1c-0.4-0.2-0.8-0.2-1.3-0.2c-2.1,0-4.4,1.4-5.6,2.8c-0.1,0.1-0.1,0.1-0.2,0.1h-1
					V193.4z"/>
			</g>
			<g>
				<line fill="none" stroke="#211F1F" stroke-width="0.9921" stroke-miterlimit="10" x1="35" y1="19.4" x2="35" y2="193.7"/>
				<line fill="none" stroke="#211F1F" stroke-width="0.9921" stroke-miterlimit="10" x1="36.3" y1="19.4" x2="36.3" y2="193.7"/>
			</g>
			<g>
				<line fill="none" stroke="#211F1F" stroke-width="0.9921" stroke-miterlimit="10" x1="27.7" y1="21.9" x2="27.7" y2="193.7"/>
				<line fill="none" stroke="#211F1F" stroke-width="0.9921" stroke-miterlimit="10" x1="43.6" y1="21.9" x2="43.6" y2="193.7"/>
			</g>
		</g>
		<g>
			<g>
				<path fill="#FFFFFF" d="M17.5,42.3C17.5,42.3,17.5,42.2,17.5,42.3c0-0.1-0.1-0.1-0.1-0.2c-1.7-2.2-5-4.1-7.3-2.9
					c-0.2,0.3-0.2,0.6-0.6,0.7l0,0c-0.4-0.1-0.3-0.4-0.6-0.7C6.7,38,3.3,40,1.6,42.3c0,0,0,0,0,0H0.3v151.4h18.5V42.3H17.5z"/>
				<path fill="#211F1F" d="M18.8,194H0.3c-0.2,0-0.3-0.1-0.3-0.3V42.3C0,42.1,0.1,42,0.3,42h1.2c1.3-1.7,3.8-3.4,6-3.4
					c0.6,0,1.2,0.1,1.6,0.4c0,0,0.1,0.1,0.1,0.1c0.1,0.1,0.1,0.2,0.2,0.3c0.1,0.1,0.1,0.2,0.1,0.2c0,0,0.1-0.1,0.1-0.2
					c0.1-0.1,0.1-0.2,0.2-0.3c0,0,0.1-0.1,0.1-0.1c0.5-0.3,1-0.4,1.7-0.4c2.3,0,4.7,1.8,6,3.4c0,0,0,0,0,0.1h1.2
					c0.2,0,0.3,0.1,0.3,0.3v151.4C19.1,193.9,19,194,18.8,194z M0.6,193.4h17.9V42.6h-1.1c-0.1,0-0.2,0-0.2-0.1
					c0-0.1-0.1-0.1-0.1-0.2l0,0c-1.2-1.6-3.5-3.2-5.5-3.2c-0.5,0-0.9,0.1-1.3,0.3c0,0.1-0.1,0.1-0.1,0.2c-0.1,0.2-0.2,0.5-0.6,0.6
					c0,0-0.1,0-0.1,0c-0.4-0.1-0.5-0.4-0.6-0.6c0-0.1-0.1-0.1-0.1-0.2c-0.4-0.2-0.8-0.3-1.3-0.3c-2.1,0-4.4,1.7-5.6,3.3c0,0,0,0,0,0
					c-0.1,0.1-0.1,0.1-0.2,0.1h-1V193.4z"/>
			</g>
			<g>
				<line fill="none" stroke="#211F1F" stroke-width="0.9921" stroke-miterlimit="10" x1="8.9" y1="39.2" x2="8.9" y2="193.7"/>
				<line fill="none" stroke="#211F1F" stroke-width="0.9921" stroke-miterlimit="10" x1="10.2" y1="39.2" x2="10.2" y2="193.7"/>
			</g>
			<g>
				<line fill="none" stroke="#211F1F" stroke-width="0.9921" stroke-miterlimit="10" x1="1.6" y1="42.3" x2="1.6" y2="193.7"/>
				<line fill="none" stroke="#211F1F" stroke-width="0.9921" stroke-miterlimit="10" x1="17.5" y1="42.3" x2="17.5" y2="193.7"/>
			</g>
		</g>
	</g>
</g>
</svg>
