<svg xmlns="http://www.w3.org/2000/svg" width="280" height="195" viewBox="0 0 280 195"><path fill="#FFF" d="M6.1 60.2h256.7v10.3H6.1z"/><path fill="#211F1F" d="M262.8 70.8H6.1c-.2 0-.3-.1-.3-.3V60.2c0-.2.1-.3.3-.3h256.7c.2 0 .3.1.3.3v10.3c0 .2-.1.3-.3.3zM6.4 70.2h256.1v-9.7H6.4v9.7z"/><g fill="#211F1F"><path d="M6.1 62.4h256.7v1.5H6.1zM6.1 66.9h256.7v1.5H6.1z"/></g><g><path fill="#FFF" d="M6.1 158.1h256.7v10.3H6.1z"/><path fill="#211F1F" d="M262.8 168.7H6.1c-.2 0-.3-.1-.3-.3v-10.3c0-.2.1-.3.3-.3h256.7c.1 0 .2 0 .2.1s.1.1.1.2v10.3c0 .2-.1.3-.3.3zm-256.4-.5h256.1v-9.7H6.4v9.7z"/><g fill="#211F1F"><path d="M6.1 160.3h256.7v1.5H6.1zM6.1 164.8h256.7v1.5H6.1z"/></g></g><g><path fill="#FFF" d="M121.8 42.3s0-.1 0 0c0-.1-.1-.1-.1-.2-1.7-2.2-5-4.1-7.3-2.9-.2.3-.2.6-.6.7-.4-.1-.3-.4-.6-.7-2.3-1.2-5.7.8-7.4 3.1h-1.3v151.4H123V42.3h-1.2z"/><path fill="#211F1F" d="M123.2 194h-18.5c-.2 0-.3-.1-.3-.3V42.3c0-.2.1-.3.3-.3h1.2c1.3-1.7 3.8-3.4 6-3.4.6 0 1.2.1 1.7.4l.1.1c.1.1.1.2.2.3.1.1.1.2.1.2s.1-.1.1-.2c.1-.1.1-.2.2-.3l.1-.1c.5-.3 1-.4 1.7-.4 2.3 0 4.7 1.8 6 3.4v.1h1.2c.2 0 .3.1.3.3v151.4c-.1.1-.3.2-.4.2zm-18.3-.6h17.9V42.6h-1.1c-.1 0-.2 0-.2-.1l-.1-.1v-.1c-1.2-1.6-3.5-3.1-5.5-3.1-.5 0-.9.1-1.3.3 0 .1-.1.1-.1.2-.1.2-.2.5-.6.6h-.1c-.4-.1-.5-.4-.6-.6 0-.1-.1-.1-.1-.2-.4-.2-.8-.3-1.3-.3-2.1 0-4.4 1.7-5.6 3.3 0 .1-.1.1-.2.1h-1.1v150.8z"/><g fill="none" stroke="#211F1F" stroke-width=".992" stroke-miterlimit="10"><path d="M113.3 39.2v154.5M114.6 39.2v154.5"/></g><g fill="none" stroke="#211F1F" stroke-width=".992" stroke-miterlimit="10"><path d="M106 42.3v151.4M121.9 42.3v151.4"/></g><path fill="#FFF" d="M147.9 21.9c0-.1-.1-.1-.1-.1-1.7-1.8-5-3.4-7.3-2.4-.2.2-.2.5-.6.6-.4 0-.3-.3-.6-.6-2.3-1-5.7.7-7.4 2.6h-1.3v171.8h18.5V21.9h-1.2z"/><path fill="#211F1F" d="M149.3 194h-18.5c-.2 0-.3-.1-.3-.3V21.9c0-.2.1-.3.3-.3h1.2c1.3-1.4 3.8-2.9 6-2.9.6 0 1.1.1 1.6.3 0 0 .1 0 .1.1.1.1.2.2.2.3.1.1.1.2.1.2.1 0 .1-.1.2-.2 0-.1.1-.2.2-.3l.1-.1c.5-.2 1-.3 1.6-.3 2.3 0 4.7 1.5 6 2.8v.1h1.2c.2 0 .3.1.3.3v171.8c0 .2-.2.3-.3.3zm-18.3-.6h18V22.2h-1.1c-.1 0-.2 0-.2-.1V22c-1.2-1.3-3.5-2.6-5.5-2.6-.5 0-.9.1-1.3.2l-.1.1c-.1.2-.2.4-.6.5h-.1c-.4-.1-.5-.3-.6-.5 0-.1-.1-.1-.1-.1-.4-.2-.8-.2-1.3-.2-2.1 0-4.4 1.4-5.6 2.8-.1.1-.1.1-.2.1h-1v171.1z"/><g fill="none" stroke="#211F1F" stroke-width=".992" stroke-miterlimit="10"><path d="M139.4 19.4v174.3M140.6 19.4v174.3"/></g><g fill="none" stroke="#211F1F" stroke-width=".992" stroke-miterlimit="10"><path d="M132.1 21.9v171.8M147.9 21.9v171.8"/></g><path fill="#FFF" d="M174 42.3s0-.1 0 0c0-.1-.1-.1-.1-.2-1.7-2.2-5-4.1-7.3-2.9-.2.3-.2.6-.6.7-.4-.1-.3-.4-.6-.7-2.3-1.2-5.7.8-7.4 3.1h-1.3v151.4h18.5V42.3H174z"/><path fill="#211F1F" d="M175.4 194h-18.5c-.2 0-.3-.1-.3-.3V42.3c0-.2.1-.3.3-.3h1.2c1.3-1.7 3.8-3.4 6-3.4.6 0 1.2.1 1.7.4l.1.1c.1.1.1.2.2.3.1.1.1.2.1.2s.1-.1.1-.2c.1-.1.1-.2.2-.3l.1-.1c.5-.3 1-.4 1.7-.4 2.3 0 4.7 1.8 6 3.4v.1h1.2c.2 0 .3.1.3.3v151.4c-.2.1-.3.2-.4.2zm-18.3-.6H175V42.6h-1c-.1 0-.2 0-.2-.1l-.1-.1c-1.2-1.6-3.5-3.2-5.5-3.2-.5 0-.9.1-1.3.3 0 .1-.1.1-.1.2-.1.2-.2.5-.6.6h-.1c-.4-.1-.5-.4-.6-.6 0-.1-.1-.1-.1-.2-.4-.2-.8-.3-1.3-.3-2.1 0-4.4 1.7-5.6 3.3-.1.1-.1.1-.2.1h-1v150.8z"/><g fill="none" stroke="#211F1F" stroke-width=".992" stroke-miterlimit="10"><path d="M165.4 39.2v154.5M166.7 39.2v154.5"/></g><g fill="none" stroke="#211F1F" stroke-width=".992" stroke-miterlimit="10"><path d="M158.1 42.3v151.4M174 42.3v151.4"/></g><g><path fill="#FFF" d="M200.1 21.9c0-.1-.1-.1-.1-.1-1.7-1.8-5-3.4-7.3-2.4-.2.2-.2.5-.6.6-.4 0-.3-.3-.6-.6-2.3-1-5.7.7-7.4 2.6h-1.3v171.8h18.5V21.9h-1.2z"/><path fill="#211F1F" d="M201.4 194h-18.5c-.2 0-.3-.1-.3-.3V21.9c0-.2.1-.3.3-.3h1.2c1.3-1.4 3.8-2.9 6-2.9.6 0 1.1.1 1.6.3 0 0 .1 0 .1.1.1.1.2.2.2.3.1.1.1.2.1.2.1 0 .1-.1.2-.2 0-.1.1-.2.2-.3l.1-.1c.5-.2 1-.3 1.6-.3 2.3 0 4.7 1.5 6 2.8v.1h1.3c.2 0 .3.1.3.3v171.8c-.1.2-.2.3-.4.3zm-18.2-.6h17.9V22.2H200c-.1 0-.2 0-.2-.1 0 0 0-.1-.1-.1-1.2-1.3-3.5-2.6-5.5-2.6-.5 0-.9.1-1.3.2l-.1.1c-.1.2-.2.4-.6.5h-.1c-.4-.1-.5-.3-.6-.5 0-.1-.1-.1-.1-.1-.4-.2-.8-.2-1.3-.2-2.1 0-4.4 1.4-5.6 2.8-.1.1-.1.1-.2.1h-1v171.1z"/><g fill="none" stroke="#211F1F" stroke-width=".992" stroke-miterlimit="10"><path d="M191.5 19.4v174.3M192.8 19.4v174.3"/></g><g fill="none" stroke="#211F1F" stroke-width=".992" stroke-miterlimit="10"><path d="M184.2 21.9v171.8M200.1 21.9v171.8"/></g></g><g><path fill="#FFF" d="M226.2 42.3s0-.1 0 0c0-.1-.1-.1-.1-.2-1.7-2.2-5-4.1-7.3-2.9-.2.3-.2.6-.6.7-.4-.1-.3-.4-.6-.7-2.3-1.2-5.7.8-7.4 3.1H209v151.4h18.5V42.3h-1.3z"/><path fill="#211F1F" d="M227.5 194H209c-.2 0-.3-.1-.3-.3V42.3c0-.2.1-.3.3-.3h1.2c1.3-1.7 3.8-3.4 6-3.4.6 0 1.2.1 1.6.4l.1.1c.1.1.1.2.2.3.1.1.1.2.1.2s.1-.1.1-.2c.1-.1.1-.2.2-.3l.1-.1c.5-.3 1-.4 1.7-.4 2.3 0 4.7 1.8 6 3.4v.1h1.2c.2 0 .3.1.3.3v151.4c0 .1-.1.2-.3.2zm-18.2-.6h17.9V42.6h-1.1c-.1 0-.2 0-.2-.1l-.1-.1c-1.2-1.6-3.5-3.2-5.5-3.2-.5 0-.9.1-1.3.3 0 .1-.1.1-.1.2-.1.2-.2.5-.6.6h-.1c-.4-.1-.5-.4-.6-.6 0-.1-.1-.1-.1-.2-.4-.2-.8-.3-1.3-.3-2.1 0-4.4 1.7-5.6 3.3-.1.1-.1.1-.3.1h-1v150.8z"/><g fill="none" stroke="#211F1F" stroke-width=".992" stroke-miterlimit="10"><path d="M217.6 39.2v154.5M218.9 39.2v154.5"/></g><g fill="none" stroke="#211F1F" stroke-width=".992" stroke-miterlimit="10"><path d="M210.3 42.3v151.4M226.2 42.3v151.4"/></g></g><g><path fill="#FFF" d="M252.3 21.9c0-.1-.1-.1-.1-.1-1.7-1.8-5-3.4-7.3-2.4-.2.2-.2.5-.6.6-.4 0-.3-.3-.6-.6-2.3-1-5.7.7-7.4 2.6H235v171.8h18.5V21.9h-1.2z"/><path fill="#211F1F" d="M253.6 194h-18.5c-.2 0-.3-.1-.3-.3V21.9c0-.2.1-.3.3-.3h1.2c1.3-1.4 3.8-2.9 6-2.9.6 0 1.1.1 1.6.3 0 0 .1 0 .1.1.1.1.1.2.2.3.1.1.1.2.1.2.1 0 .1-.1.1-.2s.1-.2.2-.3l.1-.1c.5-.2 1-.3 1.6-.3 2.3 0 4.7 1.5 6 2.8v.1h1.2c.2 0 .3.1.3.3v171.8c.1.2 0 .3-.2.3zm-18.2-.6h17.9V22.2h-1.1c-.1 0-.2 0-.2-.1l-.1-.1c-1.2-1.3-3.5-2.6-5.5-2.6-.5 0-.9.1-1.3.2l-.1.1c-.1.2-.2.4-.6.5h-.1c-.4-.1-.5-.3-.6-.5 0-.1-.1-.1-.1-.1-.4-.2-.8-.2-1.3-.2-2.1 0-4.4 1.4-5.6 2.8-.1.1-.1.1-.2.1h-1v171.1z"/><g fill="none" stroke="#211F1F" stroke-width=".992" stroke-miterlimit="10"><path d="M243.7 19.4v174.3M245 19.4v174.3"/></g><g fill="none" stroke="#211F1F" stroke-width=".992" stroke-miterlimit="10"><path d="M236.4 21.9v171.8M252.3 21.9v171.8"/></g></g><g><path fill="#FFF" d="M278.4 42.3s0-.1 0 0c0-.1-.1-.1-.1-.2-1.7-2.2-5-4.1-7.3-2.9-.2.3-.2.6-.6.7-.4-.1-.3-.4-.6-.7-2.3-1.2-5.7.8-7.4 3.1h-1.3v151.4h18.5V42.3h-1.2z"/><path fill="#211F1F" d="M261.2 194c-.1 0-.2 0-.2-.1s-.1-.1-.1-.2V42.3c0-.2.1-.3.3-.3h1.2c1.3-1.7 3.8-3.4 6-3.4.6 0 1.2.1 1.7.4l.1.1c.1.1.1.2.2.4.1.1.1.2.1.2s.1-.1.1-.2c.1-.1.1-.2.2-.3l.1-.1c.5-.3 1-.4 1.7-.4 2.3 0 4.7 1.8 6 3.4v.1h1.2c.2 0 .3.1.3.3v151.4c0 .2-.1.3-.3.3h-18.6zm.3-151.4v150.8h17.9V42.6h-1.1c-.1 0-.2 0-.2-.1l-.1-.1c-1.2-1.6-3.5-3.2-5.5-3.2-.5 0-.9.1-1.3.3 0 .1-.1.1-.1.2-.1.2-.2.5-.6.6h-.1c-.4-.1-.5-.3-.6-.6 0-.1-.1-.1-.1-.2-.4-.2-.8-.3-1.3-.3-2.1 0-4.4 1.7-5.6 3.3 0 .1-.1.1-.3.1h-1z"/><g fill="none" stroke="#211F1F" stroke-width=".992" stroke-miterlimit="10"><path d="M269.8 39.2v154.5M271.1 39.2v154.5"/></g><g fill="none" stroke="#211F1F" stroke-width=".992" stroke-miterlimit="10"><path d="M262.5 42.3v151.4M278.4 42.3v151.4"/></g></g><g><path fill="#FFF" d="M95.7 21.9c0-.1-.1-.1-.1-.1-1.7-1.8-5-3.4-7.3-2.4-.2.2-.2.5-.6.6-.4 0-.3-.3-.6-.6-2.3-1-5.7.7-7.4 2.6h-1.3v171.8h18.5V21.9h-1.2z"/><path fill="#211F1F" d="M97.1 194H78.6c-.2 0-.3-.1-.3-.3V21.9c0-.2.1-.3.3-.3h1.2c1.3-1.4 3.8-2.9 6-2.9.6 0 1.1.1 1.6.3 0 0 .1 0 .1.1.1.1.2.2.2.3.1.1.1.2.1.2.1 0 .1-.1.2-.2 0-.1.1-.2.2-.3l.1-.1c.5-.2 1-.3 1.6-.3 2.3 0 4.7 1.5 6 2.8l.1.1h1.2c.2 0 .3.1.3.3v171.8c-.1.2-.3.3-.4.3zm-18.2-.6h17.9V22.2h-1.1c-.1 0-.2 0-.2-.1 0 0 0-.1-.1-.1-1.3-1.3-3.5-2.6-5.5-2.6-.5 0-.9.1-1.3.2l-.1.1c-.1.2-.2.4-.6.5h-.1c-.4-.1-.5-.3-.6-.5l-.1-.1c-.4-.2-.8-.2-1.3-.2-2.1 0-4.4 1.4-5.6 2.8-.1.1-.1.1-.2.1h-1v171.1z"/><g fill="none" stroke="#211F1F" stroke-width=".992" stroke-miterlimit="10"><path d="M87.2 19.4v174.3M88.5 19.4v174.3"/></g><g fill="none" stroke="#211F1F" stroke-width=".992" stroke-miterlimit="10"><path d="M79.9 21.9v171.8M95.8 21.9v171.8"/></g></g><g><path fill="#FFF" d="M69.6 42.3s0-.1 0 0c0-.1-.1-.1-.1-.2-1.7-2.2-5-4.1-7.3-2.9-.2.3-.2.6-.6.7-.4-.1-.3-.4-.6-.7-2.3-1.2-5.7.8-7.4 3.1h-1.3v151.4H71V42.3h-1.4z"/><path fill="#211F1F" d="M71 194H52.5c-.2 0-.3-.1-.3-.3V42.3c0-.2.1-.3.3-.3h1.2c1.3-1.7 3.8-3.4 6-3.4.6 0 1.2.1 1.7.4l.1.1c.1.1.1.2.2.3.1.1.1.2.1.2s.1-.1.1-.2c.1-.1.1-.2.2-.3l.1-.1c.5-.3 1-.4 1.7-.4 2.3 0 4.7 1.8 6 3.4v.1H71c.2 0 .3.1.3.3v151.4c0 .1-.1.2-.3.2zm-18.2-.6h17.9V42.6h-1.1c-.1 0-.2 0-.2-.1l-.1-.1c-1.2-1.6-3.5-3.2-5.5-3.2-.5 0-.9.1-1.3.3 0 .1-.1.1-.1.2-.1.2-.2.5-.6.6h-.1c-.4-.1-.5-.3-.6-.6 0-.1-.1-.1-.1-.2-.4-.2-.8-.3-1.3-.3-2.1 0-4.4 1.7-5.6 3.3-.1.1-.1.1-.3.1h-1v150.8z"/><g fill="none" stroke="#211F1F" stroke-width=".992" stroke-miterlimit="10"><path d="M61.1 39.2v154.5M62.4 39.2v154.5"/></g><g fill="none" stroke="#211F1F" stroke-width=".992" stroke-miterlimit="10"><path d="M53.8 42.3v151.4M69.7 42.3v151.4"/></g></g><g><path fill="#FFF" d="M43.5 21.9c.1 0 .1 0 0 0 0-.1-.1-.1-.1-.1-1.7-1.8-5-3.4-7.3-2.4-.2.2-.2.5-.6.6-.4 0-.3-.3-.6-.6-2.3-1-5.7.7-7.4 2.6h-1.3v171.8h18.5V21.9h-1.2z"/><path fill="#211F1F" d="M44.9 194H26.4c-.2 0-.3-.1-.3-.3V21.9c0-.2.1-.3.3-.3h1.2c1.3-1.4 3.8-2.9 6-2.9.6 0 1.1.1 1.6.3 0 0 .1 0 .1.1.1.1.2.2.2.3.1.1.1.2.1.2.1 0 .1-.1.1-.2s.1-.2.2-.3l.1-.1c.5-.2 1-.3 1.6-.3 2.3 0 4.7 1.5 6 2.8v.1h1.3c.2 0 .3.1.3.3v171.8c0 .2-.1.3-.3.3zm-18.2-.6h17.9V22.2h-1.1c-.1 0-.2 0-.2-.1 0 0 0-.1-.1-.1-1.2-1.3-3.5-2.6-5.5-2.6-.5 0-.9.1-1.3.2l-.1.1c-.1.2-.2.4-.6.5h-.1c-.4-.1-.5-.3-.6-.5l-.1-.1c-.4-.2-.8-.2-1.3-.2-2.1 0-4.4 1.4-5.6 2.8-.1.1-.1.1-.2.1h-1v171.1z"/><g fill="none" stroke="#211F1F" stroke-width=".992" stroke-miterlimit="10"><path d="M35 19.4v174.3M36.3 19.4v174.3"/></g><g fill="none" stroke="#211F1F" stroke-width=".992" stroke-miterlimit="10"><path d="M27.7 21.9v171.8M43.6 21.9v171.8"/></g></g><g><path fill="#FFF" d="M17.5 42.3s0-.1 0 0c0-.1-.1-.1-.1-.2-1.7-2.2-5-4.1-7.3-2.9-.2.3-.2.6-.6.7-.4-.1-.3-.4-.6-.7-2.2-1.2-5.6.8-7.3 3.1H.3v151.4h18.5V42.3h-1.3z"/><path fill="#211F1F" d="M18.8 194H.3c-.2 0-.3-.1-.3-.3V42.3c0-.2.1-.3.3-.3h1.2c1.3-1.7 3.8-3.4 6-3.4.6 0 1.2.1 1.6.4l.1.1c.1.1.1.2.2.3.1.1.1.2.1.2s.1-.1.1-.2c.1-.1.1-.2.2-.3l.1-.1c.5-.3 1-.4 1.7-.4 2.3 0 4.7 1.8 6 3.4v.1h1.2c.2 0 .3.1.3.3v151.4c0 .1-.1.2-.3.2zm-18.2-.6h17.9V42.6h-1.1c-.1 0-.2 0-.2-.1s-.1-.1-.1-.2c-1.2-1.6-3.5-3.2-5.5-3.2-.5 0-.9.1-1.3.3 0 .1-.1.1-.1.2-.1.2-.2.5-.6.6h-.1c-.4-.1-.5-.4-.6-.6 0-.1-.1-.1-.1-.2-.4-.2-.8-.3-1.3-.3-2.1 0-4.4 1.7-5.6 3.3-.1.1-.1.1-.2.1h-1v150.9z"/><g fill="none" stroke="#211F1F" stroke-width=".992" stroke-miterlimit="10"><path d="M8.9 39.2v154.5M10.2 39.2v154.5"/></g><g fill="none" stroke="#211F1F" stroke-width=".992" stroke-miterlimit="10"><path d="M1.6 42.3v151.4M17.5 42.3v151.4"/></g></g></g></svg>