<?xml version="1.0" encoding="utf-8"?>
<!-- Generator: Adobe Illustrator 16.2.0, SVG Export Plug-In . SVG Version: 6.00 Build 0)  -->
<!DOCTYPE svg PUBLIC "-//W3C//DTD SVG 1.1//EN" "http://www.w3.org/Graphics/SVG/1.1/DTD/svg11.dtd">
<svg version="1.1" id="Layer_1" xmlns="http://www.w3.org/2000/svg" xmlns:xlink="http://www.w3.org/1999/xlink" x="0px" y="0px"
	 width="280px" height="195px" viewBox="0 0 280 195" enable-background="new 0 0 280 195" xml:space="preserve">
<g>
	<g>
		<g>
			<g>
				<rect x="6.1" y="79.3" fill="#FFFFFF" width="256.7" height="8.8"/>
				<path fill="#211F1F" d="M262.8,88.5H6.1c-0.2,0-0.3-0.1-0.3-0.3v-8.8C5.9,79.2,6,79,6.1,79l256.7,0c0.1,0,0.2,0,0.2,0.1
					s0.1,0.1,0.1,0.2v8.8C263.1,88.3,263,88.5,262.8,88.5z M6.4,87.9h256.1v-8.3l-256.1,0V87.9z"/>
			</g>
			<g>
				<rect x="6.1" y="81.2" fill="#211F1F" width="256.7" height="1.3"/>
				<rect x="6.1" y="85" fill="#211F1F" width="256.7" height="1.3"/>
			</g>
		</g>
		<g>
			<g>
				<rect x="6.1" y="163.3" fill="#FFFFFF" width="256.7" height="8.8"/>
				<path fill="#211F1F" d="M6.1,172.5c-0.1,0-0.2,0-0.2-0.1s-0.1-0.1-0.1-0.2v-8.8c0-0.2,0.1-0.3,0.3-0.3h256.7
					c0.2,0,0.3,0.1,0.3,0.3v8.8c0,0.2-0.1,0.3-0.3,0.3L6.1,172.5z M6.4,163.6v8.3l256.1,0v-8.3H6.4z"/>
			</g>
			<g>
				<rect x="6.1" y="165.2" fill="#211F1F" width="256.7" height="1.3"/>
				<rect x="6.1" y="169" fill="#211F1F" width="256.7" height="1.3"/>
			</g>
		</g>
	</g>
	<g>
		<g>
			<path fill="#FFFFFF" d="M121.8,22.7C121.8,22.7,121.8,22.7,121.8,22.7c0-0.1-0.1-0.1-0.1-0.1c-1.7-1.8-5-3.4-7.3-2.4
				c-0.2,0.2-0.2,0.5-0.6,0.6v0c-0.4,0-0.3-0.3-0.6-0.6c-2.3-1-5.7,0.7-7.4,2.6c0,0,0,0,0,0h-1.3v171h18.5v-171H121.8z"/>
			<path fill="#211F1F" d="M123.2,194h-18.5c-0.2,0-0.3-0.1-0.3-0.3v-171c0-0.2,0.1-0.3,0.3-0.3h1.2c1.3-1.4,3.8-2.9,6-2.9
				c0.6,0,1.1,0.1,1.6,0.3c0,0,0.1,0,0.1,0.1c0.1,0.1,0.1,0.2,0.2,0.3c0.1,0.1,0.1,0.2,0.1,0.2c0.1,0,0.1-0.1,0.1-0.2
				c0-0.1,0.1-0.2,0.2-0.3c0,0,0.1-0.1,0.1-0.1c0.5-0.2,1-0.3,1.6-0.3c2.3,0,4.7,1.5,6,2.8l0.1,0.1h1.2c0.2,0,0.3,0.1,0.3,0.3v171
				C123.5,193.9,123.3,194,123.2,194z M104.9,193.4h17.9V23h-1.1c-0.1,0-0.2,0-0.2-0.1c0,0,0-0.1-0.1-0.1l0,0
				c-1.2-1.3-3.5-2.6-5.5-2.6c-0.5,0-0.9,0.1-1.3,0.2c0,0-0.1,0.1-0.1,0.1c-0.1,0.2-0.2,0.4-0.6,0.5c0,0-0.1,0-0.1,0
				c-0.4-0.1-0.5-0.3-0.6-0.5c0,0-0.1-0.1-0.1-0.1c-0.4-0.2-0.8-0.2-1.3-0.2c-2.1,0-4.4,1.4-5.6,2.7C106.1,23,106,23,106,23h-1
				V193.4z"/>
		</g>
		<g>
			<line fill="none" stroke="#211F1F" stroke-width="0.9921" stroke-miterlimit="10" x1="113.3" y1="20.2" x2="113.3" y2="193.7"/>
			<line fill="none" stroke="#211F1F" stroke-width="0.9921" stroke-miterlimit="10" x1="114.6" y1="20.2" x2="114.6" y2="193.7"/>
		</g>
		<g>
			<line fill="none" stroke="#211F1F" stroke-width="0.9921" stroke-miterlimit="10" x1="106" y1="22.7" x2="106" y2="193.7"/>
			<line fill="none" stroke="#211F1F" stroke-width="0.9921" stroke-miterlimit="10" x1="121.9" y1="22.7" x2="121.9" y2="193.7"/>
		</g>
	</g>
	<g>
		<g>
			<path fill="#FFFFFF" d="M147.9,18.5C147.9,18.5,147.9,18.5,147.9,18.5c0-0.1-0.1-0.1-0.1-0.2c-1.7-1.9-5-3.5-7.3-2.5
				c-0.2,0.2-0.2,0.5-0.6,0.6l0,0c-0.4,0-0.3-0.3-0.6-0.6c-2.3-1-5.7,0.7-7.4,2.7c0,0,0,0,0,0h-1.3v175.2h18.5V18.5H147.9z"/>
			<path fill="#211F1F" d="M149.3,194h-18.5c-0.2,0-0.3-0.1-0.3-0.3V18.5c0-0.2,0.1-0.3,0.3-0.3h1.2c1.3-1.5,3.8-3,6-3
				c0.6,0,1.1,0.1,1.6,0.3c0,0,0.1,0,0.1,0.1c0.1,0.1,0.2,0.2,0.2,0.3c0.1,0.1,0.1,0.2,0.1,0.2c0.1,0,0.1-0.1,0.1-0.2
				c0-0.1,0.1-0.2,0.2-0.3c0,0,0.1-0.1,0.1-0.1c0.5-0.2,1-0.3,1.6-0.3c2.3,0,4.7,1.5,6,2.9l0,0.1h1.3c0.2,0,0.3,0.1,0.3,0.3v175.2
				C149.6,193.9,149.4,194,149.3,194z M131,193.4H149V18.8h-1.1c-0.1,0-0.2,0-0.2-0.1c0,0,0-0.1-0.1-0.1c0,0,0,0,0,0
				c-1.2-1.3-3.5-2.7-5.5-2.7c-0.5,0-0.9,0.1-1.3,0.2c0,0-0.1,0.1-0.1,0.1c-0.1,0.2-0.2,0.4-0.6,0.5c0,0-0.1,0-0.1,0
				c-0.4-0.1-0.5-0.3-0.6-0.5c0-0.1-0.1-0.1-0.1-0.1c-0.4-0.2-0.8-0.2-1.3-0.2c-2.1,0-4.4,1.4-5.6,2.8c-0.1,0.1-0.1,0.1-0.2,0.1h-1
				V193.4z"/>
		</g>
		<g>
			<line fill="none" stroke="#211F1F" stroke-width="0.9921" stroke-miterlimit="10" x1="139.4" y1="15.9" x2="139.4" y2="193.7"/>
			<line fill="none" stroke="#211F1F" stroke-width="0.9921" stroke-miterlimit="10" x1="140.6" y1="15.9" x2="140.6" y2="193.7"/>
		</g>
		<g>
			<line fill="none" stroke="#211F1F" stroke-width="0.9921" stroke-miterlimit="10" x1="132.1" y1="18.5" x2="132.1" y2="193.7"/>
			<line fill="none" stroke="#211F1F" stroke-width="0.9921" stroke-miterlimit="10" x1="147.9" y1="18.5" x2="147.9" y2="193.7"/>
		</g>
	</g>
	<g>
		<g>
			<path fill="#FFFFFF" d="M174,22.7C174,22.7,174,22.7,174,22.7c0-0.1-0.1-0.1-0.1-0.1c-1.7-1.8-5-3.4-7.3-2.4
				c-0.2,0.2-0.2,0.5-0.6,0.6v0c-0.4,0-0.3-0.3-0.6-0.6c-2.3-1-5.7,0.7-7.4,2.6c0,0,0,0,0,0h-1.3v171l18.5,0v-171H174z"/>
			<path fill="#211F1F" d="M156.8,194c-0.1,0-0.2,0-0.2-0.1c-0.1-0.1-0.1-0.1-0.1-0.2v-171c0-0.2,0.1-0.3,0.3-0.3h1.2
				c1.4-1.5,3.8-2.9,6-2.9c0.6,0,1.1,0.1,1.6,0.3c0,0,0.1,0,0.1,0.1c0.1,0.1,0.2,0.2,0.2,0.3c0.1,0.1,0.1,0.2,0.1,0.2
				c0.1,0,0.1-0.1,0.1-0.2c0-0.1,0.1-0.2,0.2-0.3c0,0,0.1-0.1,0.1-0.1c0.5-0.2,1-0.3,1.6-0.3c2.3,0,4.7,1.5,6,2.8c0,0,0,0,0.1,0.1
				h1.2c0.2,0,0.3,0.1,0.3,0.3v171c0,0.2-0.1,0.3-0.3,0.3L156.8,194z M157.1,23v170.4l17.9,0V23H174c-0.1,0-0.2,0-0.2-0.1
				c0,0,0-0.1,0-0.1l0,0c-1.2-1.3-3.5-2.6-5.5-2.6c-0.5,0-0.9,0.1-1.3,0.2c0,0-0.1,0.1-0.1,0.1c-0.1,0.2-0.2,0.4-0.6,0.5
				c0,0-0.1,0-0.1,0c-0.4-0.1-0.5-0.3-0.6-0.5c0,0-0.1-0.1-0.1-0.1c-0.4-0.2-0.8-0.2-1.3-0.2c-2.1,0-4.4,1.4-5.7,2.8
				c-0.1,0.1-0.1,0.1-0.2,0.1H157.1z"/>
		</g>
		<g>
			<line fill="none" stroke="#211F1F" stroke-width="0.9921" stroke-miterlimit="10" x1="165.4" y1="20.2" x2="165.4" y2="193.7"/>
			<line fill="none" stroke="#211F1F" stroke-width="0.9921" stroke-miterlimit="10" x1="166.7" y1="20.2" x2="166.7" y2="193.7"/>
		</g>
		<g>
			<line fill="none" stroke="#211F1F" stroke-width="0.9921" stroke-miterlimit="10" x1="158.1" y1="22.7" x2="158.1" y2="193.7"/>
			<line fill="none" stroke="#211F1F" stroke-width="0.9921" stroke-miterlimit="10" x1="174" y1="22.7" x2="174" y2="193.7"/>
		</g>
	</g>
	<g>
		<g>
			<path fill="#FFFFFF" d="M200.1,28.6C200.1,28.6,200.1,28.6,200.1,28.6c0-0.1-0.1-0.1-0.1-0.1c-1.7-1.8-5-3.3-7.3-2.3
				c-0.2,0.2-0.2,0.5-0.6,0.5l0,0c-0.4,0-0.3-0.3-0.6-0.5c-2.3-0.9-5.7,0.7-7.4,2.5c0,0,0,0,0,0h-1.3v165.1h18.5V28.6H200.1z"/>
			<path fill="#211F1F" d="M201.4,194h-18.5c-0.2,0-0.3-0.1-0.3-0.3V28.6c0-0.2,0.1-0.3,0.3-0.3h1.2c1.3-1.4,3.8-2.8,6-2.8
				c0.6,0,1.1,0.1,1.6,0.3c0,0,0.1,0,0.1,0.1c0.1,0.1,0.2,0.2,0.2,0.3c0.1,0.1,0.1,0.1,0.1,0.2c0.1,0,0.1,0,0.2-0.2
				c0-0.1,0.1-0.2,0.2-0.3c0,0,0.1-0.1,0.1-0.1c0.5-0.2,1-0.3,1.6-0.3c2.3,0,4.7,1.4,6,2.7l0,0.1h1.3c0.2,0,0.3,0.1,0.3,0.3v165.1
				C201.7,193.9,201.6,194,201.4,194z M183.2,193.4h17.9V28.9h-1.1c-0.1,0-0.2,0-0.2-0.1c0,0,0-0.1,0-0.1c0,0,0,0,0,0
				c-1.2-1.3-3.5-2.5-5.5-2.5c-0.5,0-0.9,0.1-1.3,0.2c0,0-0.1,0.1-0.1,0.1c-0.1,0.2-0.2,0.4-0.6,0.5c0,0-0.1,0-0.1,0
				c-0.4,0-0.5-0.3-0.6-0.5c0,0-0.1-0.1-0.1-0.1c-0.4-0.2-0.8-0.2-1.3-0.2c-2.1,0-4.4,1.3-5.6,2.6c-0.1,0.1-0.1,0.1-0.2,0.1h-1
				V193.4z"/>
		</g>
		<g>
			<line fill="none" stroke="#211F1F" stroke-width="0.9921" stroke-miterlimit="10" x1="191.5" y1="26.2" x2="191.5" y2="193.7"/>
			<line fill="none" stroke="#211F1F" stroke-width="0.9921" stroke-miterlimit="10" x1="192.8" y1="26.2" x2="192.8" y2="193.7"/>
		</g>
		<g>
			<line fill="none" stroke="#211F1F" stroke-width="0.9921" stroke-miterlimit="10" x1="184.2" y1="28.6" x2="184.2" y2="193.7"/>
			<line fill="none" stroke="#211F1F" stroke-width="0.9921" stroke-miterlimit="10" x1="200.1" y1="28.6" x2="200.1" y2="193.7"/>
		</g>
	</g>
	<g>
		<g>
			<path fill="#FFFFFF" d="M226.2,32.9C226.2,32.9,226.2,32.8,226.2,32.9c0-0.1-0.1-0.1-0.1-0.1c-1.7-1.7-5-3.1-7.3-2.3
				c-0.2,0.2-0.2,0.5-0.6,0.5l0,0c-0.4,0-0.3-0.3-0.6-0.5c-2.3-0.9-5.7,0.6-7.4,2.4c0,0,0,0,0,0H209v160.8h18.5V32.9H226.2z"/>
			<path fill="#211F1F" d="M227.5,194H209c-0.2,0-0.3-0.1-0.3-0.3V32.9c0-0.2,0.1-0.3,0.3-0.3h1.2c1.3-1.3,3.8-2.7,6-2.7
				c0.6,0,1.1,0.1,1.6,0.3c0,0,0.1,0,0.1,0.1c0.1,0.1,0.2,0.2,0.2,0.3c0.1,0.1,0.1,0.1,0.1,0.2c0.1,0,0.1,0,0.2-0.2
				c0-0.1,0.1-0.2,0.2-0.3c0,0,0.1-0.1,0.1-0.1c0.5-0.2,1-0.3,1.6-0.3c2.3,0,4.7,1.4,5.9,2.6c0,0,0,0,0.1,0.1h1.2
				c0.2,0,0.3,0.1,0.3,0.3v160.8C227.8,193.9,227.7,194,227.5,194z M209.3,193.4h17.9V33.2h-1.1c-0.1,0-0.2,0-0.2-0.1
				c0,0,0-0.1,0-0.1c0,0,0,0,0,0c-1.2-1.2-3.5-2.4-5.5-2.4c-0.5,0-0.9,0.1-1.3,0.2c0,0-0.1,0.1-0.1,0.1c-0.1,0.2-0.2,0.4-0.6,0.4
				c0,0-0.1,0-0.1,0c-0.4,0-0.5-0.3-0.6-0.4c0,0-0.1-0.1-0.1-0.1c-0.4-0.1-0.8-0.2-1.3-0.2c-2.1,0-4.4,1.3-5.6,2.5
				c-0.1,0.1-0.1,0.1-0.2,0.1h-1V193.4z"/>
		</g>
		<g>
			<line fill="none" stroke="#211F1F" stroke-width="0.9921" stroke-miterlimit="10" x1="217.6" y1="30.5" x2="217.6" y2="193.7"/>
			<line fill="none" stroke="#211F1F" stroke-width="0.9921" stroke-miterlimit="10" x1="218.9" y1="30.5" x2="218.9" y2="193.7"/>
		</g>
		<g>
			<line fill="none" stroke="#211F1F" stroke-width="0.9921" stroke-miterlimit="10" x1="210.3" y1="32.9" x2="210.3" y2="193.7"/>
			<line fill="none" stroke="#211F1F" stroke-width="0.9921" stroke-miterlimit="10" x1="226.2" y1="32.9" x2="226.2" y2="193.7"/>
		</g>
	</g>
	<g>
		<g>
			<path fill="#FFFFFF" d="M252.3,38.8C252.3,38.8,252.3,38.7,252.3,38.8c0-0.1-0.1-0.1-0.1-0.1c-1.7-1.6-5-3-7.3-2.2
				c-0.2,0.2-0.2,0.5-0.6,0.5v0c-0.4,0-0.3-0.3-0.6-0.5c-2.3-0.9-5.7,0.6-7.4,2.3c0,0,0,0,0,0h-1.3v154.9h18.5V38.8H252.3z"/>
			<path fill="#211F1F" d="M253.6,194h-18.5c-0.2,0-0.3-0.1-0.3-0.3V38.8c0-0.2,0.1-0.3,0.3-0.3h1.2c1.3-1.3,3.8-2.6,6-2.6
				c0.6,0,1.1,0.1,1.6,0.3c0,0,0.1,0,0.1,0.1c0.1,0.1,0.2,0.2,0.2,0.3c0.1,0.1,0.1,0.1,0.1,0.1c0.1,0,0.1,0,0.2-0.2
				c0-0.1,0.1-0.2,0.2-0.3c0,0,0.1-0.1,0.1-0.1c0.5-0.2,1-0.3,1.6-0.3c2.3,0,4.7,1.3,5.9,2.5c0,0,0,0,0.1,0.1h1.2
				c0.2,0,0.3,0.1,0.3,0.3v154.9C253.9,193.9,253.8,194,253.6,194z M235.4,193.4h17.9V39.1h-1.1c-0.1,0-0.2,0-0.2-0.1
				c0,0,0-0.1,0-0.1c0,0,0,0,0,0c-1.2-1.2-3.5-2.3-5.5-2.3c-0.5,0-0.9,0.1-1.3,0.2c0,0-0.1,0.1-0.1,0.1c-0.1,0.2-0.2,0.4-0.6,0.4
				c0,0-0.1,0-0.1,0c-0.4-0.1-0.5-0.3-0.6-0.4c0,0-0.1-0.1-0.1-0.1c-0.4-0.1-0.9-0.2-1.3-0.2c-2.1,0-4.4,1.2-5.7,2.5
				c-0.1,0.1-0.1,0.1-0.2,0.1h-1V193.4z"/>
		</g>
		<g>
			<line fill="none" stroke="#211F1F" stroke-width="0.9921" stroke-miterlimit="10" x1="243.7" y1="36.5" x2="243.7" y2="193.7"/>
			<line fill="none" stroke="#211F1F" stroke-width="0.9921" stroke-miterlimit="10" x1="245" y1="36.5" x2="245" y2="193.7"/>
		</g>
		<g>
			<line fill="none" stroke="#211F1F" stroke-width="0.9921" stroke-miterlimit="10" x1="236.4" y1="38.8" x2="236.4" y2="193.7"/>
			<line fill="none" stroke="#211F1F" stroke-width="0.9921" stroke-miterlimit="10" x1="252.3" y1="38.8" x2="252.3" y2="193.7"/>
		</g>
	</g>
	<g>
		<g>
			<path fill="#FFFFFF" d="M278.4,46.3C278.4,46.3,278.4,46.3,278.4,46.3c0-0.1-0.1-0.1-0.1-0.1c-1.7-1.6-5-2.9-7.3-2.1
				c-0.2,0.2-0.2,0.4-0.6,0.5l0,0c-0.4,0-0.3-0.3-0.6-0.5c-2.3-0.8-5.7,0.6-7.4,2.2c0,0,0,0,0,0h-1.3v147.4h18.5V46.3H278.4z"/>
			<path fill="#211F1F" d="M279.7,194h-18.5c-0.2,0-0.3-0.1-0.3-0.3V46.3c0-0.2,0.1-0.3,0.3-0.3h1.2c1.3-1.2,3.8-2.5,6-2.5
				c0.6,0,1.1,0.1,1.6,0.3c0,0,0.1,0,0.1,0.1c0.1,0.1,0.2,0.2,0.2,0.3c0.1,0.1,0.1,0.1,0.2,0.1c0,0,0,0,0.1-0.2
				c0-0.1,0.1-0.2,0.2-0.3c0,0,0.1-0.1,0.1-0.1c0.5-0.2,1-0.3,1.6-0.3c2.3,0,4.7,1.3,5.9,2.4l0.1,0h1.2c0.2,0,0.3,0.1,0.3,0.3v147.4
				C280,193.9,279.9,194,279.7,194z M261.5,193.4h17.9V46.6h-1.1c-0.1,0-0.2,0-0.2-0.1c0,0,0,0,0-0.1l0,0c-1.2-1.1-3.5-2.3-5.6-2.3
				c-0.5,0-1,0.1-1.4,0.2c0,0-0.1,0.1-0.1,0.1c-0.1,0.2-0.2,0.4-0.6,0.4c-0.5,0-0.6-0.3-0.7-0.4c0,0,0-0.1-0.1-0.1
				c-0.4-0.1-0.9-0.2-1.4-0.2c-2.1,0-4.4,1.2-5.6,2.4c-0.1,0.1-0.1,0.1-0.2,0.1h-1V193.4z"/>
		</g>
		<g>
			<line fill="none" stroke="#211F1F" stroke-width="0.9921" stroke-miterlimit="10" x1="269.8" y1="44.1" x2="269.8" y2="193.7"/>
			<line fill="none" stroke="#211F1F" stroke-width="0.9921" stroke-miterlimit="10" x1="271.1" y1="44.1" x2="271.1" y2="193.7"/>
		</g>
		<g>
			<line fill="none" stroke="#211F1F" stroke-width="0.9921" stroke-miterlimit="10" x1="262.5" y1="46.3" x2="262.5" y2="193.7"/>
			<line fill="none" stroke="#211F1F" stroke-width="0.9921" stroke-miterlimit="10" x1="278.4" y1="46.3" x2="278.4" y2="193.7"/>
		</g>
	</g>
	<g>
		<g>
			<path fill="#FFFFFF" d="M95.7,28.6C95.7,28.6,95.7,28.6,95.7,28.6c0-0.1-0.1-0.1-0.1-0.1c-1.7-1.8-5-3.3-7.3-2.3
				c-0.2,0.2-0.2,0.5-0.6,0.5v0c-0.4,0-0.3-0.3-0.6-0.5c-2.3-0.9-5.7,0.7-7.4,2.5c0,0,0,0,0,0h-1.3v165.1h18.5V28.6H95.7z"/>
			<path fill="#211F1F" d="M97.1,194H78.6c-0.2,0-0.3-0.1-0.3-0.3V28.6c0-0.2,0.1-0.3,0.3-0.3h1.2c1.3-1.4,3.8-2.8,6-2.8
				c0.6,0,1.1,0.1,1.6,0.3c0,0,0.1,0,0.1,0.1c0.1,0.1,0.2,0.2,0.2,0.3c0.1,0.1,0.1,0.1,0.1,0.2c0.1,0,0.1,0,0.2-0.2
				c0-0.1,0.1-0.2,0.2-0.3c0,0,0.1-0.1,0.1-0.1c0.5-0.2,1-0.3,1.6-0.3c2.3,0,4.7,1.4,6,2.7l0.1,0.1h1.2c0.2,0,0.3,0.1,0.3,0.3v165.1
				C97.4,193.9,97.2,194,97.1,194z M78.9,193.4h17.9V28.9h-1.1c-0.1,0-0.2,0-0.2-0.1c0,0,0-0.1,0-0.1l0,0c-1.2-1.3-3.5-2.5-5.5-2.5
				c-0.5,0-0.9,0.1-1.3,0.2c0,0-0.1,0.1-0.1,0.1c-0.1,0.2-0.2,0.4-0.6,0.5c0,0-0.1,0-0.1,0c-0.4-0.1-0.5-0.3-0.6-0.5
				c0,0-0.1-0.1-0.1-0.1c-0.4-0.2-0.8-0.2-1.3-0.2c-2.1,0-4.4,1.3-5.7,2.7l0,0c-0.1,0.1-0.1,0.1-0.2,0.1h-1V193.4z"/>
		</g>
		<g>
			<line fill="none" stroke="#211F1F" stroke-width="0.9921" stroke-miterlimit="10" x1="87.2" y1="26.2" x2="87.2" y2="193.7"/>
			<line fill="none" stroke="#211F1F" stroke-width="0.9921" stroke-miterlimit="10" x1="88.5" y1="26.2" x2="88.5" y2="193.7"/>
		</g>
		<g>
			<line fill="none" stroke="#211F1F" stroke-width="0.9921" stroke-miterlimit="10" x1="79.9" y1="28.6" x2="79.9" y2="193.7"/>
			<line fill="none" stroke="#211F1F" stroke-width="0.9921" stroke-miterlimit="10" x1="95.8" y1="28.6" x2="95.8" y2="193.7"/>
		</g>
	</g>
	<g>
		<g>
			<path fill="#FFFFFF" d="M69.6,32.9C69.6,32.9,69.6,32.8,69.6,32.9c0-0.1-0.1-0.1-0.1-0.1c-1.7-1.7-5-3.1-7.3-2.3
				c-0.2,0.2-0.2,0.5-0.6,0.5l0,0c-0.4,0-0.3-0.3-0.6-0.5c-2.3-0.9-5.7,0.6-7.4,2.4c0,0,0,0,0,0h-1.3v160.8H71V32.9H69.6z"/>
			<path fill="#211F1F" d="M71,194H52.5c-0.2,0-0.3-0.1-0.3-0.3V32.9c0-0.2,0.1-0.3,0.3-0.3h1.2c1.3-1.3,3.8-2.7,6-2.7
				c0.6,0,1.1,0.1,1.6,0.3c0,0,0.1,0,0.1,0.1c0.1,0.1,0.2,0.2,0.2,0.3c0.1,0.1,0.1,0.1,0.1,0.1c0.1,0,0.1,0,0.2-0.2
				c0-0.1,0.1-0.2,0.2-0.3c0,0,0.1-0.1,0.1-0.1c0.5-0.2,1-0.3,1.6-0.3c2.3,0,4.7,1.4,5.9,2.6c0,0,0,0,0.1,0.1H71
				c0.2,0,0.3,0.1,0.3,0.3v160.8C71.3,193.9,71.2,194,71,194z M52.8,193.4h17.9V33.2h-1.1c-0.1,0-0.2,0-0.2-0.1c0,0,0-0.1-0.1-0.1
				l0,0c-1.2-1.2-3.5-2.4-5.5-2.4c-0.5,0-0.9,0.1-1.3,0.2c0,0-0.1,0.1-0.1,0.1c-0.1,0.2-0.2,0.4-0.6,0.4c0,0-0.1,0-0.1,0
				c-0.4,0-0.5-0.3-0.6-0.4c0,0-0.1-0.1-0.1-0.1c-0.4-0.1-0.9-0.2-1.3-0.2c-2.1,0-4.4,1.3-5.7,2.6c0,0,0,0,0,0
				c-0.1,0.1-0.1,0.1-0.2,0.1h-1V193.4z"/>
		</g>
		<g>
			<line fill="none" stroke="#211F1F" stroke-width="0.9921" stroke-miterlimit="10" x1="61.1" y1="30.5" x2="61.1" y2="193.7"/>
			<line fill="none" stroke="#211F1F" stroke-width="0.9921" stroke-miterlimit="10" x1="62.4" y1="30.5" x2="62.4" y2="193.7"/>
		</g>
		<g>
			<line fill="none" stroke="#211F1F" stroke-width="0.9921" stroke-miterlimit="10" x1="53.8" y1="32.9" x2="53.8" y2="193.7"/>
			<line fill="none" stroke="#211F1F" stroke-width="0.9921" stroke-miterlimit="10" x1="69.7" y1="32.9" x2="69.7" y2="193.7"/>
		</g>
	</g>
	<g>
		<g>
			<path fill="#FFFFFF" d="M43.5,38.8C43.6,38.8,43.6,38.7,43.5,38.8c0-0.1-0.1-0.1-0.1-0.1c-1.7-1.6-5-3-7.3-2.2
				C36,36.7,36,36.9,35.6,37v0c-0.4,0-0.3-0.3-0.6-0.5c-2.3-0.9-5.7,0.6-7.4,2.3c0,0,0,0,0,0h-1.3v154.9h18.5V38.8H43.5z"/>
			<path fill="#211F1F" d="M44.9,194H26.4c-0.2,0-0.3-0.1-0.3-0.3V38.8c0-0.2,0.1-0.3,0.3-0.3h1.2c1.3-1.3,3.8-2.6,6-2.6
				c0.6,0,1.1,0.1,1.6,0.3c0,0,0.1,0,0.1,0.1c0.1,0.1,0.2,0.2,0.2,0.3c0.1,0.1,0.1,0.1,0.1,0.1c0.1,0,0.1,0,0.2-0.2
				c0-0.1,0.1-0.2,0.2-0.3c0,0,0.1-0.1,0.1-0.1c0.5-0.2,1-0.3,1.6-0.3c2.3,0,4.7,1.3,5.9,2.5l0.1,0.1h1.2c0.2,0,0.3,0.1,0.3,0.3
				v154.9C45.2,193.9,45.1,194,44.9,194z M26.7,193.4h17.9V39.1h-1.1c-0.1,0-0.2,0-0.2-0.1c0,0,0-0.1,0-0.1l0,0
				c-1.2-1.2-3.5-2.4-5.6-2.4c-0.5,0-0.9,0.1-1.3,0.2c0,0-0.1,0.1-0.1,0.1c-0.1,0.2-0.2,0.4-0.6,0.4c0,0-0.1,0-0.1,0
				c-0.4-0.1-0.5-0.3-0.6-0.4c0,0-0.1-0.1-0.1-0.1c-0.4-0.1-0.9-0.2-1.3-0.2c-2.1,0-4.4,1.2-5.7,2.5c0,0,0,0,0,0
				c-0.1,0.1-0.1,0.1-0.2,0.1h-1V193.4z"/>
		</g>
		<g>
			<line fill="none" stroke="#211F1F" stroke-width="0.9921" stroke-miterlimit="10" x1="35" y1="36.5" x2="35" y2="193.7"/>
			<line fill="none" stroke="#211F1F" stroke-width="0.9921" stroke-miterlimit="10" x1="36.3" y1="36.5" x2="36.3" y2="193.7"/>
		</g>
		<g>
			<line fill="none" stroke="#211F1F" stroke-width="0.9921" stroke-miterlimit="10" x1="27.7" y1="38.8" x2="27.7" y2="193.7"/>
			<line fill="none" stroke="#211F1F" stroke-width="0.9921" stroke-miterlimit="10" x1="43.6" y1="38.8" x2="43.6" y2="193.7"/>
		</g>
	</g>
	<g>
		<g>
			<path fill="#FFFFFF" d="M17.5,46.3C17.5,46.3,17.5,46.3,17.5,46.3c0-0.1-0.1-0.1-0.1-0.1c-1.7-1.6-5-2.9-7.3-2.1
				c-0.2,0.2-0.2,0.4-0.6,0.5v0c-0.4,0-0.3-0.3-0.6-0.5c-2.3-0.8-5.7,0.6-7.4,2.2c0,0,0,0,0,0H0.3v147.4h18.5V46.3H17.5z"/>
			<path fill="#211F1F" d="M18.8,194H0.3c-0.2,0-0.3-0.1-0.3-0.3V46.3C0,46.2,0.1,46,0.3,46h1.2c1.3-1.2,3.8-2.5,6-2.5
				c0.6,0,1.1,0.1,1.6,0.3c0,0,0.1,0,0.1,0.1c0.1,0.1,0.2,0.2,0.2,0.3c0.1,0.1,0.1,0.1,0.1,0.1c0.1,0,0.1,0,0.2-0.1
				c0-0.1,0.1-0.2,0.2-0.3c0,0,0.1-0.1,0.1-0.1c0.5-0.2,1-0.3,1.6-0.3c2.3,0,4.7,1.3,5.9,2.4c0,0,0,0,0.1,0h1.2
				c0.2,0,0.3,0.1,0.3,0.3v147.4C19.1,193.9,19,194,18.8,194z M0.6,193.4h17.9V46.6h-1.1c-0.1,0-0.2,0-0.2-0.1c0,0,0-0.1,0-0.1l0,0
				c-1.2-1.1-3.5-2.3-5.5-2.3c-0.5,0-1,0.1-1.4,0.2c0,0-0.1,0.1-0.1,0.1c-0.1,0.2-0.2,0.4-0.6,0.4c0,0-0.1,0-0.1,0
				c-0.4-0.1-0.5-0.3-0.6-0.4c0,0,0-0.1-0.1-0.1c-0.4-0.1-0.9-0.2-1.3-0.2c-2.1,0-4.4,1.2-5.7,2.4c-0.1,0.1-0.1,0.1-0.2,0.1h-1
				V193.4z"/>
		</g>
		<g>
			<line fill="none" stroke="#211F1F" stroke-width="0.9921" stroke-miterlimit="10" x1="8.9" y1="44.1" x2="8.9" y2="193.7"/>
			<line fill="none" stroke="#211F1F" stroke-width="0.9921" stroke-miterlimit="10" x1="10.2" y1="44.1" x2="10.2" y2="193.7"/>
		</g>
		<g>
			<line fill="none" stroke="#211F1F" stroke-width="0.9921" stroke-miterlimit="10" x1="1.6" y1="46.3" x2="1.6" y2="193.7"/>
			<line fill="none" stroke="#211F1F" stroke-width="0.9921" stroke-miterlimit="10" x1="17.5" y1="46.3" x2="17.5" y2="193.7"/>
		</g>
	</g>
</g>
</svg>
