<svg xmlns="http://www.w3.org/2000/svg" width="280" height="195" viewBox="0 0 280 195"><path fill="#FFF" d="M6.1 76h256.7v8.8H6.1z"/><path fill="#211F1F" d="M6.1 85.1c-.1 0-.2 0-.2-.1s-.1-.1-.1-.2V76c0-.2.1-.3.3-.3h256.7c.2 0 .3.1.3.3v8.8c0 .2-.1.3-.3.3H6.1zm.3-8.8v8.3h256.1v-8.3H6.4z"/><g fill="#211F1F"><path d="M6.1 77.8h256.7v1.3H6.1zM6.1 81.7h256.7V83H6.1z"/></g><path fill="#FFF" d="M6.1 160h256.7v8.8H6.1z"/><path fill="#211F1F" d="M262.8 169.1H6.1c-.2 0-.3-.1-.3-.3V160c0-.2.1-.3.3-.3h256.7c.1 0 .2 0 .2.1s.1.1.1.2v8.8c0 .2-.1.3-.3.3zm-256.4-.5h256.1v-8.3H6.4v8.3z"/><g fill="#211F1F"><path d="M6.1 161.9h256.7v1.3H6.1zM6.1 165.7h256.7v1.3H6.1z"/></g><path fill="#FFF" d="M121.8 40.4c0-.1-.1-.1-.1-.1-1.7-1.6-5-3-7.3-2.2-.2.2-.2.5-.6.5-.4 0-.3-.3-.6-.5-2.3-.9-5.7.6-7.4 2.3h-1.3v153.3H123V40.4h-1.2z"/><path fill="#211F1F" d="M123.2 194h-18.5c-.2 0-.3-.1-.3-.3V40.4c0-.2.1-.3.3-.3h1.2c1.3-1.3 3.8-2.6 6-2.6.6 0 1.1.1 1.6.3 0 0 .1 0 .1.1.1.1.2.2.2.3l.1.1c.1 0 .1 0 .2-.2 0-.1.1-.2.2-.3l.1-.1c.5-.2 1-.3 1.6-.3 2.3 0 4.7 1.3 5.9 2.5l.1.1h1.2c.2 0 .3.1.3.3v153.3c0 .3-.2.4-.3.4zm-18.3-.6h17.9V40.7h-1.1c-.1 0-.2 0-.2-.1v-.1c-1.2-1.2-3.5-2.4-5.5-2.4-.5 0-.9.1-1.3.2l-.1.1c-.1.2-.2.4-.6.4h-.1c-.4-.1-.5-.3-.6-.4l-.1-.1c-.4-.1-.9-.2-1.3-.2-2.1 0-4.4 1.2-5.6 2.4-.1.1-.1.1-.2.1h-1v152.8z"/><g fill="none" stroke="#211F1F" stroke-width=".992" stroke-miterlimit="10"><path d="M113.3 38.1v155.6M114.6 38.1v155.6"/></g><g fill="none" stroke="#211F1F" stroke-width=".992" stroke-miterlimit="10"><path d="M106 40.4v153.3M121.9 40.4v153.3"/></g><path fill="#FFF" d="M147.9 43c0-.1-.1-.1-.1-.1-1.7-1.6-5-2.9-7.3-2.1-.2.2-.2.4-.6.5-.4 0-.3-.3-.6-.5-2.3-.8-5.7.6-7.4 2.2h-1.3v150.7h18.5V43h-1.2z"/><path fill="#211F1F" d="M149.3 194h-18.5c-.2 0-.3-.1-.3-.3V43c0-.2.1-.3.3-.3h1.2c1.3-1.2 3.8-2.5 6-2.5.6 0 1.1.1 1.6.3 0 0 .1 0 .1.1.1.1.2.2.2.3l.1.1c.1 0 .1 0 .2-.1 0-.1.1-.2.2-.3l.1-.1c.5-.2 1-.3 1.6-.3 2.3 0 4.7 1.3 5.9 2.4h1.3c.2 0 .3.1.3.3v150.7c0 .3-.2.4-.3.4zm-18.3-.6h18V43.3h-1.1c-.1 0-.2 0-.2-.1v-.1c-1.2-1.1-3.5-2.3-5.5-2.3-.5 0-1 .1-1.4.2l-.1.1c-.1.2-.2.4-.6.4h-.1c-.4-.1-.5-.3-.6-.4 0 0 0-.1-.1-.1-.4-.1-.9-.2-1.3-.2-2.1 0-4.4 1.2-5.7 2.4-.1.1-.1.1-.2.1h-1v150.1z"/><g fill="none" stroke="#211F1F" stroke-width=".992" stroke-miterlimit="10"><path d="M139.4 40.8v152.9M140.6 40.8v152.9"/></g><g fill="none" stroke="#211F1F" stroke-width=".992" stroke-miterlimit="10"><path d="M132.1 43v150.7M147.9 43v150.7"/></g><g><path fill="#FFF" d="M174 40.4c0-.1-.1-.1-.1-.1-1.7-1.6-5-3-7.3-2.2-.2.2-.2.5-.6.5-.4 0-.3-.3-.6-.5-2.3-.9-5.7.6-7.4 2.3h-1.3v153.3h18.5V40.4H174z"/><path fill="#211F1F" d="M175.4 194h-18.5c-.2 0-.3-.1-.3-.3V40.4c0-.2.1-.3.3-.3h1.2c1.3-1.3 3.8-2.6 6-2.6.6 0 1.1.1 1.6.3 0 0 .1 0 .1.1.1.1.2.2.2.3l.1.1c.1 0 .1 0 .2-.2 0-.1.1-.2.2-.3l.1-.1c.5-.2 1-.3 1.6-.3 2.3 0 4.7 1.3 5.9 2.5l.1.1h1.2c.2 0 .3.1.3.3v153.3c-.1.3-.2.4-.3.4zm-18.3-.6H175V40.7h-1c-.1 0-.2 0-.2-.1v-.1c-1.2-1.2-3.5-2.4-5.5-2.4-.5 0-1 .1-1.3.2l-.1.1c-.1.2-.2.4-.6.4h-.1c-.4-.1-.5-.3-.6-.4l-.1-.1c-.4-.1-.9-.2-1.3-.2-2.1 0-4.4 1.2-5.7 2.5-.1.1-.1.1-.2.1h-1v152.7z"/><g fill="none" stroke="#211F1F" stroke-width=".992" stroke-miterlimit="10"><path d="M165.4 38.1v155.6M166.7 38.1v155.6"/></g><g fill="none" stroke="#211F1F" stroke-width=".992" stroke-miterlimit="10"><path d="M158.1 40.4v153.3M174 40.4v153.3"/></g></g><g><path fill="#FFF" d="M200.1 34.5c0-.1-.1-.1-.1-.1-1.7-1.7-5-3.1-7.3-2.3-.2.2-.2.5-.6.5-.4 0-.3-.3-.6-.5-2.3-.9-5.7.6-7.4 2.4h-1.3v159.2h18.5V34.5h-1.2z"/><path fill="#211F1F" d="M201.4 194h-18.5c-.2 0-.3-.1-.3-.3V34.5c0-.2.1-.3.3-.3h1.2c1.3-1.3 3.8-2.7 6-2.7.6 0 1.1.1 1.6.3 0 0 .1 0 .1.1.1.1.2.2.2.3l.1.1c.1 0 .1 0 .2-.2 0-.1.1-.2.2-.3l.1-.1c.5-.2 1-.3 1.6-.3 2.3 0 4.7 1.4 5.9 2.6l.1.1h1.2c.2 0 .3.1.3.3v159.2c0 .3-.1.4-.3.4zm-18.2-.6h17.9V34.8H200c-.1 0-.2 0-.2-.1v-.1c-1.3-1.2-3.6-2.5-5.6-2.5-.5 0-.9.1-1.3.2l-.1.1c-.1.2-.2.4-.6.4h-.1c-.4 0-.5-.3-.6-.4l-.1-.1c-.4-.1-.8-.2-1.3-.2-2.1 0-4.4 1.3-5.6 2.5-.1.1-.1.1-.2.1h-1v158.7z"/><g fill="none" stroke="#211F1F" stroke-width=".992" stroke-miterlimit="10"><path d="M191.5 32.2v161.5M192.8 32.2v161.5"/></g><g fill="none" stroke="#211F1F" stroke-width=".992" stroke-miterlimit="10"><path d="M184.2 34.5v159.2M200.1 34.5v159.2"/></g></g><g><path fill="#FFF" d="M226.2 28.6c0-.1-.1-.1-.1-.1-1.7-1.8-5-3.3-7.3-2.3-.2.2-.2.5-.6.5-.4 0-.3-.3-.6-.5-2.3-.9-5.7.7-7.4 2.5H209v165.1h18.5V28.6h-1.3z"/><path fill="#211F1F" d="M227.5 194H209c-.2 0-.3-.1-.3-.3V28.6c0-.2.1-.3.3-.3h1.2c1.3-1.4 3.8-2.8 6-2.8.6 0 1.1.1 1.6.3 0 0 .1 0 .1.1.1.1.2.2.2.3.1.1.1.1.1.2.1 0 .1 0 .2-.2 0-.1.1-.2.2-.3l.1-.1c.5-.2 1-.3 1.6-.3 2.3 0 4.7 1.4 6 2.7l.1.1h1.2c.2 0 .3.1.3.3v165.1c-.1.2-.2.3-.4.3zm-18.2-.6h17.9V28.9h-1.1c-.1 0-.2 0-.2-.1 0 0 0-.1-.1-.1-1.2-1.3-3.5-2.5-5.5-2.5-.5 0-.9.1-1.3.2l-.1.1c-.1.2-.2.4-.6.5h-.1c-.4-.1-.5-.3-.6-.5l-.1-.1c-.4-.2-.8-.2-1.3-.2-2.1 0-4.4 1.3-5.6 2.6-.1.1-.1.1-.2.1h-1v164.5z"/><g fill="none" stroke="#211F1F" stroke-width=".992" stroke-miterlimit="10"><path d="M217.6 26.2v167.5M218.9 26.2v167.5"/></g><g fill="none" stroke="#211F1F" stroke-width=".992" stroke-miterlimit="10"><path d="M210.3 28.6v165.1M226.2 28.6v165.1"/></g></g><g><path fill="#FFF" d="M252.3 23.6c0-.1 0-.1 0 0 0-.1-.1-.1-.1-.1-1.7-1.8-5-3.4-7.3-2.4-.2.2-.2.5-.6.6-.4 0-.3-.3-.6-.6-2.3-1-5.7.7-7.4 2.6H235v170.1h18.5V23.6h-1.2z"/><path fill="#211F1F" d="M253.6 194h-18.5c-.2 0-.3-.1-.3-.3V23.6c0-.2.1-.3.3-.3h1.2c1.3-1.4 3.8-2.9 6-2.9.6 0 1.1.1 1.6.3 0 0 .1 0 .1.1.1.1.2.2.2.3.1.1.1.2.1.2.1 0 .1-.1.1-.2s.1-.2.2-.3l.1-.1c.5-.2 1-.3 1.6-.3 2.3 0 4.7 1.5 6 2.8l.1.1h1.2c.2 0 .3.1.3.3v170.1c0 .2-.1.3-.3.3zm-18.2-.6h17.9V23.9h-1.1c-.1 0-.2 0-.2-.1 0 0 0-.1-.1-.1-1.2-1.3-3.5-2.6-5.5-2.6-.5 0-.9.1-1.3.2l-.1.1c-.1.2-.2.4-.6.5h-.1c-.4-.1-.5-.3-.6-.5 0-.1-.1-.1-.1-.1-.4-.2-.8-.2-1.3-.2-2.1 0-4.4 1.4-5.6 2.7-.1.1-.1.1-.2.1h-1v169.5z"/><g fill="none" stroke="#211F1F" stroke-width=".992" stroke-miterlimit="10"><path d="M243.7 21v172.7M245 21v172.7"/></g><g fill="none" stroke="#211F1F" stroke-width=".992" stroke-miterlimit="10"><path d="M236.4 23.5v170.2M252.3 23.5v170.2"/></g></g><g><path fill="#FFF" d="M278.4 16.9c0-.1 0-.1 0 0 0-.1-.1-.1-.1-.1-1.7-1.9-5-3.5-7.3-2.5-.2.2-.2.5-.6.6-.4-.1-.3-.3-.6-.6-2.3-1-5.7.7-7.4 2.7h-1.3v176.9h18.5v-177h-1.2z"/><path fill="#211F1F" d="M261.2 194c-.1 0-.2 0-.2-.1s-.1-.1-.1-.2V16.9c0-.2.1-.3.3-.3h1.2c1.3-1.5 3.8-3 6-3 .6 0 1.2.1 1.6.3 0 0 .1 0 .1.1.1.1.2.2.2.3.1.1.1.2.1.2s.1-.1.1-.2.1-.2.2-.3l.1-.1c.5-.2 1-.3 1.6-.3 2.3 0 4.7 1.5 6 2.9v.1h1.3c.2 0 .3.1.3.3v176.9c0 .2-.1.3-.3.3l-18.5-.1zm.3-176.9v176.3h17.9V17.1h-1.1c-.1 0-.2 0-.2-.1 0 0 0-.1-.1-.1-1.2-1.3-3.5-2.7-5.5-2.7-.5 0-.9.1-1.3.2l-.1.1c-.1.2-.2.4-.6.5h-.1c-.4-.1-.5-.3-.6-.5 0-.1-.1-.1-.1-.1-.4-.2-.8-.2-1.3-.2-2.1 0-4.4 1.4-5.6 2.8-.1.1-.1.1-.2.1h-1.1z"/><g fill="none" stroke="#211F1F" stroke-width=".992" stroke-miterlimit="10"><path d="M269.8 14.2v179.5M271.1 14.2v179.5"/></g><g fill="none" stroke="#211F1F" stroke-width=".992" stroke-miterlimit="10"><path d="M262.5 16.8v176.9M278.4 16.8v176.9"/></g></g><g><path fill="#FFF" d="M95.7 34.5c0-.1-.1-.1-.1-.1-1.7-1.7-5-3.1-7.3-2.3-.2.2-.2.5-.6.5-.4 0-.3-.3-.6-.5-2.3-.9-5.7.6-7.4 2.4h-1.3v159.2h18.5V34.5h-1.2z"/><path fill="#211F1F" d="M97.1 194H78.6c-.2 0-.3-.1-.3-.3V34.5c0-.2.1-.3.3-.3h1.2c1.3-1.3 3.8-2.7 6-2.7.6 0 1.1.1 1.6.3 0 0 .1 0 .1.1.1.1.2.2.2.3.1.1.1.1.1.2.1 0 .1 0 .2-.2 0-.1.1-.2.2-.3l.1-.1c.5-.2 1-.3 1.6-.3 2.3 0 4.7 1.4 5.9 2.6l.1.1h1.2c.2 0 .3.1.3.3v159.2c0 .2-.2.3-.3.3zm-18.2-.6h17.9V34.8h-1.1c-.1 0-.2 0-.2-.1v-.1c-1.2-1.2-3.4-2.4-5.5-2.4-.5 0-.9.1-1.3.2l-.1.1c-.1.2-.2.4-.6.4h-.1c-.4 0-.5-.3-.6-.4l-.1-.1c-.4-.1-.8-.2-1.3-.2-2.1 0-4.4 1.3-5.6 2.5-.1.1-.1.1-.2.1h-1v158.6z"/><g fill="none" stroke="#211F1F" stroke-width=".992" stroke-miterlimit="10"><path d="M87.2 32.2v161.5M88.5 32.2v161.5"/></g><g fill="none" stroke="#211F1F" stroke-width=".992" stroke-miterlimit="10"><path d="M79.9 34.5v159.2M95.8 34.5v159.2"/></g></g><g><path fill="#FFF" d="M69.6 28.6c0-.1-.1-.1-.1-.1-1.7-1.8-5-3.3-7.3-2.3-.2.2-.2.5-.6.5-.4 0-.3-.3-.6-.5-2.3-.9-5.7.7-7.4 2.5h-1.3v165.1H71V28.6h-1.4z"/><path fill="#211F1F" d="M71 194H52.5c-.2 0-.3-.1-.3-.3V28.6c0-.2.1-.3.3-.3h1.2c1.3-1.4 3.8-2.8 6-2.8.6 0 1.1.1 1.6.3 0 0 .1 0 .1.1.1.1.2.2.2.3.1.1.1.1.1.2.1 0 .1 0 .2-.2 0-.1.1-.2.2-.3l.1-.1c.5-.2 1-.3 1.6-.3 2.3 0 4.7 1.4 5.9 2.7l.1.1H71c.2 0 .3.1.3.3v165.1c0 .2-.1.3-.3.3zm-18.2-.6h17.9V28.9h-1.1c-.1 0-.2 0-.2-.1v-.1c-1.2-1.3-3.5-2.5-5.5-2.5-.5 0-.9.1-1.3.2l-.1.1c-.1.2-.2.4-.6.5h-.1c-.4-.1-.5-.3-.6-.5l-.1-.1c-.4-.2-.8-.2-1.3-.2-2.1 0-4.4 1.3-5.6 2.6-.1.1-.1.1-.2.1h-1v164.5z"/><g fill="none" stroke="#211F1F" stroke-width=".992" stroke-miterlimit="10"><path d="M61.1 26.2v167.5M62.4 26.2v167.5"/></g><g fill="none" stroke="#211F1F" stroke-width=".992" stroke-miterlimit="10"><path d="M53.8 28.6v165.1M69.7 28.6v165.1"/></g></g><g><path fill="#FFF" d="M43.5 23.6c.1-.1 0-.1 0 0 0-.1-.1-.1-.1-.1-1.7-1.8-5-3.4-7.3-2.4-.2.2-.2.5-.6.6-.4 0-.3-.3-.6-.6-2.3-1-5.7.7-7.4 2.6h-1.3v170.1h18.5V23.6h-1.2z"/><path fill="#211F1F" d="M44.9 194H26.4c-.2 0-.3-.1-.3-.3V23.6c0-.2.1-.3.3-.3h1.2c1.3-1.4 3.8-2.9 6-2.9.6 0 1.1.1 1.6.3 0 0 .1 0 .1.1.1.1.2.2.2.3.1.1.1.2.1.2.1 0 .1-.1.1-.2s.1-.2.2-.3l.1-.1c.5-.2 1-.3 1.6-.3 2.3 0 4.7 1.5 6 2.8v.1h1.2c.2 0 .3.1.3.3v170.1c.1.2 0 .3-.2.3zm-18.2-.6h17.9V23.9h-1.1c-.1 0-.2 0-.2-.1 0 0 0-.1-.1-.1-1.2-1.4-3.5-2.7-5.5-2.7-.5 0-.9.1-1.3.2l-.1.1c-.1.2-.2.4-.6.5h-.1c-.4-.1-.5-.3-.6-.5l-.1-.1c-.4-.2-.8-.2-1.3-.2-2.1 0-4.4 1.4-5.7 2.8-.1.1-.1.1-.2.1h-1v169.5z"/><g fill="none" stroke="#211F1F" stroke-width=".992" stroke-miterlimit="10"><path d="M35 21v172.7M36.3 21v172.7"/></g><g fill="none" stroke="#211F1F" stroke-width=".992" stroke-miterlimit="10"><path d="M27.7 23.6v170.1M43.6 23.6v170.1"/></g></g><g><path fill="#FFF" d="M17.5 16.9c0-.1 0-.1 0 0 0-.1-.1-.1-.1-.2-1.7-1.9-5-3.5-7.3-2.5-.2.2-.2.5-.6.6-.4 0-.3-.3-.6-.6-2.3-1-5.7.7-7.4 2.7H.3v176.9h18.5V16.9h-1.3z"/><path fill="#211F1F" d="M18.8 194H.3c-.2 0-.3-.1-.3-.3V16.9c0-.2.1-.3.3-.3h1.2c1.3-1.5 3.8-3 6-3 .6 0 1.1.1 1.6.3 0 0 .1 0 .1.1.1.1.2.2.2.3.1.1.1.2.1.2.1 0 .1-.1.1-.2s.1-.2.2-.3l.1-.1c.5-.2 1-.3 1.6-.3 2.3 0 4.7 1.5 6 2.9v.1h1.3c.2 0 .3.1.3.3v176.9c0 .1-.1.2-.3.2zm-18.2-.6h17.9V17.1h-1.1c-.1 0-.2 0-.2-.1 0 0 0-.1-.1-.1-1.2-1.3-3.5-2.7-5.5-2.7-.5 0-.9.1-1.3.2l-.1.1c-.1.2-.2.4-.6.5h-.1c-.4 0-.5-.2-.6-.4 0-.1-.1-.1-.1-.1-.4-.2-.8-.2-1.3-.2-2.1 0-4.4 1.4-5.7 2.8-.1.1-.1.1-.2.1h-1v176.2z"/><g fill="none" stroke="#211F1F" stroke-width=".992" stroke-miterlimit="10"><path d="M8.9 14.2v179.5M10.2 14.2v179.5"/></g><g fill="none" stroke="#211F1F" stroke-width=".992" stroke-miterlimit="10"><path d="M1.6 16.8v176.9M17.5 16.8v176.9"/></g></g></svg>