<?xml version="1.0" encoding="utf-8"?>
<!-- Generator: Adobe Illustrator 16.2.0, SVG Export Plug-In . SVG Version: 6.00 Build 0)  -->
<!DOCTYPE svg PUBLIC "-//W3C//DTD SVG 1.1//EN" "http://www.w3.org/Graphics/SVG/1.1/DTD/svg11.dtd">
<svg version="1.1" id="Layer_1" xmlns="http://www.w3.org/2000/svg" xmlns:xlink="http://www.w3.org/1999/xlink" x="0px" y="0px"
	 width="280px" height="195px" viewBox="0 0 280 195" enable-background="new 0 0 280 195" xml:space="preserve">
<g>
	<g>
		<g>
			
				<path fill="#BCBEC0" stroke="#211F1F" stroke-width="0.7087" stroke-linecap="round" stroke-linejoin="round" stroke-miterlimit="10" d="
				M35.8,18.8C35.8,18.8,35.8,18.7,35.8,18.8c0-0.1-0.1-0.1-0.1-0.1c-2-1.9-5.7-3.4-8.2-2.5c-0.2,0.2-0.2,0.5-0.6,0.6l0,0
				c-0.4,0-0.4-0.3-0.6-0.6c-2.6-1-6.4,0.7-8.3,2.6c0,0,0,0,0,0h0v174.9h17.9L35.8,18.8L35.8,18.8z"/>
			<g>
				<line fill="none" stroke="#211F1F" stroke-width="0.7087" stroke-miterlimit="10" x1="26.2" y1="16.2" x2="26.2" y2="193.7"/>
				<line fill="none" stroke="#211F1F" stroke-width="0.7087" stroke-miterlimit="10" x1="27.6" y1="16.2" x2="27.6" y2="193.7"/>
			</g>
		</g>
		<g>
			
				<path fill="#BCBEC0" stroke="#211F1F" stroke-width="0.7087" stroke-linecap="round" stroke-linejoin="round" stroke-miterlimit="10" d="
				M68.1,18.8C68.1,18.8,68.1,18.7,68.1,18.8c0-0.1-0.1-0.1-0.1-0.1c-2-1.9-5.7-3.4-8.2-2.5c-0.2,0.2-0.2,0.5-0.6,0.6l0,0
				c-0.4,0-0.4-0.3-0.6-0.6c-2.6-1-6.4,0.7-8.3,2.6c0,0,0,0,0,0h0v174.9h17.9L68.1,18.8L68.1,18.8z"/>
			<g>
				<line fill="none" stroke="#211F1F" stroke-width="0.7087" stroke-miterlimit="10" x1="58.5" y1="16.2" x2="58.5" y2="193.7"/>
				<line fill="none" stroke="#211F1F" stroke-width="0.7087" stroke-miterlimit="10" x1="59.9" y1="16.2" x2="59.9" y2="193.7"/>
			</g>
		</g>
		<g>
			
				<path fill="#BCBEC0" stroke="#211F1F" stroke-width="0.7087" stroke-linecap="round" stroke-linejoin="round" stroke-miterlimit="10" d="
				M100.4,18.8C100.5,18.8,100.4,18.7,100.4,18.8c0-0.1-0.1-0.1-0.1-0.1c-2-1.9-5.7-3.4-8.2-2.5c-0.2,0.2-0.2,0.5-0.6,0.6l0,0
				c-0.4,0-0.4-0.3-0.6-0.6c-2.6-1-6.4,0.7-8.3,2.6c0,0,0,0,0,0h0v174.9h17.9L100.4,18.8L100.4,18.8z"/>
			<g>
				<line fill="none" stroke="#211F1F" stroke-width="0.7087" stroke-miterlimit="10" x1="90.8" y1="16.2" x2="90.8" y2="193.7"/>
				<line fill="none" stroke="#211F1F" stroke-width="0.7087" stroke-miterlimit="10" x1="92.3" y1="16.2" x2="92.3" y2="193.7"/>
			</g>
		</g>
		<g>
			
				<path fill="#BCBEC0" stroke="#211F1F" stroke-width="0.7087" stroke-linecap="round" stroke-linejoin="round" stroke-miterlimit="10" d="
				M132.8,18.8C132.8,18.8,132.8,18.7,132.8,18.8c0-0.1-0.1-0.1-0.1-0.1c-2-1.9-5.7-3.4-8.2-2.5c-0.2,0.2-0.2,0.5-0.6,0.6l0,0
				c-0.4,0-0.4-0.3-0.6-0.6c-2.6-1-6.4,0.7-8.3,2.6c0,0,0,0,0,0h0v174.9h17.9L132.8,18.8L132.8,18.8z"/>
			<g>
				<line fill="none" stroke="#211F1F" stroke-width="0.7087" stroke-miterlimit="10" x1="123.1" y1="16.2" x2="123.1" y2="193.7"/>
				<line fill="none" stroke="#211F1F" stroke-width="0.7087" stroke-miterlimit="10" x1="124.6" y1="16.2" x2="124.6" y2="193.7"/>
			</g>
		</g>
		<g>
			
				<path fill="#BCBEC0" stroke="#211F1F" stroke-width="0.7087" stroke-linecap="round" stroke-linejoin="round" stroke-miterlimit="10" d="
				M165.1,18.8C165.1,18.8,165.1,18.7,165.1,18.8c0-0.1-0.1-0.1-0.1-0.1c-2-1.9-5.7-3.4-8.2-2.5c-0.2,0.2-0.2,0.5-0.6,0.6l0,0
				c-0.4,0-0.4-0.3-0.6-0.6c-2.6-1-6.4,0.7-8.3,2.6c0,0,0,0,0,0h0v174.9h17.9L165.1,18.8L165.1,18.8z"/>
			<g>
				<line fill="none" stroke="#211F1F" stroke-width="0.7087" stroke-miterlimit="10" x1="155.4" y1="16.2" x2="155.4" y2="193.7"/>
				<line fill="none" stroke="#211F1F" stroke-width="0.7087" stroke-miterlimit="10" x1="156.9" y1="16.2" x2="156.9" y2="193.7"/>
			</g>
		</g>
		<g>
			
				<path fill="#BCBEC0" stroke="#211F1F" stroke-width="0.7087" stroke-linecap="round" stroke-linejoin="round" stroke-miterlimit="10" d="
				M197.4,18.8C197.4,18.8,197.4,18.7,197.4,18.8c0-0.1-0.1-0.1-0.1-0.1c-2-1.9-5.7-3.4-8.2-2.5c-0.2,0.2-0.2,0.5-0.6,0.6l0,0
				c-0.4,0-0.4-0.3-0.6-0.6c-2.6-1-6.4,0.7-8.3,2.6c0,0,0,0,0,0h0v174.9h17.9L197.4,18.8L197.4,18.8z"/>
			<g>
				<line fill="none" stroke="#211F1F" stroke-width="0.7087" stroke-miterlimit="10" x1="187.7" y1="16.2" x2="187.7" y2="193.7"/>
				<line fill="none" stroke="#211F1F" stroke-width="0.7087" stroke-miterlimit="10" x1="189.2" y1="16.2" x2="189.2" y2="193.7"/>
			</g>
		</g>
		<g>
			
				<path fill="#BCBEC0" stroke="#211F1F" stroke-width="0.7087" stroke-linecap="round" stroke-linejoin="round" stroke-miterlimit="10" d="
				M229.7,18.8C229.7,18.8,229.7,18.7,229.7,18.8c0-0.1-0.1-0.1-0.1-0.1c-2-1.9-5.7-3.4-8.2-2.5c-0.2,0.2-0.2,0.5-0.6,0.6l0,0
				c-0.4,0-0.4-0.3-0.6-0.6c-2.6-1-6.4,0.7-8.3,2.6c0,0,0,0,0,0h0v174.9h17.9L229.7,18.8L229.7,18.8z"/>
			<g>
				<line fill="none" stroke="#211F1F" stroke-width="0.7087" stroke-miterlimit="10" x1="220.1" y1="16.2" x2="220.1" y2="193.7"/>
				<line fill="none" stroke="#211F1F" stroke-width="0.7087" stroke-miterlimit="10" x1="221.5" y1="16.2" x2="221.5" y2="193.7"/>
			</g>
		</g>
		<g>
			
				<path fill="#BCBEC0" stroke="#211F1F" stroke-width="0.7087" stroke-linecap="round" stroke-linejoin="round" stroke-miterlimit="10" d="
				M262,18.8C262,18.8,262,18.7,262,18.8c0-0.1-0.1-0.1-0.1-0.1c-2-1.9-5.7-3.4-8.2-2.5c-0.2,0.2-0.2,0.5-0.6,0.6l0,0
				c-0.4,0-0.4-0.3-0.6-0.6c-2.6-1-6.4,0.7-8.3,2.6c0,0,0,0,0,0h0v174.9h17.9L262,18.8L262,18.8z"/>
			<g>
				<line fill="none" stroke="#211F1F" stroke-width="0.7087" stroke-miterlimit="10" x1="252.4" y1="16.2" x2="252.4" y2="193.7"/>
				<line fill="none" stroke="#211F1F" stroke-width="0.7087" stroke-miterlimit="10" x1="253.8" y1="16.2" x2="253.8" y2="193.7"/>
			</g>
		</g>
	</g>
	<g>
		<g>
			<g>
				<rect x="11.3" y="59.9" fill="#FFFFFF" width="256.7" height="10.3"/>
				<path fill="#211F1F" d="M268,70.5H11.3c-0.2,0-0.3-0.1-0.3-0.3V59.9c0-0.2,0.1-0.3,0.3-0.3H268c0.2,0,0.3,0.1,0.3,0.3v10.3
					C268.3,70.4,268.1,70.5,268,70.5z M11.6,69.9h256.1v-9.7H11.6V69.9z"/>
			</g>
			<g>
				<rect x="11.3" y="62.1" fill="#211F1F" width="256.7" height="1.5"/>
				<rect x="11.3" y="66.6" fill="#211F1F" width="256.7" height="1.5"/>
			</g>
		</g>
		<g>
			<g>
				<rect x="11.3" y="157.8" fill="#FFFFFF" width="256.7" height="10.3"/>
				<path fill="#211F1F" d="M268,168.4H11.3c-0.2,0-0.3-0.1-0.3-0.3v-10.3c0-0.2,0.1-0.3,0.3-0.3l256.7,0c0.1,0,0.2,0,0.2,0.1
					s0.1,0.1,0.1,0.2v10.3C268.3,168.3,268.1,168.4,268,168.4z M11.6,167.9h256.1v-9.7l-256.1,0V167.9z"/>
			</g>
			<g>
				<rect x="11.3" y="160" fill="#211F1F" width="256.7" height="1.5"/>
				<rect x="11.3" y="164.5" fill="#211F1F" width="256.7" height="1.5"/>
			</g>
		</g>
	</g>
	<g>
		<g>
			<path fill="#FFFFFF" d="M148.9,18.8C148.9,18.8,148.9,18.7,148.9,18.8c0-0.1-0.1-0.1-0.1-0.1c-2-1.9-5.7-3.4-8.2-2.5
				c-0.2,0.2-0.2,0.5-0.6,0.6l0,0c-0.4,0-0.4-0.3-0.6-0.6c-2.6-1-6.4,0.7-8.3,2.6c0,0,0,0,0,0h-1.5v174.9h20.9V18.8H148.9z"/>
			<path fill="#211F1F" d="M150.4,194h-20.9c-0.2,0-0.3-0.1-0.3-0.3V18.8c0-0.2,0.1-0.3,0.3-0.3h1.4c1.5-1.5,4.3-2.9,6.7-2.9
				c0.7,0,1.3,0.1,1.8,0.3c0,0,0.1,0,0.1,0.1c0.1,0.1,0.2,0.2,0.2,0.3c0.1,0.1,0.1,0.2,0.2,0.2c0.1,0,0.1-0.1,0.2-0.2
				c0.1-0.1,0.1-0.2,0.2-0.3c0,0,0.1-0.1,0.1-0.1c0.5-0.2,1.1-0.3,1.8-0.3c2.5,0,5.2,1.5,6.7,2.9l0.1,0.1h1.4c0.2,0,0.3,0.1,0.3,0.3
				v174.9C150.7,193.9,150.6,194,150.4,194z M129.8,193.4h20.3V19.1h-1.2c-0.1,0-0.2,0-0.2-0.1c0,0,0-0.1,0-0.1l0,0
				c-1.4-1.3-3.9-2.7-6.3-2.7c-0.6,0-1.1,0.1-1.5,0.3c0,0-0.1,0.1-0.1,0.1c-0.1,0.2-0.3,0.4-0.7,0.5c0,0,0,0-0.1,0
				c-0.4-0.1-0.6-0.3-0.7-0.5c0-0.1-0.1-0.1-0.1-0.2c-0.5-0.2-1-0.3-1.5-0.3c-2.4,0-5,1.4-6.4,2.8c0,0,0,0,0,0
				c-0.1,0-0.1,0.1-0.2,0.1h-1.2V193.4z"/>
		</g>
		<g>
			<line fill="none" stroke="#211F1F" stroke-width="0.7087" stroke-miterlimit="10" x1="139.3" y1="16.2" x2="139.3" y2="193.7"/>
			<line fill="none" stroke="#211F1F" stroke-width="0.7087" stroke-miterlimit="10" x1="140.7" y1="16.2" x2="140.7" y2="193.7"/>
		</g>
		<g>
			<line fill="none" stroke="#211F1F" stroke-width="0.7087" stroke-miterlimit="10" x1="131" y1="18.8" x2="131" y2="193.7"/>
			<line fill="none" stroke="#211F1F" stroke-width="0.7087" stroke-miterlimit="10" x1="149" y1="18.8" x2="149" y2="193.7"/>
		</g>
	</g>
	<g>
		<g>
			<path fill="#FFFFFF" d="M181.2,18.8C181.2,18.8,181.2,18.7,181.2,18.8c0-0.1-0.1-0.1-0.1-0.1c-2-1.9-5.7-3.4-8.2-2.5
				c-0.2,0.2-0.2,0.5-0.6,0.6l0,0c-0.4,0-0.4-0.3-0.6-0.6c-2.6-1-6.4,0.7-8.3,2.6c0,0,0,0,0,0h-1.5v174.9h20.9V18.8H181.2z"/>
			<path fill="#211F1F" d="M182.8,194h-20.9c-0.2,0-0.3-0.1-0.3-0.3V18.8c0-0.2,0.1-0.3,0.3-0.3h1.4c1.5-1.5,4.3-2.9,6.7-2.9
				c0.7,0,1.3,0.1,1.8,0.3c0,0,0.1,0,0.1,0.1c0.1,0.1,0.2,0.2,0.2,0.3c0.1,0.1,0.1,0.2,0.2,0.2c0.1,0,0.1-0.1,0.2-0.2
				c0.1-0.1,0.1-0.2,0.2-0.3c0,0,0.1-0.1,0.1-0.1c0.5-0.2,1.2-0.3,1.8-0.3c2.5,0,5.2,1.5,6.7,2.9c0,0,0,0,0.1,0.1h1.4
				c0.2,0,0.3,0.1,0.3,0.3v174.9C183.1,193.9,182.9,194,182.8,194z M162.2,193.4h20.3V19.1h-1.2c-0.1,0-0.2,0-0.2-0.1
				c0,0,0-0.1-0.1-0.1l0,0c-1.4-1.3-3.9-2.7-6.3-2.7c-0.6,0-1.1,0.1-1.5,0.3c0,0-0.1,0.1-0.1,0.1c-0.1,0.2-0.3,0.4-0.7,0.5
				c0,0,0,0-0.1,0c-0.4-0.1-0.6-0.3-0.7-0.5c0-0.1-0.1-0.1-0.1-0.2c-0.5-0.2-1-0.3-1.5-0.3c-2.4,0-5,1.4-6.4,2.8l0,0
				c-0.1,0.1-0.1,0.1-0.2,0.1h-1.2V193.4z"/>
		</g>
		<g>
			<line fill="none" stroke="#211F1F" stroke-width="0.7087" stroke-miterlimit="10" x1="171.6" y1="16.2" x2="171.6" y2="193.7"/>
			<line fill="none" stroke="#211F1F" stroke-width="0.7087" stroke-miterlimit="10" x1="173" y1="16.2" x2="173" y2="193.7"/>
		</g>
		<g>
			<line fill="none" stroke="#211F1F" stroke-width="0.7087" stroke-miterlimit="10" x1="163.4" y1="18.8" x2="163.4" y2="193.7"/>
			<line fill="none" stroke="#211F1F" stroke-width="0.7087" stroke-miterlimit="10" x1="181.3" y1="18.8" x2="181.3" y2="193.7"/>
		</g>
	</g>
	<g>
		<g>
			<path fill="#FFFFFF" d="M213.5,18.8C213.6,18.8,213.5,18.7,213.5,18.8c0-0.1-0.1-0.1-0.1-0.1c-2-1.9-5.7-3.4-8.2-2.5
				c-0.2,0.2-0.2,0.5-0.6,0.6l0,0c-0.4,0-0.4-0.3-0.6-0.6c-2.6-1-6.4,0.7-8.3,2.6c0,0,0,0,0,0h-1.5v174.9h20.9V18.8H213.5z"/>
			<path fill="#211F1F" d="M215.1,194h-20.9c-0.2,0-0.3-0.1-0.3-0.3V18.8c0-0.2,0.1-0.3,0.3-0.3h1.4c1.5-1.5,4.3-2.9,6.8-2.9
				c0.7,0,1.3,0.1,1.8,0.3c0,0,0.1,0,0.1,0.1c0.1,0.1,0.2,0.2,0.2,0.3c0.1,0.1,0.1,0.2,0.2,0.2c0.1,0,0.1-0.1,0.2-0.2
				c0.1-0.1,0.1-0.2,0.2-0.3c0,0,0.1-0.1,0.1-0.1c0.5-0.2,1.1-0.3,1.8-0.3c2.5,0,5.2,1.5,6.7,2.9l0.1,0.1c0,0,0,0,0,0h1.4
				c0.2,0,0.3,0.1,0.3,0.3v174.9C215.4,193.9,215.2,194,215.1,194z M194.5,193.4h20.3V19.1h-1.2c-0.1,0-0.2,0-0.2-0.1
				c0,0,0-0.1,0-0.1c0,0,0,0,0,0c-1.4-1.3-3.9-2.7-6.3-2.7c-0.6,0-1.1,0.1-1.5,0.3c0,0-0.1,0.1-0.1,0.1c-0.1,0.2-0.3,0.4-0.7,0.5
				c0,0,0,0-0.1,0c-0.4-0.1-0.6-0.3-0.7-0.5c0-0.1-0.1-0.1-0.1-0.1c-0.5-0.2-1-0.3-1.5-0.3c-2.4,0-5,1.4-6.4,2.8c0,0,0,0,0,0
				c-0.1,0-0.1,0.1-0.2,0.1h-1.2V193.4z"/>
		</g>
		<g>
			<line fill="none" stroke="#211F1F" stroke-width="0.7087" stroke-miterlimit="10" x1="203.9" y1="16.2" x2="203.9" y2="193.7"/>
			<line fill="none" stroke="#211F1F" stroke-width="0.7087" stroke-miterlimit="10" x1="205.4" y1="16.2" x2="205.4" y2="193.7"/>
		</g>
		<g>
			<line fill="none" stroke="#211F1F" stroke-width="0.7087" stroke-miterlimit="10" x1="195.7" y1="18.8" x2="195.7" y2="193.7"/>
			<line fill="none" stroke="#211F1F" stroke-width="0.7087" stroke-miterlimit="10" x1="213.6" y1="18.8" x2="213.6" y2="193.7"/>
		</g>
	</g>
	<g>
		<g>
			<path fill="#FFFFFF" d="M245.9,18.8C245.9,18.8,245.9,18.7,245.9,18.8c0-0.1-0.1-0.1-0.1-0.1c-2-1.9-5.7-3.4-8.2-2.5
				c-0.2,0.2-0.2,0.5-0.6,0.6l0,0c-0.4,0-0.4-0.3-0.6-0.6c-2.6-1-6.4,0.7-8.3,2.6c0,0,0,0,0,0h-1.5v174.9h20.9V18.8H245.9z"/>
			<path fill="#211F1F" d="M247.4,194h-20.9c-0.2,0-0.3-0.1-0.3-0.3V18.8c0-0.2,0.1-0.3,0.3-0.3h1.4c1.5-1.5,4.3-2.9,6.8-2.9
				c0.7,0,1.3,0.1,1.8,0.3c0,0,0.1,0,0.1,0.1c0.1,0.1,0.2,0.2,0.2,0.3c0.1,0.1,0.1,0.2,0.2,0.2c0.1,0,0.1-0.1,0.2-0.2
				c0.1-0.1,0.1-0.2,0.2-0.3c0,0,0.1-0.1,0.1-0.1c0.5-0.2,1.1-0.3,1.8-0.3c2.5,0,5.2,1.5,6.7,2.9l0.1,0.1h1.4c0.2,0,0.3,0.1,0.3,0.3
				v174.9C247.7,193.9,247.6,194,247.4,194z M226.8,193.4h20.3V19.1h-1.2c-0.1,0-0.2,0-0.2-0.1c0,0,0-0.1,0-0.1l0,0
				c-1.4-1.3-3.9-2.7-6.3-2.7c-0.6,0-1.1,0.1-1.5,0.3c0,0-0.1,0.1-0.1,0.1c-0.1,0.2-0.3,0.4-0.7,0.5c0,0,0,0-0.1,0
				c-0.4-0.1-0.6-0.3-0.7-0.5c0-0.1-0.1-0.1-0.1-0.2c-0.5-0.2-1-0.3-1.5-0.3c-2.4,0-5,1.4-6.4,2.8c0,0,0,0,0,0
				c-0.1,0-0.1,0.1-0.2,0.1h-1.2V193.4z"/>
		</g>
		<g>
			<line fill="none" stroke="#211F1F" stroke-width="0.7087" stroke-miterlimit="10" x1="236.2" y1="16.2" x2="236.2" y2="193.7"/>
			<line fill="none" stroke="#211F1F" stroke-width="0.7087" stroke-miterlimit="10" x1="237.7" y1="16.2" x2="237.7" y2="193.7"/>
		</g>
		<g>
			<line fill="none" stroke="#211F1F" stroke-width="0.7087" stroke-miterlimit="10" x1="228" y1="18.8" x2="228" y2="193.7"/>
			<line fill="none" stroke="#211F1F" stroke-width="0.7087" stroke-miterlimit="10" x1="245.9" y1="18.8" x2="245.9" y2="193.7"/>
		</g>
	</g>
	<g>
		<g>
			<path fill="#FFFFFF" d="M278.2,18.8C278.2,18.8,278.2,18.7,278.2,18.8c0-0.1-0.1-0.1-0.1-0.1c-2-1.9-5.7-3.4-8.2-2.5
				c-0.2,0.2-0.2,0.5-0.6,0.6l0,0c-0.4,0-0.4-0.3-0.6-0.6c-2.6-1-6.4,0.7-8.3,2.6c0,0,0,0,0,0h-1.5v174.9h20.9V18.8H278.2z"/>
			<path fill="#211F1F" d="M279.7,194h-20.9c-0.2,0-0.3-0.1-0.3-0.3V18.8c0-0.2,0.1-0.3,0.3-0.3h1.4c1.5-1.5,4.3-2.9,6.8-2.9
				c0.7,0,1.3,0.1,1.8,0.3c0,0,0.1,0,0.1,0.1c0.1,0.1,0.2,0.2,0.2,0.3c0.1,0.1,0.1,0.2,0.2,0.2c0.1,0,0.1-0.1,0.2-0.2
				c0.1-0.1,0.1-0.2,0.2-0.3c0,0,0.1-0.1,0.1-0.1c0.5-0.2,1.2-0.3,1.8-0.3c2.5,0,5.2,1.5,6.7,2.9l0.1,0.1h1.4c0.2,0,0.3,0.1,0.3,0.3
				v174.9C280,193.9,279.9,194,279.7,194z M259.1,193.4h20.3V19.1h-1.2c-0.1,0-0.2,0-0.2-0.1c0,0,0-0.1,0-0.1l0,0
				c-1.4-1.3-3.9-2.7-6.3-2.7c-0.6,0-1.1,0.1-1.5,0.3c0,0-0.1,0.1-0.1,0.1c-0.1,0.2-0.3,0.4-0.7,0.5c0,0,0,0-0.1,0
				c-0.4-0.1-0.6-0.3-0.7-0.5c0-0.1-0.1-0.1-0.1-0.1c-0.5-0.2-1-0.3-1.5-0.3c-2.4,0-5,1.4-6.4,2.8c0,0-0.1,0.1-0.1,0.1
				c0,0-0.1,0-0.1,0h-1.2V193.4z"/>
		</g>
		<g>
			<line fill="none" stroke="#211F1F" stroke-width="0.7087" stroke-miterlimit="10" x1="268.5" y1="16.2" x2="268.5" y2="193.7"/>
			<line fill="none" stroke="#211F1F" stroke-width="0.7087" stroke-miterlimit="10" x1="270" y1="16.2" x2="270" y2="193.7"/>
		</g>
		<g>
			<line fill="none" stroke="#211F1F" stroke-width="0.7087" stroke-miterlimit="10" x1="260.3" y1="18.8" x2="260.3" y2="193.7"/>
			<line fill="none" stroke="#211F1F" stroke-width="0.7087" stroke-miterlimit="10" x1="278.2" y1="18.8" x2="278.2" y2="193.7"/>
		</g>
	</g>
	<g>
		<g>
			<path fill="#FFFFFF" d="M116.6,18.8C116.6,18.8,116.6,18.7,116.6,18.8c0-0.1-0.1-0.1-0.1-0.1c-2-1.9-5.7-3.4-8.2-2.5
				c-0.2,0.2-0.2,0.5-0.6,0.6l0,0c-0.4,0-0.4-0.3-0.6-0.6c-2.6-1-6.4,0.7-8.3,2.6c0,0,0,0,0,0h-1.5v174.9h20.9V18.8H116.6z"/>
			<path fill="#211F1F" d="M118.1,194H97.2c-0.2,0-0.3-0.1-0.3-0.3V18.8c0-0.2,0.1-0.3,0.3-0.3h1.4c1.5-1.5,4.3-2.9,6.7-2.9
				c0.7,0,1.3,0.1,1.8,0.3c0,0,0.1,0,0.1,0.1c0.1,0.1,0.2,0.2,0.2,0.3c0.1,0.1,0.1,0.2,0.2,0.2c0.1,0,0.1-0.1,0.2-0.2
				c0.1-0.1,0.1-0.2,0.2-0.3c0,0,0.1-0.1,0.1-0.1c0.5-0.2,1.1-0.3,1.8-0.3c2.5,0,5.2,1.5,6.7,2.9l0.1,0.1c0,0,0,0,0,0h1.4
				c0.2,0,0.3,0.1,0.3,0.3v174.9C118.4,193.9,118.3,194,118.1,194z M97.5,193.4h20.3V19.1h-1.2c-0.1,0-0.2,0-0.2-0.1
				c0,0,0-0.1-0.1-0.1c0,0,0,0,0,0c-1.4-1.3-3.9-2.7-6.3-2.7c-0.6,0-1.1,0.1-1.5,0.3c0,0-0.1,0.1-0.1,0.1c-0.1,0.2-0.3,0.4-0.7,0.5
				c0,0,0,0-0.1,0c-0.4-0.1-0.6-0.3-0.7-0.5c0-0.1-0.1-0.1-0.1-0.1c-0.5-0.2-1-0.3-1.5-0.3c-2.4,0-5,1.4-6.4,2.8c0,0,0,0,0,0
				c-0.1,0-0.1,0.1-0.2,0.1h-1.2V193.4z"/>
		</g>
		<g>
			<line fill="none" stroke="#211F1F" stroke-width="0.7087" stroke-miterlimit="10" x1="107" y1="16.2" x2="107" y2="193.7"/>
			<line fill="none" stroke="#211F1F" stroke-width="0.7087" stroke-miterlimit="10" x1="108.4" y1="16.2" x2="108.4" y2="193.7"/>
		</g>
		<g>
			<line fill="none" stroke="#211F1F" stroke-width="0.7087" stroke-miterlimit="10" x1="98.7" y1="18.8" x2="98.7" y2="193.7"/>
			<line fill="none" stroke="#211F1F" stroke-width="0.7087" stroke-miterlimit="10" x1="116.6" y1="18.8" x2="116.6" y2="193.7"/>
		</g>
	</g>
	<g>
		<g>
			<path fill="#FFFFFF" d="M84.3,18.8C84.3,18.8,84.3,18.7,84.3,18.8c0-0.1-0.1-0.1-0.1-0.1c-2-1.9-5.7-3.4-8.2-2.5
				c-0.2,0.2-0.2,0.5-0.6,0.6l0,0c-0.4,0-0.4-0.3-0.6-0.6c-2.6-1-6.4,0.7-8.3,2.6c0,0,0,0,0,0h-1.5v174.9h20.9V18.8H84.3z"/>
			<path fill="#211F1F" d="M85.8,194H64.9c-0.2,0-0.3-0.1-0.3-0.3V18.8c0-0.2,0.1-0.3,0.3-0.3h1.4c1.5-1.5,4.3-2.9,6.8-2.9
				c0.7,0,1.3,0.1,1.8,0.3c0,0,0.1,0,0.1,0.1c0.1,0.1,0.2,0.2,0.2,0.3c0.1,0.1,0.1,0.2,0.2,0.2c0.1,0,0.1-0.1,0.2-0.2
				c0.1-0.1,0.1-0.2,0.2-0.3c0,0,0.1-0.1,0.1-0.1c0.5-0.2,1.2-0.3,1.8-0.3c2.5,0,5.2,1.5,6.7,2.9c0,0,0,0,0.1,0.1h1.4
				c0.2,0,0.3,0.1,0.3,0.3v174.9C86.1,193.9,86,194,85.8,194z M65.2,193.4h20.3V19.1h-1.2c-0.1,0-0.2,0-0.2-0.1c0,0,0-0.1-0.1-0.1
				l0,0c-1.4-1.3-3.9-2.7-6.3-2.7c-0.6,0-1.1,0.1-1.5,0.3c0,0-0.1,0.1-0.1,0.1C76,16.7,75.8,17,75.4,17c0,0,0,0-0.1,0
				c-0.4-0.1-0.6-0.3-0.7-0.5c0-0.1-0.1-0.1-0.1-0.1c-0.5-0.2-1-0.3-1.5-0.3c-2.4,0-5,1.4-6.4,2.8c-0.1,0.1-0.1,0.1-0.2,0.1h-1.2
				V193.4z"/>
		</g>
		<g>
			<line fill="none" stroke="#211F1F" stroke-width="0.7087" stroke-miterlimit="10" x1="74.6" y1="16.2" x2="74.6" y2="193.7"/>
			<line fill="none" stroke="#211F1F" stroke-width="0.7087" stroke-miterlimit="10" x1="76.1" y1="16.2" x2="76.1" y2="193.7"/>
		</g>
		<g>
			<line fill="none" stroke="#211F1F" stroke-width="0.7087" stroke-miterlimit="10" x1="66.4" y1="18.8" x2="66.4" y2="193.7"/>
			<line fill="none" stroke="#211F1F" stroke-width="0.7087" stroke-miterlimit="10" x1="84.3" y1="18.8" x2="84.3" y2="193.7"/>
		</g>
	</g>
	<g>
		<g>
			<path fill="#FFFFFF" d="M52,18.8C52,18.8,52,18.7,52,18.8c0-0.1-0.1-0.1-0.1-0.1c-2-1.9-5.7-3.4-8.2-2.5
				c-0.2,0.2-0.2,0.5-0.6,0.6l0,0c-0.4,0-0.4-0.3-0.6-0.6c-2.6-1-6.4,0.7-8.3,2.6c0,0,0,0,0,0h-1.5v174.9h20.9V18.8H52z"/>
			<path fill="#211F1F" d="M53.5,194H32.6c-0.2,0-0.3-0.1-0.3-0.3V18.8c0-0.2,0.1-0.3,0.3-0.3H34c1.5-1.5,4.3-2.9,6.8-2.9
				c0.7,0,1.3,0.1,1.8,0.3c0,0,0.1,0,0.1,0.1c0.1,0.1,0.2,0.2,0.2,0.3c0.1,0.1,0.1,0.2,0.2,0.2c0.1,0,0.1-0.1,0.2-0.2
				c0.1-0.1,0.1-0.2,0.2-0.3c0,0,0.1-0.1,0.1-0.1c0.5-0.2,1.2-0.3,1.8-0.3c2.5,0,5.2,1.5,6.7,2.9c0,0,0,0,0.1,0.1h1.4
				c0.2,0,0.3,0.1,0.3,0.3v174.9C53.8,193.9,53.7,194,53.5,194z M32.9,193.4h20.3V19.1H52c-0.1,0-0.2,0-0.2-0.1c0,0,0-0.1,0-0.1
				c-1.4-1.3-3.9-2.7-6.3-2.7c-0.6,0-1.1,0.1-1.5,0.3c0,0-0.1,0.1-0.1,0.1c-0.1,0.2-0.3,0.4-0.7,0.5c0,0,0,0-0.1,0
				c-0.4-0.1-0.6-0.3-0.7-0.5c0-0.1-0.1-0.1-0.1-0.1c-0.5-0.2-1-0.3-1.5-0.3c-2.4,0-5,1.4-6.4,2.8c-0.1,0.1-0.1,0.1-0.2,0.1h-1.2
				V193.4z"/>
		</g>
		<g>
			<line fill="none" stroke="#211F1F" stroke-width="0.7087" stroke-miterlimit="10" x1="42.3" y1="16.2" x2="42.3" y2="193.7"/>
			<line fill="none" stroke="#211F1F" stroke-width="0.7087" stroke-miterlimit="10" x1="43.8" y1="16.2" x2="43.8" y2="193.7"/>
		</g>
		<g>
			<line fill="none" stroke="#211F1F" stroke-width="0.7087" stroke-miterlimit="10" x1="34.1" y1="18.8" x2="34.1" y2="193.7"/>
			<line fill="none" stroke="#211F1F" stroke-width="0.7087" stroke-miterlimit="10" x1="52" y1="18.8" x2="52" y2="193.7"/>
		</g>
	</g>
	<g>
		<g>
			<path fill="#FFFFFF" d="M19.7,18.8C19.7,18.8,19.7,18.7,19.7,18.8c0-0.1-0.1-0.1-0.1-0.1c-2-1.9-5.7-3.4-8.2-2.5
				c-0.2,0.2-0.2,0.5-0.6,0.6l0,0c-0.4,0-0.4-0.3-0.6-0.6c-2.6-1-6.4,0.7-8.3,2.6c0,0,0,0,0,0H0.3v174.9h20.9V18.8H19.7z"/>
			<path fill="#211F1F" d="M21.2,194H0.3c-0.2,0-0.3-0.1-0.3-0.3V18.8c0-0.2,0.1-0.3,0.3-0.3h1.4c1.5-1.5,4.3-2.9,6.7-2.9
				c0.7,0,1.3,0.1,1.8,0.3c0,0,0.1,0,0.1,0.1c0.1,0.1,0.2,0.2,0.2,0.3c0.1,0.1,0.1,0.2,0.2,0.2c0.1,0,0.1-0.1,0.2-0.2
				c0.1-0.1,0.1-0.2,0.2-0.3c0,0,0.1-0.1,0.1-0.1c0.5-0.2,1.2-0.3,1.8-0.3c2.5,0,5.2,1.5,6.7,2.9l0.1,0.1h1.4c0.2,0,0.3,0.1,0.3,0.3
				v174.9C21.5,193.9,21.3,194,21.2,194z M0.6,193.4h20.3V19.1h-1.2c-0.1,0-0.2,0-0.2-0.1c0,0,0-0.1,0-0.1l0,0
				c-1.4-1.3-3.9-2.7-6.3-2.7c-0.6,0-1.1,0.1-1.5,0.3c0,0-0.1,0.1-0.1,0.1c-0.1,0.2-0.3,0.4-0.7,0.5c0,0-0.1,0-0.1,0
				c-0.4-0.1-0.6-0.3-0.7-0.5c0-0.1-0.1-0.1-0.1-0.2c-0.5-0.2-1-0.3-1.5-0.3c-2.4,0-5,1.4-6.4,2.8c0,0.1-0.1,0.1-0.1,0.1l-1.3,0
				V193.4z"/>
		</g>
		<g>
			<line fill="none" stroke="#211F1F" stroke-width="0.7087" stroke-miterlimit="10" x1="10" y1="16.2" x2="10" y2="193.7"/>
			<line fill="none" stroke="#211F1F" stroke-width="0.7087" stroke-miterlimit="10" x1="11.5" y1="16.2" x2="11.5" y2="193.7"/>
		</g>
		<g>
			<line fill="none" stroke="#211F1F" stroke-width="0.7087" stroke-miterlimit="10" x1="1.8" y1="18.8" x2="1.8" y2="193.7"/>
			<line fill="none" stroke="#211F1F" stroke-width="0.7087" stroke-miterlimit="10" x1="19.7" y1="18.8" x2="19.7" y2="193.7"/>
		</g>
	</g>
</g>
</svg>
