<?xml version="1.0" encoding="utf-8"?>
<!-- Generator: Adobe Illustrator 16.2.0, SVG Export Plug-In . SVG Version: 6.00 Build 0)  -->
<!DOCTYPE svg PUBLIC "-//W3C//DTD SVG 1.1//EN" "http://www.w3.org/Graphics/SVG/1.1/DTD/svg11.dtd">
<svg version="1.1" id="Layer_1" xmlns="http://www.w3.org/2000/svg" xmlns:xlink="http://www.w3.org/1999/xlink" x="0px" y="0px"
	 width="16px" height="16px" viewBox="0 0 16 16" enable-background="new 0 0 16 16" xml:space="preserve">
<path d="M16,16v-3.2V8.2V3.9L8,0L0,3.9v4.4v4.6V16 M0.7,12.8V6.1H1c0,0,0,0,0,0c0.4-0.4,1.2-0.8,1.7-0.6c0,0.1,0,0.1,0.1,0.1l0,0
	C3,5.7,3,5.6,3,5.6c0.5-0.2,1.3,0.1,1.7,0.5c0,0,0,0,0,0c0,0,0,0,0,0h0.3v6.7H0.7z M5.8,12.8V4h0.3c0,0,0,0,0,0
	c0.4-0.4,1.2-0.8,1.7-0.6c0.1,0.1,0,0.1,0.1,0.1l0,0c0.1,0,0.1-0.1,0.1-0.1c0.5-0.2,1.3,0.1,1.7,0.5c0,0,0,0,0,0c0,0,0,0,0,0h0.3
	v8.8H5.8z M10.9,12.8V6.1h0.3c0,0,0,0,0,0c0.4-0.4,1.2-0.8,1.7-0.6c0.1,0.1,0,0.1,0.1,0.1l0,0c0.1,0,0.1-0.1,0.1-0.1
	c0.5-0.2,1.3,0.1,1.7,0.5c0,0,0,0,0,0c0,0,0,0,0,0h0.3v6.7H10.9z"/>
</svg>
