<?xml version="1.0" encoding="utf-8"?>
<!-- Generator: Adobe Illustrator 16.2.0, SVG Export Plug-In . SVG Version: 6.00 Build 0)  -->
<!DOCTYPE svg PUBLIC "-//W3C//DTD SVG 1.1//EN" "http://www.w3.org/Graphics/SVG/1.1/DTD/svg11.dtd">
<svg version="1.1" id="Layer_1" xmlns="http://www.w3.org/2000/svg" xmlns:xlink="http://www.w3.org/1999/xlink" x="0px" y="0px"
	 width="25px" height="18px" viewBox="0 0 25 18" enable-background="new 0 0 25 18" xml:space="preserve">
<path fill="#0C6C37" d="M1.8,3.6h21.4c1,0,1.8-0.8,1.8-1.8S24.2,0,23.2,0H1.8C0.8,0,0,0.8,0,1.8S0.8,3.6,1.8,3.6z M23.3,7.2H1.8
	C0.8,7.2,0,7.9,0,9s0.9,1.8,1.8,1.8h21.4c1,0,1.8-0.8,1.8-1.8C25.1,7.9,24.2,7.2,23.3,7.2z M23.3,14.4H1.8c-1,0-1.8,0.8-1.8,1.8
	c0,1,0.8,1.8,1.8,1.8h21.4c1,0,1.8-0.8,1.8-1.8C25.1,15.1,24.2,14.4,23.3,14.4z"/>
</svg>
