<?xml version="1.0" encoding="utf-8"?>
<!-- Generator: Adobe Illustrator 16.2.0, SVG Export Plug-In . SVG Version: 6.00 Build 0)  -->
<!DOCTYPE svg PUBLIC "-//W3C//DTD SVG 1.1//EN" "http://www.w3.org/Graphics/SVG/1.1/DTD/svg11.dtd">
<svg version="1.1" id="Layer_1" xmlns="http://www.w3.org/2000/svg" xmlns:xlink="http://www.w3.org/1999/xlink" x="0px" y="0px"
	 width="100px" height="100px" viewBox="0 0 100 100" enable-background="new 0 0 100 100" xml:space="preserve">
<g>
	<g>
		<g>
			<polygon fill="#2A2F34" points="49.4,46.2 47.4,42.7 50.1,41.2 52.8,42.7 50.9,46.2 50.1,45.8 			"/>
		</g>
		<g>
			<path fill="#2A2F34" d="M89.5,68.3l-3.3-1.8l1.9-3.4l3.3,1.8L89.5,68.3z M83.1,64.6l-3.3-1.8l1.9-3.4l3.3,1.8L83.1,64.6z
				 M76.7,60.9l-3.3-1.8l1.9-3.4l3.3,1.8L76.7,60.9z M70.2,57.3l-3.3-1.8l1.9-3.4l3.3,1.8L70.2,57.3z M63.8,53.5l-3.3-1.8l1.9-3.4
				l3.3,1.8L63.8,53.5z M57.3,49.9L54.1,48l1.9-3.4l3.3,1.8L57.3,49.9z"/>
		</g>
		<g>
			<polygon fill="#2A2F34" points="94.8,72.1 94,70.9 92.8,70.1 93.2,69.4 92.8,68.7 94,68 94.8,66.8 99.5,69.4 			"/>
		</g>
		<g>
			<path fill="#2A2F34" d="M55.7,94.6l-2-3.4l3.3-1.9l2,3.4L55.7,94.6z M62.3,90.9l-2-3.4l3.3-1.9l2,3.4L62.3,90.9z M68.8,87.1
				l-2-3.4l3.3-1.9l2,3.4L68.8,87.1z M75.3,83.4l-2-3.4l3.3-1.9l2,3.4L75.3,83.4z M81.8,79.6l-2-3.4l3.3-1.9l2,3.4L81.8,79.6z
				 M88.3,75.9l-2-3.4l3.3-1.9l2,3.4L88.3,75.9z"/>
		</g>
		<g>
			<polygon fill="#2A2F34" points="49.8,98.1 47.1,96.5 49.1,93.1 49.8,93.5 50.6,93.1 52.5,96.5 			"/>
		</g>
		<g>
			<path fill="#2A2F34" d="M43.9,94.7l-3.3-1.8l1.9-3.4l3.3,1.8L43.9,94.7z M37.5,91l-3.3-1.8l1.9-3.4l3.3,1.8L37.5,91z M31,87.3
				l-3.3-1.8l1.9-3.4l3.3,1.8L31,87.3z M24.5,83.6l-3.3-1.8l1.9-3.4l3.3,1.8L24.5,83.6z M18.1,79.9l-3.3-1.8l1.9-3.4l3.3,1.8
				L18.1,79.9z M11.6,76.2l-3.3-1.8l1.9-3.4l3.3,1.8L11.6,76.2z"/>
		</g>
		<g>
			<polygon fill="#2A2F34" points="5.2,72.5 0.5,69.8 5.2,67.1 5.9,68.4 7.1,69.1 6.7,69.8 7.1,70.6 5.9,71.3 			"/>
		</g>
		<g>
			<path fill="#2A2F34" d="M10.4,68.7l-2-3.4l3.3-1.9l2,3.4L10.4,68.7z M16.9,64.9L15,61.5l3.3-1.9l2,3.4L16.9,64.9z M23.4,61.2
				l-2-3.4l3.3-1.9l2,3.4L23.4,61.2z M29.9,57.5l-2-3.4l3.3-1.9l2,3.4L29.9,57.5z M36.4,53.6l-2-3.4l3.3-1.9l2,3.4L36.4,53.6z
				 M42.9,49.9l-2-3.4l3.3-1.9l2,3.4L42.9,49.9z"/>
		</g>
	</g>
	<g>
		<g>
			<polygon fill="#939598" points="50.1,15.1 80.5,32.5 49.9,50.2 19.5,32.8 			"/>
			<path fill="#2A2F34" d="M49.9,52.1c-0.4,0-0.7-0.1-1-0.3L18.5,34.5c-0.6-0.4-1-1-1-1.7c0-0.7,0.4-1.3,1-1.7l30.6-17.7
				c0.6-0.4,1.3-0.4,2,0l30.4,17.4c0.6,0.4,1,1,1,1.7c0,0.8-0.4,1.3-1,1.7L50.9,51.9C50.6,52.1,50.2,52.1,49.9,52.1z M23.4,32.8
				l26.5,15.1l26.7-15.4L50.1,17.4L23.4,32.8z"/>
		</g>
		<g>
			<g>
				<polygon fill="#0D6D38" points="80.4,32.3 80.7,67.7 50.1,85.4 49.7,50 				"/>
			</g>
			<g>
				<g>
					<path fill="#2A2F34" d="M50.3,87.5c-0.4,0-0.7-0.1-1-0.3c-0.6-0.4-1-1-1-1.7L48,50.1c0-0.7,0.4-1.3,1-1.7l30.6-17.7
						c0.6-0.4,1.3-0.4,2,0c0.6,0.4,1,1,1,1.7l0.4,35.3c0,0.7-0.4,1.3-1,1.7L51.2,87.2C51,87.4,50.6,87.5,50.3,87.5z M51.9,51.3
						l0.3,30.8l26.7-15.4l-0.3-30.8L51.9,51.3z"/>
				</g>
			</g>
		</g>
		<g>
			<g>
				<polygon fill="#FFFFFF" points="49.9,50.2 50.3,85.5 19.7,68.2 19.5,32.8 				"/>
			</g>
			<g>
				<g>
					<path fill="#2A2F34" d="M50.3,87.5L50.3,87.5c-0.4,0-0.7-0.1-1-0.3L18.8,69.8c-0.6-0.4-1-1-1-1.7l-0.4-35.4
						c0-0.7,0.4-1.3,1-1.7c0.6-0.4,1.3-0.4,2,0l30.4,17.4c0.6,0.4,1,1,1,1.7l0.4,35.1c0,0.1,0,0.2,0,0.3
						C52.2,86.7,51.3,87.5,50.3,87.5z M21.8,67l26.5,15.1L48,51.3L21.5,36.2L21.8,67z"/>
				</g>
			</g>
		</g>
	</g>
	<g>
		<g>
			<polygon fill="#939598" points="50.1,2.5 66.2,11.6 50,21 34,11.8 			"/>
			<path fill="#2A2F34" d="M50,22.9c-0.4,0-0.7-0.1-1-0.3L33,13.5c-0.6-0.4-1-1-1-1.7c0-0.7,0.4-1.3,1-1.7l16.2-9.3
				c0.6-0.4,1.3-0.4,2,0L67.2,10c0.6,0.4,1,1,1,1.7c0,0.7-0.4,1.3-1,1.7l-16.2,9.3C50.7,22.9,50.4,22.9,50,22.9z M37.9,11.8L50,18.7
				l12.2-7.1L50.1,4.7L37.9,11.8z"/>
		</g>
		<g>
			<g>
				<polygon fill="#0D6D38" points="66,11.5 66.2,30.1 50,39.5 49.8,20.8 				"/>
			</g>
			<g>
				<g>
					<path fill="#2A2F34" d="M50.2,41.6c-0.4,0-0.7-0.1-1-0.3c-0.6-0.4-1-1-1-1.7l-0.2-18.7c0-0.7,0.4-1.3,1-1.7l16.2-9.3
						c0.6-0.4,1.3-0.4,2,0c0.6,0.4,1,1,1,1.7l0.2,18.7c0,0.7-0.4,1.3-1,1.7l-16.2,9.3C50.9,41.5,50.6,41.6,50.2,41.6z M52,22.1
						l0.1,14.1l12.3-7.1l-0.1-14.1L52,22.1z"/>
				</g>
			</g>
		</g>
		<g>
			<g>
				<polygon fill="#FFFFFF" points="50,21 50.2,39.7 34.2,30.5 34,11.8 				"/>
			</g>
			<g>
				<g>
					<path fill="#2A2F34" d="M50.2,41.6L50.2,41.6c-0.4,0-0.7-0.1-1-0.3l-16.1-9.1c-0.6-0.4-1-1-1-1.7L32,11.8c0-0.7,0.4-1.3,1-1.7
						c0.6-0.4,1.3-0.4,2,0l16.1,9.2c0.6,0.4,1,1,1,1.7l0.2,18.4c0,0.1,0,0.2,0,0.3C52.2,40.7,51.3,41.6,50.2,41.6z M36.1,29.3
						l12.1,6.9l-0.1-14.1L36,15.2L36.1,29.3z"/>
				</g>
			</g>
		</g>
	</g>
</g>
</svg>
