<?xml version="1.0" encoding="utf-8"?>
<!-- Generator: Adobe Illustrator 16.2.0, SVG Export Plug-In . SVG Version: 6.00 Build 0)  -->
<!DOCTYPE svg PUBLIC "-//W3C//DTD SVG 1.1//EN" "http://www.w3.org/Graphics/SVG/1.1/DTD/svg11.dtd">
<svg version="1.1" id="Layer_1" xmlns="http://www.w3.org/2000/svg" xmlns:xlink="http://www.w3.org/1999/xlink" x="0px" y="0px"
	 width="100px" height="100px" viewBox="0 0 100 100" enable-background="new 0 0 100 100" xml:space="preserve">
<g>
	<g>
		<path fill="#2A2F34" d="M57.7,99H40.8l-1-12.7c-3.5-1-6.9-2.5-10-4.4l-9.3,7.9L8.5,77.9l8.2-9.7c-1.8-3.1-3.1-6.6-3.9-10.2
			l-12.3-1V40.2l12.7-1c1-3.5,2.5-6.9,4.4-10l-7.9-9.3L21.6,7.9l9.7,8.2c3.1-1.8,6.6-3.1,10.2-3.9l1-12.2h16.9l1,12.6
			c3.5,1,6.9,2.5,10,4.4l9.3-7.9L91.6,21l-8.2,9.7c1.8,3.1,3.1,6.6,3.9,10.2l12.2,1v16.9l-12.7,1c-1,3.5-2.5,6.9-4.4,10l7.9,9.3
			L78.4,91.1l-9.7-8.2c-3.1,1.8-6.6,3.1-10.2,3.9L57.7,99z M44.3,95.2h9.8l1-11.6l1.4-0.3c4.1-0.8,8-2.3,11.5-4.5l1.1-0.8l9.1,7.7
			l7-7l-7.5-8.9l0.9-1.2c2.4-3.4,4-7.2,5-11.2l0.3-1.3l11.9-1v-9.8l-11.5-1L83.9,43c-0.8-4.1-2.3-8-4.5-11.5l-0.8-1.1l7.7-9.1l-7-7
			l-8.9,7.5L69.3,21c-3.4-2.3-7.2-4-11.2-5l-1.3-0.3l-1-11.9H46l-1,11.5l-1.4,0.3c-4.1,0.8-8,2.3-11.5,4.5l-1.1,0.8l-9.1-7.7l-7.1,7
			l7.5,8.9l-0.9,1.2c-2.4,3.4-4,7.2-5,11.2l-0.3,1.3l-11.9,1v9.8l11.5,1l0.3,1.4c0.8,4.1,2.3,8,4.5,11.5l0.8,1.1l-7.7,9.1l7,7
			l8.9-7.5l1.2,0.9c3.4,2.4,7.2,4,11.2,5l1.3,0.3L44.3,95.2z"/>
	</g>
	<g>
		<g>
			<path fill="#2A2F34" d="M50,79.3c-16.5,0-29.8-13.3-29.8-29.8h4.7c0,13.9,11.3,25.2,25.2,25.2c13.8,0,25.2-11.3,25.2-25.2h4.7
				C79.9,65.9,66.5,79.3,50,79.3z"/>
		</g>
		<g>
			<g>
				<path fill="#2A2F34" d="M24.9,49.5h-4.7c0-0.9,0-1.7,0.1-2.6l4.7,0.4C24.9,48,24.9,48.7,24.9,49.5z"/>
			</g>
			<g>
				<path fill="#939598" d="M25.8,43l-4.5-1.2c0.5-1.7,1-3.3,1.8-4.9l4.2,2C26.6,40.2,26.1,41.5,25.8,43z M74.3,43
					c-0.4-1.4-0.9-2.8-1.5-4.1l4.2-2c0.8,1.6,1.3,3.2,1.8,4.9L74.3,43z M29.4,35.1l-3.8-2.7c1-1.4,2.1-2.8,3.3-4l3.3,3.3
					C31.2,32.7,30.2,33.8,29.4,35.1z M70.6,35c-0.9-1.2-1.8-2.3-2.9-3.3l3.3-3.3c1.2,1.2,2.4,2.6,3.3,4L70.6,35z M35.6,28.9
					l-2.7-3.8c1.4-1,3-1.9,4.5-2.6l2,4.2C38,27.3,36.8,28,35.6,28.9z M64.4,28.8c-1.2-0.9-2.5-1.6-3.8-2.2l2-4.2
					c1.5,0.8,3,1.6,4.5,2.6L64.4,28.8z M43.5,25.2l-1.2-4.5c1.7-0.5,3.4-0.8,5.1-1l0.4,4.7C46.3,24.5,44.9,24.8,43.5,25.2z
					 M56.5,25.2c-1.4-0.4-2.9-0.7-4.3-0.8l0.4-4.7c1.7,0.2,3.4,0.5,5.1,0.9L56.5,25.2z"/>
			</g>
			<g>
				<path fill="#2A2F34" d="M79.9,49.5h-4.7c0-0.7,0-1.4-0.1-2.1l4.7-0.4C79.9,47.7,79.9,48.6,79.9,49.5z"/>
			</g>
		</g>
	</g>
	<g>
		<path fill="#0D6D38" d="M50,27.3c-12.2,0-22.2,9.9-22.2,22.2c0,12.3,10,22.1,22.2,22.1c12.2,0,22.2-9.9,22.2-22.2
			C72.2,37.2,62.2,27.3,50,27.3z M39.3,61.6v-20h-0.1l-4.4,2.3L34,40.4l5.9-3h3.8v24.2L39.3,61.6z M57.3,62c-5.6,0-8.6-5-8.6-12.4
			c0-7.5,3.1-12.6,8.9-12.6c5.8,0,8.6,5.2,8.6,12.3C66.2,57.1,63.1,61.9,57.3,62z"/>
		<path fill="#0D6D38" d="M57.5,40.5c-2.5,0-4.2,3-4.1,9.1c0,5.9,1.6,9,4.1,9c2.7,0,4.1-3.2,4.1-9.1C61.6,43.8,60.1,40.5,57.5,40.5z
			"/>
	</g>
</g>
</svg>
