<?xml version="1.0" encoding="utf-8"?>
<!-- Generator: Adobe Illustrator 16.2.0, SVG Export Plug-In . SVG Version: 6.00 Build 0)  -->
<!DOCTYPE svg PUBLIC "-//W3C//DTD SVG 1.1//EN" "http://www.w3.org/Graphics/SVG/1.1/DTD/svg11.dtd">
<svg version="1.1" id="Layer_1" xmlns="http://www.w3.org/2000/svg" xmlns:xlink="http://www.w3.org/1999/xlink" x="0px" y="0px"
	 width="100px" height="100px" viewBox="0 0 100 100" enable-background="new 0 0 100 100" xml:space="preserve">
<g>
	<g>
		<g>
			<polygon fill="#2A2F34" points="43.9,63.9 26.9,63.9 26.9,53.4 30.8,53.4 30.8,59.9 43.9,59.9 			"/>
		</g>
		<g>
			<polygon fill="#2A2F34" points="30.8,42.2 26.9,42.2 26.9,31.6 43.9,31.6 43.9,35.5 30.8,35.5 			"/>
		</g>
	</g>
	<g>
		<g>
			<polygon fill="#2A2F34" points="79.3,63.9 64,63.9 64,59.9 75.4,59.9 75.4,53.4 79.3,53.4 			"/>
		</g>
		<g>
			<polygon fill="#2A2F34" points="79.3,42.2 75.4,42.2 75.4,35.5 64,35.5 64,31.6 79.3,31.6 			"/>
		</g>
	</g>
	<g>
		<rect x="13.6" y="45.8" fill="#2A2F34" width="10" height="3.9"/>
	</g>
	<g>
		<rect x="34.5" y="45.8" fill="#2A2F34" width="9.1" height="3.9"/>
	</g>
	<g>
		<rect x="83.2" y="45.8" fill="#2A2F34" width="6.2" height="3.9"/>
	</g>
	<g>
		<path fill="#2A2F34" d="M7.8,55.5c-4.3,0-7.8-3.4-7.8-7.7C0,43.5,3.5,40,7.7,40c4.3,0,7.7,3.5,7.7,7.7
			C15.6,52.1,12.1,55.5,7.8,55.5z M7.8,44C5.7,44,4,45.7,4,47.8c0,2.1,1.8,3.8,3.8,3.8c2.1,0,3.8-1.8,3.8-3.8
			C11.7,45.7,9.9,44,7.8,44z"/>
	</g>
	<g>
		<path fill="#2A2F34" d="M77,55.5c-4.3,0-7.7-3.5-7.7-7.7c0-4.3,3.5-7.7,7.7-7.7s7.7,3.5,7.7,7.7C84.7,52.1,81.2,55.5,77,55.5z
			 M77,44c-2.2,0-3.8,1.8-3.8,3.8c0,2.1,1.8,3.8,3.8,3.8c2.1,0,3.8-1.8,3.8-3.8C80.8,45.7,79,44,77,44z"/>
	</g>
	<rect x="43.7" y="43" fill="#939598" width="20.6" height="9.6"/>
	<rect x="89.2" y="43" fill="#0D6D38" width="9.6" height="9.6"/>
	
		<rect x="23.1" y="41.9" transform="matrix(-0.7072 -0.707 0.707 -0.7072 15.6375 101.8831)" fill="#0D6D38" width="11.7" height="11.7"/>
	<g>
		<rect x="43.7" y="29.3" fill="#939598" width="20.6" height="9.6"/>
		<rect x="43.7" y="56.6" fill="#939598" width="20.6" height="9.6"/>
	</g>
	<rect x="1.8" y="78.4" fill="#939598" width="98" height="16.2"/>
	<g>
		<rect x="6.7" y="78.4" fill="#2A2F34" width="3.9" height="7.7"/>
	</g>
	<g>
		<rect x="13.5" y="78.4" fill="#2A2F34" width="3.9" height="4.2"/>
	</g>
	<g>
		<rect x="20.4" y="78.4" fill="#2A2F34" width="3.9" height="7.7"/>
	</g>
	<g>
		<rect x="27.3" y="78.4" fill="#2A2F34" width="3.9" height="4.2"/>
	</g>
	<g>
		<rect x="34.1" y="78.4" fill="#2A2F34" width="3.9" height="7.7"/>
	</g>
	<g>
		<rect x="41" y="78.4" fill="#2A2F34" width="3.9" height="4.2"/>
	</g>
	<g>
		<rect x="47.8" y="78.4" fill="#2A2F34" width="3.9" height="7.7"/>
	</g>
	<g>
		<rect x="54.7" y="78.4" fill="#2A2F34" width="3.9" height="4.2"/>
	</g>
	<g>
		<rect x="61.6" y="78.4" fill="#2A2F34" width="3.9" height="7.7"/>
	</g>
	<g>
		<rect x="68.4" y="78.4" fill="#2A2F34" width="3.9" height="4.2"/>
	</g>
	<g>
		<rect x="75.3" y="78.4" fill="#2A2F34" width="3.9" height="7.7"/>
	</g>
	<g>
		<rect x="82.2" y="78.4" fill="#2A2F34" width="3.9" height="4.2"/>
	</g>
	<g>
		<rect x="89" y="78.4" fill="#2A2F34" width="3.9" height="7.7"/>
	</g>
	<g>
		<path fill="#FFFFFF" d="M93.8,15.7h3.3c0.4,0,0.8-0.3,0.8-0.8V9.5c0-0.4-0.3-0.8-0.8-0.8h-3.3V15.7z"/>
		<path fill="#2A2F34" d="M97.3,17.7h-3.3v-3.9h2.2v-3h-2.2V6.8h3.3c1.5,0,2.7,1.2,2.7,2.7v5.4C99.9,16.5,98.7,17.7,97.3,17.7z"/>
	</g>
	<g>
		<polygon fill="#2A2F34" points="14.7,17.7 12.8,17.7 0.8,12.3 12.8,6.8 14.7,6.8 14.7,10.7 13.6,10.7 10.3,12.3 13.6,13.8 
			14.7,13.8 		"/>
	</g>
	<rect x="13.4" y="6.8" fill="#0D6D38" width="70" height="10.9"/>
	<rect x="86.2" y="6.8" fill="#939598" width="7.7" height="10.9"/>
	<g>
		<rect x="82.7" y="6.8" fill="#2A2F34" width="3.9" height="10.9"/>
	</g>
</g>
</svg>
