<?xml version="1.0" encoding="utf-8"?>
<!-- Generator: Adobe Illustrator 16.2.0, SVG Export Plug-In . SVG Version: 6.00 Build 0)  -->
<!DOCTYPE svg PUBLIC "-//W3C//DTD SVG 1.1//EN" "http://www.w3.org/Graphics/SVG/1.1/DTD/svg11.dtd">
<svg version="1.1" id="Layer_1" xmlns="http://www.w3.org/2000/svg" xmlns:xlink="http://www.w3.org/1999/xlink" x="0px" y="0px"
	 width="100px" height="100px" viewBox="0 0 100 100" enable-background="new 0 0 100 100" xml:space="preserve">
<g>
	<g id="XMLID_42_">
		<rect id="XMLID_43_" x="49.3" y="47.9" fill="#2A2F34" width="3.1" height="26.6"/>
	</g>
	<g id="XMLID_40_">
		<path id="XMLID_41_" fill="#2A2F34" d="M26.3,44.4c-1.9,0-3.7-0.7-5-2.1c-1.3-1.3-2.1-3.2-2.1-5h3.1c0,1.1,0.4,2.1,1.2,2.8
			c1.5,1.5,4.2,1.5,5.7,0c0.7-0.7,1.2-1.8,1.2-2.8c0-1-0.4-2.1-1.2-2.8c-0.4-0.4-2-0.9-3.2-1.2C1.1,27.2,4.3,7.8,4.4,7.7l0.2-1.3
			h16.8v3.1H7.3c-0.2,4,0.8,16.2,19.4,20.6c0.6,0.1,3.4,0.7,4.7,2.1c1.3,1.3,2.1,3.2,2.1,5c0,1.9-0.7,3.7-2.1,5
			C30,43.6,28.2,44.4,26.3,44.4z"/>
	</g>
	<g id="XMLID_38_">
		<path id="XMLID_39_" fill="#2A2F34" d="M74.9,44.4c-1.9,0-3.7-0.7-5-2.1c-1.3-1.3-2.1-3.2-2.1-5c0-1.9,0.7-3.6,2.1-5
			c1.3-1.3,4.1-2,4.8-2.1c18.6-4.5,19.5-16.6,19.3-20.6H79.8V6.4h16.8l0.2,1.3c0,0.2,3.2,19.6-21.6,25.5c-1.2,0.3-2.8,0.8-3.2,1.2
			c-0.7,0.7-1.2,1.8-1.2,2.8c0,1.1,0.4,2.1,1.2,2.8c1.5,1.5,4.2,1.5,5.7,0c0.7-0.7,1.2-1.8,1.2-2.8h3.1c0,1.9-0.7,3.7-2.1,5
			C78.6,43.6,76.8,44.4,74.9,44.4z"/>
	</g>
	<path id="XMLID_37_" fill="#939598" d="M20,0h61.6c0,36.9-30.7,59.9-30.7,59.9S20,36.7,20,0z"/>
	<g id="XMLID_35_">
		<path id="XMLID_36_" fill="#FFFFFF" d="M62.6,37.4l-2.3-2.1c6.6-7.7,10.8-16.3,12.6-26l3.1,0.6C74,20.2,69.7,29.4,62.6,37.4z"/>
	</g>
	<g id="XMLID_33_">
		<path id="XMLID_34_" fill="#2A2F34" d="M64.4,77.5h-3.1c0-0.8-0.7-1.5-1.5-1.5H41.7c-0.8,0-1.5,0.7-1.5,1.5h-3.1
			c0-2.5,2.1-4.6,4.6-4.6h18.1C62.4,73,64.4,75,64.4,77.5z"/>
	</g>
	<rect id="XMLID_32_" x="31.1" y="77" fill="#0D6D38" width="39.4" height="19.9"/>
	<rect id="XMLID_31_" x="26.8" y="93.7" fill="#E7E7E7" width="48" height="4.8"/>
	<g id="XMLID_27_">
		<path id="XMLID_28_" fill="#2A2F34" d="M76.4,100H25.3v-7.8h51.1V100z M28.4,96.9h44.8v-1.7H28.4V96.9z"/>
	</g>
	<rect id="XMLID_26_" x="40.2" y="80.4" fill="#FFFFFF" width="21.2" height="9.6"/>
	<g id="XMLID_24_">
		<rect id="XMLID_25_" x="47.6" y="61.6" fill="#2A2F34" width="6.4" height="3.1"/>
	</g>
	<g id="XMLID_22_">
		<rect id="XMLID_23_" x="45.8" y="65.5" fill="#2A2F34" width="10" height="3.1"/>
	</g>
	<g id="XMLID_8_">
		<rect id="XMLID_9_" x="45.7" y="83.7" fill="#2A2F34" width="10" height="3.1"/>
	</g>
	<path id="XMLID_2_" fill="#0D6D38" d="M20,0c0,35.6,28.9,58.4,30.8,59.9V0H20z"/>
</g>
</svg>
