<?xml version="1.0" encoding="utf-8"?>
<!-- Generator: Adobe Illustrator 16.2.0, SVG Export Plug-In . SVG Version: 6.00 Build 0)  -->
<!DOCTYPE svg PUBLIC "-//W3C//DTD SVG 1.1//EN" "http://www.w3.org/Graphics/SVG/1.1/DTD/svg11.dtd">
<svg version="1.1" id="Layer_1" xmlns="http://www.w3.org/2000/svg" xmlns:xlink="http://www.w3.org/1999/xlink" x="0px" y="0px"
	 width="300px" height="112px" viewBox="0 0 300 112" enable-background="new 0 0 300 112" xml:space="preserve">
<g>
	<path fill="#010101" d="M244.4,64.7l18.8-0.1v-2.7L245.4,62l-0.1-26.8l17.8-0.1v-2.7l-18.8,0.1c1.1-4.9,2.1-9.8,3.2-14.7l6.1-15.6
		L253.4,2l-9.5,5.8L234.3,2l-0.2,0.3l6.3,15.5c1.1,4.9,2.2,9.8,3.3,14.7l-104,0.3l0,0c-5.6,0-10.7,0.4-15,1.2c-0.1,0-0.3,0-0.6,0.2
		c-1.2,0.6-1.8,1.6-2.4,2.6c-0.7,1.3-1.2,1.8-2.2,1.9c-1.2-0.1-1.6-0.7-2.3-1.9l-0.2-0.3c-0.5-0.8-1.2-1.7-2.2-2.3l-0.1-0.1l0,0
		c-0.1,0-0.2-0.1-0.3-0.1c-4.3-0.8-9.1-1.2-14.4-1.2c-10.6,0-23.1,1.5-34.9,4.3c-17,4-29.8,9.7-32.5,14.5c-0.7,1.2-1.7,4.1-2.1,5.6
		c-0.2,0.1-0.5,0.3-0.5,0.4h-0.1c-1.3,0.4-3.5,0.5-6.7,0.5c-2.2,0-6.1-0.1-11.9-0.5c-0.2,0-0.4,0-0.5,0c-2.9,0-5.1,1.4-5.3,3.3H5.2
		v49.5h2.7V95.2c4.8,1.1,9.7,2,14.5,3.2l15.6,6.2l0.3-0.2l-5-8.3l172.6-0.5l-4.8,8.3l0.3,0.2l15.5-6.3c4.9-1.2,10-2.2,14.9-3.4
		l0.1,15.3h2.7l-0.2-15.4l0.1,0.1l9.7-5.9l9.5,5.8l0.2-0.3l-6.3-15.5C246.4,74,245.4,69.3,244.4,64.7z M242.6,35.2l0.1,26.8h-8.5V60
		h-0.1c-0.1-0.6-0.3-1.3-0.8-1.7c-1-1-2.6-1.5-4.5-1.5c0,0-0.3,0-0.6,0c-1.9,0.2-7.6,0.6-12.6,0.6c-2.8,0-4.7-0.1-6-0.4
		c-0.4-0.2-0.6-0.3-0.7-0.4c-0.5-1.5-1.5-4.5-2.2-5.5c-2.9-4.9-15.4-10.4-32.6-14.3c-2.3-0.5-4.6-1-7-1.5L242.6,35.2z M216.6,90.4
		L201,84.2l-0.3,0.2l4.9,8.2L33.2,93.1l4.9-8.1l-0.3-0.2l-15.5,6.3c-4.8,1.1-9.7,2.1-14.5,3.3L7.7,64.2c0.8,0.3,1.7,0.5,2.7,0.5h8.5
		c0.9,0,1.5-0.7,1.5-1.5c0-0.9-0.7-1.5-1.5-1.5h-8.4c-1.2,0-1.9-0.3-2.3-0.6c0.3-0.2,1-0.6,2.1-0.6c0.7,0.1,7,0.6,12.6,0.6
		c3.5,0,6-0.2,7.4-0.6c0.6-0.1,2.5-1.1,2.7-2.2c0.4-1.4,1.5-4.3,1.9-5.1c4.2-7.1,37.6-17.2,64.9-17.2c5,0,9.7,0.4,13.7,1.1
		c0.4,0.3,0.7,0.8,1,1.3l0.1,0.1c0.8,1.3,1.9,3.1,4.6,3.3h0.1h0.3c2.8-0.2,4-2.2,4.6-3.4c0.3-0.6,0.7-1.2,1-1.4
		c4.3-0.8,9.1-1.2,14.4-1.2c27.1,0,60.3,9.9,64.2,16.9c0.5,0.9,1.6,3.7,2,5.1c0.4,1.3,2.2,2.1,2.7,2.2c1.5,0.4,3.8,0.6,7.1,0.6
		c4.9,0,10.6-0.5,13-0.7c1.3,0,1.9,0.4,2.2,0.6c-0.3,0.2-1,0.6-2.2,0.6h-8.5c-0.9,0-1.5,0.7-1.5,1.5c0,0.9,0.7,1.5,1.5,1.5h8.5l0,0
		v0.7h2.7l0.1,29C226.5,92.5,221.6,91.6,216.6,90.4z M240.3,78.6l-6,15.3l-0.1-29.2h9.2C242.3,69.3,241.3,74,240.3,78.6z"/>
	<g>
		<path fill="#020202" d="M91.3,74.3L91.3,74.3L89,75.6l-0.4-1.4l2.9-1.5H93v13.4h-1.7V74.3z"/>
		<path fill="#020202" d="M98.4,83.9c0.6,0.4,1.6,0.9,3,0.9c2.3,0,3.1-1.5,3-2.6c0-1.8-1.6-2.7-3.5-2.7h-1.1v-1.4h1.1
			c1.4,0,3-0.7,3-2.2c0-1.2-0.7-2-2.3-2c-1.2,0-2.1,0.5-2.7,1l-0.5-1.4c0.8-0.6,2-1.1,3.6-1.1c2.6,0,3.9,1.5,3.9,3.2
			c0,1.4-0.9,2.5-2.4,3.2l0,0c1.6,0.3,3,1.5,3,3.5c0,2.1-1.6,4.1-4.8,4.1c-1.5,0-2.8-0.5-3.5-1L98.4,83.9z"/>
		<path fill="#020202" d="M117.4,79c0,4.5-1.6,7.1-4.6,7.1c-2.6,0-4.4-2.4-4.4-6.9c0-4.4,1.9-7,4.6-7
			C115.9,72.3,117.4,74.8,117.4,79z M110.2,79.3c0,3.5,1.2,5.5,2.7,5.5c1.8,0,2.7-2.1,2.7-5.6c0-3.3-0.9-5.5-2.7-5.5
			C111.2,73.7,110.2,75.7,110.2,79.3z"/>
		<path fill="#020202" d="M122.2,76h2.2l1.8,5c0.3,0.8,0.7,1.9,1,2.7l0,0c0.2-0.8,0.8-2.3,1.2-3.5l1.5-4.4h2.2l0.8,10h-1.7l-0.3-4.7
			c-0.1-1.1-0.2-2.3-0.2-3.6l0,0c-0.3,1-0.6,1.6-1.2,3.3l-1.8,5h-1.4l-1.7-4.9c-0.3-1-0.8-2.4-1.1-3.4h-0.1c0,1.3-0.1,2.5-0.2,3.7
			l-0.2,4.7h-1.6L122.2,76z"/>
		<path fill="#020202" d="M135.4,75.9h2.2l1.8,5c0.3,0.8,0.7,1.9,1,2.7l0,0c0.2-0.8,0.8-2.3,1.2-3.5l1.5-4.4h2.2l0.8,10h-1.7
			l-0.3-4.7c-0.1-1.1-0.2-2.3-0.2-3.6h-0.1c-0.3,1-0.6,1.6-1.2,3.3l-1.8,5h-1.4l-1.7-4.9c-0.3-1-0.8-2.4-1.1-3.4h-0.1
			c0,1.3-0.1,2.5-0.2,3.6l-0.2,4.7h-1.5L135.4,75.9z"/>
	</g>
	<g>
		<path fill="#020202" d="M249.3,54.2v-1.2l1.4-1.4c3.5-3.3,4.9-5,4.9-7c0-1.4-0.7-2.6-2.7-2.6c-1.3,0-2.2,0.7-2.8,1.2l-0.6-1.4
			c1-0.8,2.2-1.4,3.9-1.4c2.9,0,4.1,1.9,4.1,4c0,2.5-1.7,4.4-4.5,7.2l-1.1,1.1l0,0h6.1v1.5H249.3z"/>
		<path fill="#020202" d="M260.3,52c0.6,0.4,1.6,0.9,3,0.9c2.3,0,3.1-1.5,3-2.6c0-1.8-1.6-2.7-3.5-2.7h-1.1v-1.4h1.1
			c1.4,0,3-0.7,3-2.2c0-1.1-0.7-2-2.3-2c-1.1,0-2.1,0.5-2.7,1l-0.5-1.4c0.7-0.6,2-1.1,3.6-1.1c2.6,0,3.9,1.5,3.9,3.2
			c0,1.4-0.9,2.5-2.4,3.2l0,0c1.6,0.3,3,1.5,3,3.5c0,2.1-1.6,4.1-4.8,4.1c-1.5,0-2.8-0.5-3.5-1L260.3,52z"/>
		<path fill="#020202" d="M271.1,44.1h2.2l1.8,5c0.3,0.8,0.7,1.9,1,2.7l0,0c0.2-0.8,0.8-2.3,1.2-3.5l1.5-4.4h2.2l0.8,10h-1.7
			l-0.3-4.7c-0.1-1.1-0.2-2.3-0.2-3.6h-0.1c-0.3,1-0.6,1.6-1.2,3.3l-1.8,5h-1.4l-1.7-4.9c-0.3-1-0.8-2.4-1.1-3.4h-0.1
			c0,1.3-0.1,2.5-0.2,3.6l-0.3,4.7h-1.6L271.1,44.1z"/>
		<path fill="#020202" d="M284.4,44.1h2.2l1.8,5c0.3,0.8,0.7,1.9,1,2.7l0,0c0.2-0.8,0.8-2.3,1.3-3.5l1.5-4.4h2.2l0.8,10h-1.7
			l-0.3-4.7c-0.1-1.1-0.2-2.3-0.2-3.6h-0.1c-0.3,1-0.6,1.6-1.2,3.3l-1.8,5h-1.4l-1.7-4.9c-0.3-1-0.8-2.4-1.1-3.4h-0.1
			c0,1.3-0.1,2.5-0.2,3.6l-0.3,4.7h-1.6L284.4,44.1z"/>
	</g>
</g>
</svg>
