<?xml version="1.0" encoding="utf-8"?>
<!-- Generator: Adobe Illustrator 16.2.0, SVG Export Plug-In . SVG Version: 6.00 Build 0)  -->
<!DOCTYPE svg PUBLIC "-//W3C//DTD SVG 1.1//EN" "http://www.w3.org/Graphics/SVG/1.1/DTD/svg11.dtd">
<svg version="1.1" id="Layer_1" xmlns="http://www.w3.org/2000/svg" xmlns:xlink="http://www.w3.org/1999/xlink" x="0px" y="0px"
	 width="280px" height="195px" viewBox="0 0 280 195" enable-background="new 0 0 280 195" xml:space="preserve">
<g>
	<g>
		<g>
			<g>
				<rect x="6.1" y="76" fill="#FFFFFF" width="256.7" height="8.8"/>
				<path fill="#211F1F" d="M6.1,85.1c-0.1,0-0.2,0-0.2-0.1s-0.1-0.1-0.1-0.2V76c0-0.2,0.1-0.3,0.3-0.3h256.7c0.2,0,0.3,0.1,0.3,0.3
					v8.8c0,0.2-0.1,0.3-0.3,0.3L6.1,85.1z M6.4,76.3v8.3l256.1,0v-8.3H6.4z"/>
			</g>
			<g>
				<rect x="6.1" y="77.8" fill="#211F1F" width="256.7" height="1.3"/>
				<rect x="6.1" y="81.7" fill="#211F1F" width="256.7" height="1.3"/>
			</g>
		</g>
		<g>
			<g>
				<rect x="6.1" y="160" fill="#FFFFFF" width="256.7" height="8.8"/>
				<path fill="#211F1F" d="M262.8,169.1H6.1c-0.2,0-0.3-0.1-0.3-0.3V160c0-0.2,0.1-0.3,0.3-0.3l256.7,0c0.1,0,0.2,0,0.2,0.1
					s0.1,0.1,0.1,0.2v8.8C263.1,169,263,169.1,262.8,169.1z M6.4,168.6h256.1v-8.3l-256.1,0V168.6z"/>
			</g>
			<g>
				<rect x="6.1" y="161.9" fill="#211F1F" width="256.7" height="1.3"/>
				<rect x="6.1" y="165.7" fill="#211F1F" width="256.7" height="1.3"/>
			</g>
		</g>
	</g>
	<g>
		<g>
			<path fill="#FFFFFF" d="M121.8,40.4C121.8,40.4,121.8,40.4,121.8,40.4c0-0.1-0.1-0.1-0.1-0.1c-1.7-1.6-5-3-7.3-2.2
				c-0.2,0.2-0.2,0.5-0.6,0.5v0c-0.4,0-0.3-0.3-0.6-0.5c-2.3-0.9-5.7,0.6-7.4,2.3c0,0,0,0,0,0h-1.3v153.3h18.5V40.4H121.8z"/>
			<path fill="#211F1F" d="M123.2,194h-18.5c-0.2,0-0.3-0.1-0.3-0.3V40.4c0-0.2,0.1-0.3,0.3-0.3h1.2c1.3-1.3,3.8-2.6,6-2.6
				c0.6,0,1.1,0.1,1.6,0.3c0,0,0.1,0,0.1,0.1c0.1,0.1,0.2,0.2,0.2,0.3c0.1,0.1,0.1,0.1,0.1,0.1c0.1,0,0.1,0,0.2-0.2
				c0-0.1,0.1-0.2,0.2-0.3c0,0,0.1-0.1,0.1-0.1c0.5-0.2,1-0.3,1.6-0.3c2.3,0,4.7,1.3,5.9,2.5c0,0,0,0,0.1,0.1h1.2
				c0.2,0,0.3,0.1,0.3,0.3v153.3C123.5,193.9,123.3,194,123.2,194z M104.9,193.4h17.9V40.7h-1.1c-0.1,0-0.2,0-0.2-0.1
				c0,0,0-0.1,0-0.1l0,0c-1.2-1.2-3.5-2.4-5.5-2.4c-0.5,0-0.9,0.1-1.3,0.2c0,0-0.1,0.1-0.1,0.1c-0.1,0.2-0.2,0.4-0.6,0.4
				c0,0-0.1,0-0.1,0c-0.4-0.1-0.5-0.3-0.6-0.4c0,0-0.1-0.1-0.1-0.1c-0.4-0.1-0.9-0.2-1.3-0.2c-2.1,0-4.4,1.2-5.6,2.4
				c-0.1,0.1-0.1,0.1-0.2,0.1h-1V193.4z"/>
		</g>
		<g>
			<line fill="none" stroke="#211F1F" stroke-width="0.9921" stroke-miterlimit="10" x1="113.3" y1="38.1" x2="113.3" y2="193.7"/>
			<line fill="none" stroke="#211F1F" stroke-width="0.9921" stroke-miterlimit="10" x1="114.6" y1="38.1" x2="114.6" y2="193.7"/>
		</g>
		<g>
			<line fill="none" stroke="#211F1F" stroke-width="0.9921" stroke-miterlimit="10" x1="106" y1="40.4" x2="106" y2="193.7"/>
			<line fill="none" stroke="#211F1F" stroke-width="0.9921" stroke-miterlimit="10" x1="121.9" y1="40.4" x2="121.9" y2="193.7"/>
		</g>
	</g>
	<g>
		<g>
			<path fill="#FFFFFF" d="M147.9,43C147.9,43,147.9,43,147.9,43c0-0.1-0.1-0.1-0.1-0.1c-1.7-1.6-5-2.9-7.3-2.1
				c-0.2,0.2-0.2,0.4-0.6,0.5v0c-0.4,0-0.3-0.3-0.6-0.5c-2.3-0.8-5.7,0.6-7.4,2.2c0,0,0,0,0,0h-1.3v150.7h18.5V43H147.9z"/>
			<path fill="#211F1F" d="M149.3,194h-18.5c-0.2,0-0.3-0.1-0.3-0.3V43c0-0.2,0.1-0.3,0.3-0.3h1.2c1.3-1.2,3.8-2.5,6-2.5
				c0.6,0,1.1,0.1,1.6,0.3c0,0,0.1,0,0.1,0.1c0.1,0.1,0.2,0.2,0.2,0.3c0.1,0.1,0.1,0.1,0.1,0.1c0.1,0,0.1,0,0.2-0.1
				c0-0.1,0.1-0.2,0.2-0.3c0,0,0.1-0.1,0.1-0.1c0.5-0.2,1-0.3,1.6-0.3c2.3,0,4.7,1.3,5.9,2.4c0,0,0,0,0.1,0h1.2
				c0.2,0,0.3,0.1,0.3,0.3v150.7C149.6,193.9,149.4,194,149.3,194z M131,193.4H149V43.3h-1.1c-0.1,0-0.2,0-0.2-0.1c0,0,0,0,0-0.1
				c0,0,0,0,0,0c-1.2-1.1-3.5-2.3-5.5-2.3c-0.5,0-1,0.1-1.4,0.2c0,0-0.1,0.1-0.1,0.1c-0.1,0.2-0.2,0.4-0.6,0.4c0,0-0.1,0-0.1,0
				c-0.4-0.1-0.5-0.3-0.6-0.4c0,0,0-0.1-0.1-0.1c-0.4-0.1-0.9-0.2-1.3-0.2c-2.1,0-4.4,1.2-5.7,2.4c-0.1,0.1-0.1,0.1-0.2,0.1h-1
				V193.4z"/>
		</g>
		<g>
			<line fill="none" stroke="#211F1F" stroke-width="0.9921" stroke-miterlimit="10" x1="139.4" y1="40.8" x2="139.4" y2="193.7"/>
			<line fill="none" stroke="#211F1F" stroke-width="0.9921" stroke-miterlimit="10" x1="140.6" y1="40.8" x2="140.6" y2="193.7"/>
		</g>
		<g>
			<line fill="none" stroke="#211F1F" stroke-width="0.9921" stroke-miterlimit="10" x1="132.1" y1="43" x2="132.1" y2="193.7"/>
			<line fill="none" stroke="#211F1F" stroke-width="0.9921" stroke-miterlimit="10" x1="147.9" y1="43" x2="147.9" y2="193.7"/>
		</g>
	</g>
	<g>
		<g>
			<path fill="#FFFFFF" d="M174,40.4C174,40.4,174,40.4,174,40.4c0-0.1-0.1-0.1-0.1-0.1c-1.7-1.6-5-3-7.3-2.2
				c-0.2,0.2-0.2,0.5-0.6,0.5v0c-0.4,0-0.3-0.3-0.6-0.5c-2.3-0.9-5.7,0.6-7.4,2.3c0,0,0,0,0,0h-1.3v153.3h18.5V40.4H174z"/>
			<path fill="#211F1F" d="M175.4,194h-18.5c-0.2,0-0.3-0.1-0.3-0.3V40.4c0-0.2,0.1-0.3,0.3-0.3h1.2c1.3-1.3,3.8-2.6,6-2.6
				c0.6,0,1.1,0.1,1.6,0.3c0,0,0.1,0,0.1,0.1c0.1,0.1,0.2,0.2,0.2,0.3c0.1,0.1,0.1,0.1,0.1,0.1c0.1,0,0.1,0,0.2-0.2
				c0-0.1,0.1-0.2,0.2-0.3c0,0,0.1-0.1,0.1-0.1c0.5-0.2,1-0.3,1.6-0.3c2.3,0,4.7,1.3,5.9,2.5c0,0,0,0,0.1,0.1h1.2
				c0.2,0,0.3,0.1,0.3,0.3v153.3C175.6,193.9,175.5,194,175.4,194z M157.1,193.4h17.9V40.7H174c-0.1,0-0.2,0-0.2-0.1
				c0,0,0-0.1,0-0.1l0,0c-1.2-1.2-3.5-2.4-5.5-2.4c-0.5,0-1,0.1-1.3,0.2c0,0-0.1,0.1-0.1,0.1c-0.1,0.2-0.2,0.4-0.6,0.4
				c0,0-0.1,0-0.1,0c-0.4-0.1-0.5-0.3-0.6-0.4c0,0-0.1-0.1-0.1-0.1c-0.4-0.1-0.9-0.2-1.3-0.2c-2.1,0-4.4,1.2-5.7,2.5c0,0,0,0,0,0
				c-0.1,0.1-0.1,0.1-0.2,0.1h-1V193.4z"/>
		</g>
		<g>
			<line fill="none" stroke="#211F1F" stroke-width="0.9921" stroke-miterlimit="10" x1="165.4" y1="38.1" x2="165.4" y2="193.7"/>
			<line fill="none" stroke="#211F1F" stroke-width="0.9921" stroke-miterlimit="10" x1="166.7" y1="38.1" x2="166.7" y2="193.7"/>
		</g>
		<g>
			<line fill="none" stroke="#211F1F" stroke-width="0.9921" stroke-miterlimit="10" x1="158.1" y1="40.4" x2="158.1" y2="193.7"/>
			<line fill="none" stroke="#211F1F" stroke-width="0.9921" stroke-miterlimit="10" x1="174" y1="40.4" x2="174" y2="193.7"/>
		</g>
	</g>
	<g>
		<g>
			<path fill="#FFFFFF" d="M200.1,34.5C200.1,34.5,200.1,34.5,200.1,34.5c0-0.1-0.1-0.1-0.1-0.1c-1.7-1.7-5-3.1-7.3-2.3
				c-0.2,0.2-0.2,0.5-0.6,0.5l0,0c-0.4,0-0.3-0.3-0.6-0.5c-2.3-0.9-5.7,0.6-7.4,2.4c0,0,0,0,0,0h-1.3v159.2h18.5V34.5H200.1z"/>
			<path fill="#211F1F" d="M201.4,194h-18.5c-0.2,0-0.3-0.1-0.3-0.3V34.5c0-0.2,0.1-0.3,0.3-0.3h1.2c1.3-1.3,3.8-2.7,6-2.7
				c0.6,0,1.1,0.1,1.6,0.3c0,0,0.1,0,0.1,0.1c0.1,0.1,0.2,0.2,0.2,0.3c0.1,0.1,0.1,0.1,0.1,0.1c0.1,0,0.1,0,0.2-0.2
				c0-0.1,0.1-0.2,0.2-0.3c0,0,0.1-0.1,0.1-0.1c0.5-0.2,1-0.3,1.6-0.3c2.3,0,4.7,1.4,5.9,2.6l0.1,0.1h1.2c0.2,0,0.3,0.1,0.3,0.3
				v159.2C201.7,193.9,201.6,194,201.4,194z M183.2,193.4h17.9V34.8h-1.1c-0.1,0-0.2,0-0.2-0.1c0,0,0-0.1,0-0.1
				c-1.3-1.2-3.6-2.5-5.6-2.5c-0.5,0-0.9,0.1-1.3,0.2c0,0-0.1,0.1-0.1,0.1c-0.1,0.2-0.2,0.4-0.6,0.4c0,0-0.1,0-0.1,0
				c-0.4,0-0.5-0.3-0.6-0.4c0,0-0.1-0.1-0.1-0.1c-0.4-0.1-0.8-0.2-1.3-0.2c-2.1,0-4.4,1.3-5.6,2.5c-0.1,0.1-0.1,0.1-0.2,0.1h-1
				V193.4z"/>
		</g>
		<g>
			<line fill="none" stroke="#211F1F" stroke-width="0.9921" stroke-miterlimit="10" x1="191.5" y1="32.2" x2="191.5" y2="193.7"/>
			<line fill="none" stroke="#211F1F" stroke-width="0.9921" stroke-miterlimit="10" x1="192.8" y1="32.2" x2="192.8" y2="193.7"/>
		</g>
		<g>
			<line fill="none" stroke="#211F1F" stroke-width="0.9921" stroke-miterlimit="10" x1="184.2" y1="34.5" x2="184.2" y2="193.7"/>
			<line fill="none" stroke="#211F1F" stroke-width="0.9921" stroke-miterlimit="10" x1="200.1" y1="34.5" x2="200.1" y2="193.7"/>
		</g>
	</g>
	<g>
		<g>
			<path fill="#FFFFFF" d="M226.2,28.6C226.2,28.6,226.2,28.6,226.2,28.6c0-0.1-0.1-0.1-0.1-0.1c-1.7-1.8-5-3.3-7.3-2.3
				c-0.2,0.2-0.2,0.5-0.6,0.5v0c-0.4,0-0.3-0.3-0.6-0.5c-2.3-0.9-5.7,0.7-7.4,2.5c0,0,0,0,0,0H209v165.1h18.5V28.6H226.2z"/>
			<path fill="#211F1F" d="M227.5,194H209c-0.2,0-0.3-0.1-0.3-0.3V28.6c0-0.2,0.1-0.3,0.3-0.3h1.2c1.3-1.4,3.8-2.8,6-2.8
				c0.6,0,1.1,0.1,1.6,0.3c0,0,0.1,0,0.1,0.1c0.1,0.1,0.2,0.2,0.2,0.3c0.1,0.1,0.1,0.1,0.1,0.2c0.1,0,0.1,0,0.2-0.2
				c0-0.1,0.1-0.2,0.2-0.3c0,0,0.1-0.1,0.1-0.1c0.5-0.2,1-0.3,1.6-0.3c2.3,0,4.7,1.4,6,2.7l0.1,0.1h1.2c0.2,0,0.3,0.1,0.3,0.3v165.1
				C227.8,193.9,227.7,194,227.5,194z M209.3,193.4h17.9V28.9h-1.1c-0.1,0-0.2,0-0.2-0.1c0,0,0-0.1-0.1-0.1l0,0
				c-1.2-1.3-3.5-2.5-5.5-2.5c-0.5,0-0.9,0.1-1.3,0.2c0,0-0.1,0.1-0.1,0.1c-0.1,0.2-0.2,0.4-0.6,0.5c0,0-0.1,0-0.1,0
				c-0.4-0.1-0.5-0.3-0.6-0.5c0,0-0.1-0.1-0.1-0.1c-0.4-0.2-0.8-0.2-1.3-0.2c-2.1,0-4.4,1.3-5.6,2.6c-0.1,0.1-0.1,0.1-0.2,0.1h-1
				V193.4z"/>
		</g>
		<g>
			<line fill="none" stroke="#211F1F" stroke-width="0.9921" stroke-miterlimit="10" x1="217.6" y1="26.2" x2="217.6" y2="193.7"/>
			<line fill="none" stroke="#211F1F" stroke-width="0.9921" stroke-miterlimit="10" x1="218.9" y1="26.2" x2="218.9" y2="193.7"/>
		</g>
		<g>
			<line fill="none" stroke="#211F1F" stroke-width="0.9921" stroke-miterlimit="10" x1="210.3" y1="28.6" x2="210.3" y2="193.7"/>
			<line fill="none" stroke="#211F1F" stroke-width="0.9921" stroke-miterlimit="10" x1="226.2" y1="28.6" x2="226.2" y2="193.7"/>
		</g>
	</g>
	<g>
		<g>
			<path fill="#FFFFFF" d="M252.3,23.6C252.3,23.5,252.3,23.5,252.3,23.6c0-0.1-0.1-0.1-0.1-0.1c-1.7-1.8-5-3.4-7.3-2.4
				c-0.2,0.2-0.2,0.5-0.6,0.6v0c-0.4,0-0.3-0.3-0.6-0.6c-2.3-1-5.7,0.7-7.4,2.6c0,0,0,0,0,0h-1.3v170.1h18.5V23.6H252.3z"/>
			<path fill="#211F1F" d="M253.6,194h-18.5c-0.2,0-0.3-0.1-0.3-0.3V23.6c0-0.2,0.1-0.3,0.3-0.3h1.2c1.3-1.4,3.8-2.9,6-2.9
				c0.6,0,1.1,0.1,1.6,0.3c0,0,0.1,0,0.1,0.1c0.1,0.1,0.2,0.2,0.2,0.3c0.1,0.1,0.1,0.2,0.1,0.2c0.1,0,0.1-0.1,0.1-0.2
				c0-0.1,0.1-0.2,0.2-0.3c0,0,0.1-0.1,0.1-0.1c0.5-0.2,1-0.3,1.6-0.3c2.3,0,4.7,1.5,6,2.8l0.1,0.1h1.2c0.2,0,0.3,0.1,0.3,0.3v170.1
				C253.9,193.9,253.8,194,253.6,194z M235.4,193.4h17.9V23.9h-1.1c-0.1,0-0.2,0-0.2-0.1c0,0,0-0.1-0.1-0.1c0,0,0,0,0,0
				c-1.2-1.3-3.5-2.6-5.5-2.6c-0.5,0-0.9,0.1-1.3,0.2c0,0-0.1,0.1-0.1,0.1c-0.1,0.2-0.2,0.4-0.6,0.5c0,0-0.1,0-0.1,0
				c-0.4-0.1-0.5-0.3-0.6-0.5c0-0.1-0.1-0.1-0.1-0.1c-0.4-0.2-0.8-0.2-1.3-0.2c-2.1,0-4.4,1.4-5.6,2.7c0,0,0,0,0,0
				c-0.1,0.1-0.1,0.1-0.2,0.1h-1V193.4z"/>
		</g>
		<g>
			<line fill="none" stroke="#211F1F" stroke-width="0.9921" stroke-miterlimit="10" x1="243.7" y1="21" x2="243.7" y2="193.7"/>
			<line fill="none" stroke="#211F1F" stroke-width="0.9921" stroke-miterlimit="10" x1="245" y1="21" x2="245" y2="193.7"/>
		</g>
		<g>
			<line fill="none" stroke="#211F1F" stroke-width="0.9921" stroke-miterlimit="10" x1="236.4" y1="23.5" x2="236.4" y2="193.7"/>
			<line fill="none" stroke="#211F1F" stroke-width="0.9921" stroke-miterlimit="10" x1="252.3" y1="23.5" x2="252.3" y2="193.7"/>
		</g>
	</g>
	<g>
		<g>
			<path fill="#FFFFFF" d="M278.4,16.9C278.4,16.8,278.4,16.8,278.4,16.9c0-0.1-0.1-0.1-0.1-0.1c-1.7-1.9-5-3.5-7.3-2.5
				c-0.2,0.2-0.2,0.5-0.6,0.6v0c-0.4-0.1-0.3-0.3-0.6-0.6c-2.3-1-5.7,0.7-7.4,2.7c0,0,0,0,0,0h-1.3v176.9l18.5,0V16.9H278.4z"/>
			<path fill="#211F1F" d="M261.2,194c-0.1,0-0.2,0-0.2-0.1s-0.1-0.1-0.1-0.2V16.9c0-0.2,0.1-0.3,0.3-0.3h1.2c1.3-1.5,3.8-3,6-3
				c0.6,0,1.2,0.1,1.6,0.3c0,0,0.1,0,0.1,0.1c0.1,0.1,0.2,0.2,0.2,0.3c0.1,0.1,0.1,0.2,0.1,0.2c0,0,0.1-0.1,0.1-0.2
				c0-0.1,0.1-0.2,0.2-0.3c0,0,0.1-0.1,0.1-0.1c0.5-0.2,1-0.3,1.6-0.3c2.3,0,4.7,1.5,6,2.9l0,0.1h1.3c0.2,0,0.3,0.1,0.3,0.3v176.9
				c0,0.2-0.1,0.3-0.3,0.3L261.2,194z M261.5,17.1v176.3l17.9,0V17.1h-1.1c-0.1,0-0.2,0-0.2-0.1c0,0,0-0.1-0.1-0.1c0,0,0,0,0,0
				c-1.2-1.3-3.5-2.7-5.5-2.7c-0.5,0-0.9,0.1-1.3,0.2c0,0-0.1,0.1-0.1,0.1c-0.1,0.2-0.2,0.4-0.6,0.5c0,0-0.1,0-0.1,0
				c-0.4-0.1-0.5-0.3-0.6-0.5c0-0.1-0.1-0.1-0.1-0.1c-0.4-0.2-0.8-0.2-1.3-0.2c-2.1,0-4.4,1.4-5.6,2.8c-0.1,0.1-0.1,0.1-0.2,0.1
				H261.5z"/>
		</g>
		<g>
			<line fill="none" stroke="#211F1F" stroke-width="0.9921" stroke-miterlimit="10" x1="269.8" y1="14.2" x2="269.8" y2="193.7"/>
			<line fill="none" stroke="#211F1F" stroke-width="0.9921" stroke-miterlimit="10" x1="271.1" y1="14.2" x2="271.1" y2="193.7"/>
		</g>
		<g>
			<line fill="none" stroke="#211F1F" stroke-width="0.9921" stroke-miterlimit="10" x1="262.5" y1="16.8" x2="262.5" y2="193.7"/>
			<line fill="none" stroke="#211F1F" stroke-width="0.9921" stroke-miterlimit="10" x1="278.4" y1="16.8" x2="278.4" y2="193.7"/>
		</g>
	</g>
	<g>
		<g>
			<path fill="#FFFFFF" d="M95.7,34.5C95.7,34.5,95.7,34.5,95.7,34.5c0-0.1-0.1-0.1-0.1-0.1c-1.7-1.7-5-3.1-7.3-2.3
				c-0.2,0.2-0.2,0.5-0.6,0.5l0,0c-0.4,0-0.3-0.3-0.6-0.5c-2.3-0.9-5.7,0.6-7.4,2.4c0,0,0,0,0,0h-1.3v159.2h18.5V34.5H95.7z"/>
			<path fill="#211F1F" d="M97.1,194H78.6c-0.2,0-0.3-0.1-0.3-0.3V34.5c0-0.2,0.1-0.3,0.3-0.3h1.2c1.3-1.3,3.8-2.7,6-2.7
				c0.6,0,1.1,0.1,1.6,0.3c0,0,0.1,0,0.1,0.1c0.1,0.1,0.2,0.2,0.2,0.3c0.1,0.1,0.1,0.1,0.1,0.2c0.1,0,0.1,0,0.2-0.2
				c0-0.1,0.1-0.2,0.2-0.3c0,0,0.1-0.1,0.1-0.1c0.5-0.2,1-0.3,1.6-0.3c2.3,0,4.7,1.4,5.9,2.6l0.1,0.1h1.2c0.2,0,0.3,0.1,0.3,0.3
				v159.2C97.4,193.9,97.2,194,97.1,194z M78.9,193.4h17.9V34.8h-1.1c-0.1,0-0.2,0-0.2-0.1c0,0,0-0.1,0-0.1l0,0
				c-1.2-1.2-3.4-2.4-5.5-2.4c-0.5,0-0.9,0.1-1.3,0.2c0,0-0.1,0.1-0.1,0.1c-0.1,0.2-0.2,0.4-0.6,0.4c0,0-0.1,0-0.1,0
				c-0.4,0-0.5-0.3-0.6-0.4c0,0-0.1-0.1-0.1-0.1c-0.4-0.1-0.8-0.2-1.3-0.2c-2.1,0-4.4,1.3-5.6,2.5c-0.1,0.1-0.1,0.1-0.2,0.1h-1
				V193.4z"/>
		</g>
		<g>
			<line fill="none" stroke="#211F1F" stroke-width="0.9921" stroke-miterlimit="10" x1="87.2" y1="32.2" x2="87.2" y2="193.7"/>
			<line fill="none" stroke="#211F1F" stroke-width="0.9921" stroke-miterlimit="10" x1="88.5" y1="32.2" x2="88.5" y2="193.7"/>
		</g>
		<g>
			<line fill="none" stroke="#211F1F" stroke-width="0.9921" stroke-miterlimit="10" x1="79.9" y1="34.5" x2="79.9" y2="193.7"/>
			<line fill="none" stroke="#211F1F" stroke-width="0.9921" stroke-miterlimit="10" x1="95.8" y1="34.5" x2="95.8" y2="193.7"/>
		</g>
	</g>
	<g>
		<g>
			<path fill="#FFFFFF" d="M69.6,28.6C69.6,28.6,69.6,28.6,69.6,28.6c0-0.1-0.1-0.1-0.1-0.1c-1.7-1.8-5-3.3-7.3-2.3
				c-0.2,0.2-0.2,0.5-0.6,0.5v0c-0.4,0-0.3-0.3-0.6-0.5c-2.3-0.9-5.7,0.7-7.4,2.5c0,0,0,0,0,0h-1.3v165.1H71V28.6H69.6z"/>
			<path fill="#211F1F" d="M71,194H52.5c-0.2,0-0.3-0.1-0.3-0.3V28.6c0-0.2,0.1-0.3,0.3-0.3h1.2c1.3-1.4,3.8-2.8,6-2.8
				c0.6,0,1.1,0.1,1.6,0.3c0,0,0.1,0,0.1,0.1c0.1,0.1,0.2,0.2,0.2,0.3c0.1,0.1,0.1,0.1,0.1,0.2c0.1,0,0.1,0,0.2-0.2
				c0-0.1,0.1-0.2,0.2-0.3c0,0,0.1-0.1,0.1-0.1c0.5-0.2,1-0.3,1.6-0.3c2.3,0,4.7,1.4,5.9,2.7l0.1,0.1H71c0.2,0,0.3,0.1,0.3,0.3
				v165.1C71.3,193.9,71.2,194,71,194z M52.8,193.4h17.9V28.9h-1.1c-0.1,0-0.2,0-0.2-0.1c0,0,0-0.1,0-0.1l0,0
				c-1.2-1.3-3.5-2.5-5.5-2.5c-0.5,0-0.9,0.1-1.3,0.2c0,0-0.1,0.1-0.1,0.1c-0.1,0.2-0.2,0.4-0.6,0.5c0,0-0.1,0-0.1,0
				c-0.4-0.1-0.5-0.3-0.6-0.5c0,0-0.1-0.1-0.1-0.1c-0.4-0.2-0.8-0.2-1.3-0.2c-2.1,0-4.4,1.3-5.6,2.6c-0.1,0.1-0.1,0.1-0.2,0.1h-1
				V193.4z"/>
		</g>
		<g>
			<line fill="none" stroke="#211F1F" stroke-width="0.9921" stroke-miterlimit="10" x1="61.1" y1="26.2" x2="61.1" y2="193.7"/>
			<line fill="none" stroke="#211F1F" stroke-width="0.9921" stroke-miterlimit="10" x1="62.4" y1="26.2" x2="62.4" y2="193.7"/>
		</g>
		<g>
			<line fill="none" stroke="#211F1F" stroke-width="0.9921" stroke-miterlimit="10" x1="53.8" y1="28.6" x2="53.8" y2="193.7"/>
			<line fill="none" stroke="#211F1F" stroke-width="0.9921" stroke-miterlimit="10" x1="69.7" y1="28.6" x2="69.7" y2="193.7"/>
		</g>
	</g>
	<g>
		<g>
			<path fill="#FFFFFF" d="M43.5,23.6C43.6,23.5,43.5,23.5,43.5,23.6c0-0.1-0.1-0.1-0.1-0.1c-1.7-1.8-5-3.4-7.3-2.4
				c-0.2,0.2-0.2,0.5-0.6,0.6v0c-0.4,0-0.3-0.3-0.6-0.6c-2.3-1-5.7,0.7-7.4,2.6c0,0,0,0,0,0h-1.3v170.1h18.5V23.6H43.5z"/>
			<path fill="#211F1F" d="M44.9,194H26.4c-0.2,0-0.3-0.1-0.3-0.3V23.6c0-0.2,0.1-0.3,0.3-0.3h1.2c1.3-1.4,3.8-2.9,6-2.9
				c0.6,0,1.1,0.1,1.6,0.3c0,0,0.1,0,0.1,0.1c0.1,0.1,0.2,0.2,0.2,0.3c0.1,0.1,0.1,0.2,0.1,0.2c0.1,0,0.1-0.1,0.1-0.2
				c0-0.1,0.1-0.2,0.2-0.3c0,0,0.1-0.1,0.1-0.1c0.5-0.2,1-0.3,1.6-0.3c2.3,0,4.7,1.5,6,2.8l0,0.1h1.2c0.2,0,0.3,0.1,0.3,0.3v170.1
				C45.2,193.9,45.1,194,44.9,194z M26.7,193.4h17.9V23.9h-1.1c-0.1,0-0.2,0-0.2-0.1c0,0,0-0.1-0.1-0.1c0,0,0,0,0,0
				C42,22.3,39.7,21,37.7,21c-0.5,0-0.9,0.1-1.3,0.2c0,0-0.1,0.1-0.1,0.1c-0.1,0.2-0.2,0.4-0.6,0.5c0,0-0.1,0-0.1,0
				c-0.4-0.1-0.5-0.3-0.6-0.5c0,0-0.1-0.1-0.1-0.1c-0.4-0.2-0.8-0.2-1.3-0.2c-2.1,0-4.4,1.4-5.7,2.8l0,0c-0.1,0.1-0.1,0.1-0.2,0.1
				h-1V193.4z"/>
		</g>
		<g>
			<line fill="none" stroke="#211F1F" stroke-width="0.9921" stroke-miterlimit="10" x1="35" y1="21" x2="35" y2="193.7"/>
			<line fill="none" stroke="#211F1F" stroke-width="0.9921" stroke-miterlimit="10" x1="36.3" y1="21" x2="36.3" y2="193.7"/>
		</g>
		<g>
			<line fill="none" stroke="#211F1F" stroke-width="0.9921" stroke-miterlimit="10" x1="27.7" y1="23.6" x2="27.7" y2="193.7"/>
			<line fill="none" stroke="#211F1F" stroke-width="0.9921" stroke-miterlimit="10" x1="43.6" y1="23.6" x2="43.6" y2="193.7"/>
		</g>
	</g>
	<g>
		<g>
			<path fill="#FFFFFF" d="M17.5,16.9C17.5,16.8,17.5,16.8,17.5,16.9c0-0.1-0.1-0.1-0.1-0.2c-1.7-1.9-5-3.5-7.3-2.5
				c-0.2,0.2-0.2,0.5-0.6,0.6v0c-0.4,0-0.3-0.3-0.6-0.6c-2.3-1-5.7,0.7-7.4,2.7c0,0,0,0,0,0H0.3v176.9h18.5V16.9H17.5z"/>
			<path fill="#211F1F" d="M18.8,194H0.3c-0.2,0-0.3-0.1-0.3-0.3V16.9c0-0.2,0.1-0.3,0.3-0.3h1.2c1.3-1.5,3.8-3,6-3
				c0.6,0,1.1,0.1,1.6,0.3c0,0,0.1,0,0.1,0.1c0.1,0.1,0.2,0.2,0.2,0.3c0.1,0.1,0.1,0.2,0.1,0.2c0.1,0,0.1-0.1,0.1-0.2
				c0-0.1,0.1-0.2,0.2-0.3c0,0,0.1-0.1,0.1-0.1c0.5-0.2,1-0.3,1.6-0.3c2.3,0,4.7,1.5,6,2.9l0,0.1h1.3c0.2,0,0.3,0.1,0.3,0.3v176.9
				C19.1,193.9,19,194,18.8,194z M0.6,193.4h17.9V17.1h-1.1c-0.1,0-0.2,0-0.2-0.1c0,0,0-0.1-0.1-0.1l0,0c-1.2-1.3-3.5-2.7-5.5-2.7
				c-0.5,0-0.9,0.1-1.3,0.2c0,0-0.1,0.1-0.1,0.1c-0.1,0.2-0.2,0.4-0.6,0.5c0,0-0.1,0-0.1,0C9.1,15,9,14.8,8.9,14.6
				c0-0.1-0.1-0.1-0.1-0.1c-0.4-0.2-0.8-0.2-1.3-0.2c-2.1,0-4.4,1.4-5.7,2.8c-0.1,0.1-0.1,0.1-0.2,0.1h-1V193.4z"/>
		</g>
		<g>
			<line fill="none" stroke="#211F1F" stroke-width="0.9921" stroke-miterlimit="10" x1="8.9" y1="14.2" x2="8.9" y2="193.7"/>
			<line fill="none" stroke="#211F1F" stroke-width="0.9921" stroke-miterlimit="10" x1="10.2" y1="14.2" x2="10.2" y2="193.7"/>
		</g>
		<g>
			<line fill="none" stroke="#211F1F" stroke-width="0.9921" stroke-miterlimit="10" x1="1.6" y1="16.8" x2="1.6" y2="193.7"/>
			<line fill="none" stroke="#211F1F" stroke-width="0.9921" stroke-miterlimit="10" x1="17.5" y1="16.8" x2="17.5" y2="193.7"/>
		</g>
	</g>
</g>
</svg>
